# Blender 5.0.1
# www.blender.org
mtllib blade_cyl_barrel.mtl
o Plow_mechanism_2.001
v 0.378346 0.000438 -0.175690
v 0.379711 0.014724 -0.172114
v 0.383467 0.025181 -0.162355
v 0.388609 0.029009 -0.149027
v 0.393758 0.025181 -0.135702
v 0.397535 0.014724 -0.125950
v 0.398928 0.000439 -0.122385
v 0.397563 -0.013847 -0.125961
v 0.393807 -0.024304 -0.135721
v 0.388665 -0.028132 -0.149048
v 0.383516 -0.024304 -0.162373
v 0.379739 -0.013847 -0.172125
v 0.371845 0.017337 -0.173943
v 0.370230 0.000431 -0.178175
v 0.376291 0.029713 -0.162393
v 0.382375 0.034243 -0.146620
v 0.388469 0.029714 -0.130851
v 0.392939 0.017338 -0.119310
v 0.394587 0.000432 -0.115091
v 0.392972 -0.016474 -0.119323
v 0.388527 -0.028850 -0.130873
v 0.382442 -0.033380 -0.146646
v 0.376348 -0.028850 -0.162415
v 0.371878 -0.016475 -0.173956
v 0.366160 0.017331 -0.171748
v 0.364545 0.000425 -0.175980
v 0.370605 0.029707 -0.160198
v 0.376690 0.034237 -0.144425
v 0.382784 0.029707 -0.128656
v 0.387254 0.017331 -0.117115
v 0.388903 0.000425 -0.112895
v 0.387287 -0.016481 -0.117128
v 0.382842 -0.028857 -0.128678
v 0.376757 -0.033387 -0.144451
v 0.370663 -0.028857 -0.160220
v 0.366193 -0.016481 -0.171761
v 0.018902 0.065879 0.048784
v 0.015889 0.074166 0.041064
v -0.016035 0.074166 -0.041008
v -0.019031 0.065879 -0.048735
v 0.392334 0.074592 -0.104524
v 0.395347 0.066304 -0.096803
v 0.357413 0.066304 -0.194322
v 0.360409 0.074591 -0.186595
v 0.016035 -0.074166 0.041008
v 0.019032 -0.065878 0.048735
v -0.018902 -0.065879 -0.048784
v -0.015889 -0.074166 -0.041064
v 0.395476 -0.065453 -0.096853
v 0.392480 -0.073741 -0.104580
v 0.360555 -0.073741 -0.186651
v 0.357543 -0.065454 -0.194372
vn 0.5753 0.7872 -0.2221
vn 0.4337 0.6818 -0.5891
vn 0.5768 -0.7859 -0.2227
vn 0.4351 -0.6805 -0.5896
vn 0.7171 0.6818 0.1447
vn 0.8210 0.3939 0.4132
vn 0.3311 -0.3926 -0.8580
vn 0.2928 0.0006 -0.9562
vn 0.8594 0.0007 0.5113
vn 0.8218 -0.3926 0.4129
vn 0.4337 0.6818 -0.5890
vn 0.3303 0.3939 -0.8577
vn -0.3124 0.5000 -0.8077
vn -0.1809 0.8660 -0.4661
vn -0.1810 0.8660 -0.4661
vn 0.0010 -1.0000 -0.0004
vn -0.1792 -0.8660 -0.4668
vn 0.1810 -0.8660 0.4661
vn 0.3124 -0.5000 0.8077
vn 0.1809 -0.8660 0.4661
vn 0.3602 -0.0000 0.9329
vn 0.3114 0.5000 0.8081
vn 0.1792 0.8660 0.4668
vn -0.0010 1.0000 0.0004
vn -0.3114 -0.5000 -0.8081
vn -0.3602 -0.0000 -0.9329
vn 0.7184 -0.6805 0.1442
vn 0.2544 0.7071 0.6598
vn -0.2558 0.7071 -0.6592
vn 0.2558 -0.7071 0.6592
vn -0.2544 -0.7071 -0.6598
vn -0.9320 -0.0011 0.3625
vn 0.3607 -0.0000 0.9327
vn -0.3607 -0.0000 -0.9327
vn 0.9320 0.0011 -0.3625
vn -0.9320 -0.0010 0.3625
vt 0.782171 0.375121
vt 0.784711 0.373447
vt 0.783222 0.376104
vt 0.775758 0.368661
vt 0.777331 0.366118
vt 0.777748 0.367496
vt 0.780160 0.376302
vt 0.777476 0.377733
vt 0.777824 0.376303
vt 0.780074 0.367501
vt 0.783116 0.367627
vt 0.782099 0.368689
vt 0.775812 0.375103
vt 0.773264 0.373372
vt 0.774683 0.373036
vt 0.783337 0.373096
vt 0.784711 0.370345
vt 0.263195 0.329813
vt 0.262207 0.326977
vt 0.263195 0.326977
vt 0.263195 0.307125
vt 0.262207 0.304289
vt 0.263195 0.304289
vt 0.263195 0.309961
vt 0.262207 0.307125
vt 0.263195 0.312797
vt 0.262207 0.309961
vt 0.263195 0.315633
vt 0.262207 0.312797
vt 0.263195 0.318469
vt 0.262207 0.315633
vt 0.263195 0.321305
vt 0.262207 0.318469
vt 0.263195 0.324141
vt 0.262207 0.321305
vt 0.263195 0.301452
vt 0.262207 0.298616
vt 0.263195 0.298616
vt 0.262207 0.332649
vt 0.262207 0.329813
vt 0.262207 0.324141
vt 0.262207 0.301452
vt 0.774639 0.370684
vt 0.773283 0.370340
vt 0.783265 0.370747
vt 0.774724 0.376154
vt 0.780414 0.366088
vt 0.780583 0.377691
vt 0.774713 0.367699
vt 0.909888 0.933337
vt 0.911787 0.867938
vt 0.911787 0.933340
vt 0.554318 0.841159
vt 0.552419 0.906558
vt 0.552419 0.841156
vt 0.888538 0.933337
vt 0.886639 0.867938
vt 0.888538 0.867935
vt 0.575668 0.841159
vt 0.577567 0.906558
vt 0.575668 0.906560
vt 0.926056 0.867966
vt 0.926056 0.933367
vt 0.333971 0.980764
vt 0.335314 0.958071
vt 0.350927 0.959414
vt 0.909888 0.867935
vt 0.554318 0.906560
vt 0.979670 0.367226
vt 0.978327 0.389919
vt 0.962715 0.388576
vt 0.872369 0.867966
vt 0.886639 0.933340
vt 0.872369 0.933367
vt 0.263195 0.332649
vt 0.577567 0.841156
vt 0.350927 0.980764
vt 0.349584 0.982107
vt 0.335314 0.982107
vt 0.333971 0.959414
vt 0.349584 0.958071
vt 0.962715 0.367226
vt 0.964058 0.365883
vt 0.978327 0.365883
vt 0.979670 0.388576
vt 0.964058 0.389919
s 1
usemtl Excavator
f 4/1/1 15/2/2 16/3/1
f 10/4/3 23/5/4 11/6/4
f 5/7/5 18/8/6 6/9/6
f 12/10/7 14/11/8 1/12/8
f 7/13/9 20/14/10 8/15/10
f 3/16/11 13/17/12 15/2/2
f 13/18/13 27/19/14 15/20/15
f 22/21/16 35/22/17 23/23/17
f 21/24/18 34/25/16 22/21/16
f 20/26/19 33/27/20 21/24/18
f 19/28/21 32/29/19 20/26/19
f 18/30/22 31/31/21 19/28/21
f 17/32/23 30/33/22 18/30/22
f 16/34/24 29/35/23 17/32/23
f 24/36/25 26/37/26 14/38/26
f 13/18/13 26/39/26 25/40/13
f 15/20/15 28/41/24 16/34/24
f 23/23/17 36/42/25 24/36/25
f 9/43/27 20/14/10 21/44/27
f 1/12/8 13/17/12 2/45/12
f 6/9/6 19/46/9 7/13/9
f 11/6/4 24/47/7 12/10/7
f 4/1/1 17/48/5 5/7/5
f 9/43/27 22/49/3 10/4/3
f 37/50/28 41/51/28 38/52/28
f 43/53/29 39/54/29 44/55/29
f 46/56/30 50/57/30 49/58/30
f 52/59/31 48/60/31 47/61/31
f 38/52/24 44/62/24 39/63/24
f 46/64/32 38/65/32 40/66/32
f 46/56/33 42/67/33 37/50/33
f 40/68/34 52/59/34 47/61/34
f 42/69/35 50/70/35 52/71/35
f 51/72/16 45/73/16 48/74/16
f 4/1/1 3/16/11 15/2/2
f 10/4/3 22/49/3 23/5/4
f 5/7/5 17/48/5 18/8/6
f 12/10/7 24/47/7 14/11/8
f 7/13/9 19/46/9 20/14/10
f 3/16/11 2/45/12 13/17/12
f 13/18/13 25/40/13 27/19/14
f 22/21/16 34/25/16 35/22/17
f 21/24/18 33/27/20 34/25/16
f 20/26/19 32/29/19 33/27/20
f 19/28/21 31/31/21 32/29/19
f 18/30/22 30/33/22 31/31/21
f 17/32/23 29/35/23 30/33/22
f 16/34/24 28/41/24 29/35/23
f 24/36/25 36/42/25 26/37/26
f 13/18/13 14/75/26 26/39/26
f 15/20/15 27/19/14 28/41/24
f 23/23/17 35/22/17 36/42/25
f 9/43/27 8/15/10 20/14/10
f 1/12/8 14/11/8 13/17/12
f 6/9/6 18/8/6 19/46/9
f 11/6/4 23/5/4 24/47/7
f 4/1/1 16/3/1 17/48/5
f 9/43/27 21/44/27 22/49/3
f 37/50/28 42/67/28 41/51/28
f 43/53/29 40/68/29 39/54/29
f 46/56/30 45/73/30 50/57/30
f 52/59/31 51/76/31 48/60/31
f 38/52/24 41/51/24 44/62/24
f 40/66/32 47/77/32 48/78/32
f 48/78/32 45/79/36 46/64/32
f 46/64/32 37/80/32 38/65/32
f 38/65/32 39/81/32 40/66/32
f 40/66/32 48/78/32 46/64/32
f 46/56/33 49/58/33 42/67/33
f 40/68/34 43/53/34 52/59/34
f 52/71/35 43/82/35 44/83/35
f 44/83/35 41/84/35 42/69/35
f 42/69/35 49/85/35 50/70/35
f 50/70/35 51/86/35 52/71/35
f 52/71/35 44/83/35 42/69/35
f 51/72/16 50/57/16 45/73/16
