# Blender 5.0.1
# www.blender.org
mtllib blade_cyl_rod.mtl
o Plow_mechanism_1.001
v -0.034746 0.000683 -0.011824
v -0.034673 0.013970 -0.011852
v -0.031148 0.023697 -0.002786
v -0.026385 0.027258 0.009618
v -0.021661 0.023697 0.022037
v -0.018242 0.013970 0.031144
v -0.018314 0.000683 0.031172
v -0.018387 -0.012604 0.031199
v -0.021912 -0.022331 0.022134
v -0.026675 -0.025892 0.009729
v -0.031399 -0.022331 -0.002690
v -0.034818 -0.012604 -0.011796
v -0.026603 -0.012604 0.009701
v -0.026457 0.013970 0.009646
v -0.036729 0.000683 -0.017014
v -0.035285 0.014968 -0.013468
v -0.031494 0.025425 -0.003722
v -0.026374 0.029253 0.009614
v -0.021295 0.025425 0.022966
v -0.017619 0.014968 0.032756
v -0.016331 0.000683 0.036361
v -0.017776 -0.013602 0.032816
v -0.021566 -0.024059 0.023069
v -0.026686 -0.027887 0.009733
v -0.031765 -0.024059 -0.003618
v -0.035441 -0.013602 -0.013408
v 0.011551 0.013732 -0.004880
v 0.008946 0.000512 0.020754
v 0.022228 0.000377 -0.008960
v 0.018594 0.000445 0.013766
v 0.023455 0.000395 0.002890
v 0.009018 0.013799 0.020726
v 0.022300 0.013665 -0.008988
v 0.018666 0.013732 0.013738
v 0.023528 0.013683 0.002862
v 0.022155 -0.012910 -0.008932
v 0.008873 -0.012775 0.020782
v 0.023383 -0.012892 0.002918
v 0.018521 -0.012843 0.013794
v -0.007559 -0.012775 -0.022214
v 0.011406 -0.012843 -0.004824
v 0.004291 -0.012843 -0.023442
v 0.015167 -0.012892 -0.018580
v 0.000657 -0.012775 -0.000716
v -0.007486 0.000512 -0.022242
v 0.015240 0.000395 -0.018608
v 0.004364 0.000445 -0.023470
v 0.000802 0.013799 -0.000772
v -0.007413 0.013799 -0.022270
v 0.015312 0.013683 -0.018636
v 0.004436 0.013732 -0.023497
v -0.256550 0.016354 0.071092
v -0.257994 0.002069 0.067546
v -0.252759 0.026811 0.080838
v -0.247639 0.030639 0.094174
v -0.242560 0.026811 0.107525
v -0.238885 0.016354 0.117315
v -0.237596 0.002069 0.120921
v -0.239041 -0.012216 0.117375
v -0.242831 -0.022673 0.107629
v -0.247951 -0.026501 0.094293
v -0.253030 -0.022673 0.080941
v -0.256706 -0.012216 0.071151
vn -0.3570 -0.0000 -0.9341
vn -0.3064 0.5000 -0.8100
vn -0.1738 0.8660 -0.4689
vn 0.0055 1.0000 -0.0021
vn 0.1832 0.8660 0.4652
vn 0.1832 0.8660 0.4653
vn 0.3119 0.5000 0.8079
vn 0.3570 -0.0000 0.9341
vn 0.3064 -0.5000 0.8100
vn 0.1738 -0.8660 0.4689
vn -0.0055 -1.0000 0.0021
vn -0.1832 -0.8660 -0.4652
vn -0.1832 -0.8660 -0.4653
vn -0.3119 -0.5000 -0.8079
vn 0.9341 -0.0059 -0.3570
vn -0.2320 -0.0008 -0.9727
vn 0.1579 -0.0029 -0.9875
vn 0.6305 -0.0051 -0.7762
vn 0.4759 -0.0008 0.8795
vn 0.7762 -0.0029 0.6305
vn 0.9874 -0.0051 0.1579
vn 0.6304 -0.0051 -0.7762
vt 0.481306 0.932636
vt 0.473737 0.935032
vt 0.473737 0.932636
vt 0.481306 0.935032
vt 0.473737 0.937429
vt 0.481306 0.937429
vt 0.473737 0.939825
vt 0.481306 0.939825
vt 0.473737 0.942221
vt 0.481306 0.942221
vt 0.473737 0.944618
vt 0.481306 0.944618
vt 0.473737 0.947014
vt 0.481306 0.947014
vt 0.473737 0.949411
vt 0.481306 0.949411
vt 0.473737 0.951807
vt 0.481306 0.951807
vt 0.473737 0.954204
vt 0.481306 0.954204
vt 0.473737 0.956600
vt 0.481306 0.956600
vt 0.473737 0.958996
vt 0.481306 0.958996
vt 0.473737 0.961393
vt 0.374784 0.008628
vt 0.377421 0.009036
vt 0.377421 0.011265
vt 0.371739 0.011673
vt 0.372147 0.014310
vt 0.370217 0.013195
vt 0.388626 0.387627
vt 0.391856 0.385762
vt 0.392355 0.387627
vt 0.369102 0.011265
vt 0.374376 0.005991
vt 0.372147 0.005991
vt 0.369988 0.006877
vt 0.372064 0.005678
vt 0.374460 0.005678
vt 0.376307 0.007105
vt 0.376535 0.006877
vt 0.377734 0.008952
vt 0.377734 0.011348
vt 0.376535 0.013424
vt 0.375899 0.012787
vt 0.374376 0.014310
vt 0.374460 0.014622
vt 0.372064 0.014622
vt 0.369988 0.013424
vt 0.368790 0.011348
vt 0.368790 0.008952
vt 0.369102 0.009036
vt 0.370625 0.007513
vt 0.385396 0.385762
vt 0.388626 0.385762
vt 0.203415 0.347197
vt 0.200185 0.349062
vt 0.199686 0.347197
vt 0.206645 0.349062
vt 0.203415 0.349062
vt 0.977233 0.008059
vt 0.975080 0.009989
vt 0.975080 0.008059
vt 0.977233 0.009989
vt 0.975080 0.011919
vt 0.977233 0.011919
vt 0.975080 0.013850
vt 0.975080 0.019641
vt 0.977233 0.017711
vt 0.977233 0.019641
vt 0.975080 0.017711
vt 0.977233 0.015780
vt 0.975080 0.015780
vt 0.977233 0.013850
vt 0.972927 0.019641
vt 0.972927 0.015780
vt 0.972927 0.013850
vt 0.972927 0.009989
vt 0.972927 0.008059
vt 0.972927 0.011919
vt 0.975080 0.024370
vt 0.977233 0.024370
vt 0.203415 0.342468
vt 0.199686 0.342468
vt 0.972927 0.024370
vt 0.207144 0.347197
vt 0.386762 0.384397
vt 0.388626 0.383897
vt 0.201550 0.350427
vt 0.384897 0.392355
vt 0.388626 0.392355
vt 0.975080 0.003330
vt 0.972927 0.003330
vt 0.205279 0.350427
vt 0.203415 0.350927
vt 0.392355 0.392355
vt 0.977233 0.003330
vt 0.390491 0.384397
vt 0.481306 0.961393
vt 0.384897 0.387627
vt 0.972927 0.017711
vt 0.207144 0.342469
s 1
usemtl Excavator
f 53/1/1 16/2/2 15/3/1
f 52/4/2 17/5/3 16/2/2
f 54/6/3 18/7/4 17/5/3
f 55/8/4 19/9/5 18/7/4
f 56/10/6 20/11/7 19/9/5
f 57/12/7 21/13/8 20/11/7
f 58/14/8 22/15/9 21/13/8
f 59/16/9 23/17/10 22/15/9
f 60/18/10 24/19/11 23/17/10
f 61/20/11 25/21/12 24/19/11
f 62/22/13 26/23/14 25/21/12
f 63/24/14 15/25/1 26/23/14
f 14/26/15 5/27/15 6/28/15
f 13/29/15 9/30/15 10/31/15
f 48/32/4 51/33/4 49/34/4
f 11/35/15 13/29/15 10/31/15
f 3/36/15 14/26/15 2/37/15
f 2/37/15 15/38/15 16/39/15
f 3/36/15 16/39/15 17/40/15
f 4/41/15 17/40/15 18/42/15
f 4/41/15 19/43/15 5/27/15
f 6/28/15 19/43/15 20/44/15
f 6/28/15 21/45/15 7/46/15
f 8/47/15 21/45/15 22/48/15
f 8/47/15 23/49/15 9/30/15
f 9/30/15 24/50/15 10/31/15
f 10/31/15 25/51/15 11/35/15
f 11/35/15 26/52/15 12/53/15
f 12/53/15 15/38/15 1/54/15
f 48/32/4 34/55/4 27/56/4
f 44/57/11 39/58/11 37/59/11
f 44/57/11 42/60/11 41/61/11
f 49/62/16 47/63/17 45/64/16
f 51/65/17 46/66/18 47/63/17
f 50/67/18 29/68/15 46/66/18
f 28/69/19 34/70/20 32/71/19
f 30/72/20 35/73/21 34/70/20
f 31/74/21 33/75/15 35/73/21
f 37/76/19 30/72/20 28/69/19
f 30/72/20 38/77/21 31/74/21
f 31/74/21 36/78/15 29/68/15
f 45/64/16 42/79/17 40/80/16
f 47/63/17 43/81/22 42/79/17
f 46/66/18 36/78/15 43/81/22
f 7/82/8 32/71/19 6/83/8
f 13/84/11 37/59/11 8/85/11
f 8/86/8 28/69/19 7/82/8
f 13/84/11 40/87/11 44/57/11
f 27/56/4 35/88/4 33/89/4
f 41/61/11 38/90/11 39/58/11
f 6/91/4 48/32/4 14/92/4
f 1/93/1 40/80/16 12/94/1
f 41/61/11 43/95/11 36/96/11
f 14/92/4 49/34/4 2/97/4
f 2/98/1 45/64/16 1/93/1
f 27/56/4 50/99/4 51/33/4
f 53/1/1 52/4/2 16/2/2
f 52/4/2 54/6/3 17/5/3
f 54/6/3 55/8/4 18/7/4
f 55/8/4 56/10/6 19/9/5
f 56/10/6 57/12/7 20/11/7
f 57/12/7 58/14/8 21/13/8
f 58/14/8 59/16/9 22/15/9
f 59/16/9 60/18/10 23/17/10
f 60/18/10 61/20/11 24/19/11
f 61/20/11 62/22/13 25/21/12
f 62/22/13 63/24/14 26/23/14
f 63/24/14 53/100/1 15/25/1
f 14/26/15 4/41/15 5/27/15
f 13/29/15 8/47/15 9/30/15
f 48/32/4 27/56/4 51/33/4
f 11/35/15 12/53/15 13/29/15
f 3/36/15 4/41/15 14/26/15
f 2/37/15 1/54/15 15/38/15
f 3/36/15 2/37/15 16/39/15
f 4/41/15 3/36/15 17/40/15
f 4/41/15 18/42/15 19/43/15
f 6/28/15 5/27/15 19/43/15
f 6/28/15 20/44/15 21/45/15
f 8/47/15 7/46/15 21/45/15
f 8/47/15 22/48/15 23/49/15
f 9/30/15 23/49/15 24/50/15
f 10/31/15 24/50/15 25/51/15
f 11/35/15 25/51/15 26/52/15
f 12/53/15 26/52/15 15/38/15
f 48/32/4 32/101/4 34/55/4
f 44/57/11 41/61/11 39/58/11
f 44/57/11 40/87/11 42/60/11
f 49/62/16 51/65/17 47/63/17
f 51/65/17 50/67/18 46/66/18
f 50/67/18 33/75/15 29/68/15
f 28/69/19 30/72/20 34/70/20
f 30/72/20 31/74/21 35/73/21
f 31/74/21 29/68/15 33/75/15
f 37/76/19 39/102/20 30/72/20
f 30/72/20 39/102/20 38/77/21
f 31/74/21 38/77/21 36/78/15
f 45/64/16 47/63/17 42/79/17
f 47/63/17 46/66/18 43/81/22
f 46/66/18 29/68/15 36/78/15
f 7/82/8 28/69/19 32/71/19
f 13/84/11 44/57/11 37/59/11
f 8/86/8 37/76/19 28/69/19
f 13/84/11 12/103/11 40/87/11
f 27/56/4 34/55/4 35/88/4
f 41/61/11 36/96/11 38/90/11
f 6/91/4 32/101/4 48/32/4
f 1/93/1 45/64/16 40/80/16
f 41/61/11 42/60/11 43/95/11
f 14/92/4 48/32/4 49/34/4
f 2/98/1 49/62/16 45/64/16
f 27/56/4 33/89/4 50/99/4
