# Blender 5.0.1
# www.blender.org
mtllib blade.mtl
o Plow.001
v 0.826492 -0.739118 -0.011623
v 0.842253 -0.739118 0.017377
v 0.797492 -0.739118 0.004138
v 0.807646 -0.739118 -0.172485
v 0.826492 0.739118 -0.011623
v 0.842253 0.739118 0.017377
v 0.797492 0.739118 0.004138
v 0.765046 -0.739118 -0.172485
v 0.777363 -0.739118 -0.204561
v 0.807646 0.739118 -0.172485
v 0.765047 0.739118 -0.172485
v 0.808727 -0.739118 -0.009748
v 0.798633 -0.739118 -0.209921
v 0.785720 -0.739118 -0.013223
v 0.777364 0.739118 -0.204561
v 0.803979 -0.739118 -0.017567
v 0.846311 -0.739118 -0.005287
v 0.827163 -0.739118 -0.023083
v 0.806581 -0.739118 -0.093447
v 0.764272 -0.739118 -0.088481
v 0.808728 0.739118 -0.009748
v 0.813253 -0.739118 0.033138
v 0.826036 -0.739118 -0.213851
v 0.799366 -0.739118 0.021902
v 0.840378 -0.739118 -0.000387
v 0.798633 0.739118 -0.209921
v 0.831017 -0.739118 0.031263
v 0.783815 -0.739118 -0.172485
v 0.791506 -0.739118 0.024048
v 0.834074 -0.739118 0.038586
v 0.849817 -0.739118 0.019416
v 0.809745 -0.739118 0.041432
v 0.782913 -0.739118 -0.090669
v 0.785721 0.739118 -0.013223
v 0.803980 0.739118 -0.017567
v 0.846312 0.739118 -0.005287
v 0.827163 0.739118 -0.023083
v 0.806581 0.739118 -0.093447
v 0.764273 0.739118 -0.088481
v 0.813253 0.739118 0.033138
v 0.826037 0.739118 -0.213851
v 0.799366 0.739118 0.021902
v 0.840379 0.739118 -0.000387
v 0.831017 0.739118 0.031263
v 0.783816 0.739118 -0.172485
v 0.791507 0.739118 0.024048
v 0.834075 0.739118 0.038586
v 0.849818 0.739118 0.019416
v 0.809745 0.739118 0.041432
v 0.782913 0.739118 -0.090669
v 0.785720 -0.000000 -0.013223
v 0.827163 -0.000000 -0.023083
v 0.849818 -0.000000 0.019416
v 0.765047 -0.000000 -0.172485
v 0.807646 -0.000000 -0.172485
v 0.777363 -0.000000 -0.204561
v 0.826036 -0.000000 -0.213851
v 0.846312 -0.000000 -0.005287
v 0.826492 -0.000000 -0.011623
v 0.840379 -0.000000 -0.000387
v 0.842253 -0.000000 0.017377
v 0.831017 -0.000000 0.031263
v 0.798633 -0.000000 -0.209921
v 0.834074 -0.000000 0.038586
v 0.797492 -0.000000 0.004138
v 0.808728 -0.000000 -0.009748
v 0.764272 -0.000000 -0.088481
v 0.806581 -0.000000 -0.093447
v 0.799366 0.747932 0.021902
v 0.782913 0.747932 -0.090669
v 0.809745 0.747932 0.041432
v 0.826037 0.747932 -0.213851
v 0.777364 0.747932 -0.204561
v 0.798633 0.747932 -0.209921
v 0.764273 0.747932 -0.088481
v 0.807646 0.747932 -0.172485
v 0.806581 0.747932 -0.093447
v 0.765047 0.747932 -0.172485
v 0.783816 0.747932 -0.172485
v 0.827163 0.747932 -0.023083
v 0.846312 0.747932 -0.005287
v 0.849818 0.747932 0.019416
v 0.834075 0.747932 0.038586
v 0.803980 0.747932 -0.017567
v 0.785721 0.747932 -0.013223
v 0.791507 0.747932 0.024048
v 0.797492 0.747932 0.004138
v 0.808728 0.747932 -0.009748
v 0.831017 0.747932 0.031263
v 0.842253 0.747932 0.017377
v 0.840379 0.747932 -0.000387
v 0.826492 0.747932 -0.011623
v 0.813253 0.747932 0.033138
v 0.827163 0.280830 -0.023083
v 0.827163 0.149965 -0.023083
v 0.807646 0.280830 -0.172485
v 0.807646 0.149965 -0.172485
v 0.808728 0.280830 -0.009748
v 0.808728 0.149965 -0.009748
v 0.806581 0.149965 -0.093447
v 0.806581 0.280830 -0.093447
v 0.777148 0.261351 -0.038271
v 0.777148 0.169443 -0.038271
v 0.763787 0.169443 -0.144358
v 0.763787 0.261351 -0.144358
v 0.777363 0.149965 -0.204561
v 0.777363 0.280830 -0.204561
v 0.846312 0.280830 -0.005287
v 0.846312 0.149965 -0.005287
v 0.826492 0.280830 -0.011623
v 0.826492 0.149965 -0.011623
v 0.842253 0.149965 0.017377
v 0.842253 0.280830 0.017377
v 0.798633 0.280830 -0.209921
v 0.798633 0.149965 -0.209921
v 0.797492 0.149965 0.004138
v 0.797492 0.280830 0.004138
v 0.764272 0.261351 -0.088481
v 0.764272 0.149965 -0.088481
v 0.826037 0.149965 -0.213851
v 0.826037 0.280830 -0.213851
v 0.834075 0.149965 0.038586
v 0.834075 0.280830 0.038586
v 0.849818 0.149965 0.019416
v 0.849818 0.280830 0.019416
v 0.840379 0.149965 -0.000387
v 0.840379 0.280830 -0.000387
v 0.831017 0.280830 0.031263
v 0.831017 0.149965 0.031263
v 0.785720 0.280830 -0.013223
v 0.785720 0.149965 -0.013223
v 0.764272 0.280830 -0.088481
v 0.764272 0.169443 -0.088481
v 0.765047 0.149965 -0.172485
v 0.765047 0.280830 -0.172485
v 0.000454 0.261352 0.001651
v 0.000454 0.169443 0.001651
v 0.006482 0.261352 0.052456
v 0.006482 0.169443 0.052456
v -0.006880 0.169443 -0.053631
v -0.006880 0.261352 -0.053631
v 0.554858 -0.000000 -0.089822
v 0.560574 -0.000000 -0.039678
v 0.610720 -0.000000 -0.045394
v 0.547331 -0.000000 -0.063566
v 0.618247 -0.000000 -0.071650
v 0.605004 -0.000000 -0.095538
v 0.852542 0.739118 -0.008542
v 0.833144 0.739118 -0.026777
v 0.813546 0.739118 -0.094397
v 0.814512 0.739118 -0.170980
v 0.757306 0.739118 -0.087540
v 0.778854 0.739118 -0.011718
v 0.797274 0.739118 -0.216817
v 0.772699 0.739118 -0.209820
v 0.758141 0.739118 -0.173799
v 0.837444 0.739118 0.044755
v 0.856586 0.739118 0.021313
v 0.807518 0.739118 0.048099
v 0.785277 0.739118 0.027304
v 0.831643 0.747932 -0.218091
v 0.797274 0.747932 -0.216817
v 0.807518 0.747932 0.048099
v 0.837444 0.747932 0.044755
v 0.856586 0.747932 0.021313
v 0.852542 0.747932 -0.008542
v 0.785277 0.747932 0.027304
v 0.772699 0.747932 -0.209820
v 0.758141 0.747932 -0.173799
v 0.814512 0.747932 -0.170980
v 0.757306 0.747932 -0.087540
v 0.778854 0.747932 -0.011718
v 0.813546 0.747932 -0.094397
v 0.833144 0.747932 -0.026777
v 0.831643 0.739118 -0.218091
v 0.618247 0.169443 -0.071650
v 0.605004 0.169443 -0.095538
v 0.615411 0.261352 -0.127320
v 0.622728 0.261351 -0.072181
v 0.628773 0.261351 -0.021233
v 0.610720 0.169443 -0.045394
v 0.547331 0.169443 -0.063566
v 0.543591 0.261352 -0.063068
v 0.560574 0.169443 -0.039678
v 0.554858 0.169443 -0.089822
v 0.536271 0.261352 -0.118232
v 0.549633 0.261352 -0.012145
v 0.536271 0.169443 -0.118232
v 0.615411 0.169443 -0.127320
v 0.628773 0.169443 -0.021233
v 0.622728 0.169443 -0.072181
v 0.549633 0.169443 -0.012145
v 0.543591 0.169443 -0.063068
v 0.578747 -0.000000 -0.103065
v 0.586831 -0.000000 -0.032151
v 0.575841 0.169443 -0.122776
v 0.575841 0.261352 -0.122776
v 0.589203 0.261352 -0.016689
v 0.583160 0.261352 -0.067624
v 0.589203 0.169443 -0.016689
v 0.578747 0.169443 -0.103065
v 0.586831 0.169443 -0.032151
v 0.475841 0.053239 -0.054941
v 0.547206 0.053239 -0.095909
v 0.547206 0.035807 -0.095909
v 0.567949 0.053239 -0.102753
v 0.567949 0.035807 -0.102753
v 0.554488 0.035807 -0.032025
v 0.554488 0.053239 -0.032025
v 0.587269 0.053239 -0.025248
v 0.587269 0.035807 -0.025248
v 0.554858 0.035807 -0.089822
v 0.554858 0.053239 -0.089822
v 0.605004 0.053239 -0.095538
v 0.605004 0.035807 -0.095538
v 0.618247 0.053239 -0.071650
v 0.618247 0.035807 -0.071650
v 0.547331 0.035807 -0.063566
v 0.547331 0.053239 -0.063566
v 0.610720 0.035807 -0.045394
v 0.610720 0.053239 -0.045394
v 0.560574 0.053239 -0.039678
v 0.560574 0.035807 -0.039678
v 0.578747 0.035807 -0.103065
v 0.578747 0.053239 -0.103065
v 0.586831 0.035807 -0.032151
v 0.586831 0.053239 -0.032151
v 0.537616 0.035807 -0.062459
v 0.537616 0.053239 -0.062459
v 0.604233 0.035807 -0.035069
v 0.604233 0.053239 -0.035069
v 0.799366 -0.747933 0.021902
v 0.475841 0.035807 -0.054941
v 0.782913 -0.747933 -0.090669
v 0.809745 -0.747933 0.041432
v 0.826036 -0.747933 -0.213851
v 0.777363 -0.747933 -0.204561
v 0.798633 -0.747933 -0.209921
v 0.764272 -0.747933 -0.088481
v 0.807646 -0.747933 -0.172485
v 0.806581 -0.747933 -0.093447
v 0.765046 -0.747933 -0.172485
v 0.783815 -0.747933 -0.172485
v 0.827163 -0.747933 -0.023083
v 0.846311 -0.747933 -0.005287
v 0.849817 -0.747933 0.019416
v 0.834074 -0.747933 0.038586
v 0.803979 -0.747933 -0.017567
v 0.785720 -0.747933 -0.013223
v 0.791506 -0.747933 0.024048
v 0.797492 -0.747933 0.004138
v 0.808727 -0.747933 -0.009748
v 0.831017 -0.747933 0.031263
v 0.842253 -0.747933 0.017377
v 0.840378 -0.747933 -0.000387
v 0.488821 0.035807 -0.056510
v 0.826492 -0.747933 -0.011623
v 0.813253 -0.747933 0.033138
v 0.827163 -0.280830 -0.023083
v 0.827163 -0.149965 -0.023083
v 0.807646 -0.280830 -0.172485
v 0.807646 -0.149965 -0.172485
v 0.808728 -0.280830 -0.009748
v 0.808728 -0.149965 -0.009748
v 0.806581 -0.149965 -0.093447
v 0.806581 -0.280830 -0.093447
v 0.488821 0.053239 -0.056510
v 0.777148 -0.261352 -0.038271
v 0.777148 -0.169443 -0.038271
v 0.763787 -0.169443 -0.144358
v 0.473748 0.035807 -0.074503
v 0.485148 0.035807 -0.088736
v 0.478117 0.053239 -0.036154
v 0.492430 0.053239 -0.024852
v 0.485148 0.053239 -0.088736
v 0.473748 0.053239 -0.074503
v 0.492430 0.035807 -0.024852
v 0.478117 0.035807 -0.036154
v 0.763787 -0.261352 -0.144358
v 0.777363 -0.149965 -0.204561
v 0.777363 -0.280830 -0.204561
v 0.846312 -0.280830 -0.005287
v 0.846312 -0.149965 -0.005287
v 0.826492 -0.280830 -0.011623
v 0.826492 -0.149965 -0.011623
v 0.842253 -0.149965 0.017377
v 0.842253 -0.280830 0.017377
v 0.798633 -0.280830 -0.209921
v 0.798633 -0.149965 -0.209921
v 0.797492 -0.149965 0.004138
v 0.797492 -0.280830 0.004138
v 0.764272 -0.261352 -0.088481
v 0.764272 -0.149965 -0.088481
v 0.826036 -0.149965 -0.213851
v 0.826036 -0.280830 -0.213851
v 0.834074 -0.149965 0.038586
v 0.834074 -0.280830 0.038586
v 0.849818 -0.149965 0.019416
v 0.849818 -0.280830 0.019416
v 0.840379 -0.149965 -0.000387
v 0.840379 -0.280830 -0.000387
v 0.831017 -0.280830 0.031263
v 0.831017 -0.149965 0.031263
v 0.785720 -0.280830 -0.013223
v 0.785720 -0.149965 -0.013223
v 0.764272 -0.280830 -0.088481
v 0.764272 -0.169443 -0.088481
v 0.765047 -0.149965 -0.172485
v 0.765047 -0.280830 -0.172485
v 0.000454 -0.261352 0.001651
v 0.000454 -0.169443 0.001651
v 0.006481 -0.261352 0.052456
v 0.006481 -0.169443 0.052456
v -0.006880 -0.169443 -0.053631
v -0.006880 -0.261352 -0.053631
v 0.852542 -0.739118 -0.008542
v 0.833143 -0.739118 -0.026777
v 0.813546 -0.739118 -0.094397
v 0.814512 -0.739118 -0.170980
v 0.757306 -0.739118 -0.087540
v 0.778854 -0.739118 -0.011718
v 0.797273 -0.739118 -0.216817
v 0.772699 -0.739118 -0.209820
v 0.758141 -0.739118 -0.173799
v 0.837443 -0.739118 0.044755
v 0.856586 -0.739118 0.021313
v 0.807517 -0.739118 0.048099
v 0.785277 -0.739118 0.027304
v 0.831643 -0.747933 -0.218091
v 0.797273 -0.747933 -0.216817
v 0.807517 -0.747933 0.048099
v 0.837443 -0.747933 0.044755
v 0.856586 -0.747933 0.021313
v 0.852542 -0.747933 -0.008542
v 0.785277 -0.747933 0.027304
v 0.772699 -0.747933 -0.209820
v 0.758141 -0.747933 -0.173799
v 0.814512 -0.747933 -0.170980
v 0.757306 -0.747933 -0.087540
v 0.778854 -0.747933 -0.011718
v 0.813546 -0.747933 -0.094397
v 0.833143 -0.747933 -0.026777
v 0.831643 -0.739118 -0.218091
v 0.618247 -0.169443 -0.071650
v 0.605004 -0.169443 -0.095538
v 0.615411 -0.261352 -0.127320
v 0.622728 -0.261352 -0.072181
v 0.628773 -0.261352 -0.021233
v 0.610719 -0.169443 -0.045394
v 0.547331 -0.169443 -0.063566
v 0.543591 -0.261352 -0.063068
v 0.560574 -0.169443 -0.039678
v 0.554858 -0.169443 -0.089822
v 0.536271 -0.261352 -0.118232
v 0.549633 -0.261352 -0.012145
v 0.536271 -0.169443 -0.118232
v 0.615411 -0.169443 -0.127320
v 0.628773 -0.169443 -0.021233
v 0.622728 -0.169443 -0.072181
v 0.549633 -0.169443 -0.012145
v 0.543591 -0.169443 -0.063068
v 0.575841 -0.169443 -0.122776
v 0.575841 -0.261352 -0.122776
v 0.589203 -0.261352 -0.016689
v 0.583160 -0.261352 -0.067624
v 0.589203 -0.169443 -0.016689
v 0.578747 -0.169443 -0.103065
v 0.586831 -0.169443 -0.032151
v 0.475841 -0.053239 -0.054941
v 0.547206 -0.053239 -0.095909
v 0.547206 -0.035807 -0.095909
v 0.567949 -0.053239 -0.102753
v 0.567949 -0.035807 -0.102753
v 0.554488 -0.035807 -0.032025
v 0.554488 -0.053239 -0.032025
v 0.587269 -0.053239 -0.025248
v 0.587269 -0.035807 -0.025248
v 0.554858 -0.035807 -0.089822
v 0.554858 -0.053239 -0.089822
v 0.605004 -0.053239 -0.095538
v 0.605004 -0.035807 -0.095538
v 0.618247 -0.053239 -0.071650
v 0.618247 -0.035807 -0.071650
v 0.547331 -0.035807 -0.063566
v 0.547331 -0.053239 -0.063566
v 0.610720 -0.035807 -0.045394
v 0.610720 -0.053239 -0.045394
v 0.560574 -0.053239 -0.039678
v 0.560574 -0.035807 -0.039678
v 0.578747 -0.035807 -0.103065
v 0.578747 -0.053239 -0.103065
v 0.586831 -0.035807 -0.032151
v 0.586831 -0.053239 -0.032151
v 0.537616 -0.035807 -0.062459
v 0.537616 -0.053239 -0.062459
v 0.604233 -0.035807 -0.035069
v 0.604233 -0.053239 -0.035069
v 0.475841 -0.035807 -0.054941
v 0.488821 -0.035807 -0.056510
v 0.488821 -0.053239 -0.056510
v 0.473748 -0.035807 -0.074503
v 0.485148 -0.035807 -0.088736
v 0.478117 -0.053239 -0.036154
v 0.492430 -0.053239 -0.024852
v 0.485148 -0.053239 -0.088736
v 0.473747 -0.053239 -0.074503
v 0.492430 -0.035807 -0.024852
v 0.478117 -0.035807 -0.036154
v 0.496938 -0.056880 -0.055310
v 0.496938 0.056637 -0.055310
v 0.511370 0.056637 -0.054686
v 0.507585 0.056637 -0.065074
v 0.506702 0.056637 -0.044663
v 0.496314 0.056637 -0.040878
v 0.486291 0.056637 -0.045546
v 0.482505 0.056637 -0.055934
v 0.487174 0.056637 -0.065956
v 0.497562 0.056637 -0.069742
v 0.507585 -0.056880 -0.065074
v 0.511370 -0.056880 -0.054686
v 0.506702 -0.056880 -0.044663
v 0.496314 -0.056880 -0.040878
v 0.486291 -0.056880 -0.045546
v 0.482505 -0.056880 -0.055934
v 0.487174 -0.056880 -0.065956
v 0.497562 -0.056880 -0.069742
vn 0.8569 -0.0000 0.5155
vn 0.9936 -0.0000 -0.1132
vn 0.7826 -0.0000 0.6225
vn -0.0000 -1.0000 -0.0000
vn -0.0000 1.0000 -0.0000
vn -0.6225 -0.0000 0.7826
vn 0.1133 -0.0000 0.9936
vn -0.6225 -0.0000 0.7827
vn -0.9271 -0.0000 -0.3747
vn -0.9807 -0.0000 -0.1956
vn -0.9335 -0.0000 -0.3585
vn -0.9813 0.0050 -0.1922
vn -0.9824 -0.0000 -0.1868
vn 0.8529 -0.0000 -0.5220
vn 0.9909 -0.0000 -0.1343
vn -0.2443 -0.0000 -0.9697
vn -0.1934 -0.0000 -0.9811
vn -0.9936 -0.0000 0.1133
vn -0.9598 -0.0000 -0.2805
vn -0.2731 -0.0000 0.9620
vn -0.8720 -0.0000 0.4895
vn 0.9138 -0.0000 0.4062
vn 0.9768 -0.0000 0.2142
vn -0.8786 -0.0000 0.4775
vn -0.9589 -0.0000 -0.2836
vn -0.9813 -0.0050 -0.1922
vn 0.9908 -0.0000 -0.1351
vn -0.7774 -0.0000 -0.6290
vn 0.1141 -0.0000 0.9935
vn 0.4782 -0.0000 0.8782
vn 0.9624 -0.0000 0.2716
vn 0.4775 -0.0000 0.8786
vn 0.7774 -0.0000 0.6290
vn -0.0370 -0.0000 -0.9993
vn -0.1566 -0.0000 -0.9877
vn -0.9228 -0.0000 0.3853
vn -0.9911 -0.0000 0.1332
vn -0.9994 -0.0240 -0.0244
vn -0.9994 0.0240 -0.0244
vn -0.9936 -0.0000 0.1132
vn 0.8508 -0.0000 -0.5255
vn 0.1161 -0.0000 0.9932
vn -0.9912 0.0069 0.1322
vn -0.9916 -0.0000 0.1295
vn 0.8786 -0.0000 -0.4775
vn 0.2836 -0.0000 -0.9589
vn -0.2836 -0.0000 0.9589
vn -0.4775 -0.0000 -0.8786
vn 0.9589 -0.0000 0.2836
vn -0.9759 -0.0000 0.2182
vn 0.8891 -0.0000 -0.4578
vn 0.8863 -0.0000 -0.4631
vn -0.1141 -0.0000 -0.9935
vn -0.8277 -0.0000 0.5612
vn -0.9028 0.0072 0.4300
vn -0.9028 -0.0072 0.4300
vn 0.9629 -0.0000 0.2699
vn 0.7728 -0.0000 0.6347
vn 0.7728 -0.0000 0.6346
vn -0.1161 -0.0000 -0.9932
vn -0.1181 -0.0000 -0.9930
vn -0.1420 -0.0000 -0.9899
vn -0.9910 -0.0000 0.1338
vn -0.9061 -0.0000 0.4230
vn -0.9912 -0.0069 0.1322
vn -0.9548 -0.0322 0.2954
vn -0.9548 0.0322 0.2954
vn -0.9922 -0.0000 0.1247
vn -0.9930 -0.0000 0.1178
vn -0.9913 -0.0000 0.1315
vn 0.1181 -0.0000 0.9930
vn -0.2738 -0.0000 -0.9618
vn 0.9936 -0.0000 -0.1133
vn 0.9837 -0.0000 0.1797
vn -0.3148 -0.0000 0.9491
vn -0.3148 -0.0000 0.9492
vn -0.0444 -0.0000 0.9990
vn 0.1132 -0.0000 0.9936
vn 0.6225 -0.0000 -0.7826
vn 0.0099 -0.0000 -1.0000
vn -0.8818 -0.0000 0.4716
vn 0.9398 -0.0000 0.3417
vn -0.8818 -0.0000 0.4715
vn 0.6942 -0.0000 0.7198
vn 0.1598 -0.0000 0.9872
vn -0.1729 -0.0000 -0.9849
vn -0.2152 -0.0000 -0.9766
vn -0.7826 -0.0000 -0.6225
vn -0.1132 -0.0000 -0.9936
vn -0.4840 -0.0000 -0.8750
vn 0.7370 -0.0000 -0.6759
vn 0.9991 -0.0000 0.0432
vn 0.6759 -0.0000 0.7370
vn -0.0432 -0.0000 0.9991
vn -0.7370 -0.0000 0.6759
vn -0.9991 -0.0000 -0.0432
vn -0.6759 -0.0000 -0.7370
vn 0.0432 -0.0000 -0.9991
vt 0.927497 0.025472
vt 0.931891 0.031232
vt 0.927497 0.031232
vt 0.754241 0.945933
vt 0.757409 0.944100
vt 0.757115 0.945923
vt 0.760183 0.947260
vt 0.759154 0.947948
vt 0.945429 0.705467
vt 0.941749 0.708135
vt 0.944378 0.705049
vt 0.760341 0.951271
vt 0.757139 0.952860
vt 0.759164 0.950821
vt 0.949426 0.074237
vt 0.950257 0.068099
vt 0.953239 0.073848
vt 0.950886 0.086868
vt 0.954719 0.086927
vt 0.375173 0.473833
vt 0.287156 0.482045
vt 0.287170 0.473790
vt 0.918710 0.003975
vt 0.923104 0.022668
vt 0.918710 0.022668
vt 0.954082 0.358331
vt 0.952664 0.364581
vt 0.952664 0.358331
vt 0.276770 0.477863
vt 0.274356 0.473805
vt 0.275081 0.473807
vt 0.498879 0.636052
vt 0.474755 0.630527
vt 0.498879 0.630526
vt 0.749906 0.919178
vt 0.751430 0.932562
vt 0.748412 0.932608
vt 0.750616 0.945002
vt 0.753609 0.944604
vt 0.956243 0.073542
vt 0.957737 0.086973
vt 0.953749 0.068610
vt 0.284870 0.469724
vt 0.286563 0.473780
vt 0.956319 0.629962
vt 0.957737 0.618637
vt 0.957737 0.629962
vt 0.587671 0.421872
vt 0.591200 0.442923
vt 0.587671 0.442923
vt 0.591142 0.931443
vt 0.594314 0.929617
vt 0.594015 0.931440
vt 0.095894 0.263476
vt 0.098698 0.260311
vt 0.098698 0.263476
vt 0.098698 0.269454
vt 0.095894 0.266520
vt 0.098698 0.266520
vt 0.953932 0.102337
vt 0.952540 0.098969
vt 0.955533 0.099366
vt 0.949010 0.107224
vt 0.945808 0.105635
vt 0.946985 0.105185
vt 0.949034 0.100287
vt 0.945966 0.101625
vt 0.948740 0.098464
vt 0.943084 0.704837
vt 0.941050 0.706866
vt 0.752400 0.914245
vt 0.752910 0.919484
vt 0.946995 0.102312
vt 0.597313 0.899076
vt 0.594755 0.905744
vt 0.593682 0.905388
vt 0.595653 0.516642
vt 0.602935 0.442923
vt 0.602935 0.516642
vt 0.951908 0.100298
vt 0.967485 0.923169
vt 0.964138 0.924324
vt 0.965873 0.922418
vt 0.590452 0.939649
vt 0.586772 0.936981
vt 0.587823 0.936563
vt 0.946859 0.686591
vt 0.945806 0.699116
vt 0.944682 0.698990
vt 0.937373 0.709128
vt 0.934971 0.705280
vt 0.937809 0.708085
vt 0.453704 0.636055
vt 0.453704 0.630527
vt 0.589117 0.936351
vt 0.591151 0.938380
vt 0.615650 0.442923
vt 0.602935 0.421872
vt 0.615650 0.421872
vt 0.916817 0.296853
vt 0.918107 0.293768
vt 0.918110 0.296641
vt 0.498879 0.586683
vt 0.474755 0.589555
vt 0.474756 0.586681
vt 0.274333 0.482057
vt 0.250318 0.496840
vt 0.250315 0.482068
vt 0.955101 0.654069
vt 0.956519 0.649201
vt 0.956519 0.654069
vt 0.919445 0.299939
vt 0.920145 0.298670
vt 0.498879 0.598176
vt 0.474755 0.601048
vt 0.474755 0.598175
vt 0.274335 0.496843
vt 0.251452 0.505095
vt 0.923385 0.299889
vt 0.923018 0.298666
vt 0.298332 0.341179
vt 0.299750 0.335646
vt 0.299750 0.341179
vt 0.640928 0.397749
vt 0.639652 0.421872
vt 0.639652 0.397749
vt 0.755263 0.932504
vt 0.954082 0.364581
vt 0.952664 0.378457
vt 0.379981 0.630518
vt 0.456840 0.626000
vt 0.471619 0.625999
vt 0.752217 0.947972
vt 0.453705 0.598174
vt 0.379983 0.601045
vt 0.379983 0.598172
vt 0.943088 0.701964
vt 0.755892 0.913735
vt 0.756723 0.919873
vt 0.938177 0.706862
vt 0.914316 0.003975
vt 0.914316 0.022668
vt 0.615650 0.516642
vt 0.627443 0.442923
vt 0.627443 0.516642
vt 0.287157 0.496849
vt 0.280767 0.505098
vt 0.280744 0.496846
vt 0.280742 0.482052
vt 0.914316 0.025472
vt 0.918710 0.031232
vt 0.914316 0.031232
vt 0.474755 0.617011
vt 0.471621 0.617011
vt 0.498879 0.589556
vt 0.474755 0.592428
vt 0.938519 0.913918
vt 0.939337 0.907778
vt 0.942332 0.913520
vt 0.940007 0.926546
vt 0.943840 0.926596
vt 0.945335 0.913208
vt 0.946859 0.926635
vt 0.942830 0.908281
vt 0.943088 0.942007
vt 0.944378 0.945093
vt 0.943084 0.944881
vt 0.941688 0.938643
vt 0.944682 0.939033
vt 0.938177 0.946906
vt 0.934971 0.945324
vt 0.936147 0.944871
vt 0.938186 0.939969
vt 0.935120 0.941313
vt 0.937887 0.938147
vt 0.941749 0.948178
vt 0.941050 0.946910
vt 0.936151 0.941998
vt 0.941059 0.939973
vt 0.937809 0.948128
vt 0.149309 0.330457
vt 0.151093 0.333533
vt 0.149424 0.333009
vt 0.936869 0.937655
vt 0.938877 0.926510
vt 0.945429 0.945510
vt 0.942217 0.949208
vt 0.915389 0.290920
vt 0.916513 0.290794
vt 0.145118 0.334573
vt 0.141771 0.333418
vt 0.143383 0.332667
vt 0.918365 0.260041
vt 0.921755 0.258412
vt 0.921857 0.259538
vt 0.143445 0.330090
vt 0.144503 0.326746
vt 0.145257 0.328337
vt 0.934069 0.940896
vt 0.915860 0.264968
vt 0.913205 0.278430
vt 0.914777 0.264643
vt 0.148385 0.336305
vt 0.147637 0.334709
vt 0.937373 0.949172
vt 0.147722 0.328450
vt 0.150901 0.329735
vt 0.914336 0.278395
vt 0.148374 0.326823
vt 0.945806 0.939160
vt 0.921187 0.278306
vt 0.924326 0.289416
vt 0.923307 0.289907
vt 0.144489 0.336232
vt 0.923749 0.266033
vt 0.922318 0.278270
vt 0.934888 0.907606
vt 0.939440 0.906652
vt 0.933920 0.945740
vt 0.141771 0.329510
vt 0.287174 0.505104
vt 0.280914 0.514044
vt 0.964767 0.925983
vt 0.961619 0.924460
vt 0.954082 0.378457
vt 0.952664 0.391137
vt 0.587671 0.516642
vt 0.418779 0.971308
vt 0.414697 0.974534
vt 0.414708 0.972961
vt 0.955101 0.644354
vt 0.956519 0.640072
vt 0.956519 0.644354
vt 0.409486 0.982404
vt 0.409540 0.972356
vt 0.453705 0.589553
vt 0.379983 0.592425
vt 0.379983 0.589551
vt 0.960882 0.916575
vt 0.963999 0.918089
vt 0.961534 0.918202
vt 0.631648 0.442923
vt 0.627443 0.421872
vt 0.631648 0.421872
vt 0.274511 0.514038
vt 0.250491 0.528801
vt 0.250500 0.514027
vt 0.936869 0.697612
vt 0.940007 0.686502
vt 0.937887 0.698103
vt 0.958355 0.919487
vt 0.959947 0.920208
vt 0.640929 0.352576
vt 0.639652 0.373626
vt 0.639652 0.352576
vt 0.523003 0.601048
vt 0.544052 0.604421
vt 0.523003 0.604422
vt 0.615650 0.373626
vt 0.627443 0.352576
vt 0.627443 0.373626
vt 0.631648 0.352576
vt 0.631648 0.373626
vt 0.635662 0.373626
vt 0.635662 0.352576
vt 0.595653 0.373626
vt 0.602935 0.352576
vt 0.602935 0.373626
vt 0.615650 0.352576
vt 0.523002 0.592428
vt 0.544052 0.595301
vt 0.523003 0.595302
vt 0.544052 0.598174
vt 0.523003 0.598175
vt 0.523002 0.589555
vt 0.544052 0.592427
vt 0.523002 0.586681
vt 0.544052 0.589554
vt 0.544052 0.601047
vt 0.295840 0.832825
vt 0.383824 0.847619
vt 0.295845 0.847601
vt 0.591200 0.352576
vt 0.587671 0.373626
vt 0.587671 0.352576
vt 0.544054 0.636055
vt 0.523003 0.630526
vt 0.544054 0.630528
vt 0.595653 0.352576
vt 0.591200 0.373626
vt 0.295839 0.896812
vt 0.383702 0.887819
vt 0.383826 0.896789
vt 0.631648 0.278857
vt 0.627443 0.278857
vt 0.627443 0.397749
vt 0.615650 0.278857
vt 0.602935 0.278857
vt 0.602935 0.397749
vt 0.595653 0.278857
vt 0.615650 0.397749
vt 0.617774 0.601045
vt 0.617774 0.598172
vt 0.498879 0.595303
vt 0.617774 0.595298
vt 0.498879 0.617012
vt 0.498879 0.604424
vt 0.498879 0.601050
vt 0.617774 0.604420
vt 0.544055 0.617011
vt 0.523003 0.617011
vt 0.617777 0.630518
vt 0.617775 0.617006
vt 0.587671 0.278857
vt 0.591200 0.397749
vt 0.587671 0.397749
vt 0.635662 0.278857
vt 0.631648 0.397749
vt 0.498879 0.592429
vt 0.617774 0.592425
vt 0.617774 0.589552
vt 0.544052 0.586681
vt 0.617774 0.586678
vt 0.595653 0.397749
vt 0.591200 0.278857
vt 0.639652 0.278857
vt 0.526142 0.608677
vt 0.540914 0.608679
vt 0.540920 0.617012
vt 0.540918 0.625999
vt 0.526139 0.625999
vt 0.526137 0.617012
vt 0.065799 0.987759
vt 0.051015 0.979529
vt 0.065799 0.979529
vt 0.065799 0.996729
vt 0.051015 0.987759
vt 0.295687 0.864804
vt 0.383702 0.856594
vt 0.383703 0.864819
vt 0.295704 0.856549
vt 0.295687 0.879607
vt 0.295701 0.887863
vt 0.383703 0.879594
vt 0.453703 0.617012
vt 0.456843 0.608678
vt 0.456838 0.617013
vt 0.945335 0.673164
vt 0.947989 0.686626
vt 0.453705 0.601047
vt 0.379983 0.604419
vt 0.934069 0.700853
vt 0.935120 0.701269
vt 0.375295 0.514033
vt 0.287310 0.528827
vt 0.287315 0.514051
vt 0.492110 0.994292
vt 0.506894 0.986062
vt 0.506894 0.994292
vt 0.594392 0.939599
vt 0.594024 0.938376
vt 0.492110 0.986062
vt 0.506894 0.977092
vt 0.287308 0.464839
vt 0.276754 0.469745
vt 0.280905 0.464852
vt 0.280808 0.468054
vt 0.298332 0.335646
vt 0.299750 0.331536
vt 0.931891 0.025472
vt 0.927497 0.022668
vt 0.931891 0.022668
vt 0.640928 0.442923
vt 0.639652 0.516642
vt 0.639652 0.442923
vt 0.960871 0.926056
vt 0.959831 0.922760
vt 0.956319 0.618637
vt 0.957737 0.606317
vt 0.453705 0.592427
vt 0.591200 0.421872
vt 0.375172 0.505058
vt 0.474754 0.604422
vt 0.955101 0.658913
vt 0.956519 0.658913
vt 0.631648 0.516642
vt 0.095894 0.269454
vt 0.098698 0.279503
vt 0.095894 0.279503
vt 0.594828 0.940642
vt 0.635662 0.421872
vt 0.923104 0.003975
vt 0.955101 0.649201
vt 0.453705 0.604421
vt 0.471616 0.608677
vt 0.589371 0.899751
vt 0.592761 0.898122
vt 0.592864 0.899248
vt 0.595653 0.442923
vt 0.635662 0.516642
vt 0.590513 0.930113
vt 0.592194 0.918016
vt 0.964753 0.916497
vt 0.965811 0.919842
vt 0.967485 0.919261
vt 0.274502 0.464862
vt 0.251446 0.473812
vt 0.250492 0.464879
vt 0.586395 0.930630
vt 0.587519 0.930504
vt 0.375174 0.482058
vt 0.453705 0.595300
vt 0.474755 0.595302
vt 0.274743 0.936102
vt 0.269532 0.928231
vt 0.274688 0.926053
vt 0.595332 0.929126
vt 0.597081 0.932784
vt 0.585783 0.904353
vt 0.586866 0.904678
vt 0.585342 0.918106
vt 0.589113 0.933478
vt 0.936285 0.003975
vt 0.940678 0.022668
vt 0.936285 0.022668
vt 0.957737 0.689081
vt 0.956319 0.682719
vt 0.957737 0.682719
vt 0.272943 0.329758
vt 0.271525 0.324225
vt 0.272943 0.324225
vt 0.955101 0.220519
vt 0.956519 0.228583
vt 0.955101 0.228583
vt 0.947989 0.871475
vt 0.946571 0.865225
vt 0.947989 0.865225
vt 0.957737 0.703691
vt 0.956319 0.698822
vt 0.957737 0.698822
vt 0.957737 0.693979
vt 0.956319 0.689081
vt 0.957737 0.712820
vt 0.956319 0.708537
vt 0.957737 0.708537
vt 0.956319 0.703691
vt 0.955101 0.240903
vt 0.956519 0.252229
vt 0.955101 0.252229
vt 0.956519 0.240903
vt 0.947989 0.885351
vt 0.946571 0.871475
vt 0.956319 0.693979
vt 0.947989 0.898031
vt 0.946571 0.885351
vt 0.272943 0.333868
vt 0.271525 0.329758
vt 0.926307 0.259366
vt 0.922675 0.265678
vt 0.946418 0.912882
vt 0.915766 0.297271
vt 0.947989 0.926669
vt 0.926224 0.297084
vt 0.927126 0.292657
vt 0.927275 0.297501
vt 0.917707 0.259122
vt 0.937446 0.914273
vt 0.933920 0.907021
vt 0.943488 0.907362
vt 0.926075 0.293074
vt 0.927275 0.258781
vt 0.923822 0.300932
vt 0.918978 0.300968
vt 0.958162 0.923285
vt 0.265450 0.925005
vt 0.269521 0.926658
vt 0.273568 0.924948
vt 0.280834 0.479536
vt 0.940678 0.025472
vt 0.939440 0.666608
vt 0.942830 0.668237
vt 0.939337 0.667734
vt 0.595653 0.421872
vt 0.264400 0.936174
vt 0.264345 0.926126
vt 0.274499 0.528817
vt 0.635662 0.442923
vt 0.955101 0.670172
vt 0.956519 0.663811
vt 0.956519 0.670172
vt 0.379983 0.595298
vt 0.946418 0.672839
vt 0.262629 0.921022
vt 0.263740 0.920958
vt 0.955101 0.663811
vt 0.280903 0.528822
vt 0.095894 0.288040
vt 0.098698 0.284887
vt 0.098698 0.288040
vt 0.258848 0.864814
vt 0.282863 0.879596
vt 0.258845 0.879587
vt 0.259976 0.887843
vt 0.282886 0.887849
vt 0.259981 0.856559
vt 0.283040 0.847614
vt 0.282891 0.856558
vt 0.282865 0.864810
vt 0.283034 0.896792
vt 0.259023 0.896776
vt 0.259020 0.832851
vt 0.259029 0.847626
vt 0.289274 0.864807
vt 0.289273 0.879601
vt 0.274361 0.505095
vt 0.289444 0.847609
vt 0.289297 0.856554
vt 0.155600 0.047281
vt 0.158404 0.050434
vt 0.155600 0.050434
vt 0.289433 0.832830
vt 0.293401 0.891928
vt 0.289436 0.896800
vt 0.289339 0.893599
vt 0.285301 0.883791
vt 0.285285 0.891909
vt 0.283612 0.887847
vt 0.289365 0.882117
vt 0.293423 0.883808
vt 0.295094 0.887873
vt 0.936285 0.031232
vt 0.597230 0.936794
vt 0.596054 0.936342
vt 0.453706 0.586680
vt 0.379984 0.586678
vt 0.414703 0.982441
vt 0.411538 0.984500
vt 0.584212 0.918140
vt 0.269525 0.936138
vt 0.266482 0.938241
vt 0.588361 0.918066
vt 0.284892 0.477844
vt 0.263869 0.918123
vt 0.265393 0.916887
vt 0.155600 0.006209
vt 0.158404 0.009722
vt 0.155600 0.009722
vt 0.935421 0.968871
vt 0.931339 0.972097
vt 0.931350 0.970524
vt 0.158404 0.004471
vt 0.155600 0.004471
vt 0.591200 0.516642
vt 0.598132 0.932367
vt 0.379982 0.617006
vt 0.714663 0.971251
vt 0.710627 0.974534
vt 0.710616 0.972961
vt 0.095894 0.247329
vt 0.098698 0.243815
vt 0.098698 0.247329
vt 0.937446 0.674229
vt 0.934888 0.667562
vt 0.938519 0.673874
vt 0.283029 0.832836
vt 0.155600 0.041896
vt 0.158404 0.047281
vt 0.931891 0.003975
vt 0.909923 0.003975
vt 0.909923 0.022668
vt 0.706545 0.971308
vt 0.703724 0.967325
vt 0.704835 0.967261
vt 0.937131 0.964824
vt 0.937001 0.961989
vt 0.938241 0.964888
vt 0.705441 0.972428
vt 0.927302 0.968814
vt 0.925491 0.966474
vt 0.925650 0.964743
vt 0.936525 0.969991
vt 0.936285 0.039795
vt 0.940678 0.036991
vt 0.940678 0.039795
vt 0.704965 0.964426
vt 0.706488 0.963190
vt 0.931891 0.039795
vt 0.936285 0.036991
vt 0.926182 0.969919
vt 0.716475 0.968911
vt 0.715783 0.972356
vt 0.155600 0.052395
vt 0.158404 0.052395
vt 0.927497 0.039795
vt 0.931891 0.036991
vt 0.909923 0.036991
vt 0.909923 0.031232
vt 0.909923 0.039795
vt 0.905529 0.058488
vt 0.905529 0.039795
vt 0.905529 0.036991
vt 0.905529 0.031232
vt 0.914316 0.039795
vt 0.909923 0.058488
vt 0.936285 0.058488
vt 0.931891 0.058488
vt 0.940678 0.031232
vt 0.927497 0.036991
vt 0.927497 0.058488
vt 0.914316 0.036991
vt 0.918710 0.039795
vt 0.914316 0.058488
vt 0.923104 0.058488
vt 0.923104 0.039795
vt 0.923104 0.036991
vt 0.923104 0.031232
vt 0.918710 0.058488
vt 0.918710 0.036991
vt 0.420359 0.964426
vt 0.420489 0.967261
vt 0.418836 0.963190
vt 0.596050 0.933469
vt 0.956319 0.606317
vt 0.957737 0.598253
vt 0.410660 0.971251
vt 0.909923 0.025472
vt 0.272690 0.938197
vt 0.936285 0.025472
vt 0.095894 0.242078
vt 0.098698 0.242078
vt 0.421599 0.967325
vt 0.419828 0.982477
vt 0.419883 0.972428
vt 0.098698 0.257378
vt 0.417747 0.984544
vt 0.095894 0.257378
vt 0.095894 0.260311
vt 0.408849 0.968911
vt 0.409008 0.967180
vt 0.905529 0.025472
vt 0.589869 0.904991
vt 0.936470 0.980040
vt 0.931345 0.980004
vt 0.705496 0.982477
vt 0.715838 0.982405
vt 0.710621 0.982441
vt 0.923104 0.025472
vt 0.926128 0.979967
vt 0.927497 0.003975
vt 0.095894 0.284887
vt 0.158404 0.028914
vt 0.155600 0.031847
vt 0.155600 0.028914
vt 0.155600 0.022705
vt 0.158404 0.019771
vt 0.158404 0.022705
vt 0.275380 0.922608
vt 0.275221 0.920877
vt 0.928180 0.982063
vt 0.158404 0.025869
vt 0.155600 0.025869
vt 0.155600 0.019771
vt 0.158404 0.031847
vt 0.158404 0.041896
vt 0.707577 0.984544
vt 0.713786 0.984500
vt 0.710621 0.984544
vt 0.934389 0.982107
vt 0.931344 0.982107
vt 0.098698 0.290002
vt 0.095894 0.290002
vt 0.918710 0.025472
vt 0.905529 0.003975
vt 0.905529 0.022668
vt 0.251321 0.690149
vt 0.265632 0.687792
vt 0.265632 0.690149
vt 0.251321 0.687792
vt 0.265632 0.685436
vt 0.251321 0.704290
vt 0.265632 0.701933
vt 0.265632 0.704290
vt 0.251321 0.699577
vt 0.265632 0.699577
vt 0.265632 0.697220
vt 0.251321 0.697220
vt 0.265632 0.694863
vt 0.251321 0.692506
vt 0.265632 0.692506
vt 0.484553 0.333460
vt 0.483375 0.336305
vt 0.481708 0.334638
vt 0.485732 0.336305
vt 0.487398 0.334638
vt 0.487398 0.332281
vt 0.485732 0.330615
vt 0.483375 0.330615
vt 0.481708 0.332281
vt 0.321275 0.540604
vt 0.318430 0.541782
vt 0.318430 0.539426
vt 0.320096 0.537759
vt 0.322453 0.537759
vt 0.324120 0.539426
vt 0.324120 0.541782
vt 0.322453 0.543449
vt 0.320096 0.543449
vt 0.942217 0.709164
vt 0.757509 0.954082
vt 0.945808 0.067917
vt 0.474755 0.636054
vt 0.948640 0.108446
vt 0.598281 0.898492
vt 0.589984 0.940678
vt 0.933920 0.705697
vt 0.640929 0.421872
vt 0.379980 0.636046
vt 0.760341 0.913553
vt 0.954082 0.391137
vt 0.955101 0.640072
vt 0.938877 0.686466
vt 0.640929 0.373626
vt 0.383826 0.832834
vt 0.523003 0.636054
vt 0.617777 0.636046
vt 0.635662 0.397749
vt 0.640929 0.278857
vt 0.051015 0.996729
vt 0.375297 0.528818
vt 0.492110 0.977092
vt 0.375297 0.464863
vt 0.298332 0.331536
vt 0.640929 0.516642
vt 0.375173 0.496833
vt 0.588713 0.898832
vt 0.940678 0.003975
vt 0.956519 0.220519
vt 0.956319 0.712820
vt 0.946571 0.898031
vt 0.271525 0.333868
vt 0.943488 0.667318
vt 0.593324 0.917980
vt 0.414702 0.984544
vt 0.269526 0.938241
vt 0.158404 0.006209
vt 0.598281 0.937211
vt 0.095894 0.243815
vt 0.933920 0.666977
vt 0.935478 0.960753
vt 0.716316 0.967180
vt 0.940678 0.058488
vt 0.956319 0.598253
vt 0.251321 0.685436
vt 0.251321 0.701933
vt 0.251321 0.694863
s 1
usemtl Excavator
f 386/1/1 146/2/2 144/3/3
f 12/4/4 18/5/4 1/6/4
f 1/6/4 17/7/4 25/8/4
f 328/9/5 32/10/5 29/11/5
f 31/12/4 27/13/4 2/14/4
f 10/15/5 26/16/5 45/17/5
f 38/18/5 45/17/5 50/19/5
f 311/20/5 360/21/5 361/22/5
f 352/23/6 393/24/7 388/25/8
f 336/26/9 324/27/10 323/28/9
f 349/29/5 359/30/5 344/31/5
f 56/32/11 308/33/12 54/34/13
f 8/35/4 33/36/4 20/37/4
f 14/38/4 33/36/4 16/39/4
f 50/19/5 11/40/5 39/41/5
f 45/17/5 15/42/5 11/40/5
f 353/43/5 361/22/5 350/44/5
f 342/45/14 318/46/15 317/47/14
f 280/48/16 288/49/17 281/50/16
f 252/51/4 244/52/4 257/53/4
f 398/54/18 406/55/19 369/56/18
f 404/57/20 408/58/21 403/59/21
f 7/60/5 35/61/5 34/62/5
f 44/63/5 48/64/5 6/65/5
f 5/66/5 36/67/5 37/68/5
f 24/69/5 32/10/5 22/70/5
f 9/71/4 28/72/4 8/35/4
f 43/73/5 48/64/5 36/67/5
f 236/74/4 338/75/4 240/76/4
f 23/77/22 261/78/23 4/79/23
f 21/80/5 37/68/5 35/61/5
f 255/81/24 2/82/25 25/83/24
f 34/62/5 50/19/5 39/41/5
f 235/84/4 335/85/4 250/86/4
f 35/61/5 38/18/5 50/19/5
f 20/87/5 321/88/5 14/89/5
f 325/90/5 31/91/5 30/92/5
f 308/33/12 281/93/11 309/94/26
f 235/84/4 232/95/4 258/96/4
f 266/97/27 262/98/23 265/99/27
f 46/100/4 7/101/4 42/102/4
f 62/103/28 286/104/25 303/105/28
f 358/106/29 268/107/29 269/108/29
f 332/109/30 326/110/31 325/111/30
f 49/112/4 42/102/4 40/113/4
f 66/114/32 290/115/33 264/116/32
f 348/117/4 292/118/4 268/107/4
f 47/119/4 40/113/4 44/120/4
f 329/121/34 322/122/35 343/123/34
f 62/124/36 296/125/36 64/126/36
f 28/72/4 19/127/4 33/36/4
f 16/39/4 19/127/4 18/5/4
f 337/128/10 320/129/37 324/27/10
f 281/93/11 8/130/13 309/94/26
f 308/33/12 279/131/38 270/132/39
f 3/133/4 16/39/4 12/4/4
f 263/134/32 3/135/33 12/136/32
f 3/137/5 29/11/5 24/69/5
f 13/138/4 4/139/4 28/72/4
f 25/8/4 31/12/4 2/14/4
f 22/70/5 30/92/5 27/140/5
f 350/141/40 388/25/8 385/142/18
f 19/143/27 259/144/41 18/145/41
f 355/146/4 365/147/4 364/148/4
f 360/21/42 364/148/29 366/149/29
f 384/150/18 143/151/6 145/152/40
f 293/153/43 270/132/39 307/154/44
f 61/155/25 300/156/24 286/104/25
f 76/157/5 74/158/5 79/159/5
f 77/160/5 79/159/5 70/161/5
f 70/161/5 78/162/5 75/163/5
f 79/159/5 73/164/5 78/162/5
f 87/165/5 86/166/5 69/167/5
f 87/165/5 84/168/5 85/169/5
f 89/170/5 82/171/5 90/172/5
f 92/173/5 81/174/5 80/175/5
f 69/167/5 71/176/5 93/177/5
f 91/178/5 82/171/5 81/174/5
f 88/179/5 80/175/5 84/168/5
f 93/177/5 83/180/5 89/170/5
f 85/169/5 70/161/5 75/163/5
f 84/168/5 77/160/5 70/161/5
f 42/181/45 93/182/46 40/183/46
f 77/160/5 174/184/5 173/185/5
f 71/176/5 167/186/5 163/187/5
f 46/100/4 153/188/4 34/189/4
f 6/190/25 91/191/24 43/192/24
f 15/193/4 154/194/4 26/195/4
f 5/196/47 88/197/32 21/198/32
f 82/171/5 166/199/5 81/174/5
f 11/200/4 152/201/4 156/202/4
f 40/183/46 89/203/48 44/204/48
f 71/176/5 164/205/5 83/180/5
f 7/206/49 69/207/45 42/181/45
f 39/208/4 153/188/4 152/201/4
f 21/198/32 87/209/49 7/206/49
f 86/166/5 172/210/5 167/186/5
f 38/211/4 149/212/4 37/213/4
f 44/204/48 90/214/25 6/190/25
f 38/211/4 151/215/4 150/216/4
f 72/217/5 162/218/5 74/158/5
f 82/171/5 164/205/5 165/219/5
f 43/192/24 92/220/47 5/196/47
f 81/174/5 174/184/5 80/175/5
f 408/58/21 369/56/18 403/59/21
f 351/221/4 363/222/4 365/147/4
f 254/223/25 27/224/48 2/82/25
f 339/225/37 321/226/50 320/129/37
f 288/49/17 9/227/16 281/50/16
f 388/228/4 395/229/4 385/230/4
f 334/231/51 317/232/14 316/233/51
f 395/229/4 405/234/4 370/235/4
f 287/236/25 25/237/24 2/238/25
f 251/239/49 12/240/32 3/241/49
f 282/242/52 260/243/41 283/244/52
f 346/245/53 270/246/53 279/247/53
f 317/248/5 19/249/5 18/250/5
f 232/251/45 3/241/49 24/252/45
f 128/253/36 122/254/36 123/255/36
f 116/256/54 130/257/55 131/258/56
f 100/259/27 94/260/41 95/261/41
f 95/261/41 108/262/52 109/263/52
f 124/264/57 123/255/58 122/254/59
f 109/263/52 125/265/57 124/264/57
f 120/266/22 96/267/23 97/268/23
f 97/268/23 101/269/27 100/259/27
f 126/270/24 110/271/47 111/272/47
f 111/272/47 98/273/32 99/274/32
f 112/275/25 127/276/24 126/270/24
f 129/277/28 113/278/25 112/275/25
f 99/274/32 117/279/33 116/256/33
f 188/280/60 141/281/61 186/282/60
f 114/283/17 106/284/16 107/285/16
f 107/286/11 134/287/26 135/288/12
f 121/289/62 115/290/17 114/283/17
f 188/291/4 137/292/4 140/293/4
f 36/294/52 94/260/41 37/295/41
f 52/296/41 100/259/27 95/261/41
f 94/260/41 38/297/27 37/295/41
f 109/263/52 52/296/41 95/261/41
f 101/269/27 10/298/23 38/297/27
f 55/299/23 120/266/22 97/268/23
f 96/267/23 41/300/22 10/298/23
f 68/301/27 97/268/23 100/259/27
f 7/302/33 98/273/32 21/303/32
f 99/274/32 59/304/47 111/272/47
f 21/303/32 110/271/47 5/305/47
f 116/256/33 66/114/32 99/274/32
f 131/258/56 67/306/63 51/307/64
f 131/258/56 65/308/54 116/256/54
f 34/309/64 132/310/43 130/257/55
f 34/309/64 117/279/54 7/302/54
f 119/311/65 54/34/13 67/306/63
f 11/312/13 107/286/11 135/288/12
f 134/287/26 56/32/11 54/34/13
f 39/313/63 135/288/12 132/310/43
f 15/314/16 114/283/17 107/285/16
f 106/284/16 63/315/17 56/316/16
f 48/317/57 108/262/52 36/294/52
f 124/264/57 58/318/52 109/263/52
f 111/272/47 60/319/24 126/270/24
f 5/305/47 127/276/24 43/320/24
f 126/270/24 61/155/25 112/275/25
f 6/321/25 128/322/28 44/323/28
f 112/275/25 62/103/28 129/277/28
f 43/320/24 113/278/25 6/321/25
f 115/290/17 57/324/62 63/315/17
f 26/325/17 121/289/62 114/283/17
f 123/255/58 48/317/57 47/326/58
f 47/326/36 128/253/36 123/255/36
f 64/126/58 124/264/57 122/254/59
f 122/254/36 62/124/36 64/126/36
f 103/327/66 130/257/55 102/328/67
f 102/328/67 132/310/43 118/329/44
f 103/327/66 119/311/65 131/258/56
f 105/330/39 134/287/26 104/331/38
f 105/330/39 132/310/43 135/288/12
f 104/331/38 119/311/65 133/332/44
f 136/333/68 139/334/69 138/335/69
f 141/336/70 137/337/68 136/333/68
f 187/338/5 136/339/5 138/340/5
f 186/282/5 136/339/5 183/341/5
f 192/342/4 137/292/4 193/343/4
f 187/338/42 139/344/71 192/342/42
f 306/345/65 268/346/66 292/347/44
f 8/348/5 320/349/5 20/87/5
f 291/350/54 14/351/64 3/135/54
f 31/91/5 316/352/5 17/353/5
f 315/354/61 356/355/60 354/356/60
f 313/357/69 310/358/68 312/359/69
f 247/360/4 258/96/4 253/361/4
f 311/362/68 315/363/70 310/358/68
f 356/364/5 311/20/5 361/22/5
f 345/365/5 362/366/5 367/367/5
f 330/368/35 323/369/72 322/122/35
f 383/370/73 387/371/1 382/372/73
f 279/131/38 306/345/65 292/347/44
f 302/373/36 30/374/36 297/375/36
f 253/376/48 22/377/46 27/224/48
f 341/378/15 319/379/74 318/46/15
f 301/380/24 286/104/25 300/156/24
f 57/324/62 289/381/17 63/315/17
f 355/146/4 310/382/4 351/221/4
f 67/306/63 305/383/55 51/307/64
f 331/384/75 325/111/30 327/385/76
f 54/34/13 293/153/43 67/306/63
f 259/144/41 17/386/52 18/145/41
f 407/387/20 375/388/77 374/389/77
f 332/390/4 235/84/4 247/360/4
f 298/391/57 64/126/58 296/125/59
f 368/392/78 387/371/1 393/24/7
f 333/393/31 316/233/51 326/110/31
f 304/394/56 269/395/67 268/346/66
f 237/396/4 330/397/4 238/398/4
f 289/381/17 295/399/62 288/49/17
f 31/400/57 297/375/58 30/374/58
f 248/401/4 241/402/4 244/52/4
f 252/403/32 1/404/47 12/240/32
f 257/405/47 25/83/24 1/404/47
f 357/406/5 307/407/5 270/408/5
f 250/86/4 340/409/4 249/410/4
f 313/411/71 355/146/42 360/21/42
f 284/412/47 300/156/24 285/413/47
f 402/414/5 394/415/5 371/416/5
f 342/417/4 245/418/4 244/52/4
f 282/242/52 31/400/57 17/386/52
f 337/419/4 237/396/4 242/420/4
f 340/409/4 239/421/4 249/410/4
f 251/422/4 248/401/4 252/51/4
f 263/134/32 285/413/47 264/116/32
f 345/423/79 391/424/80 380/425/79
f 52/296/41 283/244/52 260/243/41
f 160/426/81 172/427/50 153/428/50
f 154/429/35 161/430/34 175/431/34
f 175/432/82 170/433/74 151/434/74
f 156/435/10 168/436/9 155/437/9
f 158/438/31 164/439/30 157/440/30
f 159/441/76 167/442/83 160/426/81
f 149/443/14 166/444/51 148/445/51
f 148/445/51 165/446/31 158/438/31
f 150/447/15 174/448/14 149/449/14
f 151/434/74 173/450/15 150/447/15
f 152/451/37 169/452/10 156/435/10
f 157/440/30 163/453/75 159/441/76
f 153/454/50 171/455/37 152/451/37
f 155/456/72 162/457/35 154/429/35
f 41/458/4 151/215/4 10/459/4
f 73/164/5 169/460/5 78/162/5
f 49/112/4 160/461/4 46/100/4
f 78/162/5 171/462/5 75/163/5
f 48/463/4 148/464/4 158/465/4
f 15/193/4 156/202/4 155/466/4
f 72/217/5 170/467/5 161/468/5
f 73/164/5 162/218/5 168/469/5
f 36/470/4 149/212/4 148/464/4
f 41/458/4 154/194/4 175/471/4
f 75/163/5 172/210/5 85/169/5
f 49/112/4 157/472/4 159/473/4
f 77/160/5 170/467/5 76/157/5
f 48/463/4 157/472/4 47/119/4
f 258/474/46 24/252/45 22/377/46
f 4/79/23 266/97/27 19/143/27
f 394/415/5 389/475/5 384/476/5
f 378/477/5 394/415/5 384/476/5
f 359/30/5 345/365/5 344/31/5
f 366/149/5 349/29/5 368/478/5
f 390/479/80 380/425/79 391/424/80
f 322/480/5 9/481/5 13/482/5
f 294/483/22 55/299/23 262/98/23
f 394/415/5 407/484/5 374/485/5
f 363/222/53 357/486/53 346/245/53
f 299/487/57 283/244/52 298/391/57
f 259/144/41 265/99/27 260/243/41
f 340/488/50 328/489/81 321/490/50
f 284/412/47 12/136/32 1/491/47
f 310/382/4 354/356/4 351/221/4
f 262/98/23 68/301/27 265/99/27
f 304/394/56 290/115/54 305/383/55
f 9/481/5 324/492/5 8/348/5
f 60/319/24 285/413/47 300/156/24
f 389/475/5 377/493/5 392/494/5
f 58/318/52 298/391/57 283/244/52
f 335/495/83 327/385/76 328/489/81
f 330/397/4 236/74/4 238/398/4
f 354/356/60 362/496/53 363/222/53
f 396/497/84 376/498/85 397/499/84
f 265/99/27 52/296/41 260/243/41
f 102/500/29 190/501/29 103/502/29
f 133/503/4 190/501/4 191/504/4
f 118/505/5 178/506/5 179/507/5
f 118/505/5 180/508/5 102/500/5
f 133/503/4 189/509/4 104/510/4
f 104/511/53 178/506/53 105/512/53
f 198/513/29 192/342/42 200/514/29
f 364/148/4 347/515/4 348/117/4
f 197/516/5 183/341/5 199/517/5
f 199/517/5 187/338/5 198/513/5
f 210/518/85 230/519/84 231/520/84
f 196/521/53 186/282/60 197/516/53
f 185/522/4 196/523/4 201/524/4
f 181/525/4 191/504/4 190/501/4
f 177/526/4 191/504/4 176/527/4
f 181/525/4 200/514/4 202/528/4
f 184/529/4 193/343/4 182/530/4
f 185/522/4 193/343/4 188/291/4
f 383/370/73 147/531/79 146/2/2
f 246/532/4 253/361/4 254/533/4
f 297/375/58 298/391/57 296/125/59
f 301/380/24 1/491/47 25/237/24
f 338/75/4 241/402/4 240/76/4
f 302/534/28 2/238/25 27/535/28
f 400/536/4 406/537/4 405/234/4
f 339/538/4 242/420/4 239/421/4
f 399/539/5 408/540/5 407/484/5
f 249/410/4 234/541/4 248/401/4
f 361/22/5 352/542/5 350/44/5
f 392/494/5 396/543/5 386/544/5
f 321/88/5 29/11/5 14/89/5
f 206/545/86 205/546/87 204/547/87
f 250/86/4 251/422/4 232/95/4
f 296/125/36 302/373/36 297/375/36
f 32/10/5 325/90/5 30/92/5
f 223/548/4 228/549/4 218/550/4
f 224/551/80 206/545/86 225/552/80
f 295/399/62 13/553/17 288/49/17
f 306/345/65 14/351/64 304/394/56
f 246/532/4 332/390/4 247/360/4
f 291/350/33 264/116/32 290/115/33
f 334/554/4 246/532/4 245/418/4
f 261/78/23 294/483/22 262/98/23
f 309/94/26 20/555/63 306/345/65
f 213/556/5 229/557/5 219/558/5
f 371/559/87 372/560/86 370/561/87
f 319/562/5 23/563/5 4/564/5
f 184/529/4 200/514/4 192/342/4
f 177/526/4 196/523/4 189/509/4
f 189/565/53 197/516/53 178/506/53
f 209/566/77 211/567/85 210/518/85
f 179/507/5 198/513/5 180/508/5
f 178/506/5 199/517/5 179/507/5
f 180/508/29 200/514/29 190/501/29
f 344/568/73 380/425/79 382/372/73
f 19/249/5 319/562/5 4/564/5
f 353/569/88 385/142/18 379/570/88
f 65/308/54 305/383/55 290/115/54
f 307/407/5 358/106/5 269/108/5
f 362/366/5 353/43/5 367/367/5
f 269/395/67 293/153/43 307/154/44
f 222/571/5 210/572/5 227/573/5
f 226/574/4 230/575/4 211/576/4
f 222/571/5 229/557/5 209/577/5
f 212/578/4 207/579/4 224/580/4
f 223/548/4 211/576/4 208/581/4
f 214/582/79 224/583/80 225/584/80
f 227/573/5 231/585/5 221/586/5
f 216/587/73 215/588/79 214/582/79
f 212/578/4 228/549/4 205/589/4
f 213/556/5 206/590/5 204/591/5
f 221/592/1 230/519/84 220/593/1
f 221/594/1 217/595/73 216/587/73
f 145/152/40 212/596/88 142/597/88
f 213/598/88 201/599/89 225/600/80
f 142/597/88 224/601/80 194/602/89
f 219/603/18 185/604/88 213/598/88
f 225/584/80 177/605/79 214/582/79
f 147/531/79 217/595/73 146/2/2
f 214/582/79 176/606/73 216/587/73
f 194/607/89 215/588/79 147/531/79
f 146/2/2 220/608/1 144/3/3
f 216/587/73 181/609/3 221/594/1
f 143/151/6 218/610/18 145/152/40
f 222/611/8 182/612/40 219/603/18
f 221/594/1 202/613/78 227/614/7
f 144/3/3 226/615/7 195/616/78
f 227/614/7 184/617/6 222/611/8
f 195/616/78 223/618/8 143/151/6
f 397/619/4 393/620/4 387/621/4
f 257/53/4 245/418/4 255/622/4
f 338/623/74 343/624/82 319/379/74
f 59/304/47 264/116/32 285/413/47
f 395/229/4 379/625/4 385/230/4
f 23/563/5 322/480/5 13/482/5
f 378/626/88 145/152/40 142/597/88
f 63/315/17 280/48/16 56/316/16
f 401/627/5 399/539/5 402/414/5
f 381/628/79 194/607/89 147/531/79
f 372/560/86 390/629/80 391/630/80
f 376/631/4 388/228/4 393/620/4
f 17/353/5 317/248/5 18/250/5
f 352/542/5 366/149/5 368/478/5
f 292/118/4 346/245/4 279/247/4
f 404/632/4 395/229/4 375/633/4
f 405/634/90 371/559/87 370/561/87
f 241/402/4 342/417/4 244/52/4
f 403/635/4 400/536/4 404/632/4
f 287/236/25 303/105/28 286/104/25
f 402/636/90 406/55/19 401/637/19
f 379/625/4 372/638/4 391/639/4
f 390/640/80 142/597/88 194/602/89
f 255/622/4 246/532/4 254/533/4
f 238/398/4 240/76/4 243/641/4
f 228/549/4 277/642/4 256/643/4
f 229/557/5 274/644/5 209/577/5
f 229/557/5 275/645/5 267/646/5
f 392/647/7 144/3/3 195/616/78
f 366/149/29 348/117/29 358/106/29
f 228/549/4 272/648/4 205/589/4
f 349/649/3 382/372/73 387/371/1
f 243/641/4 241/402/4 234/541/4
f 377/650/85 375/388/77 376/498/85
f 278/651/21 274/652/20 273/653/21
f 276/654/19 272/655/90 271/656/19
f 373/657/5 378/477/5 390/658/5
f 242/420/4 234/541/4 239/421/4
f 237/396/4 243/641/4 242/420/4
f 256/643/4 271/659/4 272/648/4
f 276/654/19 233/660/18 203/661/18
f 205/546/87 275/662/90 204/547/87
f 209/566/77 277/663/20 208/664/77
f 203/661/18 278/651/21 273/653/21
f 267/646/5 273/665/5 274/644/5
f 267/646/5 276/666/5 203/667/5
f 256/643/4 278/668/4 233/669/4
f 396/497/84 387/670/1 386/671/1
f 365/147/4 346/245/4 347/515/4
f 389/672/8 195/616/78 143/151/6
f 381/628/79 382/372/73 380/425/79
f 367/673/89 379/570/88 391/674/80
f 412/675/91 420/676/92 419/677/91
f 411/678/92 421/679/93 420/676/92
f 413/680/93 422/681/94 421/682/93
f 422/681/94 415/683/95 423/684/95
f 415/683/95 424/685/96 423/684/95
f 416/686/96 425/687/97 424/685/96
f 425/687/97 418/688/98 426/689/98
f 418/688/98 419/677/91 426/689/98
f 410/690/5 411/691/5 412/692/5
f 410/690/5 413/693/5 411/691/5
f 410/690/5 414/694/5 413/693/5
f 410/690/5 415/695/5 414/694/5
f 410/690/5 416/696/5 415/695/5
f 410/690/5 417/697/5 416/696/5
f 410/690/5 418/698/5 417/697/5
f 410/690/5 412/692/5 418/698/5
f 409/699/4 419/700/4 420/701/4
f 409/699/4 420/701/4 421/702/4
f 409/699/4 421/702/4 422/703/4
f 409/699/4 422/703/4 423/704/4
f 409/699/4 423/704/4 424/705/4
f 409/699/4 424/705/4 425/706/4
f 409/699/4 425/706/4 426/707/4
f 409/699/4 426/707/4 419/700/4
f 386/1/1 383/370/73 146/2/2
f 12/4/4 16/39/4 18/5/4
f 1/6/4 18/5/4 17/7/4
f 328/9/5 327/708/5 32/10/5
f 31/12/4 30/709/4 27/13/4
f 10/15/5 41/710/5 26/16/5
f 38/18/5 10/15/5 45/17/5
f 311/20/5 313/411/5 360/21/5
f 352/23/6 368/392/78 393/24/7
f 336/26/9 337/128/10 324/27/10
f 349/29/5 358/106/5 359/30/5
f 56/32/11 280/711/11 308/33/12
f 8/35/4 28/72/4 33/36/4
f 14/38/4 20/37/4 33/36/4
f 50/19/5 45/17/5 11/40/5
f 45/17/5 26/16/5 15/42/5
f 353/43/5 356/364/5 361/22/5
f 342/45/14 341/378/15 318/46/15
f 280/48/16 289/381/17 288/49/17
f 252/51/4 248/401/4 244/52/4
f 398/54/18 401/637/19 406/55/19
f 404/57/20 407/387/20 408/58/21
f 7/60/5 21/80/5 35/61/5
f 44/63/5 47/712/5 48/64/5
f 5/66/5 43/73/5 36/67/5
f 24/69/5 29/11/5 32/10/5
f 9/71/4 13/138/4 28/72/4
f 43/73/5 6/65/5 48/64/5
f 236/74/4 329/713/4 338/75/4
f 23/77/22 295/399/22 261/78/23
f 21/80/5 5/66/5 37/68/5
f 255/81/24 254/223/25 2/82/25
f 34/62/5 35/61/5 50/19/5
f 235/84/4 331/714/4 335/85/4
f 35/61/5 37/68/5 38/18/5
f 20/87/5 320/349/5 321/88/5
f 325/90/5 326/715/5 31/91/5
f 308/33/12 280/711/11 281/93/11
f 235/84/4 250/86/4 232/95/4
f 266/97/27 261/78/23 262/98/23
f 46/100/4 34/189/4 7/101/4
f 62/103/28 61/155/25 286/104/25
f 358/106/29 348/117/29 268/107/29
f 332/109/30 333/393/31 326/110/31
f 49/112/4 46/100/4 42/102/4
f 66/114/32 65/308/33 290/115/33
f 348/117/4 347/515/4 292/118/4
f 47/119/4 49/112/4 40/113/4
f 329/121/34 330/368/35 322/122/35
f 62/124/36 303/716/36 296/125/36
f 28/72/4 4/139/4 19/127/4
f 16/39/4 33/36/4 19/127/4
f 337/128/10 339/225/37 320/129/37
f 281/93/11 9/717/11 8/130/13
f 308/33/12 309/94/26 279/131/38
f 3/133/4 14/38/4 16/39/4
f 263/134/32 291/350/33 3/135/33
f 3/137/5 14/89/5 29/11/5
f 13/138/4 23/718/4 4/139/4
f 25/8/4 17/7/4 31/12/4
f 22/70/5 32/10/5 30/92/5
f 350/141/40 352/23/6 388/25/8
f 19/143/27 266/97/27 259/144/41
f 355/146/4 351/221/4 365/147/4
f 360/21/42 355/146/42 364/148/29
f 384/150/18 389/672/8 143/151/6
f 293/153/43 308/33/12 270/132/39
f 61/155/25 60/319/24 300/156/24
f 76/157/5 72/217/5 74/158/5
f 77/160/5 76/157/5 79/159/5
f 70/161/5 79/159/5 78/162/5
f 79/159/5 74/158/5 73/164/5
f 87/165/5 85/169/5 86/166/5
f 87/165/5 88/179/5 84/168/5
f 89/170/5 83/180/5 82/171/5
f 92/173/5 91/178/5 81/174/5
f 69/167/5 86/166/5 71/176/5
f 91/178/5 90/172/5 82/171/5
f 88/179/5 92/173/5 80/175/5
f 93/177/5 71/176/5 83/180/5
f 85/169/5 84/168/5 70/161/5
f 84/168/5 80/175/5 77/160/5
f 42/181/45 69/207/45 93/182/46
f 77/160/5 80/175/5 174/184/5
f 71/176/5 86/166/5 167/186/5
f 46/100/4 160/461/4 153/188/4
f 6/190/25 90/214/25 91/191/24
f 15/193/4 155/466/4 154/194/4
f 5/196/47 92/220/47 88/197/32
f 82/171/5 165/219/5 166/199/5
f 11/200/4 39/208/4 152/201/4
f 40/183/46 93/182/46 89/203/48
f 71/176/5 163/187/5 164/205/5
f 7/206/49 87/209/49 69/207/45
f 39/208/4 34/189/4 153/188/4
f 21/198/32 88/197/32 87/209/49
f 86/166/5 85/169/5 172/210/5
f 38/211/4 150/216/4 149/212/4
f 44/204/48 89/203/48 90/214/25
f 38/211/4 10/459/4 151/215/4
f 72/217/5 161/468/5 162/218/5
f 82/171/5 83/180/5 164/205/5
f 43/192/24 91/191/24 92/220/47
f 81/174/5 166/199/5 174/184/5
f 408/58/21 398/54/18 369/56/18
f 351/221/4 354/356/4 363/222/4
f 254/223/25 253/376/48 27/224/48
f 339/225/37 340/719/50 321/226/50
f 288/49/17 13/553/17 9/227/16
f 388/228/4 375/633/4 395/229/4
f 334/231/51 342/720/14 317/232/14
f 395/229/4 400/536/4 405/234/4
f 287/236/25 301/380/24 25/237/24
f 251/239/49 252/403/32 12/240/32
f 282/242/52 259/144/41 260/243/41
f 346/245/53 357/486/53 270/246/53
f 317/248/5 318/721/5 19/249/5
f 232/251/45 251/239/49 3/241/49
f 128/253/36 129/722/36 122/254/36
f 116/256/54 117/279/54 130/257/55
f 100/259/27 101/269/27 94/260/41
f 95/261/41 94/260/41 108/262/52
f 124/264/57 125/265/57 123/255/58
f 109/263/52 108/262/52 125/265/57
f 120/266/22 121/289/22 96/267/23
f 97/268/23 96/267/23 101/269/27
f 126/270/24 127/276/24 110/271/47
f 111/272/47 110/271/47 98/273/32
f 112/275/25 113/278/25 127/276/24
f 129/277/28 128/322/28 113/278/25
f 99/274/32 98/273/32 117/279/33
f 188/280/60 140/723/61 141/281/61
f 114/283/17 115/290/17 106/284/16
f 107/286/11 106/724/11 134/287/26
f 121/289/62 120/266/62 115/290/17
f 188/291/4 193/343/4 137/292/4
f 36/294/52 108/262/52 94/260/41
f 52/296/41 68/301/27 100/259/27
f 94/260/41 101/269/27 38/297/27
f 109/263/52 58/318/52 52/296/41
f 101/269/27 96/267/23 10/298/23
f 55/299/23 57/324/22 120/266/22
f 96/267/23 121/289/22 41/300/22
f 68/301/27 55/299/23 97/268/23
f 7/302/33 117/279/33 98/273/32
f 99/274/32 66/114/32 59/304/47
f 21/303/32 98/273/32 110/271/47
f 116/256/33 65/308/33 66/114/32
f 131/258/56 119/311/65 67/306/63
f 131/258/56 51/307/64 65/308/54
f 34/309/64 39/313/63 132/310/43
f 34/309/64 130/257/55 117/279/54
f 119/311/65 134/287/26 54/34/13
f 11/312/13 15/725/11 107/286/11
f 134/287/26 106/724/11 56/32/11
f 39/313/63 11/312/13 135/288/12
f 15/314/16 26/325/17 114/283/17
f 106/284/16 115/290/17 63/315/17
f 48/317/57 125/265/57 108/262/52
f 124/264/57 53/726/57 58/318/52
f 111/272/47 59/304/47 60/319/24
f 5/305/47 110/271/47 127/276/24
f 126/270/24 60/319/24 61/155/25
f 6/321/25 113/278/25 128/322/28
f 112/275/25 61/155/25 62/103/28
f 43/320/24 127/276/24 113/278/25
f 115/290/17 120/266/62 57/324/62
f 26/325/17 41/300/62 121/289/62
f 123/255/58 125/265/57 48/317/57
f 47/326/36 44/727/36 128/253/36
f 64/126/58 53/726/57 124/264/57
f 122/254/36 129/722/36 62/124/36
f 103/327/66 131/258/56 130/257/55
f 102/328/67 130/257/55 132/310/43
f 103/327/66 133/332/44 119/311/65
f 105/330/39 135/288/12 134/287/26
f 105/330/39 118/329/44 132/310/43
f 104/331/38 134/287/26 119/311/65
f 136/333/68 137/337/68 139/334/69
f 141/336/70 140/728/70 137/337/68
f 187/338/5 183/341/5 136/339/5
f 186/282/5 141/281/5 136/339/5
f 192/342/4 139/344/4 137/292/4
f 187/338/42 138/340/71 139/344/71
f 306/345/65 304/394/56 268/346/66
f 8/348/5 324/492/5 320/349/5
f 291/350/54 304/394/56 14/351/64
f 31/91/5 326/715/5 316/352/5
f 315/354/61 314/729/61 356/355/60
f 313/357/69 311/362/68 310/358/68
f 247/360/4 235/84/4 258/96/4
f 311/362/68 314/730/70 315/363/70
f 356/364/5 314/731/5 311/20/5
f 345/365/5 357/406/5 362/366/5
f 330/368/35 336/732/72 323/369/72
f 383/370/73 386/1/1 387/371/1
f 279/131/38 309/94/26 306/345/65
f 302/373/36 27/733/36 30/374/36
f 253/376/48 258/474/46 22/377/46
f 341/378/15 338/623/74 319/379/74
f 301/380/24 287/236/25 286/104/25
f 57/324/62 294/483/62 289/381/17
f 355/146/4 312/734/4 310/382/4
f 67/306/63 293/153/43 305/383/55
f 331/384/75 332/109/30 325/111/30
f 54/34/13 308/33/12 293/153/43
f 259/144/41 282/242/52 17/386/52
f 407/387/20 404/57/20 375/388/77
f 332/390/4 331/714/4 235/84/4
f 298/391/57 53/726/57 64/126/58
f 368/392/78 349/649/3 387/371/1
f 333/393/31 334/231/51 316/233/51
f 304/394/56 305/383/55 269/395/67
f 237/396/4 336/735/4 330/397/4
f 289/381/17 294/483/62 295/399/62
f 31/400/57 299/487/57 297/375/58
f 248/401/4 234/541/4 241/402/4
f 252/403/32 257/405/47 1/404/47
f 257/405/47 255/81/24 25/83/24
f 357/406/5 359/30/5 307/407/5
f 250/86/4 335/85/4 340/409/4
f 313/411/71 312/734/71 355/146/42
f 284/412/47 301/380/24 300/156/24
f 402/414/5 399/539/5 394/415/5
f 342/417/4 334/554/4 245/418/4
f 282/242/52 299/487/57 31/400/57
f 337/419/4 336/735/4 237/396/4
f 340/409/4 339/538/4 239/421/4
f 251/422/4 249/410/4 248/401/4
f 263/134/32 284/412/47 285/413/47
f 345/423/79 367/736/89 391/424/80
f 52/296/41 58/318/52 283/244/52
f 160/426/81 167/442/83 172/427/50
f 154/429/35 162/457/35 161/430/34
f 175/432/82 161/737/82 170/433/74
f 156/435/10 169/452/10 168/436/9
f 158/438/31 165/446/31 164/439/30
f 159/441/76 163/453/75 167/442/83
f 149/443/14 174/738/14 166/444/51
f 148/445/51 166/444/51 165/446/31
f 150/447/15 173/450/15 174/448/14
f 151/434/74 170/433/74 173/450/15
f 152/451/37 171/455/37 169/452/10
f 157/440/30 164/439/30 163/453/75
f 153/454/50 172/739/50 171/455/37
f 155/456/72 168/740/72 162/457/35
f 41/458/4 175/471/4 151/215/4
f 73/164/5 168/469/5 169/460/5
f 49/112/4 159/473/4 160/461/4
f 78/162/5 169/460/5 171/462/5
f 48/463/4 36/470/4 148/464/4
f 15/193/4 11/200/4 156/202/4
f 72/217/5 76/157/5 170/467/5
f 73/164/5 74/158/5 162/218/5
f 36/470/4 37/213/4 149/212/4
f 41/458/4 26/195/4 154/194/4
f 75/163/5 171/462/5 172/210/5
f 49/112/4 47/119/4 157/472/4
f 77/160/5 173/185/5 170/467/5
f 48/463/4 158/465/4 157/472/4
f 258/474/46 232/251/45 24/252/45
f 4/79/23 261/78/23 266/97/27
f 394/415/5 374/485/5 389/475/5
f 378/477/5 371/416/5 394/415/5
f 359/30/5 357/406/5 345/365/5
f 366/149/5 358/106/5 349/29/5
f 390/479/80 381/628/79 380/425/79
f 322/480/5 323/741/5 9/481/5
f 294/483/22 57/324/22 55/299/23
f 394/415/5 399/539/5 407/484/5
f 363/222/53 362/496/53 357/486/53
f 299/487/57 282/242/52 283/244/52
f 259/144/41 266/97/27 265/99/27
f 340/488/50 335/495/83 328/489/81
f 284/412/47 263/134/32 12/136/32
f 310/382/4 315/354/4 354/356/4
f 262/98/23 55/299/23 68/301/27
f 304/394/56 291/350/54 290/115/54
f 9/481/5 323/741/5 324/492/5
f 60/319/24 59/304/47 285/413/47
f 389/475/5 374/485/5 377/493/5
f 58/318/52 53/726/57 298/391/57
f 335/495/83 331/384/75 327/385/76
f 330/397/4 329/713/4 236/74/4
f 354/356/60 356/355/60 362/496/53
f 396/497/84 377/650/85 376/498/85
f 265/99/27 68/301/27 52/296/41
f 102/500/29 180/508/29 190/501/29
f 133/503/4 103/502/4 190/501/4
f 118/505/5 105/512/5 178/506/5
f 118/505/5 179/507/5 180/508/5
f 133/503/4 191/504/4 189/509/4
f 104/511/53 189/565/53 178/506/53
f 198/513/29 187/338/42 192/342/42
f 364/148/4 365/147/4 347/515/4
f 197/516/5 186/282/5 183/341/5
f 199/517/5 183/341/5 187/338/5
f 210/518/85 211/567/85 230/519/84
f 196/521/53 188/280/60 186/282/60
f 185/522/4 188/291/4 196/523/4
f 181/525/4 176/527/4 191/504/4
f 177/526/4 189/509/4 191/504/4
f 181/525/4 190/501/4 200/514/4
f 184/529/4 192/342/4 193/343/4
f 185/522/4 182/530/4 193/343/4
f 383/370/73 381/628/79 147/531/79
f 246/532/4 247/360/4 253/361/4
f 297/375/58 299/487/57 298/391/57
f 301/380/24 284/412/47 1/491/47
f 338/75/4 341/742/4 241/402/4
f 302/534/28 287/236/25 2/238/25
f 400/536/4 369/743/4 406/537/4
f 339/538/4 337/419/4 242/420/4
f 399/539/5 398/744/5 408/540/5
f 249/410/4 239/421/4 234/541/4
f 361/22/5 360/21/5 352/542/5
f 392/494/5 377/493/5 396/543/5
f 321/88/5 328/9/5 29/11/5
f 206/545/86 207/745/86 205/546/87
f 250/86/4 249/410/4 251/422/4
f 296/125/36 303/716/36 302/373/36
f 32/10/5 327/708/5 325/90/5
f 223/548/4 208/581/4 228/549/4
f 224/551/80 207/745/86 206/545/86
f 295/399/62 23/77/62 13/553/17
f 306/345/65 20/555/63 14/351/64
f 246/532/4 333/746/4 332/390/4
f 291/350/33 263/134/32 264/116/32
f 334/554/4 333/746/4 246/532/4
f 261/78/23 295/399/22 294/483/22
f 309/94/26 8/130/13 20/555/63
f 213/556/5 204/591/5 229/557/5
f 371/559/87 373/747/86 372/560/86
f 319/562/5 343/748/5 23/563/5
f 184/529/4 202/528/4 200/514/4
f 177/526/4 201/524/4 196/523/4
f 189/565/53 196/521/53 197/516/53
f 209/566/77 208/664/77 211/567/85
f 179/507/5 199/517/5 198/513/5
f 178/506/5 197/516/5 199/517/5
f 180/508/29 198/513/29 200/514/29
f 344/568/73 345/423/79 380/425/79
f 19/249/5 318/721/5 319/562/5
f 353/569/88 350/141/40 385/142/18
f 65/308/54 51/307/64 305/383/55
f 307/407/5 359/30/5 358/106/5
f 362/366/5 356/364/5 353/43/5
f 269/395/67 305/383/55 293/153/43
f 222/571/5 209/577/5 210/572/5
f 226/574/4 220/749/4 230/575/4
f 222/571/5 219/558/5 229/557/5
f 212/578/4 205/589/4 207/579/4
f 223/548/4 226/574/4 211/576/4
f 214/582/79 215/588/79 224/583/80
f 227/573/5 210/572/5 231/585/5
f 216/587/73 217/595/73 215/588/79
f 212/578/4 218/550/4 228/549/4
f 213/556/5 225/750/5 206/590/5
f 221/592/1 231/520/84 230/519/84
f 221/594/1 220/608/1 217/595/73
f 145/152/40 218/610/18 212/596/88
f 213/598/88 185/604/88 201/599/89
f 142/597/88 212/596/88 224/601/80
f 219/603/18 182/612/40 185/604/88
f 225/584/80 201/751/89 177/605/79
f 147/531/79 215/588/79 217/595/73
f 214/582/79 177/605/79 176/606/73
f 194/607/89 224/583/80 215/588/79
f 146/2/2 217/595/73 220/608/1
f 216/587/73 176/606/73 181/609/3
f 143/151/6 223/618/8 218/610/18
f 222/611/8 184/617/6 182/612/40
f 221/594/1 181/609/3 202/613/78
f 144/3/3 220/608/1 226/615/7
f 227/614/7 202/613/78 184/617/6
f 195/616/78 226/615/7 223/618/8
f 397/619/4 376/631/4 393/620/4
f 257/53/4 244/52/4 245/418/4
f 338/623/74 329/752/82 343/624/82
f 59/304/47 66/114/32 264/116/32
f 395/229/4 370/235/4 379/625/4
f 23/563/5 343/748/5 322/480/5
f 378/626/88 384/150/18 145/152/40
f 63/315/17 289/381/17 280/48/16
f 401/627/5 398/744/5 399/539/5
f 381/628/79 390/479/80 194/607/89
f 372/560/86 373/747/86 390/629/80
f 376/631/4 375/633/4 388/228/4
f 17/353/5 316/352/5 317/248/5
f 352/542/5 360/21/5 366/149/5
f 292/118/4 347/515/4 346/245/4
f 404/632/4 400/536/4 395/229/4
f 405/634/90 402/636/90 371/559/87
f 241/402/4 341/742/4 342/417/4
f 403/635/4 369/743/4 400/536/4
f 287/236/25 302/534/28 303/105/28
f 402/636/90 405/634/90 406/55/19
f 379/625/4 370/235/4 372/638/4
f 390/640/80 378/626/88 142/597/88
f 255/622/4 245/418/4 246/532/4
f 238/398/4 236/74/4 240/76/4
f 228/549/4 208/581/4 277/642/4
f 229/557/5 267/646/5 274/644/5
f 229/557/5 204/591/5 275/645/5
f 392/647/7 386/1/1 144/3/3
f 366/149/29 364/148/29 348/117/29
f 228/549/4 256/643/4 272/648/4
f 349/649/3 344/568/73 382/372/73
f 243/641/4 240/76/4 241/402/4
f 377/650/85 374/389/77 375/388/77
f 278/651/21 277/663/20 274/652/20
f 276/654/19 275/662/90 272/655/90
f 373/657/5 371/416/5 378/477/5
f 242/420/4 243/641/4 234/541/4
f 237/396/4 238/398/4 243/641/4
f 256/643/4 233/669/4 271/659/4
f 276/654/19 271/656/19 233/660/18
f 205/546/87 272/655/90 275/662/90
f 209/566/77 274/652/20 277/663/20
f 203/661/18 233/660/18 278/651/21
f 267/646/5 203/667/5 273/665/5
f 267/646/5 275/645/5 276/666/5
f 256/643/4 277/642/4 278/668/4
f 396/497/84 397/499/84 387/670/1
f 365/147/4 363/222/4 346/245/4
f 389/672/8 392/647/7 195/616/78
f 381/628/79 383/370/73 382/372/73
f 367/673/89 353/569/88 379/570/88
f 412/675/91 411/678/92 420/676/92
f 411/678/92 413/753/93 421/679/93
f 413/680/93 414/754/94 422/681/94
f 422/681/94 414/754/94 415/683/95
f 415/683/95 416/686/96 424/685/96
f 416/686/96 417/755/97 425/687/97
f 425/687/97 417/755/97 418/688/98
f 418/688/98 412/675/91 419/677/91
