# Blender 5.0.1
# www.blender.org
mtllib boom_cyl_rod.mtl
o Piston.007
v 0.004693 -0.000792 -0.038454
v -0.453658 -0.002763 -0.608884
v 0.001862 0.012651 -0.036226
v -0.456491 0.010692 -0.606654
v -0.005825 0.022492 -0.030082
v -0.464185 0.020542 -0.600505
v -0.474679 0.024147 -0.592084
v -0.026775 0.022520 -0.013247
v -0.485161 0.020542 -0.583648
v -0.034436 0.012671 -0.007056
v -0.492822 0.010692 -0.577457
v -0.495609 -0.002763 -0.575171
v -0.034390 -0.014238 -0.006999
v -0.492776 -0.016217 -0.577401
v -0.026696 -0.024088 -0.013148
v -0.485082 -0.026067 -0.583550
v -0.016202 -0.027693 -0.021569
v -0.474588 -0.029672 -0.591970
v -0.005720 -0.024088 -0.030005
v -0.464106 -0.026067 -0.600406
v 0.001941 -0.014238 -0.036195
v -0.456446 -0.016217 -0.606597
v -0.033094 -0.000800 -0.008088
v -0.033115 0.011652 -0.008114
v -0.026025 0.020767 -0.013843
v -0.016324 0.024104 -0.021650
v -0.006612 0.020767 -0.029444
v 0.000509 0.011652 -0.035135
v 0.000530 -0.000800 -0.035108
v 0.000551 -0.013252 -0.035082
v -0.006539 -0.022368 -0.029353
v -0.016240 -0.025704 -0.021545
v -0.025952 -0.022368 -0.013752
v -0.033073 -0.013252 -0.008061
v -0.016261 -0.013252 -0.021572
v -0.016303 0.011652 -0.021624
v -0.037222 -0.000800 -0.004770
v -0.016328 0.026064 -0.021655
v 0.007721 0.011756 0.008271
v 0.014477 0.011785 0.016677
v 0.017778 0.011726 -0.013645
v 0.021073 0.011777 0.007670
v 0.022281 0.011756 -0.003429
v 0.017820 -0.013178 -0.013592
v 0.014519 -0.013119 0.016730
v 0.022323 -0.013148 -0.003376
v 0.021115 -0.013127 0.007722
v 0.014498 -0.000667 0.016703
v 0.017799 -0.000726 -0.013619
v 0.021094 -0.000675 0.007696
v 0.022302 -0.000696 -0.003403
v 0.007764 -0.013148 0.008324
v -0.015803 -0.013178 0.013428
v 0.004303 -0.013127 0.021233
v -0.006796 -0.013148 0.020024
v -0.015824 -0.000726 0.013402
v 0.001009 -0.013178 -0.000082
v -0.006817 -0.000696 0.019998
v 0.004282 -0.000675 0.021206
v -0.015845 0.011726 0.013376
v 0.000966 0.011726 -0.000134
v -0.006838 0.011756 0.019972
v 0.004261 0.011777 0.021180
vn 0.7795 -0.0000 -0.6264
vn 0.6743 0.5000 -0.5435
vn 0.7795 0.0015 -0.6264
vn 0.3883 0.8660 -0.3150
vn 0.3875 0.8667 -0.3143
vn -0.0017 1.0000 -0.0021
vn -0.0013 1.0000 -0.0023
vn -0.3912 0.8660 0.3114
vn -0.3900 0.8669 0.3104
vn -0.6760 0.4998 0.5415
vn -0.7795 -0.0000 0.6264
vn -0.7795 -0.0003 0.6264
vn -0.6742 -0.5000 0.5435
vn -0.6742 -0.5001 0.5435
vn -0.3883 -0.8660 0.3150
vn 0.0017 -1.0000 0.0021
vn 0.3912 -0.8660 -0.3114
vn 0.6765 -0.4987 -0.5419
vn 0.6759 -0.5000 -0.5414
vn 0.6264 0.0027 0.7795
vn 0.6265 0.0027 0.7795
vn 0.6264 0.0028 0.7795
vn -0.6911 0.0004 0.7228
vn -0.3619 0.0014 0.9322
vn 0.1527 0.0023 0.9883
vn 0.8546 0.0004 -0.5193
vn 0.9883 0.0014 -0.1528
vn 0.9883 0.0014 -0.1527
vn 0.9322 0.0023 0.3618
vn 0.9322 0.0023 0.3619
vn 0.8546 0.0003 -0.5193
vn 0.9883 0.0013 -0.1527
vn -0.3618 0.0014 0.9322
vn -0.6759 0.5000 0.5414
vt 0.867569 0.753030
vt 0.865282 0.633381
vt 0.867558 0.633381
vt 0.863014 0.753030
vt 0.863006 0.633381
vt 0.860736 0.753030
vt 0.860729 0.633381
vt 0.858459 0.753030
vt 0.858461 0.633381
vt 0.856183 0.633381
vt 0.853903 0.753030
vt 0.853903 0.633381
vt 0.851626 0.753030
vt 0.851628 0.633381
vt 0.849351 0.633381
vt 0.849348 0.753030
vt 0.847073 0.633381
vt 0.847071 0.753030
vt 0.844796 0.633381
vt 0.844793 0.753030
vt 0.842518 0.633381
vt 0.842516 0.753030
vt 0.840244 0.633381
vt 0.301821 0.389542
vt 0.304314 0.389156
vt 0.303260 0.390982
vt 0.298941 0.386663
vt 0.296448 0.387048
vt 0.297502 0.385223
vt 0.301435 0.392036
vt 0.299327 0.392036
vt 0.299327 0.384169
vt 0.301435 0.384169
vt 0.303487 0.384996
vt 0.302875 0.385609
vt 0.301513 0.383856
vt 0.299235 0.383856
vt 0.297275 0.384996
vt 0.296448 0.389156
vt 0.296131 0.386966
vt 0.297269 0.391212
vt 0.296131 0.389242
vt 0.297887 0.390596
vt 0.301513 0.392355
vt 0.299235 0.392355
vt 0.303485 0.391217
vt 0.304624 0.389244
vt 0.304624 0.386967
vt 0.304314 0.387048
vt 0.425384 0.334234
vt 0.422330 0.332471
vt 0.425384 0.332471
vt 0.428438 0.332471
vt 0.428910 0.334234
vt 0.447317 0.335215
vt 0.450371 0.336978
vt 0.447317 0.336978
vt 0.444263 0.336978
vt 0.443790 0.335215
vt 0.075948 0.346419
vt 0.077984 0.344593
vt 0.077984 0.346419
vt 0.075948 0.342768
vt 0.077984 0.342768
vt 0.077984 0.340943
vt 0.077984 0.335466
vt 0.075948 0.337292
vt 0.075948 0.335466
vt 0.077984 0.337292
vt 0.075948 0.339117
vt 0.077984 0.339117
vt 0.075948 0.340943
vt 0.073912 0.335466
vt 0.073912 0.337292
vt 0.073912 0.339117
vt 0.073912 0.340943
vt 0.073912 0.346419
vt 0.075948 0.344593
vt 0.073912 0.344593
vt 0.427147 0.331180
vt 0.447317 0.330707
vt 0.450843 0.335215
vt 0.077984 0.330959
vt 0.075948 0.330958
vt 0.073912 0.330959
vt 0.449080 0.338269
vt 0.447317 0.338742
vt 0.443790 0.330707
vt 0.425384 0.338742
vt 0.428910 0.338742
vt 0.073912 0.350927
vt 0.075948 0.350927
vt 0.445554 0.338269
vt 0.421857 0.334234
vt 0.077984 0.350927
vt 0.423621 0.331180
vt 0.425384 0.330708
vt 0.865291 0.753030
vt 0.856181 0.753030
vt 0.840238 0.753030
vt 0.073912 0.342768
vt 0.450843 0.330707
vt 0.421857 0.338742
s 1
usemtl Excavator
f 2/1/1 3/2/2 1/3/3
f 3/2/2 6/4/4 5/5/5
f 5/5/5 7/6/6 38/7/7
f 38/7/7 9/8/8 8/9/9
f 9/8/8 10/10/10 8/9/9
f 10/10/10 12/11/11 37/12/12
f 37/12/12 14/13/13 13/14/14
f 14/13/13 15/15/15 13/14/14
f 16/16/15 17/17/16 15/15/15
f 18/18/16 19/19/17 17/17/16
f 20/20/17 21/21/18 19/19/17
f 22/22/19 1/23/3 21/21/18
f 35/24/20 33/25/20 32/26/20
f 36/27/20 27/28/20 26/29/20
f 35/24/20 31/30/20 30/31/20
f 25/32/20 36/27/20 26/29/20
f 24/33/20 37/34/20 23/35/20
f 25/32/20 10/36/21 24/33/20
f 26/29/20 8/37/20 25/32/20
f 27/28/20 38/38/20 26/29/20
f 28/39/20 5/40/20 27/28/20
f 28/39/20 1/41/20 3/42/20
f 30/31/20 1/41/20 29/43/20
f 30/31/20 19/44/20 21/45/20
f 31/30/20 17/46/20 19/44/20
f 32/26/20 15/47/22 17/46/20
f 33/25/20 13/48/21 15/47/22
f 34/49/20 37/34/20 13/48/21
f 61/50/6 62/51/6 39/52/6
f 61/50/6 43/53/6 41/54/6
f 57/55/16 46/56/16 52/57/16
f 57/55/16 55/58/16 53/59/16
f 56/60/23 62/61/24 60/62/23
f 62/61/24 59/63/25 63/64/25
f 59/63/25 40/65/20 63/64/25
f 41/66/26 51/67/27 49/68/26
f 43/69/28 50/70/29 51/67/27
f 42/71/30 48/72/20 50/70/29
f 44/73/31 51/67/27 46/74/32
f 46/74/32 50/70/29 47/75/30
f 47/75/30 48/72/20 45/76/20
f 53/77/23 58/78/24 56/60/23
f 55/79/33 59/63/25 58/78/24
f 59/63/25 45/76/20 48/72/20
f 39/52/6 42/80/6 43/53/6
f 35/81/16 44/82/16 57/55/16
f 28/83/1 49/68/26 29/84/1
f 29/84/1 44/73/31 30/85/1
f 52/57/16 47/86/16 45/87/16
f 35/81/16 53/59/16 34/88/16
f 36/89/6 41/54/6 28/90/6
f 34/91/11 56/60/23 23/92/11
f 52/57/16 54/93/16 55/58/16
f 36/89/6 60/94/6 61/50/6
f 23/92/11 60/62/23 24/95/11
f 39/52/6 63/96/6 40/97/6
f 2/1/1 4/98/2 3/2/2
f 3/2/2 4/98/2 6/4/4
f 5/5/5 6/4/4 7/6/6
f 38/7/7 7/6/6 9/8/8
f 9/8/8 11/99/34 10/10/10
f 10/10/10 11/99/34 12/11/11
f 37/12/12 12/11/11 14/13/13
f 14/13/13 16/16/15 15/15/15
f 16/16/15 18/18/16 17/17/16
f 18/18/16 20/20/17 19/19/17
f 20/20/17 22/22/19 21/21/18
f 22/22/19 2/100/1 1/23/3
f 35/24/20 34/49/20 33/25/20
f 36/27/20 28/39/20 27/28/20
f 35/24/20 32/26/20 31/30/20
f 25/32/20 24/33/20 36/27/20
f 24/33/20 10/36/21 37/34/20
f 25/32/20 8/37/20 10/36/21
f 26/29/20 38/38/20 8/37/20
f 27/28/20 5/40/20 38/38/20
f 28/39/20 3/42/20 5/40/20
f 28/39/20 29/43/20 1/41/20
f 30/31/20 21/45/20 1/41/20
f 30/31/20 31/30/20 19/44/20
f 31/30/20 32/26/20 17/46/20
f 32/26/20 33/25/20 15/47/22
f 33/25/20 34/49/20 13/48/21
f 34/49/20 23/35/20 37/34/20
f 61/50/6 60/94/6 62/51/6
f 61/50/6 39/52/6 43/53/6
f 57/55/16 44/82/16 46/56/16
f 57/55/16 52/57/16 55/58/16
f 56/60/23 58/78/24 62/61/24
f 62/61/24 58/78/24 59/63/25
f 59/63/25 48/72/20 40/65/20
f 41/66/26 43/69/28 51/67/27
f 43/69/28 42/71/30 50/70/29
f 42/71/30 40/65/20 48/72/20
f 44/73/31 49/68/26 51/67/27
f 46/74/32 51/67/27 50/70/29
f 47/75/30 50/70/29 48/72/20
f 53/77/23 55/79/33 58/78/24
f 55/79/33 54/101/25 59/63/25
f 59/63/25 54/101/25 45/76/20
f 39/52/6 40/97/6 42/80/6
f 35/81/16 30/102/16 44/82/16
f 28/83/1 41/66/26 49/68/26
f 29/84/1 49/68/26 44/73/31
f 52/57/16 46/56/16 47/86/16
f 35/81/16 57/55/16 53/59/16
f 36/89/6 61/50/6 41/54/6
f 34/91/11 53/77/23 56/60/23
f 52/57/16 45/87/16 54/93/16
f 36/89/6 24/103/6 60/94/6
f 23/92/11 56/60/23 60/62/23
f 39/52/6 62/51/6 63/96/6
