# Blender 5.0.1
# www.blender.org
mtllib boom.mtl
o Arm_bottom.001
v 0.999438 0.091014 0.948845
v 0.957627 0.091014 1.016336
v 0.905774 0.091014 1.052902
v 0.842979 0.091014 1.047063
v 0.769465 0.091014 1.008428
v 0.603521 0.091014 0.868269
v 0.528975 0.091014 0.777085
v -0.019378 0.091014 0.015383
v 1.913640 0.091014 0.822819
v 1.930837 0.091014 0.810205
v 1.928292 0.091014 0.774968
v 1.902079 0.091014 0.770451
v 1.092832 0.091014 0.743534
v 0.999602 0.091014 0.711709
v 0.939559 0.091014 0.675963
v 0.917783 0.091014 0.649299
v 0.893655 0.091014 0.640954
v 0.866248 0.091014 0.648624
v 0.805806 0.091014 0.652899
v 0.722721 0.091014 0.624514
v 0.654187 0.091014 0.578277
v 0.539185 0.091014 0.488357
v 0.024997 0.091014 -0.010216
v -0.001834 0.091014 -0.029977
v 0.425007 0.091014 0.632666
v -0.024400 0.091014 -0.014148
v 1.151981 0.091014 0.923317
v 1.456999 0.091014 0.760354
v 1.483512 0.091014 0.877966
v 0.691263 0.091014 0.942378
v 0.999438 -0.091215 0.948845
v 0.957627 -0.091215 1.016336
v 0.905774 -0.091215 1.052902
v 0.842979 -0.091215 1.047063
v 0.769465 -0.091215 1.008428
v 0.603521 -0.091215 0.868269
v 0.528975 -0.091215 0.777085
v -0.019378 -0.091215 0.015383
v 1.913640 -0.091215 0.822819
v 1.930837 -0.091215 0.810205
v 1.928292 -0.091215 0.774968
v 1.902079 -0.091215 0.770451
v 1.092832 -0.091215 0.743534
v 0.999602 -0.091215 0.711709
v 0.939559 -0.091215 0.675963
v 0.917783 -0.091215 0.649299
v 0.893655 -0.091215 0.640954
v 0.866248 -0.091215 0.648624
v 0.805806 -0.091215 0.652899
v 0.722721 -0.091215 0.624514
v 0.654187 -0.091215 0.578277
v 0.539185 -0.091215 0.488357
v 0.024997 -0.091215 -0.010216
v -0.001834 -0.091215 -0.029977
v 0.425007 -0.091215 0.632666
v -0.024400 -0.091215 -0.014148
v 1.151981 -0.091215 0.923317
v 1.456999 -0.091215 0.760354
v 1.483512 -0.091215 0.877966
v 0.691263 -0.091215 0.942378
v 0.763512 -0.064433 1.017269
v 0.839908 -0.064433 1.057418
v 0.684426 -0.064433 0.950472
v 1.005918 -0.064433 0.958503
v 1.153574 -0.064433 0.933794
v 0.520566 -0.064433 0.783540
v 0.595937 -0.064433 0.875732
v 0.946901 -0.064433 0.667616
v 0.925115 -0.064433 0.640934
v 1.903104 -0.064432 0.759876
v 1.457364 -0.064433 0.749764
v 0.416408 -0.064433 0.638857
v 1.003451 -0.064433 0.701827
v 0.893996 -0.064433 0.629547
v 1.094828 -0.064433 0.733019
v 0.864464 -0.064433 0.637994
v 1.939554 -0.064432 0.816951
v 0.763512 0.064232 1.017269
v 1.484904 -0.064433 0.888470
v 0.839908 0.064232 1.057418
v 0.684426 0.064232 0.950472
v 1.933798 -0.064432 0.765165
v 1.005918 0.064232 0.958503
v 0.727479 -0.064433 0.614943
v 1.917701 -0.064432 0.832981
v 1.153574 0.064232 0.933794
v 0.520566 0.064232 0.783540
v 0.546156 -0.064433 0.480357
v 0.965498 -0.064433 1.023751
v 0.595937 0.064232 0.875732
v 0.946901 0.064232 0.667616
v 0.908685 -0.064433 1.063815
v 0.925115 0.064232 0.640934
v 1.903104 0.064232 0.759876
v 1.785461 -0.064432 0.849935
v 1.784114 -0.091215 0.839425
v 1.457364 0.064232 0.749764
v 0.416408 0.064232 0.638857
v 1.775558 -0.091215 0.767581
v 1.003451 0.064232 0.701827
v 1.775799 -0.064432 0.756988
v 1.780630 -0.064432 0.803461
v 0.893996 0.064232 0.629547
v 1.094828 0.064232 0.733019
v 1.910402 -0.064432 0.796428
v 0.876963 -0.064433 0.932469
v 0.864464 0.064232 0.637994
v 1.939554 0.064232 0.816951
v 0.788621 -0.064433 0.914633
v 0.694444 -0.064433 0.895620
v 1.484904 0.064232 0.888470
v 0.944594 -0.064433 0.946123
v 1.947654 -0.091215 0.796634
v 1.933798 0.064232 0.765165
v 1.934396 -0.091215 0.781955
v 0.727479 0.064232 0.614943
v 1.944338 -0.064432 0.777231
v 1.917701 0.064232 0.832981
v 1.947654 -0.064432 0.796634
v 1.928492 -0.064433 0.790627
v 0.546156 0.064232 0.480357
v 0.965498 0.064232 1.023751
v -0.013010 -0.091215 -0.040390
v 0.908685 0.064232 1.063815
v 1.785461 0.064232 0.849935
v -0.020329 -0.091215 -0.022974
v 1.784114 0.091014 0.839425
v 1.775558 0.091014 0.767581
v 1.775799 0.064232 0.756988
v -0.029412 -0.069976 0.019580
v 0.006699 -0.068683 0.069741
v 1.780630 0.064232 0.803461
v 1.910402 0.064232 0.796428
v 0.876963 0.064232 0.932469
v -0.013010 -0.072984 -0.040390
v 0.788621 0.064232 0.914633
v 0.694444 0.064232 0.895620
v 0.001569 -0.072735 -0.040630
v 0.944594 0.064232 0.946123
v 1.947654 0.091014 0.796634
v 1.934396 0.091014 0.781955
v 0.176888 -0.000100 0.122446
v -0.028671 -0.072908 -0.030184
v 0.031858 -0.069524 -0.018322
v -0.035396 -0.072851 -0.015606
v 0.059965 -0.048381 0.143731
v 1.944338 0.064232 0.777231
v 1.947654 0.064232 0.796634
v 1.928492 0.064232 0.790627
v -0.013010 0.091014 -0.040390
v -0.020329 0.091014 -0.022974
v 0.090743 -0.000100 0.186513
v -0.031802 -0.073231 -0.023398
v -0.008087 -0.073231 -0.040471
v 0.073260 -0.068683 0.021823
v 0.139750 -0.048381 0.086293
v -0.029412 0.069775 0.019580
v 0.006699 0.068482 0.069741
v 0.520566 -0.000100 0.783540
v 1.153574 -0.000100 0.933794
v -0.013010 0.072783 -0.040390
v 0.001569 0.072534 -0.040630
v -0.028671 0.072707 -0.030184
v 0.031858 0.069323 -0.018322
v -0.035396 0.072650 -0.015606
v 1.005918 -0.000100 0.958503
v 0.059965 0.048180 0.143731
v -0.031802 0.073031 -0.023398
v -0.008087 0.073030 -0.040471
v 0.073260 0.068482 0.021823
v 0.139750 0.048180 0.086293
v 0.876963 -0.000100 0.932469
v 0.595937 -0.000100 0.875732
v 1.457364 -0.000100 0.749764
v 0.416408 -0.000100 0.638857
v 1.001253 -0.000100 0.711625
v 1.484904 -0.000100 0.888470
v 0.933055 -0.000100 0.693117
v 0.546156 -0.000100 0.480357
v 1.785461 -0.000100 0.849935
v 1.775799 -0.000100 0.756988
v 1.780630 -0.000100 0.803461
v 0.788621 -0.000100 0.914633
v 0.694444 -0.000100 0.895620
v 0.943144 -0.000100 0.945830
v 0.090744 0.016923 0.186515
v 0.107890 -0.000100 0.210331
v 0.176889 0.016923 0.122447
v 0.198067 -0.000100 0.142982
v 0.946901 0.091014 0.667616
v 0.925115 0.091014 0.640934
v 1.003451 0.091014 0.701827
v 1.094828 0.091014 0.733019
v 1.457364 0.091014 0.749764
v 1.933798 0.091014 0.765165
v 1.903104 0.091014 0.759876
v 1.917701 0.091014 0.832981
v 1.939554 0.091014 0.816951
v 1.785461 0.091014 0.849935
v 0.965498 0.091014 1.023751
v 1.005918 0.091014 0.958503
v 0.908685 0.091014 1.063815
v 0.839908 0.091014 1.057418
v 0.763512 0.091014 1.017269
v 0.684426 0.091014 0.950472
v 0.520566 0.091014 0.783540
v 0.595937 0.091014 0.875732
v 0.416408 0.091014 0.638857
v 0.893996 0.091014 0.629547
v 0.864464 0.091014 0.637994
v 0.807659 0.091014 0.642335
v 0.727479 0.091014 0.614943
v 0.660421 0.091014 0.569701
v 0.546156 0.091014 0.480357
v 0.031858 0.091014 -0.018322
v 0.001569 0.091014 -0.040630
v -0.029412 0.091014 0.019580
v -0.035396 0.091014 -0.015606
v 1.153574 0.091014 0.933794
v 1.775799 0.091014 0.756988
v 1.484904 0.091014 0.888470
v 1.936707 0.091014 0.795480
v 1.944338 0.091014 0.777231
v -0.009783 0.091014 -0.029846
v -0.028671 0.091014 -0.030184
v 1.904352 0.083330 0.797514
v 1.913640 0.083330 0.822819
v 1.123873 0.083330 0.832027
v 1.151981 0.083330 0.923317
v 1.471134 0.083330 0.819117
v 1.483512 0.083330 0.877966
v 0.001223 0.083330 0.000629
v 0.024997 0.083330 -0.010216
v 0.481282 0.083330 0.559607
v 0.539185 0.083330 0.488357
v 0.590493 0.083330 0.676620
v 0.654187 0.083330 0.578277
v 1.009711 0.083330 0.844251
v 0.999438 0.083330 0.948845
v 0.661708 0.083330 0.745338
v 0.722721 0.083330 0.624514
v 0.746042 0.083330 0.796403
v 0.691263 0.083330 0.942378
v 0.944563 0.083330 0.850493
v 0.957627 0.083330 1.016336
v 0.895270 0.083330 0.850086
v 0.905774 0.083330 1.052902
v 0.855714 0.083330 0.841381
v 0.842979 0.083330 1.047063
v 0.800135 0.083330 0.822509
v 0.769465 0.083330 1.008428
v 1.902079 0.083330 0.770451
v 1.092832 0.083330 0.743534
v 1.456999 0.083330 0.760354
v -0.019378 0.083330 0.015383
v 0.425007 0.083330 0.632666
v 0.528975 0.083330 0.777085
v 0.999602 0.083330 0.711709
v 0.603521 0.083330 0.868269
v 0.805806 0.083330 0.652899
v 0.939559 0.083330 0.675963
v 0.917783 0.083330 0.649299
v 0.893655 0.083330 0.640954
v 0.866248 0.083330 0.648624
v 1.780653 0.083330 0.803682
v 1.775558 0.083330 0.767581
v 1.784114 0.083330 0.839425
v 1.928468 0.083330 0.790528
v 1.936707 0.083330 0.795480
v 1.934396 0.083330 0.781955
v -0.012910 0.083330 -0.020217
v -0.009783 0.083330 -0.029846
v -0.020329 0.083330 -0.022974
v 1.928292 0.083330 0.774968
v 1.930837 0.083330 0.810205
v -0.001834 0.083330 -0.029977
v -0.024400 0.083330 -0.014148
v 0.090744 -0.017124 0.186515
v 0.176889 -0.017124 0.122447
v 0.946901 -0.091215 0.667616
v 0.925115 -0.091215 0.640934
v 1.003451 -0.091215 0.701827
v 1.094828 -0.091215 0.733019
v 1.457364 -0.091215 0.749764
v 1.933798 -0.091215 0.765165
v 1.903104 -0.091215 0.759876
v 1.917701 -0.091215 0.832981
v 1.939554 -0.091215 0.816951
v 1.785461 -0.091215 0.849935
v 0.965498 -0.091215 1.023751
v 1.005918 -0.091215 0.958503
v 0.908685 -0.091215 1.063815
v 0.839908 -0.091215 1.057418
v 0.763512 -0.091215 1.017269
v 0.684426 -0.091215 0.950472
v 0.520566 -0.091215 0.783540
v 0.595937 -0.091215 0.875732
v 0.416408 -0.091215 0.638857
v 0.893996 -0.091215 0.629547
v 0.864464 -0.091215 0.637994
v 0.807659 -0.091215 0.642335
v 0.727479 -0.091215 0.614943
v 0.660421 -0.091215 0.569701
v 0.546156 -0.091215 0.480357
v 0.031858 -0.091215 -0.018322
v 0.001569 -0.091215 -0.040630
v -0.029412 -0.091215 0.019580
v -0.035396 -0.091215 -0.015606
v 1.153574 -0.091215 0.933794
v 1.775799 -0.091215 0.756988
v 1.484904 -0.091215 0.888470
v 1.936707 -0.091215 0.795480
v 1.944338 -0.091215 0.777231
v -0.009783 -0.091215 -0.029846
v -0.028671 -0.091215 -0.030184
v 1.904352 -0.083531 0.797514
v 1.913640 -0.083531 0.822819
v 1.123873 -0.083531 0.832027
v 1.151981 -0.083531 0.923317
v 1.471134 -0.083531 0.819117
v 1.483512 -0.083531 0.877966
v 0.001223 -0.083531 0.000629
v 0.024997 -0.083531 -0.010216
v 0.481282 -0.083531 0.559607
v 0.539185 -0.083531 0.488357
v 0.590493 -0.083531 0.676620
v 0.654187 -0.083531 0.578277
v 1.009711 -0.083531 0.844251
v 0.999438 -0.083531 0.948845
v 0.661708 -0.083531 0.745338
v 0.722721 -0.083531 0.624514
v 0.746042 -0.083531 0.796403
v 0.691263 -0.083531 0.942378
v 0.944563 -0.083531 0.850493
v 0.957627 -0.083531 1.016336
v 0.895270 -0.083531 0.850086
v 0.905774 -0.083531 1.052902
v 0.855714 -0.083531 0.841381
v 0.842979 -0.083531 1.047063
v 0.800135 -0.083531 0.822509
v 0.769465 -0.083531 1.008428
v 1.902079 -0.083531 0.770451
v 1.092832 -0.083531 0.743534
v 1.456999 -0.083531 0.760354
v -0.019378 -0.083531 0.015383
v 0.425007 -0.083531 0.632666
v 0.528975 -0.083531 0.777085
v 0.999602 -0.083531 0.711709
v 0.603521 -0.083531 0.868269
v 0.807658 0.064232 0.642335
v 0.936114 0.064232 0.681366
v 0.803238 -0.000100 0.653847
v 0.908629 -0.000100 0.686217
v 0.912351 0.064232 0.674146
v 0.886151 0.064232 0.666185
v 0.882150 -0.000100 0.678396
v 0.805806 -0.083531 0.652899
v 0.859688 -0.000100 0.671923
v 0.864388 0.064232 0.659572
v 0.939559 -0.083531 0.675963
v 1.001253 0.064232 0.711625
v 1.094828 -0.000100 0.733019
v 0.917783 -0.083531 0.649299
v 0.893655 -0.083531 0.640954
v 0.723996 0.064232 0.621248
v 0.723996 -0.000100 0.621248
v 0.866248 -0.083531 0.648624
v 0.660421 0.064232 0.569701
v 0.660421 -0.000100 0.569701
v 1.780653 -0.083531 0.803682
v 1.775558 -0.083531 0.767581
v 1.784114 -0.083531 0.839425
v 1.928468 -0.083531 0.790528
v 1.936707 -0.083531 0.795480
v 0.859688 0.064232 0.671923
v 0.882150 0.064232 0.678396
v 0.908629 0.064232 0.686217
v 0.933055 0.064232 0.693117
v 0.803238 0.064232 0.653847
v 1.934396 -0.083531 0.781955
v 0.904856 0.090672 1.014838
v -0.012910 -0.083531 -0.020217
v 0.898513 0.088227 0.661768
v -0.009783 -0.083531 -0.029846
v -0.020329 -0.083531 -0.022974
v 1.928292 -0.083531 0.774968
v 1.930837 -0.083531 0.810205
v -0.001834 -0.083531 -0.029977
v -0.024400 -0.083531 -0.014148
v 0.807658 -0.064433 0.642335
v 0.936114 -0.064433 0.681366
v 0.893096 0.090672 1.003078
v 0.888225 0.090672 1.014838
v 0.904857 0.090672 0.998207
v 0.916617 0.090672 1.003078
v 0.921488 0.090672 1.014838
v 0.916617 0.090672 1.026599
v 0.904856 0.090672 1.031470
v 0.893096 0.090672 1.026599
v 0.889177 0.088227 0.652854
v 0.885608 0.088227 0.662066
v 0.898215 0.088227 0.648863
v 0.907427 0.088227 0.652432
v 0.911417 0.088227 0.661470
v 0.907848 0.088227 0.670683
v 0.898810 0.088227 0.674673
v 0.889598 0.088227 0.671104
v 0.912351 -0.064433 0.674146
v 0.886151 -0.064433 0.666185
v 0.864388 -0.064433 0.659572
v 1.001253 -0.064433 0.711625
v 0.977878 0.091014 0.698776
v 0.951862 0.091014 0.684313
v 0.723996 -0.064433 0.621248
v 1.015646 0.091015 0.558582
v 1.014372 0.077275 0.544871
v 1.014745 0.086990 0.548887
v 1.046257 0.077275 0.544473
v 1.047706 0.091015 0.558180
v 1.046682 0.086990 0.548487
v 0.977878 0.094255 0.698776
v 0.951862 0.094255 0.684313
v 0.660421 -0.064433 0.569701
v 1.046619 0.089504 0.546042
v 1.046175 0.077926 0.541234
v 1.014288 0.077914 0.541630
v 1.014680 0.089441 0.546378
v 1.047691 0.094261 0.557567
v 1.015628 0.094250 0.557911
v 0.888225 -0.000100 1.014838
v 0.893096 -0.000100 1.003078
v 0.904857 -0.000100 0.998207
v 0.916617 -0.000100 1.003078
v 0.921488 -0.000100 1.014838
v 0.916617 -0.000100 1.026599
v 0.904856 -0.000100 1.031470
v 0.893096 -0.000100 1.026599
v 0.885608 -0.000100 0.662066
v 0.889177 -0.000100 0.652854
v 0.898215 -0.000100 0.648863
v 0.907427 -0.000100 0.652432
v 0.911417 -0.000100 0.661470
v 0.907848 -0.000100 0.670683
v 0.898810 -0.000100 0.674673
v 0.889598 -0.000100 0.671104
v 1.014372 -0.000100 0.544870
v 1.046257 -0.000100 0.544472
v 1.014288 -0.000100 0.541631
v 1.046175 -0.000100 0.541233
v 0.859688 -0.064433 0.671923
v 0.882150 -0.064433 0.678396
v 0.908629 -0.064433 0.686217
v 0.933055 -0.064433 0.693117
v 0.803238 -0.064433 0.653847
v 0.904856 -0.090873 1.014838
v 0.898513 -0.088428 0.661768
v 0.893096 -0.090873 1.003078
v 0.888225 -0.090873 1.014838
v 0.904857 -0.090873 0.998207
v 0.916617 -0.090873 1.003078
v 0.921488 -0.090873 1.014838
v 0.916617 -0.090873 1.026599
v 0.904856 -0.090873 1.031470
v 0.893096 -0.090873 1.026599
v 0.889177 -0.088428 0.652854
v 0.885608 -0.088428 0.662066
v 0.898215 -0.088428 0.648863
v 0.907427 -0.088428 0.652432
v 0.911417 -0.088428 0.661470
v 0.907848 -0.088428 0.670683
v 0.898810 -0.088428 0.674673
v 0.889598 -0.088428 0.671104
v 0.977878 -0.091215 0.698776
v 0.951862 -0.091215 0.684313
v 1.015646 -0.091215 0.558582
v 1.014372 -0.077476 0.544870
v 1.014745 -0.087191 0.548886
v 1.046258 -0.077476 0.544472
v 1.047707 -0.091215 0.558179
v 1.046682 -0.087191 0.548487
v 0.977878 -0.094456 0.698776
v 0.951862 -0.094456 0.684313
v 1.046620 -0.089705 0.546041
v 1.046175 -0.078127 0.541234
v 1.014289 -0.078115 0.541630
v 1.014681 -0.089642 0.546378
v 1.047691 -0.094462 0.557566
v 1.015629 -0.094451 0.557911
v 1.014848 0.070179 0.673448
v 1.059601 0.065479 0.666952
v 1.014848 -0.070381 0.673448
v 1.014848 -0.000101 0.673448
v 1.059882 -0.000101 0.672119
v 1.059602 -0.065680 0.666951
v 1.053267 -0.065680 0.550338
v 1.007952 -0.070380 0.546499
v 1.052986 -0.000100 0.545171
v 1.007951 -0.000100 0.546499
v 1.053266 0.065479 0.550338
v 1.007951 0.070180 0.546499
v 1.052986 -0.070380 0.545170
v 1.059882 -0.070381 0.672119
v 1.059882 0.070179 0.672119
v 1.052985 0.070180 0.545171
v 1.059602 -0.000101 0.666952
v 1.053267 -0.000100 0.550338
v 1.055468 -0.000101 0.667176
v 1.049133 -0.000100 0.550563
v 1.049133 -0.065680 0.550563
v 1.055468 -0.065680 0.667176
v 1.055468 0.065479 0.667176
v 1.049133 0.065479 0.550563
v 1.018496 0.091015 0.597845
v 1.050311 0.091015 0.602770
v 1.018482 0.094251 0.597304
v 1.050298 0.094260 0.602276
v 1.018496 -0.091215 0.597844
v 1.050312 -0.091215 0.602769
v 1.018482 -0.094452 0.597303
v 1.050299 -0.094461 0.602275
vn -0.0227 -0.0000 0.9997
vn -0.0965 -0.0000 0.9953
vn -0.4196 -0.0000 0.9077
vn -0.1865 -0.0000 0.9825
vn 0.1709 -0.0000 0.9853
vn -0.0301 -0.0000 0.9995
vn -0.0300 -0.0000 0.9995
vn -0.1272 -0.0000 -0.9919
vn -0.1314 -0.0000 -0.9913
vn -0.6530 -0.0000 0.7574
vn -0.5724 -0.0000 0.8199
vn 0.6453 -0.0000 -0.7640
vn 0.7127 -0.0000 -0.7014
vn 0.7933 -0.0000 -0.6089
vn 0.8116 -0.0000 -0.5843
vn -0.1503 -0.0000 -0.9886
vn -0.0344 -0.0000 0.9994
vn 0.5585 -0.0000 -0.8295
vn -0.5572 -0.0000 -0.8304
vn 0.2843 -0.0000 -0.9587
vn 0.9225 -0.0000 -0.3859
vn 0.9913 -0.0000 0.1315
vn -0.2578 -0.0000 -0.9662
vn 0.2926 -0.0000 0.9562
vn -0.3043 -0.0000 0.9526
vn -0.7279 -0.0000 -0.6857
vn -0.6460 -0.0000 0.7633
vn 0.7566 -0.0000 0.6539
vn -0.6570 -0.0000 0.7539
vn -0.0000 -1.0000 -0.0000
vn -0.3026 0.8578 -0.4155
vn -0.2292 0.9216 -0.3131
vn -0.2152 0.9297 -0.2989
vn -0.2843 -0.0000 0.9587
vn -0.5585 -0.0000 0.8295
vn -0.0000 1.0000 -0.0000
vn 0.2578 -0.0000 0.9662
vn -0.8116 -0.0003 0.5842
vn -0.8116 -0.0000 0.5843
vn 0.2424 -0.0000 -0.9702
vn 0.2669 -0.0000 -0.9637
vn 0.6557 -0.0000 -0.7550
vn 0.4228 -0.0000 -0.9062
vn -0.1289 -0.0000 0.9917
vn 0.1314 -0.0000 0.9913
vn 0.1272 -0.0000 0.9919
vn -0.2975 -0.0000 -0.9547
vn -0.7566 -0.0000 -0.6539
vn -0.7542 -0.0000 -0.6567
vn 0.0965 -0.0000 -0.9953
vn 0.0227 -0.0000 -0.9997
vn -0.1979 -0.0000 0.9802
vn -0.9081 -0.0000 -0.4189
vn -0.6453 -0.0000 0.7640
vn -0.7340 -0.0000 0.6792
vn -0.9225 -0.0000 0.3859
vn -0.9196 -0.0000 0.3929
vn 0.7279 -0.0000 0.6857
vn 0.7278 -0.0000 0.6857
vn -0.4452 -0.0000 0.8954
vn -0.5880 -0.0000 0.8089
vn 0.6460 -0.0000 -0.7633
vn 0.3180 -0.0000 -0.9481
vn 0.3043 -0.0000 -0.9526
vn 0.4270 -0.0000 0.9042
vn 0.5572 -0.0000 0.8304
vn 0.6570 -0.0000 -0.7539
vn 0.6569 -0.0000 -0.7539
vn 0.6961 -0.0000 -0.7179
vn 0.3711 -0.0000 0.9286
vn 0.6056 -0.0000 -0.7958
vn 0.7908 -0.0000 0.6121
vn 0.7908 -0.0000 0.6120
vn 0.5880 -0.0000 -0.8089
vn 0.4452 -0.0000 -0.8954
vn 0.1261 -0.0000 -0.9920
vn -0.0277 0.9989 -0.0365
vn -0.0522 0.9960 -0.0726
vn -0.0321 0.9987 -0.0399
vn 0.4897 -0.0000 -0.8719
vn -0.1765 -0.0000 -0.9843
vn 0.5105 -0.0000 -0.8599
vn 0.1503 -0.0000 0.9886
vn 0.1607 -0.0000 -0.9870
vn 0.0344 -0.0000 -0.9994
vn 0.1865 -0.0000 -0.9825
vn 0.0361 -0.0000 -0.9993
vn 0.5797 -0.0000 -0.8148
vn 0.5798 -0.0000 -0.8148
vn -0.7933 -0.0000 0.6089
vn -0.7127 -0.0000 0.7014
vn -0.0165 -0.0000 -0.9999
vn -0.9928 -0.0000 -0.1194
vn -0.3711 -0.0000 -0.9286
vn 0.9946 -0.0000 -0.1034
vn 0.9032 -0.0000 -0.4292
vn 0.9945 -0.0000 0.1048
vn 0.9945 -0.0000 0.1049
vn -0.9945 -0.0000 -0.1048
vn -0.7908 -0.0000 -0.6121
vn -0.7908 -0.0000 -0.6120
vn -0.4897 -0.0000 0.8719
vn -0.9032 -0.0000 0.4292
vn -0.2927 -0.0000 -0.9562
vn 0.6961 -0.0005 -0.7179
vn -0.0277 -0.9989 -0.0365
vn -0.0522 -0.9960 -0.0726
vn -0.0522 -0.9960 -0.0725
vn -0.0703 -0.9930 -0.0953
vn -0.0748 -0.9918 -0.1039
vn -0.2152 -0.9297 -0.2989
vn -0.2292 -0.9216 -0.3131
vn -0.8116 -0.0001 0.5843
vn 0.2776 -0.0000 -0.9607
vn 0.2801 -0.0000 -0.9600
vn -0.0355 -0.9982 -0.0493
vn 0.1351 -0.0000 -0.9908
vn -0.7742 -0.0000 0.6329
vn 0.2910 -0.0000 -0.9567
vn 0.3430 -0.0000 -0.9393
vn -0.5968 -0.0001 -0.8024
vn -0.5968 -0.0000 -0.8024
vn 0.6569 -0.0000 -0.7540
vn -0.8116 0.0001 0.5843
vn 0.6961 -0.0019 -0.7179
vn 0.6960 -0.0000 -0.7180
vn -0.8116 0.0003 0.5842
vn -0.3026 -0.8578 -0.4155
vn -0.3111 -0.8534 -0.4183
vn -0.5968 0.0001 -0.8024
vn -0.9913 -0.0000 -0.1315
vn 0.6961 0.0005 -0.7179
vn -0.0703 0.9930 -0.0953
vn -0.0748 0.9918 -0.1039
vn -0.0522 0.9960 -0.0725
vn -0.0323 0.9985 -0.0448
vn -0.0355 0.9982 -0.0493
vn 0.6961 0.0019 -0.7179
vn -1.0000 -0.0000 -0.0000
vn -0.7071 -0.0000 -0.7071
vn -0.0000 -0.0000 -1.0000
vn 0.7071 -0.0000 -0.7071
vn 1.0000 -0.0000 -0.0000
vn 0.7071 -0.0000 0.7071
vn -0.0000 -0.0000 1.0000
vn -0.7071 -0.0000 0.7071
vn -0.9997 -0.0000 0.0231
vn -0.7232 -0.0000 -0.6906
vn -0.0231 -0.0000 -0.9997
vn 0.6906 -0.0000 -0.7232
vn 0.9997 -0.0000 -0.0231
vn 0.7233 -0.0000 0.6906
vn 0.7232 -0.0000 0.6906
vn 0.0231 -0.0000 0.9997
vn -0.6906 -0.0000 0.7232
vn 0.0122 -0.1971 0.9803
vn 0.0090 -0.6969 0.7171
vn 0.0122 -0.1930 0.9811
vn 0.0087 -0.7179 0.6961
vn 0.0025 -0.9791 0.2035
vn 0.0122 0.1971 0.9803
vn 0.0090 0.6969 0.7171
vn 0.0087 0.7179 0.6961
vn 0.0023 -0.9824 0.1870
vn -0.0118 0.1973 -0.9803
vn -0.0094 0.6970 -0.7170
vn -0.0081 0.7178 -0.6962
vn -0.0031 0.9791 -0.2035
vn -0.0023 0.9824 -0.1866
vn -0.0118 -0.1973 -0.9803
vn -0.0094 -0.6970 -0.7170
vn -0.0123 -0.1926 -0.9812
vn -0.0003 1.0000 -0.0001
vn -0.9981 0.0273 0.0544
vn -0.9995 0.0119 0.0293
vn -0.9995 0.0129 0.0281
vn -0.9460 -0.0563 -0.3192
vn -0.7921 -0.0020 -0.6104
vn -0.9668 -0.0461 -0.2514
vn -0.0122 0.1926 -0.9812
vn -0.0125 -0.0000 -0.9999
vn 0.9968 -0.0101 -0.0789
vn 0.9653 0.0430 0.2577
vn 0.9468 0.0512 0.3176
vn 0.9977 -0.0313 -0.0603
vn 0.9994 -0.0141 -0.0301
vn 0.9977 -0.0331 -0.0597
vn -0.9997 -0.0000 0.0256
vn 0.9970 -0.0134 -0.0760
vn 0.0025 0.9791 0.2035
vn 0.0023 0.9824 0.1870
vn -0.4859 -0.0000 0.8740
vn -0.9969 0.0141 0.0775
vn -0.9982 0.0285 0.0534
vn 0.9995 -0.0152 -0.0287
vn 0.9997 -0.0000 -0.0256
vn 0.0125 -0.0000 0.9999
vn -0.0081 -0.7178 -0.6962
vn -0.0031 -0.9791 -0.2035
vn -0.0003 -1.0000 -0.0001
vn -0.0023 -0.9824 -0.1866
vn -0.0003 -1.0000 -0.0000
vn -0.9995 -0.0119 0.0293
vn -0.9981 -0.0273 0.0543
vn -0.9995 -0.0129 0.0282
vn -0.9460 0.0563 -0.3192
vn -0.7921 0.0020 -0.6104
vn -0.7921 -0.0000 -0.6104
vn 0.9653 -0.0430 0.2577
vn 0.9968 0.0101 -0.0789
vn 0.9468 -0.0512 0.3176
vn 0.9977 0.0314 -0.0603
vn 0.9994 0.0141 -0.0301
vn 0.9995 0.0152 -0.0287
vn 0.9970 0.0134 -0.0760
vn -0.9969 -0.0141 0.0775
vn -0.9968 -0.0112 0.0797
vn 0.0122 0.1930 0.9811
vn -0.0295 -0.0000 -0.9996
vn 0.0295 -0.0000 0.9996
vn 0.0542 -0.0000 0.9985
vn -0.9985 -0.0000 0.0542
vn 0.9985 -0.0000 -0.0543
vn 0.9985 -0.0000 -0.0542
vn -0.0542 -0.0000 -0.9985
vn 0.7983 0.0016 0.6022
vn 0.7983 -0.0000 0.6023
vn -0.9968 0.0112 0.0797
vn -0.0000 1.0000 -0.0001
vn 0.7983 -0.0016 0.6022
vn -0.9668 0.0461 -0.2513
vn -0.0000 -1.0000 -0.0001
vn -0.3111 0.8534 -0.4183
vn 0.6477 -0.0000 -0.7619
vn 0.6229 -0.0000 -0.7823
vn 0.1651 -0.0000 0.9863
vn -0.0321 -0.9987 -0.0399
vn 0.0511 -0.9962 0.0711
vn -0.0323 -0.9985 -0.0448
vn 0.0511 0.9962 0.0711
vn -0.0003 1.0000 -0.0000
vn -0.9982 -0.0285 0.0534
vn 0.9977 0.0332 -0.0597
vt 0.097440 0.032991
vt 0.101615 0.013064
vt 0.102928 0.013214
vt 0.066303 0.154451
vt 0.065326 0.138451
vt 0.066588 0.138630
vt 0.068532 0.178680
vt 0.069329 0.174131
vt 0.070640 0.174409
vt 0.084364 0.027170
vt 0.064746 0.071596
vt 0.063643 0.071060
vt 0.068297 0.165035
vt 0.065068 0.154562
vt 0.069397 0.170248
vt 0.070544 0.170007
vt 0.012711 0.188910
vt 0.019941 0.204531
vt 0.018880 0.205011
vt 0.067199 0.165394
vt 0.027165 0.220823
vt 0.041300 0.243631
vt 0.040261 0.244205
vt 0.040852 0.119510
vt 0.039820 0.118935
vt 0.028171 0.220276
vt 0.082448 0.081980
vt 0.096233 0.032638
vt 0.007509 0.174456
vt 0.013787 0.188510
vt 0.027166 0.141365
vt 0.026302 0.140356
vt 0.005623 0.162110
vt 0.008593 0.174176
vt 0.094606 0.343019
vt 0.098964 0.344299
vt 0.098741 0.345487
vt 0.007704 0.152360
vt 0.006767 0.162133
vt 0.095484 0.342131
vt 0.102349 0.344327
vt 0.101937 0.342766
vt 0.103015 0.343105
vt 0.015032 0.145151
vt 0.008808 0.152944
vt 0.101813 0.338181
vt 0.102876 0.337998
vt 0.100161 0.344336
vt 0.100481 0.345485
vt 0.015793 0.146291
vt 0.069113 0.237026
vt 0.070215 0.236726
vt 0.191334 0.141365
vt 0.178679 0.118935
vt 0.192198 0.140357
vt 0.172442 0.217761
vt 0.177199 0.243631
vt 0.163041 0.240459
vt 0.180327 0.162636
vt 0.202707 0.146291
vt 0.209692 0.152945
vt 0.118771 0.004167
vt 0.121872 0.006360
vt 0.119063 0.006028
vt 0.119759 0.345487
vt 0.117524 0.347228
vt 0.118019 0.345485
vt 0.179570 0.244943
vt 0.123893 0.343019
vt 0.178238 0.244206
vt 0.113846 0.013446
vt 0.115656 0.008580
vt 0.115572 0.013214
vt 0.116876 0.009112
vt 0.117565 0.008104
vt 0.118933 0.008638
vt 0.180376 0.188223
vt 0.198559 0.204531
vt 0.177823 0.203427
vt 0.115624 0.337998
vt 0.146749 0.236311
vt 0.148285 0.236726
vt 0.116885 0.013064
vt 0.127686 0.030018
vt 0.122267 0.032638
vt 0.119259 0.007296
vt 0.121431 0.007517
vt 0.120824 0.011704
vt 0.133068 0.027684
vt 0.212877 0.162110
vt 0.212495 0.174848
vt 0.210991 0.174456
vt 0.199620 0.205011
vt 0.192719 0.221578
vt 0.191334 0.220823
vt 0.207235 0.189445
vt 0.205789 0.188910
vt 0.148411 0.179351
vt 0.147859 0.174410
vt 0.149968 0.178680
vt 0.151769 0.188130
vt 0.153533 0.187802
vt 0.891939 0.705063
vt 0.876388 0.695656
vt 0.891808 0.695451
vt 0.134135 0.027170
vt 0.156381 0.070319
vt 0.154857 0.071060
vt 0.145480 0.076472
vt 0.193338 0.139053
vt 0.181264 0.178888
vt 0.204713 0.188510
vt 0.204359 0.143781
vt 0.210796 0.152360
vt 0.203468 0.145151
vt 0.147956 0.170007
vt 0.148595 0.164498
vt 0.150203 0.165035
vt 0.117026 0.343584
vt 0.116151 0.344327
vt 0.523638 0.867233
vt 0.522669 0.880665
vt 0.519679 0.867497
vt 0.387655 0.099709
vt 0.391941 0.101008
vt 0.391329 0.103925
vt 0.520556 0.856574
vt 0.236830 0.026542
vt 0.234159 0.031146
vt 0.234159 0.026542
vt 0.263404 0.125992
vt 0.273495 0.137077
vt 0.263404 0.137077
vt 0.191304 0.318102
vt 0.187102 0.328470
vt 0.187102 0.318102
vt 0.151191 0.178136
vt 0.543449 0.864323
vt 0.524651 0.857912
vt 0.541680 0.852482
vt 0.393774 0.098318
vt 0.390693 0.098116
vt 0.529408 0.849816
vt 0.526754 0.879368
vt 0.004328 0.279023
vt 0.008529 0.326557
vt 0.004328 0.326557
vt 0.201847 0.124203
vt 0.204707 0.127136
vt 0.201835 0.127136
vt 0.053068 0.043387
vt 0.057269 0.063362
vt 0.053068 0.063362
vt 0.151300 0.165394
vt 0.149103 0.170248
vt 0.118339 0.344336
vt 0.154778 0.187518
vt 0.244250 0.191457
vt 0.234159 0.176386
vt 0.244250 0.176386
vt 0.136052 0.081980
vt 0.121060 0.032991
vt 0.201886 0.128308
vt 0.713025 0.892489
vt 0.703524 0.910248
vt 0.708639 0.891362
vt 0.156026 0.201975
vt 0.154297 0.215133
vt 0.714566 0.851520
vt 0.713486 0.862428
vt 0.711131 0.853501
vt 0.122522 0.077355
vt 0.125854 0.077355
vt 0.126057 0.087051
vt 0.705197 0.846574
vt 0.707696 0.843572
vt 0.153125 0.214926
vt 0.154805 0.201946
vt 0.004328 0.117234
vt 0.007227 0.123135
vt 0.004328 0.123135
vt 0.695452 0.840619
vt 0.697700 0.837131
vt 0.124848 0.008418
vt 0.135610 0.026461
vt 0.004328 0.004859
vt 0.008529 0.004859
vt 0.007863 0.108187
vt 0.410087 0.204137
vt 0.414288 0.225050
vt 0.410087 0.225050
vt 0.325338 0.232826
vt 0.321137 0.255579
vt 0.321137 0.232826
vt 0.177647 0.119510
vt 0.414288 0.229302
vt 0.410087 0.229302
vt 0.325338 0.255579
vt 0.321137 0.268269
vt 0.325338 0.268269
vt 0.321137 0.281560
vt 0.880222 0.672045
vt 0.888956 0.666089
vt 0.891485 0.671104
vt 0.410087 0.238334
vt 0.414288 0.243220
vt 0.410087 0.243220
vt 0.325338 0.281560
vt 0.321137 0.290497
vt 0.273495 0.184635
vt 0.263404 0.171796
vt 0.273495 0.171796
vt 0.308952 0.236313
vt 0.313153 0.288771
vt 0.308952 0.288771
vt 0.203489 0.224536
vt 0.199287 0.281466
vt 0.199287 0.224536
vt 0.185884 0.053953
vt 0.190085 0.110883
vt 0.185884 0.110883
vt 0.039014 0.276405
vt 0.037230 0.287388
vt 0.037442 0.276305
vt 0.201808 0.121916
vt 0.204707 0.116015
vt 0.204707 0.121916
vt 0.325338 0.295315
vt 0.325338 0.290497
vt 0.118240 0.343344
vt 0.116563 0.342766
vt 0.325338 0.331431
vt 0.321137 0.316285
vt 0.325338 0.316285
vt 0.234159 0.249716
vt 0.244250 0.226232
vt 0.244250 0.249716
vt 0.325338 0.300513
vt 0.321137 0.295315
vt 0.038336 0.261274
vt 0.321137 0.305917
vt 0.325338 0.305917
vt 0.191304 0.312698
vt 0.187102 0.312698
vt 0.122522 0.197054
vt 0.126724 0.225019
vt 0.122522 0.225019
vt 0.004328 0.226565
vt 0.008529 0.203080
vt 0.008529 0.226565
vt 0.185884 0.003988
vt 0.190085 0.053953
vt 0.152197 0.154451
vt 0.150180 0.138886
vt 0.151912 0.138631
vt 0.321137 0.300513
vt 0.542367 0.895325
vt 0.540987 0.912056
vt 0.533156 0.894459
vt 0.126724 0.243699
vt 0.122522 0.243699
vt 0.201886 0.123431
vt 0.308952 0.212828
vt 0.313153 0.236313
vt 0.392337 0.124286
vt 0.397151 0.104470
vt 0.399666 0.124287
vt 0.712611 0.875212
vt 0.716962 0.875827
vt 0.699533 0.893654
vt 0.004328 0.136471
vt 0.007209 0.130873
vt 0.007660 0.136471
vt 0.717694 0.861866
vt 0.234159 0.226232
vt 0.244250 0.216418
vt 0.224067 0.349708
vt 0.234159 0.302175
vt 0.234159 0.349708
vt 0.101474 0.343584
vt 0.115484 0.343105
vt 0.149387 0.237026
vt 0.093652 0.008418
vt 0.085432 0.027684
vt 0.096382 0.074866
vt 0.096585 0.065170
vt 0.099917 0.065170
vt 0.209907 0.174176
vt 0.410087 0.263195
vt 0.414288 0.263195
vt 0.804188 0.989418
vt 0.796859 0.979327
vt 0.804188 0.979327
vt 0.308952 0.336305
vt 0.313153 0.336305
vt 0.966037 0.476784
vt 0.972359 0.497146
vt 0.965030 0.497146
vt 0.960216 0.477330
vt 0.957700 0.497146
vt 0.811518 0.989418
vt 0.811518 0.979327
vt 0.234159 0.141942
vt 0.244251 0.113976
vt 0.244251 0.141942
vt 0.203489 0.281466
vt 0.199287 0.331431
vt 0.153754 0.071596
vt 0.693768 0.862858
vt 0.696000 0.877777
vt 0.538310 0.842153
vt 0.526323 0.847158
vt 0.535452 0.838968
vt 0.693768 0.851084
vt 0.234159 0.216186
vt 0.224067 0.205595
vt 0.234159 0.205595
vt 0.153174 0.138451
vt 0.173607 0.145615
vt 0.153432 0.154562
vt 0.064203 0.215132
vt 0.065375 0.214926
vt 0.201173 0.106969
vt 0.200506 0.003641
vt 0.204707 0.003641
vt 0.963592 0.471178
vt 0.966674 0.470975
vt 0.965426 0.473868
vt 0.414288 0.235821
vt 0.410087 0.232733
vt 0.414288 0.232733
vt 0.053068 0.029469
vt 0.057269 0.025217
vt 0.057269 0.029469
vt 0.410087 0.235821
vt 0.414288 0.238334
vt 0.099437 0.006028
vt 0.097069 0.007517
vt 0.096628 0.006360
vt 0.094547 0.009204
vt 0.187102 0.293745
vt 0.191304 0.302682
vt 0.187102 0.302682
vt 0.008529 0.279023
vt 0.187102 0.267764
vt 0.191304 0.280454
vt 0.187102 0.280454
vt 0.116687 0.338181
vt 0.123015 0.342131
vt 0.969712 0.472569
vt 0.961539 0.472627
vt 0.062474 0.201975
vt 0.063695 0.201946
vt 0.004328 0.128354
vt 0.007200 0.128354
vt 0.007149 0.129527
vt 0.102844 0.008580
vt 0.100935 0.008103
vt 0.101765 0.007120
vt 0.007149 0.124650
vt 0.101623 0.009112
vt 0.190329 0.220277
vt 0.007188 0.125422
vt 0.004328 0.125422
vt 0.253312 0.207388
vt 0.255830 0.296188
vt 0.252645 0.310716
vt 0.880222 0.743421
vt 0.888956 0.749377
vt 0.881960 0.749083
vt 0.891613 0.734665
vt 0.878749 0.734494
vt 0.224067 0.191457
vt 0.234159 0.191457
vt 0.891808 0.720015
vt 0.876388 0.719810
vt 0.187102 0.245011
vt 0.191304 0.267764
vt 0.241733 0.018275
vt 0.244918 0.003973
vt 0.116735 0.007120
vt 0.253312 0.184635
vt 0.253312 0.171796
vt 0.263404 0.141059
vt 0.273495 0.145390
vt 0.263404 0.145390
vt 0.887775 0.750027
vt 0.119796 0.340382
vt 0.263404 0.110935
vt 0.273496 0.054004
vt 0.273496 0.110935
vt 0.244250 0.160622
vt 0.224067 0.160622
vt 0.224067 0.176386
vt 0.224067 0.226232
vt 0.224067 0.249716
vt 0.224067 0.141942
vt 0.234159 0.160622
vt 0.253313 0.004040
vt 0.263404 0.054004
vt 0.253313 0.054004
vt 0.224067 0.113976
vt 0.273495 0.149057
vt 0.263404 0.149057
vt 0.263404 0.158355
vt 0.253312 0.158355
vt 0.253312 0.110935
vt 0.224067 0.302175
vt 0.875098 0.707733
vt 0.875098 0.705063
vt 0.263404 0.207388
vt 0.224067 0.216418
vt 0.223401 0.003973
vt 0.226586 0.018274
vt 0.529066 0.896224
vt 0.536909 0.913871
vt 0.053068 0.025217
vt 0.057269 0.004303
vt 0.263403 0.288058
vt 0.260733 0.288058
vt 0.263403 0.283430
vt 0.057269 0.038501
vt 0.057269 0.043387
vt 0.231489 0.026542
vt 0.891939 0.710404
vt 0.875098 0.710404
vt 0.191304 0.293745
vt 0.187102 0.307500
vt 0.069905 0.164498
vt 0.072269 0.169397
vt 0.068320 0.138886
vt 0.067977 0.154418
vt 0.104653 0.013446
vt 0.092307 0.007296
vt 0.095954 0.004590
vt 0.082890 0.026461
vt 0.025162 0.139052
vt 0.014141 0.143781
vt 0.004045 0.162087
vt 0.006145 0.151502
vt 0.006005 0.174848
vt 0.011265 0.189445
vt 0.025781 0.221578
vt 0.017419 0.205669
vt 0.038930 0.244942
vt 0.072440 0.174883
vt 0.070089 0.179351
vt 0.066731 0.188130
vt 0.064967 0.187802
vt 0.065415 0.201922
vt 0.067004 0.214647
vt 0.071751 0.236311
vt 0.104408 0.337716
vt 0.104791 0.343554
vt 0.093421 0.344147
vt 0.038315 0.118089
vt 0.084087 0.082460
vt 0.062119 0.070319
vt 0.099069 0.033467
vt 0.099729 0.004167
vt 0.102974 0.005520
vt 0.104791 0.007896
vt 0.103626 0.345630
vt 0.100976 0.347228
vt 0.098272 0.347271
vt 0.073020 0.076472
vt 0.081232 0.081624
vt 0.055459 0.240459
vt 0.053234 0.128799
vt 0.046058 0.217761
vt 0.044893 0.145615
vt 0.040677 0.203427
vt 0.040669 0.154991
vt 0.038173 0.162636
vt 0.038124 0.188223
vt 0.037395 0.169508
vt 0.037236 0.178887
vt 0.063722 0.187518
vt 0.067309 0.178136
vt 0.098704 0.340382
vt 0.090814 0.030018
vt 0.097675 0.011703
vt 0.099241 0.007296
vt 0.099567 0.008638
vt 0.100260 0.343344
vt 0.891939 0.707733
vt 0.191304 0.328470
vt 0.187102 0.343616
vt 0.191304 0.307500
vt 0.095715 0.212834
vt 0.099917 0.184869
vt 0.099917 0.212834
vt 0.095715 0.231514
vt 0.099917 0.231514
vt 0.204707 0.135253
vt 0.201826 0.129654
vt 0.204707 0.129654
vt 0.244250 0.349708
vt 0.804188 0.969235
vt 0.385007 0.124287
vt 0.543449 0.879337
vt 0.244250 0.205595
vt 0.053068 0.035988
vt 0.057269 0.032900
vt 0.057269 0.035988
vt 0.053068 0.038501
vt 0.053068 0.032900
vt 0.123952 0.009204
vt 0.395828 0.099767
vt 0.273495 0.207388
vt 0.274161 0.310716
vt 0.270977 0.296188
vt 0.891613 0.680801
vt 0.878749 0.680972
vt 0.881960 0.666383
vt 0.883192 0.665499
vt 0.887775 0.665439
vt 0.811518 0.969235
vt 0.244250 0.302175
vt 0.273495 0.158355
vt 0.273496 0.004040
vt 0.266074 0.288058
vt 0.273496 0.125992
vt 0.114092 0.337716
vt 0.134413 0.082460
vt 0.214455 0.162087
vt 0.180185 0.118089
vt 0.146060 0.174883
vt 0.165266 0.128799
vt 0.137268 0.081624
vt 0.114874 0.345630
vt 0.119431 0.033467
vt 0.115526 0.005520
vt 0.126193 0.007296
vt 0.125078 0.344147
vt 0.211732 0.162133
vt 0.181105 0.169509
vt 0.177831 0.154991
vt 0.153085 0.201922
vt 0.149170 0.174131
vt 0.253312 0.137077
vt 0.039223 0.295635
vt 0.042514 0.300140
vt 0.039261 0.299203
vt 0.039362 0.308503
vt 0.253312 0.141059
vt 0.253312 0.145390
vt 0.041679 0.286424
vt 0.039134 0.287444
vt 0.039960 0.321781
vt 0.037434 0.308662
vt 0.253312 0.149057
vt 0.043824 0.333868
vt 0.038858 0.322028
vt 0.173049 0.321174
vt 0.173168 0.310135
vt 0.175713 0.311154
vt 0.173211 0.306239
vt 0.178773 0.306700
vt 0.173257 0.301944
vt 0.176548 0.297438
vt 0.173296 0.298376
vt 0.173396 0.289076
vt 0.037195 0.291369
vt 0.119535 0.344299
vt 0.173995 0.275798
vt 0.172892 0.275551
vt 0.177858 0.263711
vt 0.171468 0.288916
vt 0.171229 0.298211
vt 0.171242 0.301878
vt 0.171229 0.306209
vt 0.171264 0.310191
vt 0.171477 0.321274
vt 0.172371 0.336305
vt 0.273495 0.141059
vt 0.037208 0.295700
vt 0.037195 0.299367
vt 0.039176 0.291340
vt 0.044738 0.290878
vt 0.045084 0.296065
vt 0.892143 0.971141
vt 0.890146 0.956902
vt 0.892143 0.956902
vt 0.890146 0.971141
vt 0.888149 0.956902
vt 0.904123 0.971141
vt 0.902127 0.956902
vt 0.904123 0.956902
vt 0.902127 0.971141
vt 0.900130 0.956902
vt 0.900130 0.971141
vt 0.898133 0.956902
vt 0.898133 0.971141
vt 0.896136 0.956902
vt 0.894139 0.971141
vt 0.894139 0.956902
vt 0.966823 0.769185
vt 0.968372 0.783040
vt 0.966823 0.783040
vt 0.968372 0.769185
vt 0.969922 0.783040
vt 0.957524 0.769185
vt 0.959074 0.783040
vt 0.957524 0.783040
vt 0.959074 0.769185
vt 0.960624 0.783040
vt 0.960624 0.769185
vt 0.962173 0.783040
vt 0.962173 0.769185
vt 0.963723 0.783040
vt 0.965273 0.769185
vt 0.965273 0.783040
vt 0.890146 0.942662
vt 0.902127 0.942662
vt 0.898133 0.942662
vt 0.894139 0.942662
vt 0.968372 0.796896
vt 0.959074 0.796896
vt 0.965273 0.796896
vt 0.960624 0.796896
vt 0.502047 0.331457
vt 0.503045 0.333868
vt 0.501048 0.333868
vt 0.504457 0.332456
vt 0.504457 0.330459
vt 0.503045 0.329047
vt 0.501048 0.329047
vt 0.499636 0.330459
vt 0.499636 0.332456
vt 0.173593 0.565948
vt 0.175463 0.566723
vt 0.174368 0.567819
vt 0.175463 0.565173
vt 0.174368 0.564077
vt 0.172818 0.564077
vt 0.171722 0.565173
vt 0.171722 0.566723
vt 0.172818 0.567819
vt 0.519106 0.331457
vt 0.516695 0.330459
vt 0.518107 0.329047
vt 0.520104 0.329047
vt 0.521516 0.330459
vt 0.521516 0.332456
vt 0.520104 0.333868
vt 0.518107 0.333868
vt 0.516695 0.332456
vt 0.188214 0.563511
vt 0.190085 0.564286
vt 0.188989 0.565382
vt 0.187440 0.565382
vt 0.186344 0.564286
vt 0.188989 0.561640
vt 0.190085 0.562736
vt 0.186344 0.562736
vt 0.594497 0.763660
vt 0.599449 0.762011
vt 0.599500 0.763660
vt 0.968220 0.098245
vt 0.964517 0.101836
vt 0.963697 0.100401
vt 0.594497 0.787936
vt 0.599449 0.789585
vt 0.594439 0.789585
vt 0.967504 0.107241
vt 0.969057 0.099671
vt 0.972359 0.105851
vt 0.957609 0.755937
vt 0.962559 0.757891
vt 0.957549 0.757904
vt 0.962941 0.553596
vt 0.966541 0.557430
vt 0.961980 0.555308
vt 0.957609 0.731458
vt 0.962559 0.729504
vt 0.962611 0.731460
vt 0.963587 0.562876
vt 0.586175 0.842297
vt 0.587315 0.843721
vt 0.586806 0.843821
vt 0.962372 0.302116
vt 0.962103 0.319246
vt 0.961861 0.302057
vt 0.962611 0.755935
vt 0.957609 0.743697
vt 0.962611 0.743697
vt 0.652600 0.707664
vt 0.652793 0.714610
vt 0.652281 0.714664
vt 0.926056 0.513293
vt 0.924917 0.514716
vt 0.925673 0.512899
vt 0.587315 0.855959
vt 0.586806 0.855959
vt 0.652039 0.706109
vt 0.653113 0.707592
vt 0.965400 0.256649
vt 0.969102 0.260241
vt 0.964562 0.258076
vt 0.269998 0.543449
vt 0.270506 0.538779
vt 0.270506 0.543449
vt 0.962611 0.294391
vt 0.961546 0.295870
vt 0.962207 0.294018
vt 0.925425 0.514818
vt 0.924917 0.526955
vt 0.599500 0.775798
vt 0.966116 0.265645
vt 0.187440 0.561640
vt 0.963723 0.796896
vt 0.957524 0.796896
vt 0.966823 0.796896
vt 0.896136 0.942662
vt 0.900130 0.942662
vt 0.904123 0.942662
vt 0.892143 0.942662
vt 0.962173 0.796896
vt 0.916959 0.943515
vt 0.913360 0.947348
vt 0.912415 0.945624
vt 0.916313 0.952794
vt 0.917920 0.945227
vt 0.921182 0.951448
vt 0.587315 0.868197
vt 0.586175 0.869621
vt 0.586806 0.868097
vt 0.964222 0.214384
vt 0.964491 0.231514
vt 0.963983 0.231507
vt 0.779083 0.171160
vt 0.779275 0.164215
vt 0.779595 0.171215
vt 0.926056 0.540618
vt 0.924917 0.539195
vt 0.925425 0.539093
vt 0.778762 0.164142
vt 0.779837 0.162659
vt 0.550760 0.258526
vt 0.550251 0.263195
vt 0.550251 0.258526
vt 0.963983 0.206660
vt 0.965048 0.208138
vt 0.964536 0.208217
vt 0.925425 0.526955
vt 0.599500 0.787936
vt 0.594497 0.775798
vt 0.273186 0.982107
vt 0.280254 0.971083
vt 0.280254 0.982107
vt 0.280254 0.960058
vt 0.273186 0.971083
vt 0.273186 0.960058
vt 0.979670 0.232674
vt 0.972603 0.221650
vt 0.979670 0.221650
vt 0.972603 0.243699
vt 0.979670 0.243699
vt 0.314617 0.964601
vt 0.321683 0.984369
vt 0.314617 0.984544
vt 0.974147 0.408875
vt 0.974796 0.419162
vt 0.974147 0.419162
vt 0.565382 0.967038
vt 0.558317 0.986806
vt 0.558317 0.966863
vt 0.977233 0.759080
vt 0.976584 0.777400
vt 0.976584 0.759080
vt 0.667735 0.015782
vt 0.647792 0.004758
vt 0.667735 0.004758
vt 0.667735 0.026807
vt 0.647792 0.015782
vt 0.320871 0.682978
vt 0.301739 0.682241
vt 0.321683 0.682241
vt 0.320871 0.703553
vt 0.301739 0.704290
vt 0.302551 0.703553
vt 0.301739 0.693266
vt 0.302551 0.693266
vt 0.302551 0.682978
vt 0.321683 0.693266
vt 0.320871 0.693266
vt 0.321683 0.704290
vt 0.745719 0.986981
vt 0.727399 0.976694
vt 0.745719 0.976694
vt 0.727399 0.966407
vt 0.745719 0.966407
vt 0.977233 0.445430
vt 0.976584 0.435143
vt 0.977233 0.435143
vt 0.979021 0.559247
vt 0.979670 0.577567
vt 0.979021 0.577567
vt 0.974147 0.398587
vt 0.974796 0.408875
vt 0.977233 0.455717
vt 0.976584 0.445430
vt 0.652547 0.733534
vt 0.652039 0.733528
vt 0.962058 0.295949
vt 0.962832 0.580004
vt 0.967485 0.579618
vt 0.968354 0.124287
vt 0.963697 0.123937
vt 0.779329 0.190085
vt 0.779837 0.190079
vt 0.964733 0.214325
vt 0.917068 0.969922
vt 0.912415 0.969537
vt 0.965266 0.282691
vt 0.969922 0.282341
vt 0.122546 0.004590
vt 0.120228 0.347271
vt 0.113709 0.007896
vt 0.201081 0.205670
vt 0.212354 0.151502
vt 0.146231 0.169397
vt 0.385508 0.103379
vt 0.204707 0.124203
vt 0.707903 0.911434
vt 0.126724 0.197054
vt 0.007731 0.117234
vt 0.414288 0.204137
vt 0.263404 0.184635
vt 0.201305 0.116015
vt 0.321137 0.331431
vt 0.004328 0.203080
vt 0.190085 0.003988
vt 0.150523 0.154418
vt 0.313153 0.212828
vt 0.004328 0.130873
vt 0.095715 0.184869
vt 0.796859 0.989418
vt 0.971859 0.476238
vt 0.234159 0.113976
vt 0.203489 0.331431
vt 0.891485 0.744362
vt 0.191304 0.245011
vt 0.886747 0.750593
vt 0.883192 0.749967
vt 0.883820 0.750418
vt 0.263405 0.004040
vt 0.253312 0.125992
vt 0.053068 0.004303
vt 0.191304 0.343616
vt 0.201375 0.135253
vt 0.796859 0.969235
vt 0.883820 0.665048
vt 0.886747 0.664873
vt 0.151496 0.214647
vt 0.113709 0.343554
vt 0.179119 0.301514
vt 0.888149 0.971141
vt 0.896136 0.971141
vt 0.969922 0.769185
vt 0.963723 0.769185
vt 0.888149 0.942662
vt 0.969922 0.796896
vt 0.594439 0.762011
vt 0.967485 0.555706
vt 0.957549 0.729491
vt 0.958718 0.561530
vt 0.586568 0.841912
vt 0.962611 0.319239
vt 0.652451 0.705744
vt 0.969922 0.258805
vt 0.269998 0.538779
vt 0.961260 0.264255
vt 0.586568 0.870006
vt 0.925673 0.541012
vt 0.779425 0.162295
vt 0.550760 0.263195
vt 0.964387 0.206287
vt 0.972603 0.232674
vt 0.321683 0.964426
vt 0.565382 0.986981
vt 0.977233 0.777400
vt 0.647792 0.026807
vt 0.727399 0.986981
vt 0.979670 0.559247
vt 0.974796 0.398587
vt 0.976584 0.455717
s 1
usemtl Excavator
f 128/1/1 252/2/2 12/3/2
f 14/4/3 253/5/4 13/6/4
f 18/7/5 263/8/6 17/9/7
f 127/10/8 231/11/9 29/12/9
f 15/13/10 258/14/3 14/4/3
f 17/9/7 262/15/11 16/16/11
f 30/17/12 259/18/13 6/19/13
f 16/16/11 261/20/10 15/13/10
f 7/21/14 256/22/15 25/23/15
f 29/12/9 229/24/16 27/25/16
f 6/19/13 257/26/14 7/21/14
f 28/27/17 266/28/1 128/1/1
f 5/29/18 243/30/12 30/17/12
f 27/25/16 239/31/19 1/32/19
f 4/33/20 251/34/18 5/29/18
f 8/35/21 277/36/22 26/37/22
f 3/38/23 249/39/20 4/33/20
f 25/23/15 255/40/21 8/35/21
f 224/41/24 276/42/25 24/43/25
f 2/44/26 247/45/23 3/38/23
f 24/43/25 233/46/27 23/47/27
f 26/37/22 273/48/28 151/49/28
f 1/32/19 245/50/26 2/44/26
f 23/47/27 235/51/29 22/52/29
f 329/53/19 57/54/16 31/55/19
f 326/56/30 346/57/30 324/58/30
f 336/59/30 335/60/30 337/61/30
f 113/62/30 40/63/30 312/64/30
f 56/65/30 315/66/30 126/67/30
f 298/68/30 38/69/30 55/70/30
f 286/71/30 41/72/30 42/73/30
f 386/74/30 380/75/30 373/76/30
f 332/77/30 349/78/30 330/79/30
f 53/80/30 304/81/30 52/82/30
f 342/83/30 370/84/30 371/85/30
f 373/76/30 374/86/30 387/87/30
f 316/88/30 372/89/30 370/84/30
f 34/90/30 294/91/30 35/92/30
f 36/93/30 296/94/30 37/95/30
f 295/96/30 36/93/30 60/97/30
f 300/98/30 47/99/30 48/100/30
f 301/101/30 48/100/30 49/102/30
f 278/103/31 156/104/32 146/105/33
f 96/106/30 311/107/30 59/108/30
f 320/109/30 371/85/30 370/84/30
f 57/54/30 291/110/30 31/55/30
f 340/111/30 333/112/30 332/77/30
f 333/112/12 35/92/18 60/97/12
f 290/113/30 33/114/30 32/115/30
f 46/116/30 280/117/30 45/118/30
f 384/119/24 126/67/28 314/120/24
f 62/121/34 294/122/35 293/123/34
f 77/124/36 120/125/36 105/126/36
f 292/127/37 62/121/34 293/123/34
f 278/128/38 187/129/39 152/130/39
f 176/131/40 453/132/41 178/133/41
f 68/134/42 282/135/43 280/136/42
f 367/137/5 49/102/44 48/100/5
f 106/138/36 92/139/36 112/140/36
f 117/141/36 120/125/36 119/142/36
f 89/143/36 112/140/36 92/139/36
f 349/78/13 60/97/12 36/93/13
f 106/138/36 61/144/36 62/121/36
f 79/145/45 289/146/46 95/147/46
f 135/148/47 315/149/48 143/150/49
f 70/151/50 310/152/51 101/153/51
f 360/154/30 336/59/30 363/155/30
f 385/156/28 56/65/22 126/67/28
f 357/157/30 340/111/30 332/77/30
f 109/158/52 184/159/52 110/160/52
f 346/57/15 37/95/14 55/70/15
f 371/85/1 58/161/17 99/162/1
f 153/163/53 143/150/49 315/149/48
f 205/164/54 90/165/55 81/166/54
f 331/167/30 326/56/30 327/168/30
f 202/169/37 80/170/34 124/171/37
f 217/172/56 157/173/57 158/174/39
f 202/169/37 122/175/58 200/176/59
f 331/167/60 51/177/61 50/178/60
f 215/179/62 162/180/63 216/181/64
f 200/176/59 83/182/65 201/183/66
f 39/184/30 289/185/30 96/106/30
f 214/186/67 121/187/68 170/188/69
f 199/189/46 118/190/70 197/191/70
f 214/192/67 368/193/71 121/194/68
f 319/195/16 59/108/9 57/54/16
f 197/191/70 108/196/72 198/197/73
f 213/198/74 116/199/75 368/193/71
f 335/60/26 31/55/19 32/115/26
f 212/200/75 350/201/76 116/199/75
f 144/202/77 145/203/78 130/204/79
f 195/205/80 94/206/50 196/207/50
f 211/208/76 107/209/81 350/201/76
f 423/210/71 366/211/82 414/212/82
f 219/213/83 111/214/45 221/215/45
f 75/216/84 284/217/85 283/218/86
f 194/219/85 104/220/84 193/221/86
f 73/222/36 453/223/36 411/224/36
f 138/225/63 305/226/62 306/227/64
f 209/228/87 107/209/81 210/229/81
f 382/230/30 384/119/30 388/231/30
f 193/232/86 100/233/43 192/234/43
f 160/235/83 64/236/65 65/237/83
f 191/238/88 103/239/87 209/228/87
f 75/240/36 73/222/36 411/224/36
f 192/234/43 91/241/42 190/242/42
f 69/243/89 280/136/42 281/244/88
f 208/245/39 87/246/90 206/247/90
f 65/248/83 291/249/66 309/250/83
f 220/251/51 97/252/85 194/219/85
f 44/253/30 283/254/30 43/255/30
f 190/242/42 93/256/89 191/238/88
f 110/257/36 67/258/36 63/259/36
f 206/247/90 90/260/55 207/261/91
f 154/262/92 138/225/63 306/227/64
f 201/263/66 86/264/83 219/213/83
f 102/265/36 70/266/36 101/267/36
f 205/164/54 78/268/35 204/269/35
f 137/270/30 81/166/30 90/165/30
f 217/271/56 165/272/93 157/273/57
f 204/269/35 80/170/34 203/274/34
f 166/275/52 112/276/52 64/236/52
f 125/277/46 177/278/45 180/279/46
f 151/49/28 272/280/24 224/41/24
f 388/231/25 314/120/24 54/281/25
f 325/282/29 53/80/27 52/82/29
f 9/283/94 267/284/8 127/10/8
f 131/285/39 130/286/57 307/287/56
f 341/288/18 34/90/20 35/92/18
f 220/289/51 94/206/50 129/290/51
f 132/291/95 180/292/95 182/293/95
f 199/294/46 111/214/45 125/295/46
f 133/296/30 125/297/30 132/298/30
f 94/299/30 132/298/30 129/300/30
f 129/301/95 182/293/95 181/302/95
f 159/303/90 72/304/39 66/305/90
f 71/306/85 310/307/51 284/217/85
f 319/195/30 320/109/30 321/308/30
f 134/309/30 78/268/30 136/310/30
f 64/311/65 290/312/59 291/313/66
f 89/143/58 292/127/37 290/312/59
f 136/310/30 81/166/30 137/270/30
f 139/314/30 122/175/30 124/171/30
f 185/315/52 134/316/52 172/317/52
f 124/171/30 134/309/30 139/314/30
f 343/318/30 328/319/30 348/320/30
f 22/52/29 237/321/61 21/322/61
f 155/323/69 88/324/68 304/325/67
f 337/61/23 32/115/26 33/114/23
f 147/326/30 148/327/30 149/328/30
f 147/329/96 140/330/97 148/331/98
f 77/332/72 287/333/70 288/334/73
f 223/335/96 114/336/80 195/205/80
f 222/337/99 275/338/100 10/339/101
f 198/197/73 148/331/98 140/330/97
f 10/339/101 227/340/94 9/283/94
f 301/341/76 76/342/81 300/343/81
f 79/145/45 309/250/83 311/344/45
f 303/345/74 84/346/75 302/347/75
f 323/348/27 54/281/25 53/80/27
f 345/349/21 55/70/15 38/69/21
f 348/320/3 45/118/10 44/253/3
f 149/328/30 148/327/30 108/350/30
f 114/351/30 147/326/30 149/328/30
f 21/322/61 241/352/60 20/353/60
f 225/354/48 163/355/49 168/356/53
f 11/357/102 270/358/103 141/359/103
f 216/181/64 162/180/63 169/360/92
f 12/3/2 274/361/102 11/357/102
f 363/155/11 47/99/7 46/116/11
f 347/362/14 36/93/13 37/95/14
f 161/363/47 225/354/48 150/364/104
f 360/154/10 46/116/11 45/118/10
f 121/365/68 171/366/105 170/367/69
f 164/368/106 165/369/107 162/370/108
f 158/371/109 164/368/106 170/372/110
f 136/373/52 184/159/52 183/374/52
f 167/375/111 170/372/110 171/376/112
f 304/377/67 423/378/71 303/345/74
f 72/304/39 146/379/113 131/380/39
f 374/86/99 115/381/103 312/64/99
f 366/211/82 368/382/71 365/383/82
f 353/384/114 451/385/115 356/386/115
f 162/370/108 165/369/107 168/387/116
f 134/316/52 183/374/52 172/317/52
f 325/282/30 322/388/30 323/348/30
f 362/389/117 71/390/85 75/391/84
f 184/159/52 67/392/52 110/160/52
f 90/393/52 184/159/52 137/394/52
f 83/395/65 160/235/83 86/396/83
f 87/397/90 173/398/118 90/393/55
f 129/399/51 174/400/85 97/401/85
f 98/402/39 159/303/90 87/397/90
f 356/386/115 450/403/119 358/404/119
f 352/405/120 365/383/82 379/406/120
f 97/401/85 362/389/117 104/407/84
f 86/396/83 177/278/45 111/408/45
f 278/103/121 142/409/122 279/410/121
f 357/157/44 50/178/60 49/102/44
f 176/131/40 104/407/84 362/389/117
f 368/382/71 179/411/123 121/365/68
f 139/412/52 166/275/52 83/395/52
f 98/402/39 158/413/39 167/414/124
f 295/415/54 67/258/55 297/416/91
f 85/417/70 289/418/46 287/333/70
f 142/419/69 188/420/125 189/421/126
f 70/151/50 285/422/80 286/423/50
f 98/402/39 186/424/127 187/129/39
f 186/425/128 171/376/112 188/426/129
f 342/83/2 99/162/1 42/73/2
f 302/347/75 390/427/76 301/341/76
f 188/420/125 171/366/105 121/365/68
f 76/342/81 299/428/87 300/343/81
f 16/16/36 190/429/36 191/430/36
f 14/4/36 190/429/36 15/13/36
f 14/4/36 193/431/36 192/432/36
f 28/27/36 193/431/36 13/6/36
f 11/357/36 196/433/36 12/3/36
f 10/339/36 197/434/36 198/435/36
f 9/283/36 199/436/36 197/434/36
f 2/44/36 201/437/36 1/32/36
f 3/38/36 200/438/36 2/44/36
f 3/38/36 203/439/36 202/440/36
f 4/33/36 204/441/36 203/439/36
f 5/29/36 205/442/36 204/441/36
f 6/19/36 206/443/36 207/444/36
f 7/21/36 208/445/36 206/443/36
f 16/16/36 209/446/36 17/9/36
f 17/9/36 210/447/36 18/7/36
f 18/7/36 211/448/36 19/449/36
f 20/353/36 211/448/36 212/450/36
f 21/322/36 212/450/36 213/451/36
f 21/322/36 214/452/36 22/52/36
f 23/47/36 214/452/36 215/453/36
f 24/43/36 215/453/36 216/454/36
f 8/35/36 208/445/36 25/23/36
f 26/37/36 217/455/36 8/35/36
f 27/25/36 201/437/36 219/456/36
f 128/1/36 194/457/36 28/27/36
f 29/12/36 219/456/36 221/458/36
f 6/19/36 205/442/36 30/17/36
f 127/10/36 221/458/36 199/436/36
f 12/3/36 220/459/36 128/1/36
f 141/359/36 140/460/36 223/461/36
f 11/357/36 223/461/36 195/462/36
f 10/339/36 140/460/36 222/337/36
f 151/49/36 150/463/36 225/464/36
f 26/37/36 225/464/36 218/465/36
f 24/43/36 150/463/36 224/41/36
f 230/466/36 266/28/36 254/467/36
f 234/468/36 255/40/36 256/22/36
f 228/469/36 254/467/36 253/5/36
f 236/470/36 256/22/36 257/26/36
f 238/471/36 229/24/36 228/469/36
f 240/472/36 257/26/36 259/18/36
f 244/473/36 239/31/36 238/471/36
f 246/474/36 245/50/36 244/473/36
f 242/475/36 259/18/36 243/30/36
f 249/39/36 246/474/36 248/476/36
f 251/34/36 248/476/36 250/477/36
f 243/30/36 250/477/36 242/475/36
f 260/478/36 250/477/36 264/479/36
f 264/479/36 248/476/36 263/8/36
f 248/476/36 262/15/36 263/8/36
f 260/478/36 240/472/36 242/475/36
f 246/474/36 261/20/36 262/15/36
f 244/473/36 258/14/36 261/20/36
f 241/352/36 236/470/36 240/472/36
f 238/471/36 253/5/36 258/14/36
f 237/321/36 234/468/36 236/470/36
f 229/24/36 230/466/36 228/469/36
f 235/51/36 232/480/36 234/468/36
f 231/11/36 265/481/36 230/466/36
f 265/481/36 252/2/36 266/28/36
f 267/284/36 226/482/36 265/481/36
f 269/483/36 270/358/36 268/484/36
f 268/484/36 274/361/36 252/2/36
f 275/338/36 268/484/36 226/482/36
f 272/280/36 273/48/36 271/485/36
f 271/485/36 273/48/36 277/36/36
f 276/42/36 271/485/36 232/480/36
f 19/449/44 264/479/5 18/7/5
f 13/6/4 254/467/17 28/27/17
f 141/359/103 269/483/99 222/337/99
f 20/353/60 260/478/44 19/449/44
f 321/308/9 96/106/8 59/108/9
f 186/425/130 142/409/122 152/486/122
f 186/424/127 152/130/39 187/129/39
f 73/487/43 283/488/86 282/135/43
f 74/489/87 281/244/88 299/428/87
f 66/490/90 298/491/39 296/492/90
f 67/493/55 296/492/90 297/494/91
f 61/144/35 295/415/54 294/122/35
f 307/495/56 145/496/93 308/497/131
f 177/278/45 95/498/46 180/279/46
f 372/89/8 39/184/94 96/106/8
f 180/292/95 102/499/95 182/293/95
f 95/500/36 105/126/36 102/265/36
f 109/501/36 63/259/36 61/144/36
f 185/315/52 106/502/52 112/276/52
f 327/168/61 52/82/29 51/177/61
f 117/503/96 113/504/97 313/505/96
f 82/506/80 313/505/96 285/422/80
f 387/87/100 312/64/99 40/63/101
f 119/507/98 288/334/73 113/504/97
f 317/508/94 40/63/101 39/184/94
f 120/125/36 82/509/36 70/266/36
f 380/75/103 41/72/102 115/381/103
f 386/74/102 42/73/2 41/72/102
f 88/510/68 155/511/69 156/512/132
f 144/202/77 131/513/133 155/514/134
f 138/515/135 154/516/136 153/517/137
f 173/398/118 66/305/90 67/392/55
f 182/293/95 101/518/95 181/302/95
f 106/502/52 183/374/52 109/158/52
f 146/105/33 155/514/134 131/513/133
f 177/278/45 65/237/83 79/519/45
f 414/212/82 352/405/120 454/520/120
f 174/400/85 101/521/51 71/390/85
f 142/419/69 189/421/126 279/522/138
f 179/411/123 423/210/71 88/510/68
f 176/131/40 75/391/84 411/523/40
f 330/79/30 347/362/30 326/56/30
f 304/81/30 51/177/30 52/82/30
f 50/178/30 301/101/30 49/102/30
f 54/281/30 305/524/30 53/80/30
f 283/254/30 58/161/30 43/255/30
f 284/525/30 99/162/30 58/161/30
f 291/110/30 32/115/30 31/55/30
f 33/114/30 293/526/30 34/90/30
f 59/108/30 309/527/30 57/54/30
f 35/92/30 295/96/30 60/97/30
f 37/95/30 298/68/30 55/70/30
f 299/528/30 46/116/30 47/99/30
f 324/58/30 345/349/30 322/388/30
f 318/529/30 344/530/30 320/109/30
f 123/531/30 54/281/30 314/120/30
f 310/532/30 42/73/30 99/162/30
f 126/67/30 123/531/30 314/120/30
f 41/72/30 313/533/30 115/381/30
f 40/63/30 287/534/30 39/184/30
f 307/535/30 56/65/30 38/69/30
f 280/117/30 44/253/30 45/118/30
f 278/128/38 146/379/113 72/304/39
f 88/510/68 279/522/138 189/421/126
f 336/59/30 339/536/30 338/537/30
f 334/538/30 329/53/30 335/60/30
f 338/537/30 341/288/30 340/111/30
f 367/137/30 338/537/30 340/111/30
f 348/320/30 334/538/30 360/154/30
f 327/168/30 324/58/30 325/282/30
f 357/157/30 330/79/30 331/167/30
f 374/86/30 373/76/30 380/75/30
f 321/308/30 370/84/30 372/89/30
f 328/319/30 319/195/30 329/53/30
f 51/177/30 302/539/30 50/178/30
f 363/155/30 338/537/30 364/540/30
f 115/381/30 113/62/30 312/64/30
f 364/540/6 48/100/5 47/99/7
f 343/318/4 44/253/3 43/255/4
f 378/541/41 176/131/40 178/133/41
f 409/542/36 76/543/36 410/544/36
f 76/543/36 390/545/36 410/544/36
f 377/546/114 178/133/41 353/384/114
f 376/547/115 353/384/114 356/386/115
f 73/222/36 68/548/36 391/549/36
f 84/550/36 454/551/36 390/545/36
f 375/552/119 356/386/115 358/404/119
f 379/406/120 358/404/119 352/405/120
f 84/550/36 423/553/36 414/554/36
f 100/555/30 351/556/30 91/557/30
f 91/557/30 354/558/30 93/559/30
f 355/560/30 93/559/30 354/558/30
f 107/561/30 355/560/30 359/562/30
f 107/561/30 359/562/30 350/563/30
f 391/549/36 452/564/36 453/223/36
f 339/536/20 33/114/23 34/90/20
f 389/565/22 38/69/21 56/65/22
f 384/119/30 382/230/30 385/156/30
f 389/565/30 385/156/30 382/230/30
f 116/566/30 365/567/30 368/568/30
f 379/569/30 116/566/30 350/563/30
f 375/570/30 350/563/30 359/562/30
f 376/571/30 359/562/30 355/560/30
f 377/572/30 355/560/30 354/558/30
f 377/572/30 351/556/30 378/573/30
f 378/573/30 100/555/30 361/574/30
f 104/575/30 361/574/30 100/555/30
f 344/530/17 43/255/4 58/161/17
f 178/133/41 452/576/114 353/384/114
f 452/564/36 409/542/36 451/577/36
f 451/577/36 410/544/36 450/578/36
f 450/578/36 390/545/36 454/551/36
f 358/404/119 454/520/120 352/405/120
f 68/548/36 408/579/36 391/549/36
f 409/542/36 69/580/36 74/581/36
f 393/582/139 431/583/140 430/584/139
f 392/585/140 432/586/141 431/583/140
f 394/587/141 433/588/142 432/589/141
f 395/590/142 434/591/143 433/588/142
f 396/592/143 435/593/144 434/591/143
f 397/594/144 436/595/145 435/593/144
f 436/595/145 399/596/146 437/597/146
f 399/596/146 430/584/139 437/597/146
f 401/598/147 439/599/148 438/600/147
f 400/601/148 440/602/149 439/599/148
f 402/603/149 441/604/150 440/605/149
f 403/606/150 442/607/151 441/604/150
f 404/608/151 443/609/152 442/607/151
f 405/610/153 444/611/154 443/609/152
f 444/611/154 407/612/155 445/613/155
f 407/612/155 438/600/147 445/613/155
f 432/586/141 457/614/140 431/583/140
f 434/591/143 460/615/142 433/588/142
f 436/595/145 462/616/144 435/593/144
f 430/584/139 464/617/146 437/597/146
f 440/602/149 465/618/148 439/599/148
f 442/607/151 468/619/150 441/604/150
f 438/600/147 472/620/155 445/613/155
f 443/609/152 469/621/151 442/607/151
f 381/622/36 392/623/36 393/624/36
f 381/622/36 394/625/36 392/623/36
f 381/622/36 395/626/36 394/625/36
f 381/622/36 396/627/36 395/626/36
f 381/622/36 397/628/36 396/627/36
f 381/622/36 398/629/36 397/628/36
f 381/622/36 399/630/36 398/629/36
f 381/622/36 393/624/36 399/630/36
f 383/631/36 400/632/36 401/633/36
f 383/631/36 402/634/36 400/632/36
f 383/631/36 403/635/36 402/634/36
f 383/631/36 404/636/36 403/635/36
f 383/631/36 405/637/36 404/636/36
f 383/631/36 406/638/36 405/637/36
f 383/631/36 407/639/36 406/638/36
f 383/631/36 401/633/36 407/639/36
f 455/640/30 457/641/30 459/642/30
f 455/640/30 460/643/30 461/644/30
f 455/640/30 462/645/30 463/646/30
f 455/640/30 464/647/30 458/648/30
f 456/649/30 465/650/30 467/651/30
f 456/649/30 468/652/30 469/653/30
f 456/649/30 472/654/30 466/655/30
f 456/649/30 469/653/30 470/656/30
f 418/657/156 417/658/157 416/659/158
f 420/660/159 415/661/160 417/662/157
f 478/663/161 477/664/162 480/665/163
f 513/666/30 419/667/164 514/668/30
f 425/669/165 427/670/166 424/671/167
f 424/672/167 429/673/168 428/674/169
f 484/675/170 486/676/171 485/677/172
f 515/678/173 428/674/169 429/673/168
f 417/679/174 426/680/175 416/681/176
f 513/682/177 422/683/178 515/684/179
f 426/685/180 449/686/181 448/687/181
f 419/688/182 516/689/183 514/690/184
f 420/691/185 425/692/186 424/693/187
f 416/681/176 448/694/188 446/695/188
f 420/696/185 428/697/189 419/688/182
f 480/698/163 475/699/190 479/700/191
f 413/701/192 421/702/192 422/703/192
f 417/704/174 429/705/193 427/706/194
f 418/707/195 449/708/196 425/692/186
f 446/709/197 418/657/156 416/659/158
f 517/710/36 479/700/191 475/699/190
f 456/649/30 471/711/30 472/654/30
f 456/649/30 467/651/30 468/652/30
f 456/649/30 466/655/30 465/650/30
f 455/640/30 463/646/30 464/647/30
f 455/640/30 461/644/30 462/645/30
f 455/640/30 459/642/30 460/643/30
f 455/640/30 458/648/30 457/641/30
f 456/649/30 470/656/30 471/711/30
f 444/611/154 472/620/155 471/712/154
f 441/604/150 467/713/149 440/605/149
f 439/599/148 466/714/147 438/600/147
f 436/595/145 464/617/146 463/715/145
f 435/593/144 461/716/143 434/591/143
f 433/588/142 459/717/141 432/589/141
f 431/583/140 458/718/139 430/584/139
f 444/611/154 470/719/153 443/609/152
f 483/720/198 488/721/199 486/722/171
f 519/723/200 487/724/201 520/725/202
f 485/726/203 477/727/204 476/728/205
f 517/729/206 482/730/207 474/731/208
f 485/677/172 449/686/181 484/675/170
f 520/732/209 479/733/210 518/734/211
f 480/735/212 484/736/213 478/737/214
f 448/694/188 476/728/205 446/695/188
f 487/738/215 480/739/212 479/733/210
f 482/740/192 473/741/192 474/742/192
f 477/743/204 488/744/216 475/745/217
f 478/737/214 449/708/196 447/746/196
f 476/747/218 447/748/197 446/709/197
f 504/749/219 498/750/219 500/751/219
f 496/752/219 497/753/219 501/754/219
f 492/755/220 503/756/220 489/757/220
f 502/758/220 492/755/220 491/759/220
f 504/760/36 489/761/36 503/762/36
f 506/763/221 509/764/221 495/765/221
f 501/766/30 491/767/30 496/768/30
f 499/769/30 511/770/30 512/771/30
f 498/772/222 489/773/222 500/774/222
f 496/775/222 492/776/222 498/772/222
f 495/777/223 502/778/224 501/779/223
f 499/780/224 503/781/224 490/782/224
f 490/782/224 493/783/224 505/784/224
f 494/785/224 493/783/224 502/778/224
f 495/777/223 497/786/224 506/787/224
f 499/780/224 497/786/224 504/788/223
f 512/789/224 507/790/224 508/791/224
f 508/791/224 510/792/224 509/793/224
f 505/794/225 511/795/225 490/796/225
f 495/797/36 510/798/36 494/799/36
f 499/800/221 508/801/221 506/763/221
f 494/802/225 507/803/225 505/794/225
f 514/690/184 421/804/226 412/805/227
f 415/806/228 515/684/179 429/705/193
f 421/807/229 515/678/173 422/808/36
f 513/666/30 412/809/30 413/810/30
f 481/811/230 518/734/211 473/812/227
f 475/745/217 519/813/231 517/729/206
f 519/723/200 481/814/232 482/815/30
f 473/816/36 517/710/36 474/817/36
f 128/1/1 266/28/1 252/2/2
f 14/4/3 258/14/3 253/5/4
f 18/7/5 264/479/5 263/8/6
f 127/10/8 267/284/8 231/11/9
f 15/13/10 261/20/10 258/14/3
f 17/9/7 263/8/6 262/15/11
f 30/17/12 243/30/12 259/18/13
f 16/16/11 262/15/11 261/20/10
f 7/21/14 257/26/14 256/22/15
f 29/12/9 231/11/9 229/24/16
f 6/19/13 259/18/13 257/26/14
f 28/27/17 254/467/17 266/28/1
f 5/29/18 251/34/18 243/30/12
f 27/25/16 229/24/16 239/31/19
f 4/33/20 249/39/20 251/34/18
f 8/35/21 255/40/21 277/36/22
f 3/38/23 247/45/23 249/39/20
f 25/23/15 256/22/15 255/40/21
f 224/41/24 272/280/24 276/42/25
f 2/44/26 245/50/26 247/45/23
f 24/43/25 276/42/25 233/46/27
f 26/37/22 277/36/22 273/48/28
f 1/32/19 239/31/19 245/50/26
f 23/47/27 233/46/27 235/51/29
f 329/53/19 319/195/16 57/54/16
f 326/56/30 347/362/30 346/57/30
f 336/59/30 334/538/30 335/60/30
f 113/62/30 288/818/30 40/63/30
f 56/65/30 308/819/30 315/66/30
f 298/68/30 307/535/30 38/69/30
f 286/71/30 285/820/30 41/72/30
f 373/76/30 316/88/30 342/83/30
f 342/83/30 386/74/30 373/76/30
f 332/77/30 333/112/30 349/78/30
f 53/80/30 305/524/30 304/81/30
f 342/83/30 316/88/30 370/84/30
f 387/87/30 317/508/30 316/88/30
f 316/88/30 373/76/30 387/87/30
f 316/88/30 317/508/30 372/89/30
f 34/90/30 293/526/30 294/91/30
f 36/93/30 297/821/30 296/94/30
f 295/96/30 297/821/30 36/93/30
f 300/98/30 299/528/30 47/99/30
f 301/101/30 300/98/30 48/100/30
f 278/103/31 279/410/233 156/104/32
f 96/106/30 289/185/30 311/107/30
f 320/109/30 344/530/30 371/85/30
f 57/54/30 309/527/30 291/110/30
f 340/111/30 341/288/30 333/112/30
f 333/112/12 341/288/18 35/92/18
f 290/113/30 292/822/30 33/114/30
f 46/116/30 281/823/30 280/117/30
f 384/119/24 385/156/28 126/67/28
f 62/121/34 61/144/35 294/122/35
f 105/126/36 85/824/36 77/124/36
f 77/124/36 119/142/36 120/125/36
f 292/127/37 92/139/37 62/121/34
f 176/131/40 411/523/40 453/132/41
f 68/134/42 73/487/43 282/135/43
f 367/137/5 357/157/44 49/102/44
f 106/138/36 62/121/36 92/139/36
f 89/143/36 64/311/36 112/140/36
f 349/78/13 333/112/12 60/97/12
f 106/138/36 109/501/36 61/144/36
f 79/145/45 311/344/45 289/146/46
f 135/148/47 123/825/104 315/149/48
f 70/151/50 286/423/50 310/152/51
f 360/154/30 334/538/30 336/59/30
f 385/156/28 389/565/22 56/65/22
f 357/157/30 367/137/30 340/111/30
f 109/158/52 183/374/52 184/159/52
f 346/57/15 347/362/14 37/95/14
f 371/85/1 344/530/17 58/161/17
f 315/149/48 308/497/131 153/163/53
f 308/497/131 145/496/93 153/163/53
f 205/164/54 207/826/91 90/165/55
f 331/167/30 330/79/30 326/56/30
f 202/169/37 203/274/34 80/170/34
f 98/827/39 208/245/39 158/174/39
f 208/245/39 217/172/56 158/174/39
f 202/169/37 124/171/37 122/175/58
f 331/167/60 327/168/61 51/177/61
f 215/179/62 164/828/234 162/180/63
f 200/176/59 122/175/58 83/182/65
f 39/184/30 287/534/30 289/185/30
f 164/828/234 215/179/62 170/188/69
f 215/179/62 214/186/67 170/188/69
f 199/189/46 125/829/46 118/190/70
f 214/192/67 213/198/74 368/193/71
f 319/195/16 321/308/9 59/108/9
f 197/191/70 118/190/70 108/196/72
f 213/198/74 212/200/75 116/199/75
f 335/60/26 329/53/19 31/55/19
f 212/200/75 211/208/76 350/201/76
f 144/202/77 138/515/135 145/203/78
f 195/205/80 114/336/80 94/206/50
f 211/208/76 210/229/81 107/209/81
f 423/210/71 369/830/235 366/211/82
f 219/213/83 86/264/83 111/214/45
f 75/216/84 71/306/85 284/217/85
f 194/219/85 97/252/85 104/220/84
f 73/222/36 391/549/36 453/223/36
f 138/225/63 144/831/234 305/226/62
f 209/228/87 103/239/87 107/209/81
f 388/231/30 323/348/30 322/388/30
f 322/388/30 382/230/30 388/231/30
f 193/232/86 104/832/84 100/233/43
f 160/235/83 166/275/236 64/236/65
f 191/238/88 93/256/89 103/239/87
f 192/234/43 100/233/43 91/241/42
f 69/243/89 68/134/42 280/136/42
f 208/245/39 98/827/39 87/246/90
f 65/248/83 64/833/65 291/249/66
f 220/251/51 129/834/51 97/252/85
f 44/253/30 282/835/30 283/254/30
f 190/242/42 91/241/42 93/256/89
f 206/247/90 87/246/90 90/260/55
f 306/227/64 123/825/104 154/262/92
f 123/825/104 135/148/47 154/262/92
f 201/263/66 83/836/65 86/264/83
f 102/265/36 105/126/36 70/266/36
f 205/164/54 81/166/54 78/268/35
f 217/271/56 218/837/131 165/272/93
f 204/269/35 78/268/35 80/170/34
f 166/275/52 185/315/52 112/276/52
f 125/277/46 111/408/45 177/278/45
f 151/49/28 273/48/28 272/280/24
f 388/231/25 384/119/24 314/120/24
f 325/282/29 323/348/27 53/80/27
f 9/283/94 227/340/94 267/284/8
f 307/287/56 298/491/39 131/285/39
f 298/491/39 72/838/39 131/285/39
f 341/288/18 339/536/20 34/90/20
f 220/289/51 196/207/50 94/206/50
f 132/291/95 125/839/95 180/292/95
f 199/294/46 221/215/45 111/214/45
f 133/296/30 118/840/30 125/297/30
f 94/299/30 133/296/30 132/298/30
f 129/301/95 132/291/95 182/293/95
f 159/303/90 175/841/39 72/304/39
f 71/306/85 101/842/51 310/307/51
f 319/195/30 318/529/30 320/109/30
f 134/309/30 80/170/30 78/268/30
f 64/311/65 89/143/58 290/312/59
f 89/143/58 92/139/37 292/127/37
f 136/310/30 78/268/30 81/166/30
f 139/314/30 83/182/30 122/175/30
f 185/315/52 139/412/52 134/316/52
f 124/171/30 80/170/30 134/309/30
f 343/318/30 318/529/30 328/319/30
f 22/52/29 235/51/29 237/321/61
f 304/325/67 305/226/62 155/323/69
f 305/226/62 144/831/234 155/323/69
f 337/61/23 335/60/26 32/115/26
f 147/329/96 223/335/96 140/330/97
f 77/332/72 85/417/70 287/333/70
f 223/335/96 147/329/96 114/336/80
f 222/337/99 269/483/99 275/338/100
f 198/197/73 108/196/72 148/331/98
f 10/339/101 275/338/100 227/340/94
f 301/341/76 390/427/76 76/342/81
f 79/145/45 65/248/83 309/250/83
f 303/345/74 423/378/71 84/346/75
f 323/348/27 388/231/25 54/281/25
f 345/349/21 346/57/15 55/70/15
f 348/320/3 360/154/10 45/118/10
f 108/350/30 118/840/30 133/296/30
f 133/296/30 149/328/30 108/350/30
f 149/328/30 133/296/30 94/299/30
f 94/299/30 114/351/30 149/328/30
f 21/322/61 237/321/61 241/352/60
f 165/272/93 218/837/131 168/356/53
f 218/837/131 225/354/48 168/356/53
f 11/357/102 274/361/102 270/358/103
f 161/363/47 150/364/104 169/360/92
f 150/364/104 216/181/64 169/360/92
f 12/3/2 252/2/2 274/361/102
f 363/155/11 364/540/6 47/99/7
f 347/362/14 349/78/13 36/93/13
f 161/363/47 163/355/49 225/354/48
f 360/154/10 363/155/11 46/116/11
f 164/368/106 157/843/237 165/369/107
f 158/371/109 157/843/237 164/368/106
f 136/373/52 137/394/52 184/159/52
f 167/375/111 158/371/109 170/372/110
f 304/377/67 88/844/68 423/378/71
f 374/86/99 380/75/103 115/381/103
f 366/211/82 369/830/235 368/382/71
f 353/384/114 452/576/114 451/385/115
f 168/387/116 163/845/238 169/846/239
f 163/845/238 161/847/238 169/846/239
f 169/846/239 162/370/108 168/387/116
f 134/316/52 136/373/52 183/374/52
f 325/282/30 324/58/30 322/388/30
f 362/389/117 174/400/85 71/390/85
f 184/159/52 173/398/52 67/392/52
f 90/393/52 173/398/52 184/159/52
f 83/395/65 166/275/236 160/235/83
f 87/397/90 159/303/90 173/398/118
f 129/399/51 181/848/51 174/400/85
f 98/402/39 175/841/39 159/303/90
f 356/386/115 451/385/115 450/403/119
f 352/405/120 366/211/82 365/383/82
f 97/401/85 174/400/85 362/389/117
f 86/396/83 160/235/83 177/278/45
f 278/103/121 152/486/122 142/409/122
f 357/157/44 331/167/60 50/178/60
f 176/131/40 361/849/40 104/407/84
f 368/382/71 369/830/235 179/411/123
f 139/412/52 185/315/52 166/275/52
f 295/415/54 63/259/54 67/258/55
f 85/417/70 95/850/46 289/418/46
f 70/151/50 82/506/80 285/422/80
f 187/129/39 175/841/39 98/402/39
f 98/402/39 167/414/124 186/424/127
f 186/425/128 167/375/111 171/376/112
f 342/83/2 371/85/1 99/162/1
f 302/347/75 84/346/75 390/427/76
f 121/365/68 179/411/123 189/421/126
f 189/421/126 188/420/125 121/365/68
f 76/342/81 74/489/87 299/428/87
f 16/16/36 15/13/36 190/429/36
f 14/4/36 192/432/36 190/429/36
f 14/4/36 13/6/36 193/431/36
f 28/27/36 194/457/36 193/431/36
f 11/357/36 195/462/36 196/433/36
f 10/339/36 9/283/36 197/434/36
f 9/283/36 127/10/36 199/436/36
f 2/44/36 200/438/36 201/437/36
f 3/38/36 202/440/36 200/438/36
f 3/38/36 4/33/36 203/439/36
f 4/33/36 5/29/36 204/441/36
f 5/29/36 30/17/36 205/442/36
f 6/19/36 7/21/36 206/443/36
f 7/21/36 25/23/36 208/445/36
f 16/16/36 191/430/36 209/446/36
f 17/9/36 209/446/36 210/447/36
f 18/7/36 210/447/36 211/448/36
f 20/353/36 19/449/36 211/448/36
f 21/322/36 20/353/36 212/450/36
f 21/322/36 213/451/36 214/452/36
f 23/47/36 22/52/36 214/452/36
f 24/43/36 23/47/36 215/453/36
f 8/35/36 217/455/36 208/445/36
f 26/37/36 218/465/36 217/455/36
f 27/25/36 1/32/36 201/437/36
f 128/1/36 220/459/36 194/457/36
f 29/12/36 27/25/36 219/456/36
f 6/19/36 207/444/36 205/442/36
f 127/10/36 29/12/36 221/458/36
f 12/3/36 196/433/36 220/459/36
f 141/359/36 222/337/36 140/460/36
f 11/357/36 141/359/36 223/461/36
f 10/339/36 198/435/36 140/460/36
f 151/49/36 224/41/36 150/463/36
f 26/37/36 151/49/36 225/464/36
f 24/43/36 216/454/36 150/463/36
f 230/466/36 265/481/36 266/28/36
f 234/468/36 232/480/36 255/40/36
f 228/469/36 230/466/36 254/467/36
f 236/470/36 234/468/36 256/22/36
f 238/471/36 239/31/36 229/24/36
f 240/472/36 236/470/36 257/26/36
f 244/473/36 245/50/36 239/31/36
f 246/474/36 247/45/36 245/50/36
f 242/475/36 240/472/36 259/18/36
f 249/39/36 247/45/36 246/474/36
f 251/34/36 249/39/36 248/476/36
f 243/30/36 251/34/36 250/477/36
f 260/478/36 242/475/36 250/477/36
f 264/479/36 250/477/36 248/476/36
f 248/476/36 246/474/36 262/15/36
f 260/478/36 241/352/36 240/472/36
f 246/474/36 244/473/36 261/20/36
f 244/473/36 238/471/36 258/14/36
f 241/352/36 237/321/36 236/470/36
f 238/471/36 228/469/36 253/5/36
f 237/321/36 235/51/36 234/468/36
f 229/24/36 231/11/36 230/466/36
f 235/51/36 233/46/36 232/480/36
f 231/11/36 267/284/36 265/481/36
f 265/481/36 226/482/36 252/2/36
f 267/284/36 227/340/36 226/482/36
f 252/2/36 226/482/36 268/484/36
f 268/484/36 270/358/36 274/361/36
f 226/482/36 227/340/36 275/338/36
f 275/338/36 269/483/36 268/484/36
f 255/40/36 232/480/36 277/36/36
f 232/480/36 271/485/36 277/36/36
f 232/480/36 233/46/36 276/42/36
f 276/42/36 272/280/36 271/485/36
f 19/449/44 260/478/44 264/479/5
f 13/6/4 253/5/4 254/467/17
f 141/359/103 270/358/103 269/483/99
f 20/353/60 241/352/60 260/478/44
f 321/308/9 372/89/8 96/106/8
f 186/425/130 188/426/130 142/409/122
f 73/487/43 75/851/84 283/488/86
f 74/489/87 69/243/89 281/244/88
f 66/490/90 72/838/39 298/491/39
f 67/493/55 66/490/90 296/492/90
f 61/144/35 63/259/54 295/415/54
f 307/495/56 130/852/57 145/496/93
f 177/278/45 79/519/45 95/498/46
f 372/89/8 317/508/94 39/184/94
f 180/292/95 95/853/95 102/499/95
f 95/500/36 85/824/36 105/126/36
f 109/501/36 110/257/36 63/259/36
f 185/315/52 172/317/52 106/502/52
f 327/168/61 325/282/29 52/82/29
f 117/503/96 119/507/98 113/504/97
f 82/506/80 117/503/96 313/505/96
f 387/87/100 374/86/99 312/64/99
f 119/507/98 77/332/72 288/334/73
f 317/508/94 387/87/100 40/63/101
f 70/266/36 105/126/36 120/125/36
f 120/125/36 117/141/36 82/509/36
f 380/75/103 386/74/102 41/72/102
f 386/74/102 342/83/2 42/73/2
f 144/202/77 130/204/79 131/513/133
f 135/854/240 143/855/240 154/516/136
f 143/855/240 153/517/137 154/516/136
f 153/517/137 145/203/78 138/515/135
f 173/398/118 159/303/90 66/305/90
f 182/293/95 102/499/95 101/518/95
f 106/502/52 172/317/52 183/374/52
f 146/105/33 156/104/32 155/514/134
f 177/278/45 160/235/83 65/237/83
f 414/212/82 366/211/82 352/405/120
f 174/400/85 181/848/51 101/521/51
f 179/411/123 369/830/235 423/210/71
f 176/131/40 362/389/117 75/391/84
f 330/79/30 349/78/30 347/362/30
f 304/81/30 303/856/30 51/177/30
f 50/178/30 302/539/30 301/101/30
f 54/281/30 306/857/30 305/524/30
f 283/254/30 284/525/30 58/161/30
f 284/525/30 310/532/30 99/162/30
f 291/110/30 290/113/30 32/115/30
f 33/114/30 292/822/30 293/526/30
f 59/108/30 311/107/30 309/527/30
f 35/92/30 294/91/30 295/96/30
f 37/95/30 296/94/30 298/68/30
f 299/528/30 281/823/30 46/116/30
f 324/58/30 346/57/30 345/349/30
f 318/529/30 343/318/30 344/530/30
f 123/531/30 306/857/30 54/281/30
f 310/532/30 286/71/30 42/73/30
f 126/67/30 315/66/30 123/531/30
f 41/72/30 285/820/30 313/533/30
f 40/63/30 288/818/30 287/534/30
f 307/535/30 308/819/30 56/65/30
f 280/117/30 282/835/30 44/253/30
f 72/304/39 175/841/39 187/129/39
f 187/129/39 278/128/38 72/304/39
f 189/421/126 179/411/123 88/510/68
f 88/510/68 156/512/132 279/522/138
f 336/59/30 337/61/30 339/536/30
f 334/538/30 328/319/30 329/53/30
f 338/537/30 339/536/30 341/288/30
f 367/137/30 364/540/30 338/537/30
f 348/320/30 328/319/30 334/538/30
f 327/168/30 326/56/30 324/58/30
f 357/157/30 332/77/30 330/79/30
f 321/308/30 320/109/30 370/84/30
f 328/319/30 318/529/30 319/195/30
f 51/177/30 303/856/30 302/539/30
f 363/155/30 336/59/30 338/537/30
f 115/381/30 313/533/30 113/62/30
f 364/540/6 367/137/5 48/100/5
f 343/318/4 348/320/3 44/253/3
f 378/541/41 361/849/40 176/131/40
f 409/542/36 74/581/36 76/543/36
f 377/546/114 378/541/41 178/133/41
f 376/547/115 377/546/114 353/384/114
f 84/550/36 414/554/36 454/551/36
f 375/552/119 376/547/115 356/386/115
f 379/406/120 375/552/119 358/404/119
f 91/557/30 351/556/30 354/558/30
f 355/560/30 103/858/30 93/559/30
f 107/561/30 103/858/30 355/560/30
f 391/549/36 408/579/36 452/564/36
f 339/536/20 337/61/23 33/114/23
f 389/565/22 345/349/21 38/69/21
f 382/230/30 322/388/30 389/565/30
f 322/388/30 345/349/30 389/565/30
f 379/569/30 365/567/30 116/566/30
f 375/570/30 379/569/30 350/563/30
f 376/571/30 375/570/30 359/562/30
f 377/572/30 376/571/30 355/560/30
f 377/572/30 354/558/30 351/556/30
f 378/573/30 351/556/30 100/555/30
f 344/530/17 343/318/4 43/255/4
f 178/133/41 453/132/41 452/576/114
f 452/564/36 408/579/36 409/542/36
f 451/577/36 409/542/36 410/544/36
f 450/578/36 410/544/36 390/545/36
f 358/404/119 450/403/119 454/520/120
f 68/548/36 69/580/36 408/579/36
f 409/542/36 408/579/36 69/580/36
f 393/582/139 392/585/140 431/583/140
f 392/585/140 394/859/141 432/586/141
f 394/587/141 395/590/142 433/588/142
f 395/590/142 396/592/143 434/591/143
f 396/592/143 397/594/144 435/593/144
f 397/594/144 398/860/145 436/595/145
f 436/595/145 398/860/145 399/596/146
f 399/596/146 393/582/139 430/584/139
f 401/598/147 400/601/148 439/599/148
f 400/601/148 402/861/149 440/602/149
f 402/603/149 403/606/150 441/604/150
f 403/606/150 404/608/151 442/607/151
f 404/608/151 405/610/153 443/609/152
f 405/610/153 406/862/154 444/611/154
f 444/611/154 406/862/154 407/612/155
f 407/612/155 401/598/147 438/600/147
f 432/586/141 459/863/141 457/614/140
f 434/591/143 461/716/143 460/615/142
f 436/595/145 463/715/145 462/616/144
f 430/584/139 458/718/139 464/617/146
f 440/602/149 467/864/149 465/618/148
f 442/607/151 469/621/151 468/619/150
f 438/600/147 466/714/147 472/620/155
f 443/609/152 470/719/153 469/621/151
f 418/657/156 420/865/159 417/658/157
f 420/660/159 419/667/164 415/661/160
f 478/663/161 476/747/218 477/664/162
f 513/666/30 415/661/160 419/667/164
f 425/669/165 426/685/180 427/670/166
f 424/672/167 427/866/166 429/673/168
f 484/675/170 483/867/198 486/676/171
f 515/678/173 516/868/241 428/674/169
f 417/679/174 427/869/194 426/680/175
f 513/682/177 413/870/208 422/683/178
f 426/685/180 425/669/165 449/686/181
f 419/688/182 428/697/189 516/689/183
f 420/691/185 418/707/195 425/692/186
f 416/681/176 426/680/175 448/694/188
f 420/696/185 424/871/187 428/697/189
f 480/698/163 477/872/162 475/699/190
f 413/701/192 412/873/192 421/702/192
f 417/704/174 415/806/228 429/705/193
f 418/707/195 447/746/196 449/708/196
f 446/709/197 447/748/197 418/657/156
f 517/710/36 518/874/36 479/700/191
f 444/611/154 445/613/155 472/620/155
f 441/604/150 468/619/150 467/713/149
f 439/599/148 465/618/148 466/714/147
f 436/595/145 437/597/146 464/617/146
f 435/593/144 462/616/144 461/716/143
f 433/588/142 460/615/142 459/717/141
f 431/583/140 457/614/140 458/718/139
f 444/611/154 471/712/154 470/719/153
f 483/720/198 487/724/201 488/721/199
f 519/723/200 488/721/199 487/724/201
f 485/726/203 486/875/242 477/727/204
f 517/729/206 519/813/231 482/730/207
f 485/677/172 448/687/181 449/686/181
f 520/732/209 487/738/215 479/733/210
f 480/735/212 483/876/243 484/736/213
f 448/694/188 485/726/203 476/728/205
f 487/738/215 483/877/243 480/739/212
f 482/740/192 481/878/192 473/741/192
f 477/743/204 486/879/242 488/744/216
f 478/737/214 484/736/213 449/708/196
f 476/747/218 478/663/161 447/748/197
f 504/749/219 497/753/219 498/750/219
f 496/752/219 498/750/219 497/753/219
f 492/755/220 493/880/220 503/756/220
f 502/758/220 493/880/220 492/755/220
f 504/760/36 500/881/36 489/761/36
f 506/763/221 508/801/221 509/764/221
f 501/766/30 502/882/30 491/767/30
f 499/769/30 490/883/30 511/770/30
f 498/772/222 492/776/222 489/773/222
f 496/775/222 491/884/222 492/776/222
f 495/777/223 494/785/224 502/778/224
f 499/780/224 504/788/223 503/781/224
f 490/782/224 503/781/224 493/783/224
f 494/785/224 505/784/224 493/783/224
f 495/777/223 501/779/223 497/786/224
f 499/780/224 506/787/224 497/786/224
f 512/789/224 511/885/224 507/790/224
f 508/791/224 507/790/224 510/792/224
f 505/794/225 507/803/225 511/795/225
f 495/797/36 509/886/36 510/798/36
f 499/800/221 512/887/221 508/801/221
f 494/802/225 510/888/225 507/803/225
f 514/690/184 516/689/183 421/804/226
f 415/806/228 513/682/177 515/684/179
f 421/807/229 516/868/241 515/678/173
f 513/666/30 514/668/30 412/809/30
f 481/811/230 520/732/209 518/734/211
f 475/745/217 488/744/216 519/813/231
f 519/723/200 520/725/202 481/814/232
f 473/816/36 518/874/36 517/710/36
