# Blender 5.0.1
# www.blender.org
mtllib boom_cyl_barrel.mtl
o Piston.006
v 0.080353 0.022901 0.028776
v 0.065997 0.041395 0.040435
v 0.026700 0.041395 0.072197
v 0.012289 0.022901 0.083787
v 0.369301 -0.003593 0.455891
v 0.012213 -0.027626 0.083693
v 0.026569 -0.046120 0.072033
v 0.077791 -0.002379 0.030768
v 0.077826 0.021037 0.030812
v 0.064521 0.038178 0.041619
v 0.046319 0.044452 0.056349
v 0.028098 0.038178 0.071056
v 0.014741 0.021036 0.081799
v 0.014706 -0.002379 0.081756
v 0.014671 -0.025795 0.081712
v 0.027977 -0.042936 0.070905
v 0.046178 -0.049210 0.056175
v 0.064399 -0.042936 0.041468
v 0.077756 -0.025794 0.030724
v 0.046213 -0.025795 0.056218
v 0.046284 0.021036 0.056306
v 0.085536 -0.002379 0.024508
v 0.046324 0.048137 0.056356
v 0.006961 -0.002379 0.088016
v 0.046173 -0.052895 0.056168
v 0.065827 -0.046127 0.040303
v 0.080235 -0.027637 0.028715
v -0.008936 0.021247 -0.012016
v -0.021683 0.021295 -0.027787
v -0.027732 0.021198 0.029249
v -0.034039 0.021282 -0.010814
v -0.036253 0.021247 0.010063
v -0.027802 -0.025633 0.029162
v -0.021754 -0.025536 -0.027874
v -0.036323 -0.025584 0.009975
v -0.034109 -0.025549 -0.010901
v -0.021718 -0.002120 -0.027831
v -0.027767 -0.002217 0.029206
v -0.034074 -0.002133 -0.010858
v -0.036288 -0.002169 0.010019
v -0.009007 -0.025584 -0.012103
v 0.035283 -0.025633 -0.021826
v -0.002567 -0.025549 -0.036395
v 0.018310 -0.025584 -0.034181
v 0.035318 -0.002217 -0.021782
v 0.003740 -0.025633 0.003668
v 0.018345 -0.002169 -0.034138
v -0.002532 -0.002133 -0.036352
v 0.035353 0.021198 -0.021738
v 0.003811 0.021198 0.003755
v 0.018380 0.021247 -0.034094
v -0.002496 0.021282 -0.036308
v 0.408598 -0.003593 0.424129
v 0.403371 0.021671 0.428432
v 0.389015 0.040165 0.440092
v 0.369377 0.046934 0.455985
v 0.349719 0.040165 0.471853
v 0.335307 0.021671 0.483444
v 0.330005 -0.003593 0.487652
v 0.335231 -0.028856 0.483349
v 0.349587 -0.047351 0.471689
v 0.369225 -0.054120 0.455796
v 0.388884 -0.047350 0.439928
v 0.403295 -0.028856 0.428337
vn 0.7777 -0.0011 -0.6286
vn 0.6743 0.5000 -0.5435
vn 0.7777 -0.0000 -0.6287
vn 0.6747 0.4991 -0.5438
vn 0.3902 0.8660 -0.3127
vn 0.3897 0.8664 -0.3123
vn 0.0015 1.0000 0.0019
vn 0.0011 1.0000 0.0021
vn -0.3876 0.8660 0.3159
vn -0.3874 0.8662 0.3158
vn -0.6728 0.5000 0.5453
vn -0.6726 0.5004 0.5452
vn -0.7777 -0.0000 0.6286
vn -0.7777 -0.0002 0.6286
vn -0.6743 -0.5000 0.5435
vn -0.6740 -0.5006 0.5432
vn -0.3902 -0.8660 0.3127
vn -0.0018 -1.0000 -0.0017
vn -0.0015 -1.0000 -0.0019
vn 0.3875 -0.8660 -0.3159
vn 0.3876 -0.8660 -0.3160
vn 0.6727 -0.5000 -0.5454
vn -0.6286 0.0024 -0.7777
vn 0.6890 0.0003 -0.7247
vn 0.3592 0.0012 -0.9332
vn -0.1555 0.0021 -0.9878
vn -0.8531 0.0003 0.5217
vn -0.9878 0.0012 0.1555
vn -0.9332 0.0021 -0.3592
vn 0.7777 -0.0000 -0.6286
vn 0.6286 -0.0024 0.7777
vn -0.3904 -0.8659 0.3129
vt 0.483742 0.923619
vt 0.479515 0.840557
vt 0.483743 0.840557
vt 0.479514 0.923619
vt 0.475287 0.840557
vt 0.475287 0.923619
vt 0.471060 0.840557
vt 0.471053 0.923619
vt 0.466832 0.840557
vt 0.466834 0.923619
vt 0.462604 0.840557
vt 0.462606 0.923619
vt 0.458377 0.840557
vt 0.458375 0.923619
vt 0.454149 0.840557
vt 0.454148 0.923619
vt 0.449922 0.840557
vt 0.445699 0.923619
vt 0.445694 0.840557
vt 0.441473 0.923619
vt 0.441466 0.840557
vt 0.437246 0.923619
vt 0.437239 0.840557
vt 0.433019 0.923619
vt 0.433011 0.840557
vt 0.053277 0.574798
vt 0.057912 0.574081
vt 0.055953 0.577474
vt 0.047924 0.569445
vt 0.043289 0.570163
vt 0.045248 0.566769
vt 0.052560 0.579434
vt 0.048641 0.579434
vt 0.048641 0.564810
vt 0.052560 0.564810
vt 0.056374 0.566348
vt 0.055236 0.567486
vt 0.048490 0.564226
vt 0.052718 0.564226
vt 0.044827 0.566348
vt 0.042715 0.570001
vt 0.042715 0.574229
vt 0.043289 0.574081
vt 0.044827 0.577896
vt 0.045965 0.576757
vt 0.048490 0.580004
vt 0.052718 0.580004
vt 0.058488 0.574235
vt 0.056374 0.577896
vt 0.057912 0.570163
vt 0.058488 0.570008
vt 0.222522 0.987737
vt 0.228199 0.991014
vt 0.222522 0.991014
vt 0.216844 0.991014
vt 0.215966 0.987737
vt 0.985300 0.858576
vt 0.990977 0.861854
vt 0.985300 0.861854
vt 0.979622 0.861854
vt 0.978744 0.858576
vt 0.097221 0.887463
vt 0.101006 0.890857
vt 0.097221 0.890857
vt 0.101006 0.894250
vt 0.097221 0.894250
vt 0.097221 0.897643
vt 0.097221 0.907824
vt 0.101006 0.904430
vt 0.101006 0.907824
vt 0.097221 0.904430
vt 0.101006 0.901037
vt 0.097221 0.901037
vt 0.101006 0.897643
vt 0.104791 0.907824
vt 0.104791 0.904430
vt 0.104791 0.901037
vt 0.104791 0.897643
vt 0.104791 0.887463
vt 0.101006 0.887463
vt 0.104791 0.890857
vt 0.219244 0.993414
vt 0.991855 0.847654
vt 0.985300 0.847654
vt 0.097221 0.918745
vt 0.101006 0.918745
vt 0.104791 0.918745
vt 0.988577 0.864253
vt 0.985300 0.865132
vt 0.978744 0.847654
vt 0.222522 0.976815
vt 0.215966 0.976815
vt 0.104791 0.876541
vt 0.101006 0.876541
vt 0.982022 0.864253
vt 0.229077 0.987737
vt 0.097221 0.876541
vt 0.225799 0.993414
vt 0.222522 0.994292
vt 0.116398 0.983966
vt 0.114284 0.991855
vt 0.110623 0.989741
vt 0.108509 0.986080
vt 0.108509 0.981853
vt 0.110623 0.978191
vt 0.114284 0.976077
vt 0.118512 0.976077
vt 0.122173 0.978191
vt 0.124287 0.981853
vt 0.124287 0.986080
vt 0.122173 0.989741
vt 0.118511 0.991855
vt 0.449920 0.923619
vt 0.991855 0.858576
vt 0.104791 0.894250
vt 0.229077 0.976815
s 1
usemtl Excavator
f 22/1/1 54/2/2 53/3/3
f 1/4/4 55/5/5 54/2/2
f 2/6/6 56/7/7 55/5/5
f 23/8/8 57/9/9 56/7/7
f 3/10/10 58/11/11 57/9/9
f 4/12/12 59/13/13 58/11/11
f 24/14/14 60/15/15 59/13/13
f 6/16/16 61/17/17 60/15/15
f 61/17/17 25/18/18 62/19/19
f 62/19/19 26/20/20 63/21/21
f 63/21/21 27/22/22 64/23/22
f 64/23/22 22/24/1 53/25/3
f 20/26/23 18/27/23 17/28/23
f 21/29/23 12/30/23 11/31/23
f 20/26/23 16/32/23 15/33/23
f 10/34/23 21/29/23 11/31/23
f 9/35/23 22/36/23 8/37/23
f 9/35/23 2/38/23 1/39/23
f 10/34/23 23/40/23 2/38/23
f 11/31/23 3/41/23 23/40/23
f 12/30/23 4/42/23 3/41/23
f 13/43/23 24/44/23 4/42/23
f 15/33/23 24/44/23 14/45/23
f 16/32/23 6/46/23 15/33/23
f 17/28/23 7/47/23 16/32/23
f 17/28/23 26/48/23 25/49/23
f 19/50/23 26/48/23 18/27/23
f 19/50/23 22/36/23 27/51/23
f 50/52/7 51/53/7 28/54/7
f 50/52/7 32/55/7 30/56/7
f 46/57/19 35/58/19 41/59/19
f 46/57/19 44/60/19 42/61/19
f 49/62/24 47/63/25 51/64/25
f 51/64/25 48/65/26 52/66/26
f 48/65/26 29/67/23 52/66/26
f 30/68/27 40/69/28 38/70/27
f 32/71/28 39/72/29 40/69/28
f 31/73/29 37/74/23 39/72/29
f 33/75/27 40/69/28 35/76/28
f 35/76/28 39/72/29 36/77/29
f 36/77/29 37/74/23 34/78/23
f 42/79/24 47/63/25 45/80/24
f 44/81/25 48/65/26 47/63/25
f 48/65/26 34/78/23 37/74/23
f 28/54/7 31/82/7 32/55/7
f 15/83/19 46/57/19 20/84/19
f 13/85/13 38/70/27 14/86/13
f 14/86/13 33/75/27 15/87/13
f 41/59/19 36/88/19 34/89/19
f 20/84/19 42/61/19 19/90/19
f 21/91/7 30/56/7 13/92/7
f 19/93/30 45/80/24 8/94/30
f 41/59/19 43/95/19 44/60/19
f 21/91/7 49/96/7 50/52/7
f 8/94/30 49/62/24 9/97/30
f 28/54/7 52/98/7 29/99/7
f 5/100/31 53/101/31 54/102/31
f 5/100/31 54/102/31 55/103/31
f 5/100/31 55/103/31 56/104/31
f 5/100/31 56/104/31 57/105/31
f 5/100/31 57/105/31 58/106/31
f 5/100/31 58/106/31 59/107/31
f 5/100/31 59/107/31 60/108/31
f 5/100/31 60/108/31 61/109/31
f 5/100/31 61/109/31 62/110/31
f 5/100/31 62/110/31 63/111/31
f 5/100/31 63/111/31 64/112/31
f 5/100/31 64/112/31 53/101/31
f 22/1/1 1/4/4 54/2/2
f 1/4/4 2/6/6 55/5/5
f 2/6/6 23/8/8 56/7/7
f 23/8/8 3/10/10 57/9/9
f 3/10/10 4/12/12 58/11/11
f 4/12/12 24/14/14 59/13/13
f 24/14/14 6/16/16 60/15/15
f 6/16/16 7/113/32 61/17/17
f 61/17/17 7/113/32 25/18/18
f 62/19/19 25/18/18 26/20/20
f 63/21/21 26/20/20 27/22/22
f 64/23/22 27/22/22 22/24/1
f 20/26/23 19/50/23 18/27/23
f 21/29/23 13/43/23 12/30/23
f 20/26/23 17/28/23 16/32/23
f 10/34/23 9/35/23 21/29/23
f 9/35/23 1/39/23 22/36/23
f 9/35/23 10/34/23 2/38/23
f 10/34/23 11/31/23 23/40/23
f 11/31/23 12/30/23 3/41/23
f 12/30/23 13/43/23 4/42/23
f 13/43/23 14/45/23 24/44/23
f 15/33/23 6/46/23 24/44/23
f 16/32/23 7/47/23 6/46/23
f 17/28/23 25/49/23 7/47/23
f 17/28/23 18/27/23 26/48/23
f 19/50/23 27/51/23 26/48/23
f 19/50/23 8/37/23 22/36/23
f 50/52/7 49/96/7 51/53/7
f 50/52/7 28/54/7 32/55/7
f 46/57/19 33/114/19 35/58/19
f 46/57/19 41/59/19 44/60/19
f 49/62/24 45/80/24 47/63/25
f 51/64/25 47/63/25 48/65/26
f 48/65/26 37/74/23 29/67/23
f 30/68/27 32/71/28 40/69/28
f 32/71/28 31/73/29 39/72/29
f 31/73/29 29/67/23 37/74/23
f 33/75/27 38/70/27 40/69/28
f 35/76/28 40/69/28 39/72/29
f 36/77/29 39/72/29 37/74/23
f 42/79/24 44/81/25 47/63/25
f 44/81/25 43/115/26 48/65/26
f 48/65/26 43/115/26 34/78/23
f 28/54/7 29/99/7 31/82/7
f 15/83/19 33/114/19 46/57/19
f 13/85/13 30/68/27 38/70/27
f 14/86/13 38/70/27 33/75/27
f 41/59/19 35/58/19 36/88/19
f 20/84/19 46/57/19 42/61/19
f 21/91/7 50/52/7 30/56/7
f 19/93/30 42/79/24 45/80/24
f 41/59/19 34/89/19 43/95/19
f 21/91/7 9/116/7 49/96/7
f 8/94/30 45/80/24 49/62/24
f 28/54/7 51/53/7 52/98/7
