# Blender 5.0.1
# www.blender.org
mtllib bucket_rocker.mtl
o Shovel_mechanism.002
v 0.222012 0.072823 -0.091833
v 0.185739 0.072823 -0.065171
v 0.198768 0.072823 -0.083602
v 0.243265 0.072823 -0.052147
v 0.206992 0.072823 -0.025485
v 0.232649 0.072823 -0.029891
v 0.243270 0.072823 -0.076806
v 0.189559 0.072823 -0.042925
v 0.024105 0.072823 -0.023997
v -0.023997 0.072823 -0.024105
v 0.023996 0.072823 0.024105
v -0.024106 0.072823 0.023996
v 0.000076 0.072823 -0.034013
v -0.000077 0.072823 0.034013
v 0.029490 0.072823 0.000066
v -0.034014 0.072823 -0.000077
v 0.265259 0.072823 -0.046453
v 0.169480 0.072654 -0.008389
v 0.068108 0.072647 0.019376
v 0.119709 0.072562 0.008895
v 0.163756 0.072812 -0.029651
v 0.062353 0.072811 -0.002001
v 0.114160 0.072801 -0.011720
v 0.055742 0.072977 -0.026568
v 0.157104 0.072961 -0.054356
v 0.107490 0.073079 -0.036499
v 0.196355 0.072823 -0.087427
v 0.185734 0.072823 -0.040512
v 0.221014 0.072823 -0.087422
v 0.181328 0.072823 -0.066169
v 0.207990 0.072823 -0.029896
v 0.247676 0.072823 -0.051149
v 0.230236 0.072823 -0.033716
v 0.034013 0.072823 0.000077
v 0.239445 0.072823 -0.074393
v 0.020900 0.072823 -0.020806
v -0.020807 0.072823 -0.020901
v 0.000066 0.072823 -0.029491
v -0.020901 0.072823 0.020806
v -0.029492 0.072823 -0.000067
v 0.020805 0.072823 0.020900
v -0.000067 0.072823 0.029491
v 0.201231 0.082160 -0.079696
v 0.214502 0.082160 -0.058659
v 0.209010 0.082160 -0.034399
v 0.227772 0.082160 -0.037621
v 0.235539 0.082160 -0.071929
v 0.193464 0.082160 -0.045388
v -0.017549 0.082160 -0.017628
v 0.000056 0.082160 -0.024874
v -0.017629 0.082160 0.017548
v -0.024874 0.082160 -0.000056
v 0.017548 0.082160 0.017628
v -0.000057 0.082160 0.024873
v 0.017627 0.082160 -0.017549
v -0.000001 0.082160 -0.000000
v 0.024873 0.082160 0.000056
v 0.219994 0.082160 -0.082918
v 0.190242 0.082160 -0.064151
v 0.238761 0.082160 -0.053167
v 0.222012 0.065634 -0.091833
v 0.206992 0.065634 -0.025485
v 0.232649 0.065634 -0.029891
v 0.243270 0.065634 -0.076806
v 0.024105 0.065633 -0.023997
v -0.023997 0.065633 -0.024105
v 0.023996 0.065633 0.024105
v -0.024106 0.065633 0.023996
v 0.000076 0.065633 -0.034013
v -0.000078 0.065633 0.034013
v 0.029490 0.065633 0.000066
v -0.034014 0.065633 -0.000077
v 0.257711 0.065634 -0.048469
v 0.257711 0.072823 -0.048468
v 0.265259 0.065634 -0.046453
v 0.169480 0.065802 -0.008389
v 0.068108 0.065809 0.019376
v 0.119709 0.065895 0.008895
v 0.163756 0.065645 -0.029651
v 0.062353 0.065646 -0.002001
v 0.114160 0.065655 -0.011720
v 0.055742 0.065480 -0.026568
v 0.157104 0.065496 -0.054356
v 0.107490 0.065378 -0.036499
v 0.196355 0.065634 -0.087427
v 0.185734 0.065634 -0.040512
v 0.181328 0.065634 -0.066169
v 0.247676 0.065634 -0.051149
v 0.034013 0.065633 0.000077
v 0.020900 0.065633 -0.020806
v -0.020807 0.065633 -0.020901
v 0.000066 0.065633 -0.029491
v -0.020901 0.065633 0.020806
v -0.029492 0.065633 -0.000067
v 0.020805 0.065633 0.020900
v -0.000067 0.065633 0.029491
v -0.017549 0.056297 -0.017628
v 0.000056 0.056297 -0.024874
v -0.017629 0.056297 0.017548
v -0.024874 0.056297 -0.000056
v 0.017548 0.056297 0.017628
v -0.000057 0.056297 0.024873
v 0.017627 0.056297 -0.017549
v -0.000001 0.056297 -0.000000
v 0.024873 0.056297 0.000056
v 0.268079 0.072823 -0.063455
v 0.262922 0.072823 -0.071484
v 0.252301 0.072823 -0.024569
v 0.260282 0.072823 -0.029073
v 0.262922 0.065634 -0.071484
v 0.268079 0.065634 -0.063455
v 0.260282 0.065634 -0.029073
v 0.252301 0.065634 -0.024569
v 0.222012 -0.072823 -0.091833
v 0.185739 -0.072823 -0.065171
v 0.198768 -0.072823 -0.083602
v 0.243265 -0.072823 -0.052147
v 0.206992 -0.072823 -0.025485
v 0.232649 -0.072823 -0.029891
v 0.243270 -0.072823 -0.076806
v 0.189559 -0.072823 -0.042925
v 0.024105 -0.072823 -0.023997
v -0.023997 -0.072823 -0.024106
v 0.023996 -0.072823 0.024105
v -0.024106 -0.072823 0.023996
v 0.000076 -0.072823 -0.034013
v -0.000077 -0.072823 0.034013
v 0.029490 -0.072823 0.000066
v -0.034014 -0.072823 -0.000077
v 0.265259 -0.072823 -0.046453
v 0.169480 -0.072654 -0.008389
v 0.068108 -0.072647 0.019376
v 0.119709 -0.072562 0.008895
v 0.163756 -0.072812 -0.029651
v 0.062353 -0.072811 -0.002001
v 0.114160 -0.072801 -0.011721
v 0.055742 -0.072976 -0.026568
v 0.157104 -0.072961 -0.054356
v 0.107490 -0.073079 -0.036499
v 0.196355 -0.072823 -0.087427
v 0.185734 -0.072823 -0.040512
v 0.221014 -0.072823 -0.087422
v 0.181328 -0.072823 -0.066169
v 0.207990 -0.072823 -0.029896
v 0.247676 -0.072823 -0.051149
v 0.230236 -0.072823 -0.033716
v 0.034013 -0.072823 0.000077
v 0.239445 -0.072823 -0.074393
v 0.020900 -0.072823 -0.020806
v -0.020807 -0.072823 -0.020901
v 0.000066 -0.072823 -0.029491
v -0.020901 -0.072823 0.020806
v -0.029492 -0.072823 -0.000067
v 0.020806 -0.072823 0.020900
v -0.000067 -0.072823 0.029491
v 0.201231 -0.082160 -0.079696
v 0.214502 -0.082160 -0.058659
v 0.209010 -0.082160 -0.034399
v 0.227772 -0.082160 -0.037621
v 0.235540 -0.082160 -0.071929
v 0.193464 -0.082160 -0.045388
v -0.017549 -0.082160 -0.017628
v 0.000056 -0.082160 -0.024874
v -0.017628 -0.082160 0.017548
v -0.024874 -0.082160 -0.000056
v 0.017548 -0.082160 0.017628
v -0.000057 -0.082160 0.024873
v 0.017627 -0.082160 -0.017549
v -0.000001 -0.082160 -0.000000
v 0.024873 -0.082160 0.000056
v 0.219994 -0.082160 -0.082918
v 0.190242 -0.082160 -0.064151
v 0.238761 -0.082160 -0.053167
v 0.222012 -0.065633 -0.091833
v 0.206992 -0.065633 -0.025485
v 0.232649 -0.065633 -0.029891
v 0.243270 -0.065633 -0.076806
v 0.024105 -0.065633 -0.023997
v -0.023997 -0.065633 -0.024106
v 0.023996 -0.065633 0.024105
v -0.024106 -0.065633 0.023996
v 0.000076 -0.065633 -0.034013
v -0.000077 -0.065633 0.034013
v 0.029490 -0.065633 0.000066
v -0.034014 -0.065633 -0.000077
v 0.257711 -0.065633 -0.048469
v 0.257711 -0.072823 -0.048469
v 0.265259 -0.065633 -0.046453
v 0.169480 -0.065802 -0.008389
v 0.068108 -0.065809 0.019376
v 0.119709 -0.065895 0.008895
v 0.163756 -0.065645 -0.029651
v 0.062353 -0.065646 -0.002001
v 0.114160 -0.065655 -0.011721
v 0.055742 -0.065480 -0.026568
v 0.157104 -0.065495 -0.054356
v 0.107490 -0.065377 -0.036499
v 0.196355 -0.065633 -0.087427
v 0.185734 -0.065633 -0.040512
v 0.181328 -0.065633 -0.066169
v 0.214502 -0.065633 -0.058659
v 0.247676 -0.065633 -0.051149
v 0.034013 -0.065633 0.000077
v 0.020900 -0.065633 -0.020806
v -0.020807 -0.065633 -0.020901
v 0.000066 -0.065633 -0.029491
v -0.020901 -0.065633 0.020806
v -0.029492 -0.065633 -0.000067
v 0.020806 -0.065633 0.020900
v -0.000067 -0.065633 0.029491
v -0.017549 -0.056297 -0.017628
v 0.000056 -0.056297 -0.024874
v -0.017629 -0.056297 0.017548
v -0.024874 -0.056297 -0.000056
v 0.017548 -0.056297 0.017628
v -0.000057 -0.056297 0.024873
v 0.017627 -0.056297 -0.017549
v -0.000001 -0.056297 -0.000000
v 0.024873 -0.056297 0.000056
v 0.268079 -0.072823 -0.063455
v 0.262922 -0.072823 -0.071484
v 0.252301 -0.072823 -0.024569
v 0.260282 -0.072823 -0.029073
v 0.262922 -0.065633 -0.071484
v 0.268079 -0.065633 -0.063455
v 0.260282 -0.065633 -0.029073
v 0.252301 -0.065633 -0.024569
v 0.214502 0.065634 -0.058659
vn 0.6324 0.4433 0.6353
vn -0.0020 0.4433 0.8964
vn -0.4782 0.4433 -0.7581
vn -0.8742 0.4433 -0.1979
vn 0.4782 0.4433 0.7581
vn -0.1979 0.4433 0.8742
vn -0.0000 1.0000 -0.0000
vn -0.6353 0.4433 0.6324
vn -0.8964 0.4433 -0.0020
vn -0.7581 0.4433 0.4782
vn 0.1979 0.4433 -0.8742
vn -0.6324 0.4433 -0.6353
vn 0.0020 0.4433 -0.8964
vn 0.6353 0.4433 -0.6324
vn 0.8964 0.4433 0.0020
vn 0.7581 0.4433 -0.4782
vn 0.8742 0.4433 0.1979
vn 0.0022 1.0000 0.0066
vn 0.0027 0.9999 0.0102
vn 0.0009 1.0000 0.0073
vn 0.0012 1.0000 0.0067
vn 0.0028 1.0000 0.0064
vn 0.0025 1.0000 0.0092
vn -0.0012 1.0000 0.0056
vn 0.0039 1.0000 0.0034
vn 0.0004 1.0000 0.0023
vn 0.0008 1.0000 0.0022
vn 0.0019 1.0000 -0.0003
vn -0.0016 1.0000 0.0007
vn -0.0008 1.0000 0.0012
vn 0.0013 1.0000 0.0005
vn -0.0020 -0.4433 0.8964
vn 0.6324 -0.4433 0.6353
vn -0.8964 -0.4433 -0.0020
vn -0.6353 -0.4433 0.6324
vn 0.0020 -0.4433 -0.8964
vn -0.6324 -0.4433 -0.6353
vn 0.8964 -0.4433 0.0020
vn 0.6353 -0.4433 -0.6324
vn -0.0000 -1.0000 -0.0000
vn 0.0027 -0.9999 0.0102
vn 0.0022 -1.0000 0.0066
vn 0.0009 -1.0000 0.0073
vn 0.0012 -1.0000 0.0067
vn 0.0029 -0.9999 0.0108
vn 0.0025 -1.0000 0.0092
vn -0.0012 -1.0000 0.0056
vn 0.0028 -1.0000 0.0064
vn 0.0004 -1.0000 0.0023
vn 0.0013 -1.0000 0.0005
vn 0.0008 -1.0000 0.0022
vn 0.0039 -1.0000 0.0034
vn -0.0016 -1.0000 0.0007
vn 0.0019 -1.0000 -0.0003
vn -0.0008 -1.0000 0.0012
vn 0.2208 -0.0000 -0.9753
vn 0.4258 -0.0000 -0.9048
vn -0.6474 -0.0000 -0.7621
vn -0.5335 -0.0000 -0.8458
vn -0.3889 -0.0000 -0.9213
vn -0.2644 -0.0000 -0.9644
vn -0.1351 -0.0000 -0.9908
vn 0.1559 -0.0000 -0.9878
vn 0.0022 -0.0000 -1.0000
vn 0.0023 -0.0000 -1.0000
vn -0.7055 -0.0000 -0.7087
vn -1.0000 -0.0000 -0.0023
vn -0.7087 -0.0000 0.7055
vn -0.0022 -0.0000 1.0000
vn 0.2462 -0.0000 0.9692
vn -0.0023 -0.0000 1.0000
vn 0.1529 -0.0000 0.9882
vn 0.2641 -0.0000 0.9645
vn 0.3719 -0.0000 0.9283
vn 0.2943 -0.0000 0.9557
vn -0.0472 -0.0000 0.9989
vn 0.9794 -0.0000 -0.2019
vn 0.5909 -0.0000 -0.8068
vn 0.7851 -0.0000 0.6194
vn 0.1243 -0.0000 0.9922
vn 0.9755 -0.0000 0.2198
vn 0.7581 -0.4433 -0.4782
vn 0.1979 -0.4433 -0.8742
vn 0.8742 -0.4433 0.1979
vn -0.7581 -0.4433 0.4782
vn -0.1979 -0.4433 0.8742
vn -0.4782 -0.4433 -0.7581
vn -0.8742 -0.4433 -0.1979
vn 0.4782 -0.4433 0.7581
vn 0.0029 0.9999 0.0108
vt 0.896900 0.555634
vt 0.900316 0.553968
vt 0.901087 0.555633
vt 0.803668 0.367487
vt 0.804959 0.371161
vt 0.802919 0.369263
vt 0.799261 0.377588
vt 0.802861 0.375873
vt 0.803611 0.377734
vt 0.321482 0.347408
vt 0.317248 0.347726
vt 0.320686 0.345980
vt 0.904035 0.552709
vt 0.902487 0.549262
vt 0.904123 0.548635
vt 0.806644 0.374612
vt 0.806581 0.370481
vt 0.800142 0.369128
vt 0.799481 0.367487
vt 0.901302 0.545503
vt 0.897724 0.547147
vt 0.896950 0.545419
vt 0.900501 0.547305
vt 0.893920 0.548425
vt 0.895603 0.551873
vt 0.893920 0.552659
vt 0.796465 0.370390
vt 0.798081 0.373933
vt 0.796442 0.374567
vt 0.317636 0.377523
vt 0.320608 0.369298
vt 0.321120 0.377577
vt 0.317969 0.360986
vt 0.321434 0.361040
vt 0.324646 0.369362
vt 0.325123 0.377640
vt 0.325459 0.361104
vt 0.321894 0.381982
vt 0.322244 0.357269
vt 0.326329 0.356953
vt 0.325949 0.382567
vt 0.328043 0.350079
vt 0.328994 0.353841
vt 0.328317 0.353621
vt 0.326007 0.356318
vt 0.322465 0.356592
vt 0.319133 0.354604
vt 0.319767 0.354282
vt 0.319494 0.350740
vt 0.321804 0.348042
vt 0.318817 0.350519
vt 0.325566 0.347092
vt 0.325346 0.347769
vt 0.322070 0.382671
vt 0.325586 0.383178
vt 0.327206 0.389538
vt 0.328403 0.385847
vt 0.327818 0.389902
vt 0.320846 0.391159
vt 0.324537 0.392355
vt 0.320483 0.391771
vt 0.319226 0.384799
vt 0.318029 0.388490
vt 0.318614 0.384435
vt 0.327713 0.386023
vt 0.318719 0.388314
vt 0.324362 0.391666
vt 0.328678 0.349757
vt 0.801521 0.372549
vt 0.800083 0.375912
vt 0.798235 0.371150
vt 0.899022 0.550573
vt 0.902342 0.552061
vt 0.897530 0.553898
vt 0.895675 0.549069
vt 0.804890 0.373975
vt 0.117631 0.948658
vt 0.116376 0.945086
vt 0.119324 0.948010
vt 0.116591 0.955216
vt 0.117776 0.951457
vt 0.119413 0.952084
vt 0.110964 0.951650
vt 0.112240 0.955300
vt 0.109210 0.952294
vt 0.113013 0.953572
vt 0.112820 0.946821
vt 0.109210 0.948060
vt 0.112190 0.945085
vt 0.789463 0.706250
vt 0.786947 0.703140
vt 0.791032 0.703456
vt 0.786073 0.681250
vt 0.783102 0.673025
vt 0.786585 0.672971
vt 0.783434 0.689562
vt 0.782714 0.681303
vt 0.790111 0.681186
vt 0.790588 0.672908
vt 0.786899 0.689508
vt 0.787359 0.668566
vt 0.784079 0.666113
vt 0.787710 0.693279
vt 0.790925 0.689444
vt 0.791414 0.667982
vt 0.789371 0.698368
vt 0.794459 0.696707
vt 0.794143 0.700791
vt 0.791794 0.693595
vt 0.784598 0.695944
vt 0.784282 0.700029
vt 0.787535 0.667877
vt 0.791051 0.667370
vt 0.792671 0.661010
vt 0.793868 0.664701
vt 0.793178 0.664525
vt 0.786311 0.659389
vt 0.790003 0.658193
vt 0.789827 0.658882
vt 0.784691 0.665749
vt 0.783494 0.662058
vt 0.784184 0.662234
vt 0.785948 0.658777
vt 0.793283 0.660646
vt 0.114311 0.950146
vt 0.115790 0.953414
vt 0.115605 0.946751
vt 0.110892 0.948846
vt 0.792069 0.754259
vt 0.793200 0.758356
vt 0.792069 0.758356
vt 0.792069 0.746066
vt 0.793200 0.750162
vt 0.792069 0.750162
vt 0.793200 0.754259
vt 0.792047 0.741824
vt 0.793200 0.746066
vt 0.792028 0.733526
vt 0.793222 0.741824
vt 0.793224 0.725235
vt 0.793240 0.733526
vt 0.792045 0.725235
vt 0.793200 0.720239
vt 0.792069 0.720239
vt 0.793200 0.716143
vt 0.069541 0.580004
vt 0.070673 0.575907
vt 0.070673 0.580004
vt 0.069541 0.575907
vt 0.070673 0.571810
vt 0.069541 0.571810
vt 0.070673 0.567714
vt 0.069541 0.563617
vt 0.069541 0.567714
vt 0.864000 0.920741
vt 0.865132 0.924838
vt 0.864000 0.924838
vt 0.864028 0.913760
vt 0.865132 0.920741
vt 0.864041 0.905474
vt 0.865104 0.913760
vt 0.864027 0.897183
vt 0.865091 0.905474
vt 0.864000 0.890695
vt 0.865105 0.897183
vt 0.865132 0.886599
vt 0.865132 0.890695
vt 0.323998 0.344299
vt 0.782714 0.702822
vt 0.369291 0.208079
vt 0.370423 0.209581
vt 0.369291 0.209581
vt 0.369291 0.202522
vt 0.370423 0.201080
vt 0.370423 0.202522
vt 0.370423 0.205367
vt 0.369291 0.205367
vt 0.322574 0.343821
vt 0.793200 0.761559
vt 0.792069 0.761559
vt 0.864000 0.883395
vt 0.864000 0.886599
vt 0.317628 0.346335
vt 0.320088 0.344906
vt 0.788039 0.706727
vt 0.786152 0.704568
vt 0.783093 0.704214
vt 0.061046 0.317238
vt 0.057831 0.313403
vt 0.061915 0.313087
vt 0.656847 0.787908
vt 0.655123 0.791508
vt 0.655139 0.787132
vt 0.057481 0.338116
vt 0.053223 0.333657
vt 0.056706 0.333712
vt 0.175495 0.986981
vt 0.179030 0.985280
vt 0.179822 0.986981
vt 0.059492 0.308315
vt 0.061153 0.303226
vt 0.064264 0.305891
vt 0.382608 0.445697
vt 0.381657 0.449459
vt 0.381931 0.445917
vt 0.379563 0.416972
vt 0.375684 0.416867
vt 0.379199 0.416360
vt 0.372747 0.444934
vt 0.376079 0.442946
vt 0.373381 0.445256
vt 0.375508 0.417556
vt 0.371250 0.422015
vt 0.372227 0.415103
vt 0.658776 0.785844
vt 0.658094 0.784212
vt 0.663698 0.790595
vt 0.665298 0.787163
vt 0.665298 0.791215
vt 0.656970 0.790693
vt 0.660264 0.789253
vt 0.658940 0.792657
vt 0.658371 0.794459
vt 0.663585 0.787808
vt 0.382292 0.449781
vt 0.378959 0.451769
vt 0.379620 0.443220
vt 0.372431 0.449019
vt 0.373107 0.448798
vt 0.661733 0.792585
vt 0.662570 0.794199
vt 0.372839 0.414739
vt 0.371643 0.411048
vt 0.372332 0.411224
vt 0.081530 0.980927
vt 0.078105 0.979251
vt 0.082317 0.979250
vt 0.945526 0.198230
vt 0.944421 0.204718
vt 0.944448 0.198230
vt 0.379073 0.438434
vt 0.375858 0.442269
vt 0.375047 0.438498
vt 0.662305 0.784126
vt 0.374096 0.407767
vt 0.374460 0.408379
vt 0.080211 0.984334
vt 0.083553 0.982858
vt 0.083618 0.985654
vt 0.078734 0.980992
vt 0.076803 0.983015
vt 0.379180 0.452446
vt 0.375418 0.451496
vt 0.081687 0.987677
vt 0.078891 0.987742
vt 0.381327 0.413515
vt 0.375096 0.452130
vt 0.370862 0.451812
vt 0.085295 0.982229
vt 0.085295 0.986440
vt 0.374222 0.430240
vt 0.371583 0.438552
vt 0.370862 0.430292
vt 0.082317 0.989418
vt 0.374734 0.421961
vt 0.378151 0.407183
vt 0.377975 0.407872
vt 0.076868 0.985811
vt 0.078105 0.989418
vt 0.378259 0.430176
vt 0.378737 0.421898
vt 0.381432 0.409636
vt 0.380820 0.410000
vt 0.075127 0.986440
vt 0.075127 0.982229
vt 0.054719 0.310738
vt 0.054404 0.306654
vt 0.177693 0.981891
vt 0.176262 0.985170
vt 0.054812 0.340933
vt 0.053616 0.344624
vt 0.054200 0.340570
vt 0.057657 0.338806
vt 0.053555 0.317120
vt 0.057020 0.317175
vt 0.181046 0.983343
vt 0.182764 0.983972
vt 0.782321 0.794459
vt 0.783452 0.791255
vt 0.783452 0.794459
vt 0.382016 0.413691
vt 0.056273 0.302114
vt 0.058160 0.299955
vt 0.059584 0.300433
vt 0.057068 0.303542
vt 0.782299 0.774724
vt 0.783492 0.766426
vt 0.783474 0.774724
vt 0.411851 0.337240
vt 0.410720 0.338742
vt 0.410720 0.337240
vt 0.056194 0.325433
vt 0.945525 0.181653
vt 0.944462 0.189939
vt 0.944449 0.181653
vt 0.374300 0.453558
vt 0.371242 0.453203
vt 0.783476 0.758134
vt 0.782321 0.753139
vt 0.783452 0.753139
vt 0.181145 0.980533
vt 0.182774 0.979874
vt 0.945552 0.208814
vt 0.944421 0.208814
vt 0.410720 0.331683
vt 0.411851 0.334528
vt 0.410720 0.334528
vt 0.376188 0.455717
vt 0.377611 0.455240
vt 0.060232 0.325496
vt 0.060710 0.333774
vt 0.944421 0.212018
vt 0.052835 0.303860
vt 0.410720 0.330241
vt 0.411851 0.331683
vt 0.945511 0.189939
vt 0.179890 0.976801
vt 0.179123 0.978612
vt 0.174241 0.983249
vt 0.537443 0.255779
vt 0.538575 0.259876
vt 0.537443 0.259876
vt 0.537443 0.251682
vt 0.538575 0.255779
vt 0.945552 0.170575
vt 0.944421 0.174672
vt 0.944421 0.170575
vt 0.053215 0.302469
vt 0.055675 0.301040
vt 0.945552 0.174672
vt 0.538575 0.263972
vt 0.537443 0.263972
vt 0.062793 0.345673
vt 0.063989 0.341981
vt 0.063404 0.346036
vt 0.063300 0.342157
vt 0.061536 0.338701
vt 0.782321 0.787158
vt 0.783452 0.783062
vt 0.783452 0.787158
vt 0.782321 0.778965
vt 0.783452 0.778965
vt 0.537443 0.268069
vt 0.172611 0.983908
vt 0.174339 0.980439
vt 0.782321 0.749042
vt 0.783452 0.749042
vt 0.060124 0.348490
vt 0.059948 0.347800
vt 0.782321 0.791255
vt 0.056433 0.347293
vt 0.056069 0.347905
vt 0.175563 0.976801
vt 0.176355 0.978502
vt 0.172621 0.979810
vt 0.782321 0.783062
vt 0.064580 0.309976
vt 0.061172 0.339313
vt 0.782297 0.758134
vt 0.054305 0.344449
vt 0.317248 0.369246
vt 0.792069 0.716143
vt 0.070673 0.563617
vt 0.370423 0.208079
vt 0.369291 0.201080
vt 0.865132 0.883395
vt 0.785553 0.705642
vt 0.661565 0.785933
vt 0.379943 0.442585
vt 0.945552 0.204718
vt 0.782281 0.766426
vt 0.411851 0.338742
vt 0.052835 0.325380
vt 0.373702 0.454632
vt 0.945552 0.212018
vt 0.411851 0.330241
vt 0.538575 0.251682
vt 0.538575 0.268069
s 1
usemtl Excavator
f 41/1/1 54/2/2 42/3/2
f 3/4/3 59/5/4 43/6/3
f 33/7/5 45/8/6 31/9/6
f 32/10/7 108/11/7 74/12/7
f 39/13/8 52/14/9 40/15/9
f 8/16/10 59/5/4 2/17/4
f 3/4/3 58/18/11 29/19/11
f 37/20/12 50/21/13 38/22/13
f 37/20/12 52/14/9 49/23/12
f 36/24/14 57/25/15 15/26/15
f 35/27/16 60/28/17 4/29/17
f 19/30/18 23/31/19 22/32/20
f 23/31/19 18/33/21 21/34/22
f 22/32/20 26/35/23 24/36/24
f 26/35/23 21/34/22 25/37/25
f 34/38/26 19/30/18 22/32/20
f 18/33/21 28/39/27 21/34/22
f 25/37/25 28/39/27 30/40/28
f 34/38/26 24/36/24 9/41/29
f 29/42/7 27/43/7 3/44/7
f 2/45/7 27/43/7 30/40/28
f 8/46/7 5/47/30 31/48/7
f 33/49/7 32/10/7 4/50/7
f 31/48/7 6/51/7 33/49/7
f 4/50/7 7/52/7 35/53/7
f 15/54/7 9/41/29 36/55/7
f 37/56/7 13/57/7 10/58/7
f 39/59/7 16/60/7 12/61/7
f 41/62/7 14/63/7 11/64/31
f 38/65/7 9/41/29 13/57/7
f 42/66/7 12/61/7 14/63/7
f 41/62/7 34/38/26 15/54/7
f 37/56/7 16/60/7 40/67/7
f 35/53/7 1/68/7 29/42/7
f 2/45/7 28/39/27 8/46/7
f 44/69/7 45/8/7 46/70/7
f 44/69/7 60/28/7 47/71/7
f 58/18/7 44/69/7 47/71/7
f 59/5/7 44/69/7 43/6/7
f 56/72/7 51/73/7 54/2/7
f 56/72/7 53/74/7 57/25/7
f 55/75/7 56/72/7 57/25/7
f 49/23/7 56/72/7 50/21/7
f 8/16/10 45/8/6 48/76/10
f 38/22/13 55/75/14 36/24/14
f 29/19/11 47/71/16 35/27/16
f 33/7/5 60/28/17 46/70/5
f 42/3/2 51/73/8 39/13/8
f 15/26/15 53/74/1 41/1/1
f 102/77/32 95/78/33 96/79/32
f 94/80/34 99/81/35 93/82/35
f 98/83/36 91/84/37 92/85/36
f 97/86/37 94/80/34 91/84/37
f 105/87/38 90/88/39 71/89/38
f 110/90/40 88/91/40 64/92/40
f 81/93/41 77/94/42 80/95/43
f 81/93/41 76/96/44 78/97/45
f 84/98/46 80/95/43 82/99/47
f 84/98/46 79/100/48 81/93/41
f 89/101/49 77/94/42 67/102/50
f 86/103/51 76/96/44 79/100/48
f 83/104/52 86/103/51 79/100/48
f 82/99/47 89/101/49 65/105/53
f 228/106/40 85/107/40 61/108/40
f 228/106/40 87/109/54 85/107/40
f 228/106/40 62/110/55 86/103/51
f 228/106/40 88/91/40 63/111/40
f 228/106/40 63/111/40 62/110/55
f 228/106/40 64/92/40 88/91/40
f 65/105/53 71/112/40 90/113/40
f 91/114/40 69/115/40 92/116/40
f 93/117/40 72/118/40 94/119/40
f 95/120/40 70/121/40 96/122/40
f 92/116/40 65/105/53 90/113/40
f 96/122/40 68/123/40 93/117/40
f 89/101/49 95/120/40 71/112/40
f 94/119/40 66/124/40 91/114/40
f 228/106/40 61/108/40 64/92/40
f 228/106/40 86/103/51 87/109/54
f 104/125/40 99/81/40 100/126/40
f 101/127/40 104/125/40 105/87/40
f 103/128/40 104/125/40 98/83/40
f 104/125/40 97/86/40 98/83/40
f 90/88/39 98/83/36 92/85/36
f 99/81/35 96/79/32 93/82/35
f 101/127/33 71/89/38 95/78/33
f 61/129/56 7/130/57 64/131/57
f 87/132/58 27/133/59 85/134/59
f 85/134/59 1/135/56 61/129/56
f 83/136/60 30/137/58 87/132/58
f 84/138/61 25/139/60 83/136/60
f 84/138/61 24/140/62 26/141/61
f 82/142/62 9/143/63 24/140/62
f 65/144/63 13/145/64 9/143/63
f 69/146/65 10/147/66 13/148/64
f 66/149/66 16/150/67 10/147/66
f 72/151/67 12/152/68 16/150/67
f 70/153/69 12/152/68 68/154/68
f 67/155/70 14/156/71 70/157/69
f 77/158/72 11/159/70 67/155/70
f 78/160/73 19/161/72 77/158/72
f 76/162/74 20/163/73 78/160/73
f 62/164/75 18/165/74 76/162/74
f 62/164/75 6/166/76 5/167/75
f 32/10/7 107/168/7 7/52/7
f 88/91/40 113/169/40 63/111/40
f 106/170/77 110/171/78 107/172/78
f 109/173/79 113/174/80 112/175/79
f 75/176/81 106/170/77 17/177/81
f 74/12/7 106/178/7 107/168/7
f 64/131/57 107/179/78 110/180/78
f 113/181/80 6/166/76 63/182/76
f 74/12/7 109/183/7 17/184/7
f 112/175/79 17/177/81 109/173/79
f 111/185/40 73/186/40 110/90/40
f 73/186/40 112/187/40 113/169/40
f 196/188/25 199/189/27 200/190/28
f 160/191/82 142/192/83 148/193/82
f 203/194/26 190/195/18 193/196/20
f 184/197/15 215/198/1 209/199/1
f 201/200/7 177/201/7 174/202/7
f 140/203/40 142/204/40 116/205/40
f 122/206/53 128/207/40 149/208/40
f 118/209/55 121/210/40 144/211/40
f 147/212/49 132/213/42 124/214/50
f 173/215/84 148/193/82 117/216/84
f 161/217/85 144/218/86 121/219/85
f 171/220/40 157/221/40 156/222/40
f 171/220/83 116/223/87 142/192/83
f 157/221/40 158/224/40 161/217/40
f 114/225/40 148/226/40 142/204/40
f 115/227/40 140/203/40 116/205/40
f 119/228/40 144/211/40 146/229/40
f 116/223/87 172/230/88 115/231/88
f 154/232/40 127/233/40 155/234/40
f 167/235/32 154/236/33 155/237/32
f 131/238/74 175/239/75 189/240/74
f 138/241/52 141/242/51 134/243/48
f 146/244/89 173/215/84 117/216/84
f 155/234/40 125/245/40 152/246/40
f 169/247/40 164/248/40 165/249/40
f 166/250/40 169/247/40 170/251/40
f 120/252/40 117/253/40 148/226/40
f 158/224/86 146/244/89 144/218/86
f 169/247/40 162/254/40 163/255/40
f 151/256/40 122/206/53 149/208/40
f 145/257/40 222/258/40 119/228/40
f 165/249/34 152/259/35 153/260/34
f 136/261/41 131/262/44 133/263/45
f 150/264/37 165/249/34 153/260/34
f 136/261/41 132/213/42 135/265/43
f 172/230/88 121/219/85 115/231/88
f 152/246/40 129/266/40 153/267/40
f 168/268/40 169/247/40 163/255/40
f 163/255/36 150/264/37 151/269/36
f 139/270/46 135/265/43 137/271/47
f 153/267/40 123/272/40 150/273/40
f 141/242/51 115/227/40 121/210/40
f 141/242/51 131/262/44 134/243/48
f 170/251/38 149/274/39 128/275/38
f 164/248/35 155/237/32 152/259/35
f 168/268/39 151/269/36 149/274/39
f 173/215/40 157/221/40 160/191/40
f 147/212/49 154/232/40 128/207/40
f 201/200/7 175/276/30 176/277/7
f 218/278/7 215/198/7 219/279/7
f 209/280/7 183/281/7 180/282/31
f 209/280/7 203/194/26 184/283/7
f 189/284/21 199/189/27 192/285/22
f 209/199/1 216/286/2 210/287/2
f 221/288/78 177/289/57 224/290/78
f 150/273/40 126/291/40 151/256/40
f 145/257/40 146/229/40 117/253/40
f 137/271/47 147/212/49 122/206/53
f 139/270/46 134/243/48 136/261/41
f 186/292/7 225/293/7 224/294/7
f 201/200/7 202/295/7 177/201/7
f 138/296/60 197/297/61 196/298/60
f 220/299/77 224/300/78 225/301/77
f 190/195/18 194/302/19 193/196/20
f 132/303/72 191/304/73 190/305/72
f 187/306/40 223/307/40 222/258/40
f 195/308/62 122/309/63 178/310/63
f 210/287/2 213/311/8 207/312/8
f 175/239/75 119/313/76 176/314/76
f 226/315/79 130/316/81 188/317/81
f 220/318/40 187/306/40 221/319/40
f 157/221/40 172/230/40 156/222/40
f 193/196/20 197/320/23 195/321/24
f 119/313/76 227/322/80 176/314/76
f 202/295/7 227/323/7 186/292/7
f 194/302/19 189/284/21 192/285/22
f 227/324/80 223/325/79 226/315/79
f 197/320/23 192/285/22 196/188/25
f 133/326/73 189/240/74 191/304/73
f 208/327/9 213/311/8 214/328/9
f 184/197/15 217/329/14 219/279/15
f 202/295/7 224/294/7 177/201/7
f 179/330/66 129/331/67 185/332/67
f 182/333/65 123/334/66 179/330/66
f 127/335/71 180/336/70 183/337/69
f 186/292/7 226/338/7 188/339/7
f 124/340/70 190/305/72 180/336/70
f 130/316/81 225/301/77 188/317/81
f 185/332/67 125/341/68 181/342/68
f 205/343/7 182/344/7 179/345/7
f 201/200/7 199/189/27 175/276/30
f 206/346/7 178/347/29 182/344/7
f 218/278/7 213/311/7 216/286/7
f 114/348/56 198/349/59 174/350/56
f 143/351/58 196/298/60 200/352/58
f 125/341/68 183/353/69 181/342/68
f 204/354/14 212/355/13 217/329/14
f 178/310/63 126/356/64 182/357/65
f 201/200/7 176/277/7 202/295/7
f 205/343/7 185/358/7 208/359/7
f 221/319/40 145/257/40 120/252/40
f 166/250/33 128/275/38 154/236/33
f 120/360/57 174/350/56 177/289/57
f 207/361/7 185/358/7 181/362/7
f 205/363/12 214/328/9 211/364/12
f 205/363/12 212/355/13 206/365/13
f 140/366/59 200/352/58 198/349/59
f 203/194/26 195/321/24 178/347/29
f 201/200/7 198/367/7 200/190/28
f 201/200/7 174/202/7 198/367/7
f 184/283/7 178/347/29 204/368/7
f 197/297/61 137/369/62 195/308/62
f 201/200/7 200/190/28 199/189/27
f 217/329/7 218/278/7 219/279/7
f 210/370/7 181/362/7 183/281/7
f 211/364/7 218/278/7 212/355/7
f 41/1/1 53/74/1 54/2/2
f 3/4/3 2/17/4 59/5/4
f 33/7/5 46/70/5 45/8/6
f 32/10/7 6/51/7 108/11/7
f 39/13/8 51/73/8 52/14/9
f 8/16/10 48/76/10 59/5/4
f 3/4/3 43/6/3 58/18/11
f 37/20/12 49/23/12 50/21/13
f 37/20/12 40/15/9 52/14/9
f 36/24/14 55/75/14 57/25/15
f 35/27/16 47/71/16 60/28/17
f 19/30/18 20/371/90 23/31/19
f 23/31/19 20/371/90 18/33/21
f 22/32/20 23/31/19 26/35/23
f 26/35/23 23/31/19 21/34/22
f 34/38/26 11/64/31 19/30/18
f 18/33/21 5/47/30 28/39/27
f 25/37/25 21/34/22 28/39/27
f 34/38/26 22/32/20 24/36/24
f 29/42/7 1/68/7 27/43/7
f 2/45/7 3/44/7 27/43/7
f 8/46/7 28/39/27 5/47/30
f 33/49/7 6/51/7 32/10/7
f 31/48/7 5/47/30 6/51/7
f 4/50/7 32/10/7 7/52/7
f 15/54/7 34/38/26 9/41/29
f 37/56/7 38/65/7 13/57/7
f 39/59/7 40/67/7 16/60/7
f 41/62/7 42/66/7 14/63/7
f 38/65/7 36/55/7 9/41/29
f 42/66/7 39/59/7 12/61/7
f 41/62/7 11/64/31 34/38/26
f 37/56/7 10/58/7 16/60/7
f 35/53/7 7/52/7 1/68/7
f 2/45/7 30/40/28 28/39/27
f 44/69/7 48/76/7 45/8/7
f 44/69/7 46/70/7 60/28/7
f 58/18/7 43/6/7 44/69/7
f 59/5/7 48/76/7 44/69/7
f 56/72/7 52/14/7 51/73/7
f 56/72/7 54/2/7 53/74/7
f 55/75/7 50/21/7 56/72/7
f 49/23/7 52/14/7 56/72/7
f 8/16/10 31/9/6 45/8/6
f 38/22/13 50/21/13 55/75/14
f 29/19/11 58/18/11 47/71/16
f 33/7/5 4/29/17 60/28/17
f 42/3/2 54/2/2 51/73/8
f 15/26/15 57/25/15 53/74/1
f 102/77/32 101/127/33 95/78/33
f 94/80/34 100/126/34 99/81/35
f 98/83/36 97/86/37 91/84/37
f 97/86/37 100/126/34 94/80/34
f 105/87/38 103/128/39 90/88/39
f 110/90/40 73/186/40 88/91/40
f 81/93/41 78/97/45 77/94/42
f 81/93/41 79/100/48 76/96/44
f 84/98/46 81/93/41 80/95/43
f 84/98/46 83/104/52 79/100/48
f 89/101/49 80/95/43 77/94/42
f 86/103/51 62/110/55 76/96/44
f 83/104/52 87/109/54 86/103/51
f 82/99/47 80/95/43 89/101/49
f 65/105/53 89/101/49 71/112/40
f 91/114/40 66/124/40 69/115/40
f 93/117/40 68/123/40 72/118/40
f 95/120/40 67/102/50 70/121/40
f 92/116/40 69/115/40 65/105/53
f 96/122/40 70/121/40 68/123/40
f 89/101/49 67/102/50 95/120/40
f 94/119/40 72/118/40 66/124/40
f 104/125/40 102/77/40 99/81/40
f 101/127/40 102/77/40 104/125/40
f 103/128/40 105/87/40 104/125/40
f 104/125/40 100/126/40 97/86/40
f 90/88/39 103/128/39 98/83/36
f 99/81/35 102/77/32 96/79/32
f 101/127/33 105/87/38 71/89/38
f 61/129/56 1/135/56 7/130/57
f 87/132/58 30/137/58 27/133/59
f 85/134/59 27/133/59 1/135/56
f 83/136/60 25/139/60 30/137/58
f 84/138/61 26/141/61 25/139/60
f 84/138/61 82/142/62 24/140/62
f 82/142/62 65/144/63 9/143/63
f 65/144/63 69/372/65 13/145/64
f 69/146/65 66/149/66 10/147/66
f 66/149/66 72/151/67 16/150/67
f 72/151/67 68/154/68 12/152/68
f 70/153/69 14/373/71 12/152/68
f 67/155/70 11/159/70 14/156/71
f 77/158/72 19/161/72 11/159/70
f 78/160/73 20/163/73 19/161/72
f 76/162/74 18/165/74 20/163/73
f 62/164/75 5/167/75 18/165/74
f 62/164/75 63/182/76 6/166/76
f 32/10/7 74/12/7 107/168/7
f 88/91/40 73/186/40 113/169/40
f 106/170/77 111/374/77 110/171/78
f 109/173/79 108/375/80 113/174/80
f 75/176/81 111/374/77 106/170/77
f 74/12/7 17/184/7 106/178/7
f 64/131/57 7/130/57 107/179/78
f 113/181/80 108/376/80 6/166/76
f 74/12/7 108/11/7 109/183/7
f 112/175/79 75/176/81 17/177/81
f 111/185/40 75/377/40 73/186/40
f 73/186/40 75/377/40 112/187/40
f 196/188/25 192/285/22 199/189/27
f 160/191/82 171/220/83 142/192/83
f 203/194/26 180/282/31 190/195/18
f 184/197/15 219/279/15 215/198/1
f 140/203/40 114/225/40 142/204/40
f 122/206/53 147/212/49 128/207/40
f 118/209/55 141/242/51 121/210/40
f 147/212/49 135/265/43 132/213/42
f 173/215/84 160/191/82 148/193/82
f 161/217/85 158/224/86 144/218/86
f 171/220/40 160/191/40 157/221/40
f 171/220/83 156/222/87 116/223/87
f 157/221/40 159/378/40 158/224/40
f 114/225/40 120/252/40 148/226/40
f 115/227/40 143/379/54 140/203/40
f 119/228/40 118/209/55 144/211/40
f 116/223/87 156/222/87 172/230/88
f 154/232/40 124/214/50 127/233/40
f 167/235/32 166/250/33 154/236/33
f 131/238/74 118/380/75 175/239/75
f 138/241/52 143/379/54 141/242/51
f 146/244/89 159/378/89 173/215/84
f 155/234/40 127/233/40 125/245/40
f 169/247/40 167/235/40 164/248/40
f 166/250/40 167/235/40 169/247/40
f 120/252/40 145/257/40 117/253/40
f 158/224/86 159/378/89 146/244/89
f 169/247/40 165/249/40 162/254/40
f 151/256/40 126/291/40 122/206/53
f 145/257/40 187/306/40 222/258/40
f 165/249/34 164/248/35 152/259/35
f 136/261/41 134/243/48 131/262/44
f 150/264/37 162/254/37 165/249/34
f 136/261/41 133/263/45 132/213/42
f 172/230/88 161/217/85 121/219/85
f 152/246/40 125/245/40 129/266/40
f 168/268/40 170/251/40 169/247/40
f 163/255/36 162/254/37 150/264/37
f 139/270/46 136/261/41 135/265/43
f 153/267/40 129/266/40 123/272/40
f 141/242/51 143/379/54 115/227/40
f 141/242/51 118/209/55 131/262/44
f 170/251/38 168/268/39 149/274/39
f 164/248/35 167/235/32 155/237/32
f 168/268/39 163/255/36 151/269/36
f 173/215/40 159/378/40 157/221/40
f 147/212/49 124/214/50 154/232/40
f 218/278/7 216/286/7 215/198/7
f 209/280/7 210/370/7 183/281/7
f 209/280/7 180/282/31 203/194/26
f 189/284/21 175/276/30 199/189/27
f 209/199/1 215/198/1 216/286/2
f 221/288/78 120/360/57 177/289/57
f 150/273/40 123/272/40 126/291/40
f 145/257/40 119/228/40 146/229/40
f 137/271/47 135/265/43 147/212/49
f 139/270/46 138/241/52 134/243/48
f 186/292/7 188/339/7 225/293/7
f 138/296/60 139/381/61 197/297/61
f 220/299/77 221/382/78 224/300/78
f 190/195/18 191/383/90 194/302/19
f 132/303/72 133/326/73 191/304/73
f 187/306/40 130/384/40 223/307/40
f 195/308/62 137/369/62 122/309/63
f 210/287/2 216/286/2 213/311/8
f 175/239/75 118/380/75 119/313/76
f 226/315/79 223/325/79 130/316/81
f 220/318/40 130/384/40 187/306/40
f 157/221/40 161/217/40 172/230/40
f 193/196/20 194/302/19 197/320/23
f 119/313/76 222/385/80 227/322/80
f 202/295/7 176/277/7 227/323/7
f 194/302/19 191/383/90 189/284/21
f 227/324/80 222/386/80 223/325/79
f 197/320/23 194/302/19 192/285/22
f 133/326/73 131/238/74 189/240/74
f 208/327/9 207/312/8 213/311/8
f 184/197/15 204/354/14 217/329/14
f 202/295/7 186/292/7 224/294/7
f 179/330/66 123/334/66 129/331/67
f 182/333/65 126/387/64 123/334/66
f 127/335/71 124/340/70 180/336/70
f 186/292/7 227/323/7 226/338/7
f 124/340/70 132/303/72 190/305/72
f 130/316/81 220/299/77 225/301/77
f 185/332/67 129/331/67 125/341/68
f 205/343/7 206/346/7 182/344/7
f 206/346/7 204/368/7 178/347/29
f 218/278/7 214/328/7 213/311/7
f 114/348/56 140/366/59 198/349/59
f 143/351/58 138/296/60 196/298/60
f 125/341/68 127/388/71 183/353/69
f 204/354/14 206/365/13 212/355/13
f 178/310/63 122/309/63 126/356/64
f 205/343/7 179/345/7 185/358/7
f 221/319/40 187/306/40 145/257/40
f 166/250/33 170/251/38 128/275/38
f 120/360/57 114/348/56 174/350/56
f 207/361/7 208/359/7 185/358/7
f 205/363/12 208/327/9 214/328/9
f 205/363/12 211/364/12 212/355/13
f 140/366/59 143/351/58 200/352/58
f 203/194/26 193/196/20 195/321/24
f 184/283/7 203/194/26 178/347/29
f 197/297/61 139/381/61 137/369/62
f 217/329/7 212/355/7 218/278/7
f 210/370/7 207/361/7 181/362/7
f 211/364/7 214/328/7 218/278/7
