# Blender 5.0.1
# www.blender.org
mtllib bucket.mtl
o Shovel.001
v -0.014023 -0.223892 -0.484741
v -0.011131 -0.239062 -0.501617
v 0.092824 -0.223892 -0.367299
v 0.109211 -0.239062 -0.365448
v -0.449562 -0.239064 -0.506544
v -0.430803 -0.223892 -0.493327
v -0.040730 -0.239064 -0.035628
v -0.048477 -0.223892 -0.050010
v -0.014023 0.224267 -0.484741
v -0.011131 0.239437 -0.501617
v 0.092824 0.224267 -0.367299
v 0.109211 0.239437 -0.365448
v -0.449562 0.239438 -0.506544
v -0.430803 0.224267 -0.493327
v -0.040730 0.239438 -0.035628
v -0.048477 0.224267 -0.050010
v -0.163506 -0.223892 -0.263556
v -0.163506 -0.239069 -0.263556
v -0.240579 -0.223892 -0.359305
v -0.240579 -0.239069 -0.359305
v 0.053792 -0.239064 -0.479508
v 0.037347 -0.223892 -0.472376
v 0.096976 -0.239064 -0.425291
v 0.085773 -0.223892 -0.418532
v -0.163506 0.224267 -0.263556
v -0.163506 0.239443 -0.263556
v -0.240579 0.224267 -0.359305
v -0.240579 0.239443 -0.359305
v 0.053792 0.239438 -0.479508
v 0.037347 0.224267 -0.472376
v 0.096976 0.239438 -0.425291
v 0.085773 0.224267 -0.418532
v 0.022678 -0.080969 -0.099350
v 0.022678 0.081344 -0.099350
v -0.048477 -0.046509 -0.050010
v -0.048477 0.046884 -0.050010
v 0.092824 0.046884 -0.367299
v 0.092824 -0.046509 -0.367299
v 0.055988 0.081344 -0.119631
v 0.055988 -0.080969 -0.119631
v 0.096976 0.051295 -0.425291
v 0.096976 -0.050921 -0.425291
v 0.085773 0.050943 -0.418532
v 0.085773 -0.050568 -0.418532
v 0.053792 -0.077494 -0.479508
v 0.053792 0.077869 -0.479508
v 0.037347 -0.076626 -0.472376
v 0.037347 0.077001 -0.472376
v -0.449562 0.195092 -0.506544
v -0.449562 0.111014 -0.506544
v -0.430803 0.195092 -0.493327
v -0.430803 0.111014 -0.493327
v -0.328726 0.195092 -0.491224
v -0.328726 0.111014 -0.491224
v -0.328714 0.195092 -0.505186
v -0.328714 0.111014 -0.505186
v -0.596974 0.181722 -0.505874
v -0.596974 0.124384 -0.505874
v -0.596985 0.181722 -0.492672
v -0.596985 0.124384 -0.492672
v -0.408512 0.195092 -0.475264
v -0.408512 0.111014 -0.475264
v -0.449562 0.042172 -0.506544
v -0.169188 0.224267 -0.386649
v -0.430803 0.042172 -0.493327
v -0.449562 -0.194717 -0.506544
v -0.328726 0.042172 -0.491224
v -0.101602 0.224267 -0.302430
v -0.328714 0.042172 -0.505186
v -0.013352 0.224267 -0.128884
v -0.596974 0.028819 -0.505874
v -0.449562 -0.110639 -0.506544
v -0.596985 0.028819 -0.492672
v -0.430803 -0.194717 -0.493327
v -0.408512 0.042172 -0.475264
v -0.430803 -0.110639 -0.493327
v -0.327198 0.224267 -0.491193
v -0.328726 -0.194717 -0.491224
v -0.328726 -0.110639 -0.491224
v -0.328714 -0.194717 -0.505186
v -0.328714 -0.110639 -0.505186
v -0.596974 -0.181347 -0.505874
v -0.596974 -0.124009 -0.505874
v -0.596985 -0.181347 -0.492672
v -0.013352 0.046884 -0.128884
v -0.596985 -0.124009 -0.492672
v -0.408512 -0.194717 -0.475264
v -0.408512 -0.110639 -0.475264
v -0.449562 -0.041798 -0.506544
v -0.327543 0.239438 -0.505173
v 0.001000 0.239438 -0.127419
v -0.091012 0.239442 -0.308568
v -0.158653 0.239442 -0.392759
v -0.169188 -0.223892 -0.386649
v -0.430803 -0.041798 -0.493327
v 0.001000 0.081344 -0.127419
v -0.328726 -0.041798 -0.491224
v -0.101602 -0.223892 -0.302430
v 0.022678 0.109622 -0.099350
v -0.048477 0.164567 -0.050010
v -0.014023 0.195092 -0.484741
v -0.011131 0.195092 -0.501617
v 0.053792 0.195092 -0.479508
v 0.037347 0.195092 -0.472376
v 0.092824 0.164567 -0.367299
v 0.055988 0.109622 -0.119631
v 0.096976 0.178135 -0.425291
v 0.085773 0.177955 -0.418532
v -0.013352 0.164567 -0.128884
v 0.035132 0.109622 -0.116389
v -0.014023 0.111014 -0.484741
v -0.011131 0.114485 -0.501617
v -0.014023 0.042172 -0.484741
v -0.011131 0.042172 -0.501617
v -0.328714 -0.041798 -0.505186
v -0.013352 -0.223892 -0.128884
v -0.596974 -0.028445 -0.505874
v -0.596985 -0.028445 -0.492672
v -0.408512 -0.041798 -0.475264
v -0.327198 -0.223892 -0.491193
v -0.013352 -0.046509 -0.128884
v -0.327543 -0.239063 -0.505173
v 0.001000 -0.239063 -0.127419
v -0.091012 -0.239067 -0.308568
v -0.158653 -0.239067 -0.392759
v 0.001000 -0.080969 -0.127419
v 0.022678 -0.109247 -0.099350
v -0.048477 -0.164192 -0.050010
v -0.014023 -0.194718 -0.484741
v -0.011131 -0.194718 -0.501617
v 0.053792 -0.194718 -0.479508
v 0.037347 -0.194718 -0.472376
v 0.092824 -0.164192 -0.367299
v 0.055988 -0.109247 -0.119631
v 0.096976 -0.177760 -0.425291
v 0.085773 -0.177580 -0.418532
v -0.013352 -0.164192 -0.128884
v 0.035132 -0.109247 -0.116389
v -0.014023 -0.110639 -0.484741
v -0.011131 -0.114110 -0.501617
v -0.014023 -0.041798 -0.484741
v -0.011131 -0.041798 -0.501617
v 0.001000 0.046884 -0.127419
v 0.109211 0.046884 -0.365448
v 0.001000 -0.046509 -0.127419
v 0.109211 -0.046509 -0.365448
v -0.040730 0.046884 -0.035628
v 0.001000 0.164567 -0.127419
v 0.109211 0.164567 -0.365448
v -0.040730 0.164567 -0.035628
v -0.040730 -0.046509 -0.035628
v 0.001000 -0.164192 -0.127419
v 0.109211 -0.164192 -0.365448
v -0.040730 -0.164192 -0.035628
v 0.076269 0.109622 -0.086320
v 0.108112 0.081344 -0.097137
v 0.076269 -0.109247 -0.086320
v 0.108112 -0.080969 -0.097137
v 0.073027 0.081344 -0.107176
v 0.073027 -0.080969 -0.107176
v 0.063814 0.081344 -0.069281
v 0.073027 0.109622 -0.107176
v 0.063814 0.109622 -0.069281
v 0.063814 -0.080969 -0.069281
v 0.073027 -0.109247 -0.107176
v 0.063814 -0.109247 -0.069281
v 0.047961 -0.080969 -0.230676
v 0.108257 -0.080969 -0.128255
v 0.035133 -0.080969 -0.116389
v -0.023285 -0.080969 -0.074710
v 0.001000 -0.109247 -0.127419
v 0.047961 -0.109247 -0.230676
v -0.023285 -0.109247 -0.074710
v 0.076269 -0.080969 -0.086320
v 0.062741 -0.080969 -0.031736
v 0.108112 -0.109247 -0.097137
v 0.047961 0.081344 -0.230676
v 0.108257 0.081344 -0.128255
v 0.108257 -0.109247 -0.128255
v 0.035133 0.081344 -0.116389
v -0.023285 0.081344 -0.074710
v 0.001000 0.109622 -0.127419
v 0.047961 0.109621 -0.230676
v -0.023285 0.109622 -0.074710
v 0.062741 -0.109247 -0.031736
v 0.076269 0.081344 -0.086320
v 0.062741 0.081344 -0.031736
v 0.108112 0.109622 -0.097137
v 0.108257 0.109621 -0.128255
v 0.062741 0.109622 -0.031736
v 0.109211 0.000187 -0.365448
v -0.449562 0.000187 -0.506544
v -0.408512 0.000187 -0.475264
v 0.092824 0.000187 -0.367299
v 0.001000 0.000187 -0.127419
v -0.596985 0.000187 -0.492672
v -0.328714 0.000187 -0.505186
v 0.085773 0.000187 -0.418532
v -0.596974 0.000187 -0.505874
v 0.096976 0.000187 -0.425291
v -0.328726 0.000187 -0.491224
v -0.040730 0.000187 -0.035628
v -0.011131 0.000187 -0.501617
v 0.037347 0.000187 -0.472376
v -0.014023 0.000187 -0.484741
v 0.053792 0.000187 -0.479508
v -0.013352 0.000187 -0.128884
v -0.048477 0.000187 -0.050010
v 0.036517 0.109622 -0.042561
v 0.036517 0.081344 -0.042561
v 0.042958 0.109622 -0.066039
v 0.042958 0.081344 -0.066040
v 0.004482 0.081344 -0.059783
v 0.025919 0.081344 -0.078495
v 0.004482 0.109622 -0.059783
v 0.025919 0.109622 -0.078494
v -0.024374 0.081344 0.001951
v -0.024374 0.109622 0.001951
v 0.008867 0.081344 0.022566
v 0.008867 0.109622 0.022566
v -0.006033 0.109622 0.023658
v -0.018730 0.081344 0.015784
v -0.018730 0.109622 0.015784
v -0.006033 0.081344 0.023658
v 0.018201 0.081344 -0.015418
v 0.005504 0.109622 -0.023292
v -0.009396 0.081344 -0.022199
v 0.023844 0.081344 -0.001585
v 0.000294 0.081344 -0.047163
v 0.023844 0.109622 -0.001585
v 0.032654 0.109622 -0.035023
v -0.009396 0.109622 -0.022199
v -0.020808 0.081344 -0.012557
v -0.020808 0.109622 -0.012557
v 0.020279 0.109622 0.012924
v 0.020279 0.081344 0.012924
v 0.070041 0.109622 -0.077801
v 0.070041 0.081344 -0.077801
v 0.099431 0.109622 -0.058502
v 0.099431 0.081344 -0.058502
v 0.036517 -0.109247 -0.042561
v 0.036517 -0.080969 -0.042561
v 0.042958 -0.109247 -0.066039
v 0.042958 -0.080969 -0.066040
v 0.004482 -0.080969 -0.059783
v 0.025919 -0.080969 -0.078495
v 0.004482 -0.109247 -0.059783
v 0.025919 -0.109247 -0.078494
v -0.024374 -0.080969 0.001951
v -0.024374 -0.109247 0.001951
v 0.008867 -0.080969 0.022566
v 0.008867 -0.109247 0.022566
v -0.006033 -0.109247 0.023658
v -0.018730 -0.080969 0.015784
v -0.018730 -0.109247 0.015784
v -0.006033 -0.080969 0.023658
v 0.018201 -0.080969 -0.015418
v 0.005504 -0.109247 -0.023292
v -0.041670 0.081344 -0.031988
v -0.054842 0.081344 0.000468
v -0.003636 0.109622 0.056875
v 0.032631 0.109622 0.051299
v -0.040032 0.081344 0.039845
v -0.040032 0.109622 0.039845
v 0.032631 0.081344 0.051299
v -0.003636 0.081344 0.056875
v -0.054842 0.109622 0.000468
v 0.050976 0.081344 0.018792
v 0.051423 0.081344 -0.017125
v -0.041670 0.109622 -0.031988
v -0.033189 0.109622 -0.052304
v 0.050976 0.109622 0.018792
v 0.051423 0.109622 -0.017125
v 0.032654 0.081344 -0.035023
v 0.005504 0.081344 -0.023292
v 0.018201 0.109622 -0.015418
v 0.000294 0.109622 -0.047163
v -0.033189 0.081344 -0.052304
v -0.009396 -0.080969 -0.022199
v 0.023844 -0.080969 -0.001585
v 0.000294 -0.080969 -0.047163
v 0.023844 -0.109247 -0.001585
v 0.032654 -0.109247 -0.035023
v -0.009396 -0.109247 -0.022199
v -0.020808 -0.080969 -0.012557
v -0.020808 -0.109247 -0.012557
v 0.020279 -0.109247 0.012924
v 0.020279 -0.080969 0.012924
v 0.070041 -0.109247 -0.077801
v 0.070041 -0.080969 -0.077801
v 0.099431 -0.109247 -0.058502
v 0.099431 -0.080969 -0.058502
v -0.041670 -0.080969 -0.031988
v -0.054842 -0.080969 0.000468
v -0.003636 -0.109247 0.056875
v 0.032631 -0.109247 0.051299
v -0.040032 -0.080969 0.039845
v -0.040032 -0.109247 0.039845
v 0.032631 -0.080969 0.051299
v -0.003636 -0.080969 0.056875
v -0.054842 -0.109247 0.000468
v 0.050976 -0.080969 0.018792
v 0.051423 -0.080969 -0.017125
v -0.041670 -0.109247 -0.031988
v -0.033189 -0.109247 -0.052304
v 0.050976 -0.109247 0.018792
v 0.051423 -0.109247 -0.017125
v 0.032654 -0.080969 -0.035023
v 0.005504 -0.080969 -0.023292
v 0.018201 -0.109247 -0.015418
v 0.000294 -0.109247 -0.047163
v -0.033189 -0.080969 -0.052304
vn -0.9717 -0.0000 -0.2362
vn -0.8541 -0.0000 0.5200
vn -0.8804 -0.0000 0.4742
vn -0.8332 -0.0000 0.5530
vn -0.6841 -0.0000 0.7294
vn 0.8498 -0.0000 0.5270
vn 0.9973 -0.0000 -0.0731
vn -0.4518 -0.0000 0.8921
vn -0.5760 -0.0000 0.8175
vn -0.1280 -0.0000 0.9918
vn 0.0337 -0.0000 0.9994
vn 0.0112 -0.0000 -0.9999
vn 0.1689 -0.0000 -0.9856
vn -0.8073 -0.0000 -0.5901
vn 0.9111 -0.0018 0.4121
vn 0.9115 0.0017 0.4113
vn 0.9114 -0.0035 0.4114
vn -0.0000 1.0000 -0.0000
vn -0.0000 -1.0000 -0.0000
vn 0.9060 -0.0000 -0.4233
vn 0.9937 -0.0000 0.1122
vn 0.9937 -0.0000 0.1123
vn -0.9070 -0.0000 0.4211
vn -0.9901 -0.0000 -0.1406
vn 0.9654 -0.0000 -0.2606
vn 0.9936 -0.0000 0.1126
vn 0.0062 -0.0000 -1.0000
vn -1.0000 -0.0000 -0.0008
vn 0.5755 -0.0000 -0.8178
vn -0.5118 -0.0000 0.8591
vn -0.3119 -0.0000 0.9501
vn -0.0654 0.9944 0.0832
vn -0.0165 0.9997 0.0204
vn 0.0560 -0.0000 0.9984
vn 0.0883 -0.0000 0.9961
vn 0.0526 -0.0000 0.9986
vn -0.0206 -0.0000 0.9998
vn -0.9135 -0.0000 -0.4068
vn 0.9100 -0.0007 0.4146
vn 0.9093 -0.0000 0.4162
vn -0.0890 -0.9960 0.0117
vn -0.0796 -0.9909 0.1084
vn -0.0653 -0.9944 0.0831
vn -0.0920 -0.0000 0.9958
vn -0.0797 -0.9909 0.1085
vn -0.0891 -0.9959 0.0117
vn -0.0903 -0.9959 -0.0001
vn -0.0045 -0.0000 -1.0000
vn -0.0797 0.9909 0.1085
vn -0.0891 0.9959 0.0117
vn -0.0654 -0.9944 0.0832
vn -0.0165 -0.9997 0.0204
vn 0.8618 -0.0000 -0.5073
vn -0.1421 -0.0000 0.9899
vn 0.1519 -0.0000 0.9884
vn -0.0796 0.9909 0.1084
vn -0.0890 0.9960 0.0117
vn -0.0653 0.9944 0.0831
vn -0.0165 0.9997 0.0203
vn -0.0000 1.0000 -0.0001
vn 0.9101 -0.0006 0.4145
vn 0.9103 -0.0000 0.4139
vn 0.9109 -0.0015 0.4125
vn 0.9060 -0.0000 -0.4234
vn 0.9109 0.0015 0.4125
vn 0.2362 -0.0000 -0.9717
vn -0.5200 -0.0000 -0.8541
vn 0.2363 -0.0000 -0.9717
vn 0.9101 0.0006 0.4145
vn 0.8360 -0.0000 0.5487
vn -0.9146 -0.0000 -0.4043
vn -0.9188 -0.0000 -0.3948
vn 0.5200 -0.0000 0.8541
vn 0.9717 -0.0000 0.2363
vn 0.9717 -0.0000 0.2362
vn 0.9104 -0.0002 0.4138
vn 0.9104 -0.0003 0.4138
vn 0.9100 0.0007 0.4146
vn 0.9114 0.0035 0.4114
vn 0.9104 0.0002 0.4138
vn 0.9115 -0.0017 0.4113
vn 0.9111 0.0018 0.4121
vn 0.0033 -0.0000 -1.0000
vn -0.0165 -0.9997 0.0203
vn 0.6968 -0.0000 0.7172
vn 0.9654 -0.0000 -0.2607
vn -0.2362 -0.0000 0.9717
vn -0.2363 -0.0000 0.9717
vn -0.0000 -1.0000 -0.0001
vn 0.7639 -0.0000 -0.6454
vn 0.2386 -0.0000 -0.9711
vn 0.9104 0.0003 0.4138
vn 0.8541 -0.0000 -0.5200
vn -0.9247 -0.0000 -0.3807
vn -0.9999 -0.0000 -0.0129
vn -0.7341 -0.0000 0.6790
vn 0.3777 -0.0000 0.9259
vn 0.3778 -0.0000 0.9259
vn 0.9656 -0.0000 0.2601
vn 0.8709 -0.0000 0.4915
vn -0.2386 -0.0000 0.9711
vn -0.7639 -0.0000 0.6454
vn -0.9973 -0.0000 0.0731
vn 0.9442 -0.0000 0.3295
vn -0.8498 -0.0000 -0.5270
vn -0.3777 -0.0000 -0.9259
vn -0.3778 -0.0000 -0.9259
vn -0.0902 -0.9959 -0.0001
vn -0.0903 0.9959 -0.0001
vn -0.0902 0.9959 -0.0001
vt 0.911434 0.081874
vt 0.907024 0.078582
vt 0.911434 0.078582
vt 0.214455 0.066305
vt 0.211907 0.075617
vt 0.211907 0.066305
vt 0.031681 0.064409
vt 0.029314 0.045236
vt 0.031681 0.045236
vt 0.136471 0.154901
vt 0.134104 0.174073
vt 0.134104 0.154901
vt 0.967948 0.828683
vt 0.972359 0.831014
vt 0.967948 0.831014
vt 0.134104 0.118605
vt 0.031681 0.008941
vt 0.029314 0.005362
vt 0.031681 0.102242
vt 0.029314 0.064409
vt 0.500660 0.813349
vt 0.451563 0.802611
vt 0.500660 0.802611
vt 0.803671 0.218712
vt 0.792933 0.268252
vt 0.792933 0.218712
vt 0.911434 0.083520
vt 0.907024 0.081874
vt 0.214455 0.040665
vt 0.211907 0.047949
vt 0.211907 0.040665
vt 0.779101 0.355800
vt 0.769315 0.349125
vt 0.773726 0.349125
vt 0.854861 0.601601
vt 0.849106 0.600823
vt 0.854515 0.599992
vt 0.879699 0.355066
vt 0.845164 0.349739
vt 0.879057 0.338233
vt 0.644349 0.848355
vt 0.610624 0.854274
vt 0.611220 0.837441
vt 0.676489 0.723277
vt 0.662706 0.737999
vt 0.663419 0.718840
vt 0.786384 0.289761
vt 0.793668 0.299289
vt 0.786384 0.299289
vt 0.814141 0.289761
vt 0.823702 0.299289
vt 0.812024 0.299289
vt 0.520198 0.823790
vt 0.528264 0.831014
vt 0.520198 0.831014
vt 0.668161 0.770855
vt 0.675847 0.740110
vt 0.039455 0.024038
vt 0.043866 0.028892
vt 0.039455 0.028892
vt 0.769098 0.218712
vt 0.779836 0.199861
vt 0.779836 0.218712
vt 0.927227 0.830173
vt 0.931693 0.832232
vt 0.927227 0.832232
vt 0.823702 0.268252
vt 0.816786 0.278950
vt 0.816786 0.268252
vt 0.508902 0.826463
vt 0.500660 0.831014
vt 0.500660 0.826463
vt 0.887455 0.307722
vt 0.892128 0.333795
vt 0.603206 0.808996
vt 0.600002 0.833399
vt 0.591185 0.798190
vt 0.892841 0.352954
vt 0.887385 0.385811
vt 0.603369 0.883763
vt 0.599352 0.852560
vt 0.435638 0.813349
vt 0.435638 0.802611
vt 0.804213 0.268252
vt 0.798501 0.278950
vt 0.935742 0.867520
vt 0.938241 0.871232
vt 0.934663 0.883409
vt 0.451563 0.789513
vt 0.435638 0.778775
vt 0.451563 0.778775
vt 0.508902 0.784081
vt 0.500660 0.789513
vt 0.500660 0.778775
vt 0.925144 0.800650
vt 0.931693 0.787959
vt 0.931693 0.800650
vt 0.451563 0.765661
vt 0.435638 0.761110
vt 0.451801 0.761110
vt 0.779836 0.268252
vt 0.786384 0.218712
vt 0.786384 0.268252
vt 0.508902 0.808043
vt 0.214455 0.015026
vt 0.211907 0.005714
vt 0.214455 0.003347
vt 0.500660 0.761110
vt 0.508902 0.765661
vt 0.500660 0.765661
vt 0.568973 0.803346
vt 0.582441 0.821702
vt 0.568973 0.821702
vt 0.929335 0.083195
vt 0.936191 0.078584
vt 0.932559 0.083858
vt 0.755983 0.278950
vt 0.749066 0.268252
vt 0.755983 0.268252
vt 0.779101 0.340073
vt 0.773726 0.340073
vt 0.941897 0.301997
vt 0.937600 0.279209
vt 0.939397 0.276113
vt 0.007311 0.450843
vt 0.003732 0.446293
vt 0.007311 0.443926
vt 0.792933 0.199861
vt 0.803671 0.199861
vt 0.931282 0.152745
vt 0.920253 0.182268
vt 0.922338 0.152745
vt 0.933367 0.194959
vt 0.933367 0.182268
vt 0.816786 0.199861
vt 0.518438 0.914044
vt 0.522734 0.936833
vt 0.520684 0.937023
vt 0.922338 0.150685
vt 0.979670 0.682357
vt 0.968641 0.659364
vt 0.977585 0.659364
vt 0.777977 0.925350
vt 0.782274 0.902561
vt 0.779774 0.928445
vt 0.520235 0.910949
vt 0.522734 0.907237
vt 0.782274 0.932157
vt 0.778696 0.944334
vt 0.520198 0.768334
vt 0.043866 0.005500
vt 0.039455 0.005500
vt 0.039455 0.062183
vt 0.043866 0.056460
vt 0.043866 0.062183
vt 0.863189 0.615133
vt 0.867173 0.619186
vt 0.862755 0.617422
vt 0.355160 0.929005
vt 0.359456 0.906216
vt 0.356957 0.932101
vt 0.359456 0.935813
vt 0.355878 0.947989
vt 0.816786 0.218712
vt 0.823703 0.199861
vt 0.823703 0.218895
vt 0.580004 0.306071
vt 0.576424 0.316809
vt 0.576424 0.306071
vt 0.451563 0.826463
vt 0.435638 0.831014
vt 0.435638 0.826463
vt 0.850379 0.594778
vt 0.856008 0.595628
vt 0.854197 0.598378
vt 0.802233 0.858483
vt 0.806644 0.856837
vt 0.806644 0.858483
vt 0.640198 0.866418
vt 0.644584 0.859648
vt 0.639541 0.841661
vt 0.934937 0.777778
vt 0.925994 0.779837
vt 0.925994 0.777778
vt 0.786384 0.278950
vt 0.779101 0.299289
vt 0.451801 0.831014
vt 0.508902 0.796062
vt 0.500660 0.796062
vt 0.528264 0.803346
vt 0.528264 0.821702
vt 0.850300 0.368840
vt 0.845621 0.360540
vt 0.850550 0.340496
vt 0.889559 0.504566
vt 0.855834 0.498647
vt 0.888963 0.487733
vt 0.933945 0.864425
vt 0.938241 0.841636
vt 0.945552 0.159433
vt 0.941256 0.136644
vt 0.943053 0.133549
vt 0.812024 0.340073
vt 0.568973 0.831014
vt 0.823703 0.340073
vt 0.812024 0.355801
vt 0.582441 0.831014
vt 0.823703 0.289761
vt 0.823703 0.278950
vt 0.508902 0.831014
vt 0.520198 0.803979
vt 0.794356 0.289761
vt 0.852375 0.590353
vt 0.859232 0.594965
vt 0.582441 0.788778
vt 0.568973 0.796062
vt 0.568973 0.788778
vt 0.749066 0.199861
vt 0.755983 0.218712
vt 0.749066 0.218895
vt 0.749066 0.340073
vt 0.760745 0.355801
vt 0.749066 0.355801
vt 0.857001 0.607161
vt 0.857608 0.603413
vt 0.939460 0.089052
vt 0.933708 0.089831
vt 0.934039 0.088219
vt 0.802233 0.863421
vt 0.806644 0.860129
vt 0.806644 0.863421
vt 0.710383 0.734783
vt 0.778413 0.289761
vt 0.760745 0.299289
vt 0.758628 0.289761
vt 0.930053 0.628406
vt 0.935804 0.627627
vt 0.932334 0.633803
vt 0.749066 0.299289
vt 0.760745 0.340073
vt 0.938241 0.800650
vt 0.451563 0.813349
vt 0.859985 0.516710
vt 0.855599 0.509940
vt 0.945552 0.129837
vt 0.941974 0.117660
vt 0.568973 0.761110
vt 0.528264 0.770422
vt 0.528264 0.761110
vt 0.867540 0.597423
vt 0.861982 0.596776
vt 0.008529 0.613770
vt 0.004119 0.619946
vt 0.004119 0.613770
vt 0.568973 0.770422
vt 0.528264 0.788778
vt 0.769315 0.340073
vt 0.573987 0.345063
vt 0.577567 0.355801
vt 0.573987 0.355801
vt 0.039455 0.087732
vt 0.043866 0.083911
vt 0.043866 0.087732
vt 0.211907 0.033382
vt 0.911434 0.071998
vt 0.907024 0.068706
vt 0.911434 0.068706
vt 0.860642 0.491953
vt 0.768556 0.268252
vt 0.749066 0.289761
vt 0.749066 0.278950
vt 0.938188 0.083008
vt 0.934371 0.086607
vt 0.769315 0.322379
vt 0.520198 0.761110
vt 0.508902 0.761110
vt 0.214455 0.047949
vt 0.799043 0.322379
vt 0.793668 0.340073
vt 0.799043 0.349125
vt 0.799043 0.340073
vt 0.803454 0.322379
vt 0.803454 0.340073
vt 0.803454 0.349125
vt 0.793668 0.355800
vt 0.911434 0.085166
vt 0.907024 0.083520
vt 0.900831 0.502852
vt 0.900181 0.483690
vt 0.786384 0.199861
vt 0.941897 0.272401
vt 0.938318 0.260224
vt 0.008529 0.619946
vt 0.004119 0.627030
vt 0.008529 0.608916
vt 0.004119 0.608916
vt 0.004119 0.590378
vt 0.802233 0.846961
vt 0.806644 0.843669
vt 0.806644 0.846961
vt 0.802233 0.850253
vt 0.806644 0.850253
vt 0.520198 0.796062
vt 0.582441 0.761110
vt 0.936159 0.830173
vt 0.931693 0.830173
vt 0.704997 0.725540
vt 0.668092 0.692766
vt 0.896814 0.534055
vt 0.451563 0.796062
vt 0.214455 0.033382
vt 0.318103 0.455788
vt 0.321683 0.451237
vt 0.321683 0.458154
vt 0.039455 0.035068
vt 0.043866 0.042152
vt 0.039455 0.042152
vt 0.982107 0.298689
vt 0.971078 0.321683
vt 0.968993 0.298689
vt 0.705247 0.753885
vt 0.709925 0.745585
vt 0.907024 0.075290
vt 0.911434 0.075290
vt 0.520198 0.788145
vt 0.972359 0.810041
vt 0.967948 0.812371
vt 0.967948 0.810041
vt 0.773726 0.322379
vt 0.925679 0.621770
vt 0.932536 0.617159
vt 0.928904 0.622433
vt 0.774268 0.278950
vt 0.917373 0.624229
vt 0.917343 0.606535
vt 0.922267 0.626806
vt 0.922930 0.623582
vt 0.889695 0.414626
vt 0.898002 0.417085
vt 0.892444 0.416437
vt 0.893107 0.419662
vt 0.898031 0.426137
vt 0.925923 0.088231
vt 0.921028 0.085654
vt 0.926586 0.085007
vt 0.934532 0.621583
vt 0.930715 0.625182
vt 0.653860 0.680128
vt 0.930384 0.626794
vt 0.886471 0.415289
vt 0.880842 0.414439
vt 0.882838 0.410015
vt 0.885322 0.421262
vt 0.879570 0.420483
vt 0.884990 0.419650
vt 0.920999 0.094706
vt 0.926129 0.097086
vt 0.921046 0.098527
vt 0.893124 0.426455
vt 0.891295 0.422411
vt 0.898031 0.399391
vt 0.927911 0.633966
vt 0.927304 0.630218
vt 0.802233 0.856837
vt 0.806644 0.853545
vt 0.802233 0.853545
vt 0.862644 0.600001
vt 0.896977 0.459288
vt 0.582441 0.803346
vt 0.136471 0.174073
vt 0.134104 0.211907
vt 0.931865 0.106424
vt 0.932315 0.112102
vt 0.929822 0.107544
vt 0.936159 0.832232
vt 0.786384 0.355800
vt 0.528264 0.796062
vt 0.853238 0.609803
vt 0.852580 0.606997
vt 0.907024 0.071998
vt 0.911434 0.088458
vt 0.907024 0.085166
vt 0.973121 0.716475
vt 0.977587 0.693482
vt 0.979670 0.716475
vt 0.786384 0.340073
vt 0.924079 0.629555
vt 0.922250 0.633599
vt 0.887463 0.426822
vt 0.883041 0.426659
vt 0.802233 0.866713
vt 0.806644 0.866713
vt 0.925906 0.095024
vt 0.927734 0.090980
vt 0.755983 0.199861
vt 0.802233 0.870006
vt 0.806644 0.870006
vt 0.004119 0.665354
vt 0.008529 0.659891
vt 0.008529 0.665354
vt 0.917343 0.633281
vt 0.888071 0.423074
vt 0.860833 0.602750
vt 0.043866 0.035068
vt 0.923908 0.748255
vt 0.937023 0.748255
vt 0.008529 0.647061
vt 0.004119 0.641338
vt 0.008529 0.641338
vt 0.004119 0.653329
vt 0.008529 0.653329
vt 0.004119 0.659891
vt 0.974796 0.156074
vt 0.970385 0.158404
vt 0.970385 0.156074
vt 0.970385 0.153744
vt 0.974796 0.153744
vt 0.008529 0.635516
vt 0.004119 0.635516
vt 0.970385 0.151413
vt 0.974796 0.151413
vt 0.974796 0.149083
vt 0.970385 0.149083
vt 0.974796 0.146753
vt 0.970385 0.146753
vt 0.004119 0.629913
vt 0.008529 0.629913
vt 0.970385 0.144422
vt 0.974796 0.144422
vt 0.970385 0.142092
vt 0.974796 0.142092
vt 0.008529 0.668788
vt 0.004119 0.668788
vt 0.970385 0.139761
vt 0.974796 0.139761
vt 0.970385 0.137431
vt 0.974796 0.137431
vt 0.922474 0.635661
vt 0.931675 0.636609
vt 0.008529 0.627030
vt 0.883700 0.429465
vt 0.008529 0.672609
vt 0.004119 0.672609
vt 0.892900 0.428517
vt 0.970385 0.135101
vt 0.974796 0.135101
vt 0.968655 0.693482
vt 0.966573 0.716475
vt 0.867569 0.606476
vt 0.862438 0.608856
vt 0.862662 0.606794
vt 0.937023 0.735563
vt 0.923908 0.735563
vt 0.039455 0.045035
vt 0.911434 0.091750
vt 0.907024 0.088458
vt 0.967948 0.821692
vt 0.972359 0.824023
vt 0.967948 0.824023
vt 0.972359 0.817032
vt 0.967948 0.819362
vt 0.967948 0.817032
vt 0.039455 0.050638
vt 0.043866 0.050638
vt 0.967948 0.826353
vt 0.857061 0.608481
vt 0.972359 0.821692
vt 0.039455 0.075013
vt 0.043866 0.080477
vt 0.039455 0.080477
vt 0.931567 0.095392
vt 0.930959 0.091643
vt 0.039455 0.083911
vt 0.911434 0.095043
vt 0.907024 0.091750
vt 0.043866 0.045035
vt 0.582441 0.770422
vt 0.972359 0.826353
vt 0.043866 0.068451
vt 0.039455 0.068451
vt 0.043866 0.075013
vt 0.935330 0.098034
vt 0.931507 0.096711
vt 0.884659 0.418037
vt 0.802233 0.860129
vt 0.972359 0.814701
vt 0.967948 0.814701
vt 0.972359 0.812371
vt 0.972359 0.807710
vt 0.967948 0.807710
vt 0.921723 0.641939
vt 0.917738 0.645992
vt 0.917504 0.640534
vt 0.887165 0.437854
vt 0.886715 0.443532
vt 0.881931 0.440391
vt 0.923854 0.645825
vt 0.922157 0.644228
vt 0.889208 0.438975
vt 0.892983 0.443475
vt 0.928209 0.644998
vt 0.928659 0.650676
vt 0.926166 0.646119
vt 0.922392 0.650619
vt 0.891520 0.438681
vt 0.897636 0.438848
vt 0.928769 0.640601
vt 0.933939 0.641734
vt 0.929204 0.642891
vt 0.892657 0.432687
vt 0.897871 0.433390
vt 0.893652 0.434794
vt 0.886605 0.433457
vt 0.881435 0.434590
vt 0.927072 0.639005
vt 0.924760 0.638710
vt 0.927852 0.635286
vt 0.888302 0.431860
vt 0.887522 0.428142
vt 0.890614 0.431566
vt 0.897984 0.429958
vt 0.922717 0.639831
vt 0.917390 0.637102
vt 0.893217 0.437084
vt 0.886171 0.435747
vt 0.933443 0.647535
vt 0.861057 0.619019
vt 0.926047 0.112044
vt 0.927510 0.107250
vt 0.856253 0.623870
vt 0.856703 0.618192
vt 0.858746 0.619313
vt 0.862520 0.623813
vt 0.921394 0.107417
vt 0.925813 0.105653
vt 0.850974 0.614928
vt 0.856143 0.613795
vt 0.855709 0.616085
vt 0.921159 0.101959
vt 0.926373 0.101256
vt 0.925378 0.103364
vt 0.932425 0.102026
vt 0.937595 0.103159
vt 0.932859 0.104316
vt 0.857840 0.612199
vt 0.860152 0.611904
vt 0.930727 0.100430
vt 0.928416 0.100135
vt 0.862195 0.613025
vt 0.867408 0.613728
vt 0.937099 0.108960
vt 0.851469 0.620728
vt 0.214455 0.077984
vt 0.972359 0.828683
vt 0.136471 0.115026
vt 0.029314 0.104791
vt 0.653860 0.777400
vt 0.043866 0.024038
vt 0.769098 0.199861
vt 0.901686 0.295083
vt 0.901686 0.392355
vt 0.591185 0.889502
vt 0.435638 0.789513
vt 0.925144 0.787959
vt 0.435638 0.765661
vt 0.211907 0.015026
vt 0.920999 0.067961
vt 0.939846 0.302187
vt 0.003732 0.450843
vt 0.920253 0.194959
vt 0.931282 0.150685
vt 0.966556 0.682357
vt 0.780223 0.902371
vt 0.519156 0.895060
vt 0.039455 0.056460
vt 0.357406 0.906027
vt 0.580004 0.316809
vt 0.934937 0.779837
vt 0.936191 0.841446
vt 0.943502 0.159623
vt 0.823703 0.355801
vt 0.867569 0.579728
vt 0.582441 0.796062
vt 0.935989 0.095228
vt 0.938241 0.787959
vt 0.577567 0.345063
vt 0.008529 0.590378
vt 0.802233 0.843669
vt 0.908997 0.539793
vt 0.318103 0.451237
vt 0.980022 0.321683
vt 0.908997 0.448482
vt 0.136471 0.214455
vt 0.973121 0.693482
vt 0.004119 0.647061
vt 0.974796 0.158404
vt 0.867521 0.610296
vt 0.972359 0.819362
vt 0.907023 0.095043
s 1
usemtl Excavator
f 157/1/1 160/2/2 165/3/2
f 150/4/3 16/5/3 100/6/3
f 25/7/4 28/8/5 27/9/5
f 20/10/5 17/11/4 19/12/5
f 286/13/6 249/14/7 250/15/7
f 6/16/8 20/10/5 19/12/5
f 14/17/8 28/8/5 13/18/9
f 16/19/3 26/20/4 25/7/4
f 111/21/10 67/22/11 113/23/10
f 56/24/12 114/25/13 69/26/12
f 289/27/14 174/28/1 157/1/1
f 202/29/3 36/30/3 208/31/3
f 151/32/15 173/33/16 170/34/17
f 164/35/18 292/36/18 290/37/18
f 92/38/18 29/39/18 93/40/18
f 30/41/19 68/42/19 64/43/19
f 125/44/19 18/45/19 20/46/19
f 200/47/20 144/48/21 191/49/22
f 107/50/20 12/51/21 149/52/21
f 108/53/23 11/54/24 32/55/23
f 123/56/19 18/45/19 124/57/19
f 179/58/25 158/59/26 176/60/26
f 81/61/12 89/62/27 115/63/12
f 118/64/28 199/65/28 117/66/28
f 10/67/13 103/68/29 102/69/13
f 104/70/30 9/71/10 101/72/10
f 90/73/18 28/74/18 93/40/18
f 77/75/19 27/76/19 14/77/19
f 26/78/18 91/79/18 92/38/18
f 70/80/19 25/81/19 68/42/19
f 67/22/11 52/82/31 65/83/31
f 114/25/13 112/84/13 46/85/29
f 76/86/32 88/87/33 79/88/18
f 97/89/11 76/90/31 79/91/11
f 47/92/30 141/93/10 139/94/10
f 119/95/34 201/96/35 193/97/36
f 78/98/11 6/99/8 120/100/37
f 142/101/13 197/102/12 203/103/13
f 48/104/30 108/53/23 104/70/30
f 154/105/3 8/106/3 7/107/3
f 1/108/10 132/109/30 129/110/10
f 85/111/38 100/112/38 109/113/38
f 134/114/19 179/115/19 165/116/19
f 131/117/29 2/118/13 130/119/13
f 145/120/39 170/34/17 126/121/40
f 118/122/41 89/123/42 95/124/43
f 49/125/9 14/126/8 13/127/9
f 56/24/12 63/128/27 50/129/27
f 60/130/44 61/131/34 59/132/44
f 54/133/11 61/131/34 62/134/34
f 49/135/27 56/24/12 50/129/27
f 50/136/45 60/137/46 58/138/47
f 57/139/28 60/130/28 59/132/28
f 49/140/27 58/141/48 57/142/48
f 49/143/49 59/144/50 51/145/32
f 52/146/51 62/147/52 60/137/46
f 51/145/32 61/148/33 53/149/18
f 136/150/23 47/92/30 132/109/30
f 167/151/53 179/58/25 172/152/53
f 295/153/54 299/154/55 300/155/54
f 285/156/18 294/157/18 249/158/18
f 63/159/56 73/160/57 65/161/58
f 65/161/58 75/162/59 67/163/18
f 55/164/12 13/165/12 90/166/12
f 50/167/9 65/168/31 52/169/31
f 53/170/11 14/171/8 51/172/31
f 158/173/18 160/174/18 174/175/18
f 237/176/14 186/177/1 238/178/14
f 11/179/19 68/42/19 32/180/19
f 9/181/19 64/43/19 77/75/19
f 86/182/28 82/183/28 84/184/28
f 206/185/29 142/101/13 203/103/13
f 64/43/19 25/81/19 27/76/19
f 146/186/21 200/47/20 191/49/22
f 101/72/10 77/187/37 53/170/11
f 292/36/18 174/175/18 290/37/18
f 141/93/10 204/188/30 205/189/10
f 37/190/24 109/113/38 105/191/24
f 92/38/18 12/192/18 31/193/18
f 10/194/60 93/40/18 29/39/18
f 98/195/18 22/196/18 94/197/18
f 72/198/49 86/199/50 76/86/32
f 26/78/18 93/40/18 28/74/18
f 84/200/46 66/201/45 74/202/51
f 102/69/13 90/166/12 10/67/13
f 12/51/21 148/203/61 149/52/21
f 105/191/24 70/204/38 11/54/24
f 91/205/62 150/206/63 148/203/61
f 109/113/38 16/207/38 70/204/38
f 31/208/64 103/68/29 29/209/29
f 104/70/30 32/55/23 30/210/30
f 111/21/10 104/70/30 101/72/10
f 112/84/13 103/68/29 46/85/29
f 43/211/23 105/191/24 108/53/23
f 41/212/20 149/52/21 144/48/21
f 168/213/18 40/214/18 160/174/18
f 35/215/38 207/216/38 121/217/38
f 129/110/10 120/100/37 1/108/10
f 5/218/12 80/219/12 122/220/12
f 123/221/62 154/222/65 7/223/62
f 242/224/18 164/35/18 244/225/18
f 291/226/19 166/227/19 289/228/19
f 211/229/66 161/230/67 212/231/68
f 21/232/19 124/57/19 125/44/19
f 42/233/20 153/234/21 135/235/20
f 161/236/19 240/237/19 187/238/19
f 4/239/21 152/240/69 123/221/62
f 201/96/35 75/241/34 193/97/36
f 101/72/10 54/242/11 111/21/10
f 98/195/18 3/243/18 24/244/18
f 87/245/52 74/202/51 78/246/19
f 112/84/13 55/164/12 102/69/13
f 97/89/11 139/94/10 141/93/10
f 116/247/38 133/248/24 3/249/24
f 40/214/18 126/250/18 169/251/18
f 188/252/26 240/253/70 156/254/26
f 137/255/38 38/256/24 133/248/24
f 173/33/16 152/240/69 171/257/40
f 95/258/31 72/259/9 76/260/31
f 107/50/20 46/85/29 103/68/29
f 173/261/71 312/262/72 170/263/71
f 35/264/3 202/29/3 208/31/3
f 138/265/73 33/266/74 127/267/75
f 197/102/12 114/25/13 203/103/13
f 1/268/18 94/197/18 22/196/18
f 140/269/13 80/219/12 81/61/12
f 131/117/29 23/270/64 21/271/29
f 48/104/30 111/21/10 113/23/10
f 165/116/19 176/272/19 157/273/19
f 152/240/69 172/274/76 171/257/40
f 24/275/23 132/109/30 22/276/30
f 150/4/3 36/30/3 147/277/3
f 177/278/77 143/279/78 144/48/21
f 130/119/13 122/220/12 80/219/12
f 181/280/79 143/279/78 96/281/40
f 183/282/80 148/203/61 182/283/40
f 184/284/81 148/203/61 150/206/63
f 183/282/80 144/48/21 149/52/21
f 184/284/81 147/285/82 181/280/79
f 166/286/67 290/287/14 289/27/14
f 17/288/18 94/197/18 19/289/18
f 115/63/12 192/290/83 197/102/12
f 119/291/84 95/124/43 97/292/19
f 79/91/11 129/110/10 139/94/10
f 239/293/70 187/294/85 240/253/70
f 189/295/25 156/254/26 178/296/86
f 177/297/53 189/295/25 178/296/86
f 110/298/73 34/299/74 180/300/73
f 106/301/87 180/300/73 39/302/88
f 135/235/20 4/239/21 23/270/64
f 198/303/23 37/190/24 43/211/23
f 139/94/10 132/109/30 47/92/30
f 8/304/38 137/255/38 116/247/38
f 193/97/36 73/305/44 196/306/44
f 2/307/89 125/44/19 122/308/19
f 81/61/12 142/101/13 140/269/13
f 17/288/18 116/309/18 98/195/18
f 206/185/29 114/25/13 46/85/29
f 204/188/30 113/23/10 205/189/10
f 205/189/10 67/22/11 201/310/35
f 35/264/3 154/105/3 151/311/3
f 6/312/8 66/313/9 5/314/9
f 291/315/70 175/316/85 185/317/85
f 66/318/27 83/319/48 72/320/27
f 4/321/19 124/57/19 23/322/19
f 157/273/19 291/226/19 289/228/19
f 165/3/2 40/323/88 134/324/87
f 44/325/23 133/248/24 38/256/24
f 254/326/90 253/327/91 255/328/90
f 167/329/92 145/120/39 126/121/40
f 140/269/13 131/117/29 130/119/13
f 39/330/19 178/331/19 159/332/19
f 136/150/23 3/249/24 133/248/24
f 45/333/29 135/235/20 131/117/29
f 39/330/19 96/334/19 177/335/19
f 34/336/19 96/334/19 180/337/19
f 106/338/18 182/339/18 110/340/18
f 99/341/18 182/339/18 184/342/18
f 172/274/76 146/186/21 167/329/92
f 127/343/19 171/344/19 138/345/19
f 159/332/19 156/346/19 186/347/19
f 122/308/19 20/46/19 5/348/19
f 186/347/19 240/237/19 238/349/19
f 162/350/18 188/351/18 189/352/18
f 163/353/18 239/354/18 237/355/18
f 173/356/19 311/357/19 305/358/19
f 99/341/18 215/359/18 216/360/18
f 106/338/18 189/352/18 183/361/18
f 161/236/19 210/362/19 212/363/19
f 155/364/1 159/365/2 186/177/1
f 162/366/2 39/302/88 159/365/2
f 126/250/18 33/367/18 169/251/18
f 120/368/18 19/289/18 94/197/18
f 207/216/38 36/369/38 85/111/38
f 18/370/4 8/371/3 17/11/4
f 142/101/13 45/333/29 140/269/13
f 97/89/11 205/189/10 201/310/35
f 252/372/19 295/373/19 253/374/19
f 41/212/20 206/185/29 46/85/29
f 204/188/30 43/211/23 48/104/30
f 118/64/44 193/97/36 196/306/44
f 199/65/28 73/305/28 71/375/28
f 202/376/62 143/279/78 147/285/82
f 194/377/24 85/111/38 37/190/24
f 242/224/18 303/378/18 175/379/18
f 134/324/87 169/380/73 138/265/73
f 243/381/66 164/382/67 166/286/67
f 192/383/83 71/384/48 63/385/27
f 69/26/12 192/290/83 63/128/27
f 146/186/21 195/386/62 145/120/39
f 195/386/62 144/48/21 143/279/78
f 214/387/19 210/362/19 213/388/19
f 163/353/18 209/389/18 190/390/18
f 216/391/93 212/231/68 214/392/93
f 171/344/19 134/114/19 138/345/19
f 247/393/19 127/343/19 248/394/19
f 66/395/27 81/61/12 80/219/12
f 198/303/23 38/256/24 194/377/24
f 99/396/75 214/392/93 34/397/74
f 259/398/94 267/399/95 270/400/94
f 34/336/19 213/388/19 181/401/19
f 216/360/18 209/389/18 211/402/18
f 42/233/20 206/185/29 200/47/20
f 246/403/18 242/224/18 244/225/18
f 176/60/26 292/404/70 291/315/70
f 86/182/44 87/405/34 88/406/34
f 261/407/54 265/408/55 262/409/55
f 263/410/96 261/407/54 264/411/96
f 260/412/95 264/411/96 267/399/95
f 234/413/6 217/414/7 233/415/6
f 234/413/6 227/416/97 232/417/98
f 272/418/99 265/408/100 268/419/99
f 232/417/98 275/420/101 226/421/101
f 276/422/102 275/420/101 225/423/102
f 230/424/103 225/423/102 228/425/103
f 272/418/99 269/426/104 273/427/104
f 230/424/103 236/428/105 235/429/105
f 235/429/105 219/430/106 220/431/107
f 259/398/94 271/432/72 278/433/72
f 220/431/107 224/434/91 221/435/91
f 221/435/91 222/436/90 223/437/90
f 229/438/19 181/401/19 213/388/19
f 269/439/19 210/362/19 187/238/19
f 273/427/104 187/294/85 190/440/85
f 210/362/19 229/438/19 213/388/19
f 209/389/18 273/441/18 190/390/18
f 278/433/72 184/442/71 181/443/71
f 277/444/18 209/389/18 215/359/18
f 184/342/18 277/444/18 215/359/18
f 223/437/90 217/445/7 218/446/7
f 117/447/48 192/383/83 89/448/27
f 170/449/18 281/450/18 245/451/18
f 79/452/11 87/405/34 78/453/11
f 121/217/38 194/377/24 38/256/24
f 175/316/85 307/454/104 185/317/85
f 248/455/93 244/456/68 243/381/66
f 310/457/102 309/458/101 258/459/101
f 288/460/105 282/461/103 287/462/105
f 299/154/100 306/463/99 302/464/99
f 309/458/101 284/465/98 258/459/101
f 242/224/18 281/450/18 308/466/18
f 282/461/103 257/467/102 310/457/102
f 145/120/39 202/376/62 151/32/15
f 301/468/95 293/469/94 304/470/94
f 166/227/19 241/471/19 243/472/19
f 305/473/72 293/469/94 312/262/72
f 127/474/75 246/475/93 248/455/93
f 303/476/104 306/463/99 307/454/104
f 128/477/38 121/217/38 137/255/38
f 279/478/97 286/13/6 284/465/98
f 295/153/54 297/479/96 298/480/96
f 241/471/19 248/394/19 243/472/19
f 44/325/23 204/188/30 47/92/30
f 298/480/96 294/481/95 301/468/95
f 241/471/19 307/482/19 283/483/19
f 155/484/18 239/354/18 188/351/18
f 163/485/67 238/178/14 161/230/67
f 251/486/106 287/462/105 252/487/107
f 33/367/18 245/451/18 246/403/18
f 256/488/91 252/487/107 253/327/91
f 249/489/7 255/328/90 250/490/7
f 241/471/19 311/357/19 247/393/19
f 233/491/19 260/492/19 259/493/19
f 220/494/18 261/495/18 262/496/18
f 222/497/19 260/492/19 217/498/19
f 221/499/18 264/500/18 261/495/18
f 219/501/19 266/502/19 224/503/19
f 224/503/19 263/504/19 222/497/19
f 223/505/18 267/506/18 264/500/18
f 228/507/19 268/508/19 236/509/19
f 232/510/18 270/511/18 234/512/18
f 230/513/18 272/514/18 273/441/18
f 225/515/19 269/439/19 228/507/19
f 275/516/19 274/517/19 225/515/19
f 276/518/18 273/441/18 231/519/18
f 226/520/18 231/519/18 277/444/18
f 232/510/18 277/444/18 271/521/18
f 227/522/19 229/438/19 275/516/19
f 227/522/19 259/493/19 278/523/19
f 234/512/18 267/506/18 218/524/18
f 235/525/18 262/496/18 272/514/18
f 236/509/19 265/526/19 219/501/19
f 294/157/18 254/527/18 249/158/18
f 253/374/19 298/528/19 255/529/19
f 300/530/18 251/531/18 256/532/18
f 297/533/18 256/532/18 254/527/18
f 255/529/19 301/534/19 250/535/19
f 302/536/18 280/537/18 288/538/18
f 304/539/19 284/540/19 286/541/19
f 282/542/19 306/543/19 287/544/19
f 303/378/18 257/545/18 280/537/18
f 308/466/18 309/546/18 257/545/18
f 310/547/19 307/482/19 282/542/19
f 258/548/19 283/483/19 310/547/19
f 284/540/19 311/357/19 258/548/19
f 281/450/18 279/549/18 309/546/18
f 279/549/18 293/550/18 285/156/18
f 301/534/19 286/541/19 250/535/19
f 287/544/19 296/551/19 252/372/19
f 299/552/18 288/538/18 251/531/18
f 157/1/1 174/28/1 160/2/2
f 150/4/3 15/553/3 16/5/3
f 25/7/4 26/20/4 28/8/5
f 20/10/5 18/370/4 17/11/4
f 286/13/6 285/554/6 249/14/7
f 6/16/8 5/555/9 20/10/5
f 14/17/8 27/9/5 28/8/5
f 16/19/3 15/556/3 26/20/4
f 111/21/10 54/242/11 67/22/11
f 56/24/12 112/84/13 114/25/13
f 289/27/14 290/287/14 174/28/1
f 202/29/3 147/277/3 36/30/3
f 151/32/15 154/222/65 173/33/16
f 164/35/18 175/379/18 292/36/18
f 92/38/18 31/193/18 29/39/18
f 30/41/19 32/180/19 68/42/19
f 125/44/19 124/57/19 18/45/19
f 200/47/20 41/212/20 144/48/21
f 107/50/20 31/208/64 12/51/21
f 108/53/23 105/191/24 11/54/24
f 123/56/19 7/557/19 18/45/19
f 179/58/25 168/558/86 158/59/26
f 81/61/12 72/559/27 89/62/27
f 118/64/28 196/306/28 199/65/28
f 10/67/13 29/209/29 103/68/29
f 104/70/30 30/210/30 9/71/10
f 90/73/18 13/560/18 28/74/18
f 77/75/19 64/43/19 27/76/19
f 26/78/18 15/561/18 91/79/18
f 70/80/19 16/562/19 25/81/19
f 67/22/11 54/242/11 52/82/31
f 76/86/32 86/199/50 88/87/33
f 97/89/11 95/563/31 76/90/31
f 119/95/34 97/564/11 201/96/35
f 78/98/11 74/565/31 6/99/8
f 142/101/13 115/63/12 197/102/12
f 48/104/30 43/211/23 108/53/23
f 154/105/3 128/566/3 8/106/3
f 1/108/10 22/276/30 132/109/30
f 85/111/38 36/369/38 100/112/38
f 134/114/19 172/567/19 179/115/19
f 131/117/29 21/271/29 2/118/13
f 145/120/39 151/32/15 170/34/17
f 118/122/41 117/568/108 89/123/42
f 49/125/9 51/569/31 14/126/8
f 56/24/12 69/26/12 63/128/27
f 60/130/44 62/134/34 61/131/34
f 54/133/11 53/570/11 61/131/34
f 49/135/27 55/164/12 56/24/12
f 50/136/45 52/146/51 60/137/46
f 57/139/28 58/571/28 60/130/28
f 49/140/27 50/572/27 58/141/48
f 49/143/49 57/573/109 59/144/50
f 52/146/51 54/574/19 62/147/52
f 51/145/32 59/144/50 61/148/33
f 136/150/23 44/325/23 47/92/30
f 167/151/53 168/558/86 179/58/25
f 295/153/54 296/575/55 299/154/55
f 285/156/18 293/550/18 294/157/18
f 63/159/56 71/576/110 73/160/57
f 65/161/58 73/160/57 75/162/59
f 55/164/12 49/135/27 13/165/12
f 50/167/9 63/577/9 65/168/31
f 53/170/11 77/187/37 14/171/8
f 158/173/18 168/213/18 160/174/18
f 237/176/14 155/364/1 186/177/1
f 11/179/19 70/80/19 68/42/19
f 9/181/19 30/41/19 64/43/19
f 86/182/28 83/578/28 82/183/28
f 206/185/29 45/333/29 142/101/13
f 64/43/19 68/42/19 25/81/19
f 146/186/21 42/233/20 200/47/20
f 101/72/10 9/71/10 77/187/37
f 292/36/18 158/173/18 174/175/18
f 141/93/10 47/92/30 204/188/30
f 37/190/24 85/111/38 109/113/38
f 92/38/18 91/79/18 12/192/18
f 10/194/60 90/73/18 93/40/18
f 98/195/18 24/244/18 22/196/18
f 72/198/49 83/579/109 86/199/50
f 26/78/18 92/38/18 93/40/18
f 84/200/46 82/580/47 66/201/45
f 102/69/13 55/164/12 90/166/12
f 12/51/21 91/205/62 148/203/61
f 105/191/24 109/113/38 70/204/38
f 91/205/62 15/581/62 150/206/63
f 109/113/38 100/112/38 16/207/38
f 31/208/64 107/50/20 103/68/29
f 104/70/30 108/53/23 32/55/23
f 111/21/10 48/104/30 104/70/30
f 112/84/13 102/69/13 103/68/29
f 43/211/23 37/190/24 105/191/24
f 41/212/20 107/50/20 149/52/21
f 168/213/18 167/582/18 40/214/18
f 35/215/38 208/583/38 207/216/38
f 129/110/10 78/98/11 120/100/37
f 5/218/12 66/395/27 80/219/12
f 123/221/62 152/240/69 154/222/65
f 242/224/18 175/379/18 164/35/18
f 291/226/19 185/584/19 166/227/19
f 211/229/66 163/485/67 161/230/67
f 21/232/19 23/322/19 124/57/19
f 42/233/20 146/186/21 153/234/21
f 161/236/19 238/349/19 240/237/19
f 4/239/21 153/234/21 152/240/69
f 201/96/35 67/585/11 75/241/34
f 101/72/10 53/170/11 54/242/11
f 98/195/18 116/309/18 3/243/18
f 87/245/52 84/200/46 74/202/51
f 112/84/13 56/24/12 55/164/12
f 97/89/11 79/91/11 139/94/10
f 116/247/38 137/255/38 133/248/24
f 40/214/18 167/582/18 126/250/18
f 188/252/26 239/293/70 240/253/70
f 137/255/38 121/217/38 38/256/24
f 173/33/16 154/222/65 152/240/69
f 95/258/31 89/586/9 72/259/9
f 107/50/20 41/212/20 46/85/29
f 173/261/71 305/473/72 312/262/72
f 35/264/3 151/311/3 202/29/3
f 138/265/73 169/380/73 33/266/74
f 197/102/12 69/26/12 114/25/13
f 1/268/18 120/368/18 94/197/18
f 140/269/13 130/119/13 80/219/12
f 131/117/29 135/235/20 23/270/64
f 165/116/19 179/115/19 176/272/19
f 152/240/69 153/234/21 172/274/76
f 24/275/23 136/150/23 132/109/30
f 150/4/3 100/6/3 36/30/3
f 177/278/77 96/281/40 143/279/78
f 130/119/13 2/118/13 122/220/12
f 181/280/79 147/285/82 143/279/78
f 183/282/80 149/52/21 148/203/61
f 184/284/81 182/283/40 148/203/61
f 183/282/80 177/278/77 144/48/21
f 184/284/81 150/206/63 147/285/82
f 166/286/67 164/382/67 290/287/14
f 17/288/18 98/195/18 94/197/18
f 115/63/12 89/62/27 192/290/83
f 119/291/84 118/122/41 95/124/43
f 79/91/11 78/98/11 129/110/10
f 239/293/70 190/440/85 187/294/85
f 189/295/25 188/252/26 156/254/26
f 177/297/53 183/587/53 189/295/25
f 110/298/73 99/588/75 34/299/74
f 106/301/87 110/298/73 180/300/73
f 135/235/20 153/234/21 4/239/21
f 198/303/23 194/377/24 37/190/24
f 139/94/10 129/110/10 132/109/30
f 8/304/38 128/477/38 137/255/38
f 193/97/36 75/241/34 73/305/44
f 2/307/89 21/232/19 125/44/19
f 81/61/12 115/63/12 142/101/13
f 17/288/18 8/589/18 116/309/18
f 206/185/29 203/103/13 114/25/13
f 204/188/30 48/104/30 113/23/10
f 205/189/10 113/23/10 67/22/11
f 35/264/3 128/566/3 154/105/3
f 6/312/8 74/590/31 66/313/9
f 291/315/70 292/404/70 175/316/85
f 66/318/27 82/591/48 83/319/48
f 4/321/19 123/56/19 124/57/19
f 157/273/19 176/272/19 291/226/19
f 165/3/2 160/2/2 40/323/88
f 44/325/23 136/150/23 133/248/24
f 254/326/90 256/488/91 253/327/91
f 167/329/92 146/186/21 145/120/39
f 140/269/13 45/333/29 131/117/29
f 39/330/19 177/335/19 178/331/19
f 136/150/23 24/275/23 3/249/24
f 45/333/29 42/233/20 135/235/20
f 39/330/19 180/337/19 96/334/19
f 34/336/19 181/401/19 96/334/19
f 106/338/18 183/361/18 182/339/18
f 99/341/18 110/340/18 182/339/18
f 172/274/76 153/234/21 146/186/21
f 127/343/19 173/356/19 171/344/19
f 159/332/19 178/331/19 156/346/19
f 122/308/19 125/44/19 20/46/19
f 186/347/19 156/346/19 240/237/19
f 162/350/18 155/484/18 188/351/18
f 163/353/18 190/390/18 239/354/18
f 173/356/19 247/393/19 311/357/19
f 99/341/18 184/342/18 215/359/18
f 106/338/18 162/350/18 189/352/18
f 161/236/19 187/238/19 210/362/19
f 155/364/1 162/366/2 159/365/2
f 162/366/2 106/301/87 39/302/88
f 126/250/18 170/449/18 33/367/18
f 120/368/18 6/592/18 19/289/18
f 207/216/38 208/583/38 36/369/38
f 18/370/4 7/593/3 8/371/3
f 97/89/11 141/93/10 205/189/10
f 252/372/19 296/551/19 295/373/19
f 41/212/20 200/47/20 206/185/29
f 204/188/30 198/303/23 43/211/23
f 118/64/44 119/95/34 193/97/36
f 199/65/28 196/306/28 73/305/28
f 202/376/62 195/386/62 143/279/78
f 194/377/24 207/216/38 85/111/38
f 242/224/18 308/466/18 303/378/18
f 134/324/87 40/323/88 169/380/73
f 243/381/66 244/456/68 164/382/67
f 192/383/83 199/594/48 71/384/48
f 69/26/12 197/102/12 192/290/83
f 146/186/21 191/49/22 195/386/62
f 195/386/62 191/49/22 144/48/21
f 214/387/19 212/363/19 210/362/19
f 163/353/18 211/402/18 209/389/18
f 216/391/93 211/229/66 212/231/68
f 171/344/19 172/567/19 134/114/19
f 247/393/19 173/356/19 127/343/19
f 66/395/27 72/559/27 81/61/12
f 198/303/23 44/325/23 38/256/24
f 99/396/75 216/391/93 214/392/93
f 259/398/94 260/412/95 267/399/95
f 34/336/19 214/387/19 213/388/19
f 216/360/18 215/359/18 209/389/18
f 42/233/20 45/333/29 206/185/29
f 246/403/18 245/451/18 242/224/18
f 176/60/26 158/59/26 292/404/70
f 86/182/44 84/184/44 87/405/34
f 261/407/54 266/595/54 265/408/55
f 263/410/96 266/595/54 261/407/54
f 260/412/95 263/410/96 264/411/96
f 234/413/6 218/596/7 217/414/7
f 234/413/6 233/415/6 227/416/97
f 272/418/99 262/409/100 265/408/100
f 232/417/98 227/416/97 275/420/101
f 276/422/102 226/421/101 275/420/101
f 230/424/103 276/422/102 225/423/102
f 272/418/99 268/419/99 269/426/104
f 230/424/103 228/425/103 236/428/105
f 235/429/105 236/428/105 219/430/106
f 259/398/94 270/400/94 271/432/72
f 220/431/107 219/430/106 224/434/91
f 221/435/91 224/434/91 222/436/90
f 229/438/19 278/523/19 181/401/19
f 269/439/19 274/517/19 210/362/19
f 273/427/104 269/426/104 187/294/85
f 210/362/19 274/517/19 229/438/19
f 209/389/18 231/519/18 273/441/18
f 278/433/72 271/432/72 184/442/71
f 277/444/18 231/519/18 209/389/18
f 184/342/18 271/521/18 277/444/18
f 223/437/90 222/436/90 217/445/7
f 117/447/48 199/594/48 192/383/83
f 170/449/18 312/597/18 281/450/18
f 79/452/11 88/406/34 87/405/34
f 121/217/38 207/216/38 194/377/24
f 175/316/85 303/476/104 307/454/104
f 248/455/93 246/475/93 244/456/68
f 310/457/102 257/467/102 309/458/101
f 288/460/105 280/598/103 282/461/103
f 299/154/100 296/575/100 306/463/99
f 309/458/101 279/478/97 284/465/98
f 242/224/18 245/451/18 281/450/18
f 282/461/103 280/598/103 257/467/102
f 145/120/39 195/386/62 202/376/62
f 301/468/95 294/481/95 293/469/94
f 166/227/19 185/584/19 241/471/19
f 305/473/72 304/470/94 293/469/94
f 127/474/75 33/599/74 246/475/93
f 303/476/104 302/464/99 306/463/99
f 128/477/38 35/215/38 121/217/38
f 279/478/97 285/554/6 286/13/6
f 295/153/54 300/155/54 297/479/96
f 241/471/19 247/393/19 248/394/19
f 44/325/23 198/303/23 204/188/30
f 298/480/96 297/479/96 294/481/95
f 241/471/19 185/584/19 307/482/19
f 155/484/18 237/355/18 239/354/18
f 163/485/67 237/176/14 238/178/14
f 251/486/106 288/460/105 287/462/105
f 33/367/18 170/449/18 245/451/18
f 256/488/91 251/486/106 252/487/107
f 249/489/7 254/326/90 255/328/90
f 241/471/19 283/483/19 311/357/19
f 233/491/19 217/498/19 260/492/19
f 220/494/18 221/499/18 261/495/18
f 222/497/19 263/504/19 260/492/19
f 221/499/18 223/505/18 264/500/18
f 219/501/19 265/526/19 266/502/19
f 224/503/19 266/502/19 263/504/19
f 223/505/18 218/524/18 267/506/18
f 228/507/19 269/439/19 268/508/19
f 232/510/18 271/521/18 270/511/18
f 230/513/18 235/525/18 272/514/18
f 225/515/19 274/517/19 269/439/19
f 275/516/19 229/438/19 274/517/19
f 276/518/18 230/513/18 273/441/18
f 226/520/18 276/518/18 231/519/18
f 232/510/18 226/520/18 277/444/18
f 227/522/19 278/523/19 229/438/19
f 227/522/19 233/491/19 259/493/19
f 234/512/18 270/511/18 267/506/18
f 235/525/18 220/494/18 262/496/18
f 236/509/19 268/508/19 265/526/19
f 294/157/18 297/533/18 254/527/18
f 253/374/19 295/373/19 298/528/19
f 300/530/18 299/552/18 251/531/18
f 297/533/18 300/530/18 256/532/18
f 255/529/19 298/528/19 301/534/19
f 302/536/18 303/378/18 280/537/18
f 304/539/19 305/358/19 284/540/19
f 282/542/19 307/482/19 306/543/19
f 303/378/18 308/466/18 257/545/18
f 308/466/18 281/450/18 309/546/18
f 310/547/19 283/483/19 307/482/19
f 258/548/19 311/357/19 283/483/19
f 284/540/19 305/358/19 311/357/19
f 281/450/18 312/597/18 279/549/18
f 279/549/18 312/597/18 293/550/18
f 301/534/19 304/539/19 286/541/19
f 287/544/19 306/543/19 296/551/19
f 299/552/18 302/536/18 288/538/18
