# Blender 5.0.1
# www.blender.org
mtllib bucket_hlink.mtl
o Shovel_mechanism.003
v -0.000000 0.065633 -0.000000
v -0.007472 0.055625 -0.011844
v -0.003092 0.055625 0.013658
v 0.007471 0.055625 0.011844
v 0.011844 0.055625 -0.007471
v -0.011844 0.055625 0.007471
v 0.003092 0.055625 -0.013658
v -0.013658 0.055625 -0.003092
v 0.013658 0.055625 0.003092
v -0.000000 -0.065633 -0.000000
v -0.007472 -0.055625 -0.011844
v -0.003092 -0.055625 0.013658
v 0.007471 -0.055625 0.011844
v 0.011844 -0.055625 -0.007471
v -0.011844 -0.055625 0.007471
v 0.003092 -0.055625 -0.013658
v -0.013658 -0.055625 -0.003092
v 0.013658 -0.055625 0.003092
v -0.006526 -0.055625 0.028823
v 0.015767 -0.055625 0.024995
v 0.006525 -0.055625 -0.028823
v 0.024995 -0.055625 -0.015767
v -0.015767 -0.055625 -0.024995
v -0.024996 -0.055625 0.015767
v 0.028823 -0.055625 0.006525
v -0.098721 -0.062815 -0.199238
v -0.139405 -0.062815 -0.173575
v -0.073058 -0.062815 -0.158554
v -0.113742 -0.062815 -0.132891
v -0.124378 -0.062815 -0.194833
v -0.090497 -0.062815 -0.141122
v -0.077463 -0.062815 -0.184212
v -0.134999 -0.062815 -0.147918
v -0.073058 -0.055625 -0.158554
v -0.139405 -0.055625 -0.173575
v -0.098721 -0.055625 -0.199238
v -0.054925 -0.062815 -0.135442
v -0.006371 -0.062815 -0.059969
v -0.029172 -0.062815 -0.098637
v -0.047055 -0.062815 -0.034306
v -0.095609 -0.062815 -0.109778
v -0.069856 -0.062815 -0.072973
v -0.027207 -0.062815 -0.046825
v -0.075873 -0.062815 -0.122227
v -0.049836 -0.062815 -0.085601
v -0.081288 -0.062815 -0.181799
v -0.099720 -0.062815 -0.194828
v -0.121966 -0.062815 -0.191008
v -0.134995 -0.062815 -0.172576
v -0.131174 -0.062815 -0.150330
v -0.112743 -0.062815 -0.137302
v -0.088085 -0.062815 -0.137297
v -0.077468 -0.062815 -0.159553
v -0.085194 -0.072151 -0.179335
v -0.100739 -0.072151 -0.190324
v -0.119502 -0.072151 -0.187102
v -0.130491 -0.072151 -0.171557
v -0.127269 -0.072151 -0.152794
v -0.111723 -0.072151 -0.141805
v -0.092961 -0.072151 -0.145027
v -0.081972 -0.072151 -0.160573
v -0.113742 -0.055625 -0.132891
v -0.124378 -0.055625 -0.194833
v -0.090497 -0.055625 -0.141122
v -0.077463 -0.055625 -0.184212
v -0.134999 -0.055625 -0.147918
v -0.054925 -0.055625 -0.135442
v -0.006371 -0.055625 -0.059969
v -0.029172 -0.055625 -0.098637
v -0.047055 -0.055625 -0.034306
v -0.095609 -0.055625 -0.109778
v -0.069856 -0.055625 -0.072973
v -0.027207 -0.055625 -0.046825
v -0.075873 -0.055625 -0.122227
v -0.049836 -0.055625 -0.085601
v -0.081288 -0.055625 -0.181799
v -0.099720 -0.055625 -0.194828
v -0.121966 -0.055625 -0.191008
v -0.134995 -0.055625 -0.172576
v -0.131174 -0.055625 -0.150330
v -0.112743 -0.055625 -0.137302
v -0.088084 -0.055625 -0.137297
v -0.077468 -0.055625 -0.159553
v -0.028824 -0.055625 -0.006525
v -0.006526 0.055625 0.028823
v 0.015767 0.055625 0.024995
v 0.006525 0.055625 -0.028823
v 0.024995 0.055625 -0.015767
v -0.015767 0.055625 -0.024995
v -0.024996 0.055625 0.015767
v 0.028823 0.055625 0.006525
v -0.085194 -0.046288 -0.179335
v -0.100739 -0.046288 -0.190324
v -0.119502 -0.046288 -0.187102
v -0.130491 -0.046288 -0.171557
v -0.127269 -0.046288 -0.152794
v -0.100739 0.000000 -0.190324
v -0.111724 -0.046288 -0.141805
v -0.098721 0.062815 -0.199238
v -0.139405 0.062815 -0.173575
v -0.073058 0.062815 -0.158554
v -0.113742 0.062815 -0.132891
v -0.124378 0.062815 -0.194833
v -0.090497 0.062815 -0.141122
v -0.077464 0.062815 -0.184212
v -0.134999 0.062815 -0.147918
v -0.073058 0.055625 -0.158554
v -0.139405 0.055625 -0.173575
v -0.098721 0.055625 -0.199238
v -0.054925 0.062815 -0.135442
v -0.006371 0.062815 -0.059969
v -0.029172 0.062815 -0.098637
v -0.047055 0.062815 -0.034306
v -0.095609 0.062815 -0.109778
v -0.069856 0.062815 -0.072973
v -0.027207 0.062815 -0.046825
v -0.075873 0.062815 -0.122227
v -0.049836 0.062815 -0.085601
v -0.081288 0.062815 -0.181799
v -0.099720 0.062815 -0.194828
v -0.121966 0.062815 -0.191008
v -0.134995 0.062815 -0.172576
v -0.131174 0.062815 -0.150330
v -0.112743 0.062815 -0.137301
v -0.088085 0.062815 -0.137297
v -0.077468 0.062815 -0.159553
v -0.085194 0.072152 -0.179335
v -0.100739 0.072152 -0.190324
v -0.119502 0.072152 -0.187102
v -0.130491 0.072152 -0.171557
v -0.127269 0.072152 -0.152794
v -0.111724 0.072152 -0.141805
v -0.006521 -0.062824 0.028804
v -0.092961 0.072152 -0.145027
v -0.081972 0.072152 -0.160572
v -0.113742 0.055625 -0.132891
v -0.124378 0.055625 -0.194833
v -0.090497 0.055625 -0.141122
v -0.077463 0.055625 -0.184212
v -0.134999 0.055625 -0.147918
v -0.054925 0.055625 -0.135442
v -0.006371 0.055625 -0.059969
v -0.029172 0.055625 -0.098637
v -0.047055 0.055625 -0.034306
v -0.095609 0.055625 -0.109778
v -0.069856 0.055625 -0.072973
v -0.027207 0.055625 -0.046825
v -0.075873 0.055625 -0.122227
v -0.049836 0.055625 -0.085601
v -0.081288 0.055625 -0.181799
v -0.099720 0.055625 -0.194828
v -0.121966 0.055625 -0.191008
v -0.134995 0.055625 -0.172576
v -0.131174 0.055625 -0.150330
v -0.112743 0.055625 -0.137301
v -0.088085 0.055625 -0.137297
v -0.077468 0.055625 -0.159553
v -0.028824 0.055625 -0.006525
v -0.085194 0.046289 -0.179335
v -0.100739 0.046289 -0.190324
v -0.119502 0.046289 -0.187102
v -0.130491 0.046289 -0.171557
v -0.127269 0.046289 -0.152794
v -0.111724 0.046289 -0.141805
v -0.085194 0.000000 -0.179335
v -0.092961 0.046289 -0.145027
v -0.081972 0.046289 -0.160573
v -0.024979 0.062824 0.015756
v 0.006521 0.062824 -0.028804
v -0.015757 0.062824 -0.024978
v 0.028804 0.062824 0.006521
v 0.024978 0.062824 -0.015757
v -0.028804 0.062824 -0.006521
v 0.015756 0.062824 0.024978
v -0.006521 0.062824 0.028804
v -0.003092 0.000000 0.013658
v -0.011844 0.000000 0.007471
v -0.013658 0.000000 -0.003092
v -0.007472 0.000000 -0.011844
v 0.003092 0.000000 -0.013658
v 0.011844 0.000000 -0.007471
v 0.013658 0.000000 0.003092
v 0.007471 0.000000 0.011844
v -0.092961 -0.046288 -0.145027
v -0.081972 -0.046288 -0.160573
v -0.024979 -0.062824 0.015756
v 0.006521 -0.062824 -0.028804
v -0.015757 -0.062824 -0.024979
v 0.028804 -0.062824 0.006521
v 0.024978 -0.062824 -0.015757
v -0.028804 -0.062824 -0.006521
v 0.015756 -0.062824 0.024978
v -0.081972 0.000000 -0.160573
v -0.092961 0.000000 -0.145027
v -0.111724 0.000000 -0.141805
v -0.127269 0.000000 -0.152794
v -0.130491 0.000000 -0.171557
v -0.119502 0.000000 -0.187102
v -0.085194 0.110089 -0.179335
v -0.100739 0.110089 -0.190324
v -0.119502 0.110089 -0.187102
v -0.130491 0.110089 -0.171557
v -0.127269 0.110089 -0.152794
v -0.111724 0.110089 -0.141805
v -0.106231 0.110089 -0.166065
v -0.092961 0.110089 -0.145027
v -0.081972 0.110089 -0.160572
v -0.085194 -0.110089 -0.179335
v -0.100739 -0.110089 -0.190324
v -0.119502 -0.110089 -0.187102
v -0.130491 -0.110089 -0.171557
v -0.127269 -0.110089 -0.152794
v -0.111723 -0.110089 -0.141805
v -0.106231 -0.110089 -0.166065
v -0.092961 -0.110089 -0.145027
v -0.081972 -0.110089 -0.160573
v -0.006512 -0.065633 0.028763
v -0.024943 -0.065633 0.015734
v -0.028763 -0.065633 -0.006512
v -0.015735 -0.065633 -0.024943
v 0.015734 -0.065633 0.024943
v 0.006511 -0.065633 -0.028763
v 0.024943 -0.065633 -0.015734
v 0.028763 -0.065633 0.006512
v -0.006512 0.065633 0.028763
v 0.015734 0.065633 0.024943
v -0.024943 0.065633 0.015734
v 0.028763 0.065633 0.006512
v 0.006511 0.065633 -0.028763
v 0.024943 0.065633 -0.015734
v -0.015735 0.065633 -0.024943
v -0.028763 0.065633 -0.006512
vn -0.2208 0.0088 0.9753
vn 0.5335 0.0028 0.8458
vn 0.5335 0.0088 0.8458
vn -0.9963 0.0088 0.0857
vn -0.8458 0.0028 0.5335
vn -0.8458 0.0088 0.5335
vn 0.9753 0.0088 0.2208
vn 0.8458 0.0028 -0.5335
vn 0.8458 0.0088 -0.5335
vn 0.5335 -0.0000 0.8458
vn -0.2208 -0.0000 0.9753
vn -0.8458 -0.0000 0.5335
vn -0.9753 -0.0000 -0.2208
vn -0.5335 -0.0000 -0.8458
vn 0.5371 0.0089 -0.8435
vn 0.9753 0.0028 0.2208
vn -0.0000 -1.0000 -0.0000
vn 0.7581 -0.4433 -0.4782
vn 0.1979 -0.4433 -0.8742
vn -0.0000 1.0000 -0.0000
vn -0.2208 -0.0149 0.9752
vn -0.8457 -0.0088 0.5335
vn -0.8457 -0.0149 0.5335
vn 0.8458 -0.0000 -0.5335
vn 0.2208 -0.0000 -0.9753
vn 0.9753 -0.0088 0.2208
vn 0.8458 -0.0028 -0.5335
vn 0.9753 -0.0028 0.2208
vn 0.7816 -0.0020 -0.6238
vn 0.8949 -0.0001 -0.4463
vn 0.8949 -0.0000 -0.4463
vn 0.9753 -0.0000 0.2208
vn -0.9963 -0.0088 0.0857
vn -0.9752 -0.0149 -0.2208
vn -0.4782 -0.4433 -0.7581
vn -0.7581 0.4433 0.4782
vn -0.8742 0.4433 -0.1979
vn -0.2208 -0.0088 0.9753
vn 0.5335 -0.0028 0.8458
vn -0.2208 -0.0028 0.9753
vn 0.5335 -0.0088 0.8458
vn 0.5371 -0.0089 -0.8435
vn 0.8458 -0.0088 -0.5335
vn 0.9752 -0.0149 0.2208
vn -0.9302 -0.0022 0.3670
vn -0.8489 -0.0001 0.5285
vn -0.8490 -0.0000 0.5285
vn -0.6892 -0.0000 0.7245
vn -0.8034 -0.0000 0.5955
vn -0.0001 -1.0000 -0.0001
vn -0.0002 -1.0000 -0.0002
vn -0.0001 -1.0000 -0.0002
vn 0.8742 0.4433 0.1979
vn 0.4782 0.4433 0.7581
vn -0.5335 -0.0149 -0.8457
vn 0.8034 -0.0000 -0.5955
vn 0.9140 -0.0000 -0.4056
vn -0.7581 -0.4433 0.4782
vn -0.1979 -0.4433 0.8742
vn 0.7581 0.4433 -0.4782
vn -0.8458 -0.0028 0.5335
vn 0.8410 -0.0000 -0.5410
vn 0.5335 -0.0149 0.8457
vn 0.1979 0.4433 -0.8742
vn -0.4782 0.4433 -0.7581
vn -0.8742 -0.4433 -0.1979
vn 0.4782 -0.4433 0.7581
vn 0.8742 -0.4433 0.1979
vn -0.8410 -0.0000 0.5410
vn -0.1979 0.4433 0.8742
vn -0.0001 1.0000 -0.0002
vn -0.0001 1.0000 -0.0001
vn -0.0002 1.0000 -0.0002
vn -0.0000 1.0000 -0.0003
vn 0.7816 0.0020 -0.6238
vn 0.8949 0.0001 -0.4463
vn -0.9302 0.0022 0.3670
vn -0.8489 0.0001 0.5285
vn 0.5335 0.0149 0.8457
vn 0.9752 0.0149 0.2208
vn 0.2208 0.0149 -0.9752
vn 0.8457 0.0149 -0.5335
vn -0.2208 0.0149 0.9752
vn -0.8457 0.0149 0.5335
vn -0.5335 0.0149 -0.8457
vn -0.9752 0.0149 -0.2208
vn 0.2208 -0.0149 -0.9752
vn 0.8457 -0.0149 -0.5335
vn -0.2208 0.0028 0.9753
vn -0.0000 -1.0000 -0.0003
vt 0.966377 0.073855
vt 0.967485 0.077322
vt 0.966381 0.077322
vt 0.966348 0.066920
vt 0.967471 0.070383
vt 0.966366 0.070388
vt 0.966377 0.080790
vt 0.967471 0.084262
vt 0.966366 0.084257
vt 0.689610 0.983322
vt 0.687966 0.991855
vt 0.687966 0.983322
vt 0.686322 0.991855
vt 0.686322 0.983322
vt 0.684678 0.991855
vt 0.684678 0.983322
vt 0.683033 0.991855
vt 0.683033 0.983322
vt 0.966348 0.087725
vt 0.967482 0.080792
vt 0.955413 0.165942
vt 0.958612 0.163923
vt 0.958612 0.164617
vt 0.638591 0.979465
vt 0.637443 0.982943
vt 0.635847 0.982224
vt 0.955825 0.821707
vt 0.954884 0.818043
vt 0.956519 0.821686
vt 0.963830 0.169141
vt 0.961811 0.172340
vt 0.963136 0.169141
vt 0.962763 0.177313
vt 0.958612 0.174359
vt 0.962302 0.172830
vt 0.382157 0.771871
vt 0.382528 0.775343
vt 0.382098 0.775333
vt 0.365549 0.965929
vt 0.364446 0.961935
vt 0.365549 0.961935
vt 0.973688 0.734280
vt 0.974782 0.730807
vt 0.974793 0.734277
vt 0.072005 0.003352
vt 0.073108 0.008523
vt 0.072005 0.008523
vt 0.681389 0.991855
vt 0.681389 0.983322
vt 0.694542 0.983322
vt 0.692898 0.991855
vt 0.692898 0.983322
vt 0.691254 0.991855
vt 0.691254 0.983322
vt 0.689610 0.991855
vt 0.954088 0.169141
vt 0.954923 0.165451
vt 0.955384 0.177313
vt 0.954923 0.172830
vt 0.382430 0.778809
vt 0.381999 0.778795
vt 0.777610 0.973829
vt 0.770509 0.976750
vt 0.770509 0.973829
vt 0.683033 0.974789
vt 0.955099 0.848774
vt 0.954135 0.852008
vt 0.953462 0.850508
vt 0.954637 0.836803
vt 0.951189 0.830016
vt 0.954767 0.829913
vt 0.953550 0.853545
vt 0.952119 0.856602
vt 0.952049 0.854218
vt 0.950513 0.853633
vt 0.947456 0.852202
vt 0.949840 0.852133
vt 0.955043 0.843677
vt 0.951856 0.847539
vt 0.951445 0.843781
vt 0.951172 0.817315
vt 0.947509 0.818256
vt 0.951152 0.816622
vt 0.959344 0.184196
vt 0.963092 0.184196
vt 0.635847 0.986286
vt 0.974796 0.542482
vt 0.968976 0.545403
vt 0.968976 0.542482
vt 0.777610 0.956307
vt 0.770509 0.959228
vt 0.770509 0.956307
vt 0.947667 0.843890
vt 0.948690 0.848959
vt 0.860644 0.538575
vt 0.864030 0.536638
vt 0.864936 0.538254
vt 0.973688 0.741214
vt 0.974796 0.737747
vt 0.974793 0.741217
vt 0.973692 0.737747
vt 0.777610 0.962148
vt 0.770509 0.965068
vt 0.770509 0.962148
vt 0.973659 0.727345
vt 0.973677 0.730812
vt 0.382157 0.764947
vt 0.382528 0.761475
vt 0.382588 0.764942
vt 0.973677 0.744682
vt 0.974763 0.748156
vt 0.973659 0.748149
vt 0.075546 0.206919
vt 0.074442 0.212016
vt 0.074443 0.206919
vt 0.681389 0.974789
vt 0.956519 0.851939
vt 0.075547 0.188635
vt 0.074444 0.193142
vt 0.074444 0.188635
vt 0.948013 0.818733
vt 0.946088 0.821989
vt 0.962885 0.191079
vt 0.958804 0.194851
vt 0.959106 0.191079
vt 0.691254 0.974789
vt 0.962302 0.165451
vt 0.961811 0.165942
vt 0.692898 0.974789
vt 0.860368 0.528340
vt 0.859336 0.532058
vt 0.857717 0.531453
vt 0.954408 0.818547
vt 0.951008 0.836908
vt 0.947391 0.830127
vt 0.364446 0.953948
vt 0.365549 0.949955
vt 0.365549 0.953948
vt 0.955713 0.184196
vt 0.955506 0.191079
vt 0.382292 0.782274
vt 0.381861 0.782254
vt 0.072005 0.022300
vt 0.073108 0.026807
vt 0.072005 0.026807
vt 0.948876 0.855368
vt 0.642132 0.987599
vt 0.645803 0.986189
vt 0.642935 0.989418
vt 0.950425 0.850596
vt 0.954593 0.824942
vt 0.955098 0.825419
vt 0.958963 0.177313
vt 0.951925 0.849923
vt 0.863840 0.529930
vt 0.861163 0.530047
vt 0.689610 0.974789
vt 0.777610 0.965068
vt 0.770509 0.967989
vt 0.951454 0.827053
vt 0.947722 0.825632
vt 0.974782 0.744686
vt 0.777610 0.976750
vt 0.770509 0.979670
vt 0.073108 0.015410
vt 0.072005 0.015410
vt 0.382176 0.768409
vt 0.382607 0.768409
vt 0.687966 0.974789
vt 0.777610 0.970909
vt 0.770509 0.970909
vt 0.867320 0.531032
vt 0.864446 0.528347
vt 0.867569 0.535080
vt 0.865751 0.531837
vt 0.637555 0.985691
vt 0.638623 0.989333
vt 0.365549 0.957942
vt 0.948198 0.825128
vt 0.946781 0.821968
vt 0.643993 0.982867
vt 0.642581 0.979324
vt 0.645555 0.982132
vt 0.951434 0.826360
vt 0.644045 0.985632
vt 0.974796 0.539562
vt 0.968976 0.539562
vt 0.226489 0.957117
vt 0.227920 0.960174
vt 0.224755 0.958754
vt 0.230199 0.955705
vt 0.231349 0.952531
vt 0.232583 0.955774
vt 0.229614 0.954168
vt 0.228183 0.951111
vt 0.226577 0.954080
vt 0.228114 0.953495
vt 0.223520 0.955512
vt 0.225904 0.955581
vt 0.227989 0.957790
vt 0.231163 0.958940
vt 0.229526 0.957205
vt 0.224940 0.952346
vt 0.075546 0.200033
vt 0.074443 0.200033
vt 0.859434 0.534843
vt 0.861357 0.536730
vt 0.958612 0.173665
vt 0.955413 0.172340
vt 0.953394 0.169141
vt 0.865834 0.534585
vt 0.431310 0.979964
vt 0.432796 0.983293
vt 0.431240 0.983864
vt 0.441095 0.979718
vt 0.437543 0.978529
vt 0.438115 0.976811
vt 0.954463 0.535913
vt 0.957856 0.529030
vt 0.958062 0.535913
vt 0.954606 0.522147
vt 0.958185 0.522147
vt 0.950683 0.535913
vt 0.954225 0.529030
vt 0.950806 0.522147
vt 0.954957 0.519193
vt 0.951267 0.517665
vt 0.954765 0.539685
vt 0.951562 0.541012
vt 0.950433 0.513975
vt 0.951267 0.510286
vt 0.951758 0.510776
vt 0.958156 0.510776
vt 0.954957 0.508757
vt 0.958646 0.510286
vt 0.958156 0.517174
vt 0.960174 0.513975
vt 0.958646 0.517665
vt 0.954957 0.518499
vt 0.951758 0.517174
vt 0.954957 0.509451
vt 0.949739 0.513975
vt 0.959481 0.513975
vt 0.972359 0.642399
vt 0.966540 0.639478
vt 0.972359 0.639478
vt 0.972359 0.630717
vt 0.966540 0.627797
vt 0.972359 0.627797
vt 0.966540 0.624877
vt 0.972359 0.624877
vt 0.972359 0.645319
vt 0.966540 0.642399
vt 0.437929 0.986981
vt 0.439269 0.983252
vt 0.441095 0.984048
vt 0.434636 0.985241
vt 0.437335 0.985227
vt 0.433822 0.986804
vt 0.439398 0.980492
vt 0.434858 0.978573
vt 0.434029 0.976989
vt 0.432959 0.980565
vt 0.985836 0.117765
vt 0.989274 0.116489
vt 0.986458 0.119412
vt 0.986628 0.109419
vt 0.983127 0.111113
vt 0.982503 0.109398
vt 0.225402 0.940375
vt 0.228594 0.947353
vt 0.224996 0.947249
vt 0.228850 0.933589
vt 0.229031 0.940480
vt 0.232372 0.947462
vt 0.232648 0.933699
vt 0.232777 0.940588
vt 0.228585 0.930625
vt 0.232317 0.929204
vt 0.225272 0.933485
vt 0.224941 0.928991
vt 0.232530 0.921828
vt 0.233258 0.925541
vt 0.232026 0.922305
vt 0.225631 0.922119
vt 0.228887 0.920194
vt 0.228867 0.920887
vt 0.225445 0.928515
vt 0.223520 0.925258
vt 0.224214 0.925279
vt 0.231841 0.928700
vt 0.228605 0.929932
vt 0.233951 0.925561
vt 0.225155 0.921615
vt 0.639449 0.987674
vt 0.974796 0.524960
vt 0.968976 0.527880
vt 0.968976 0.524960
vt 0.974796 0.527880
vt 0.968976 0.530801
vt 0.641905 0.981059
vt 0.981216 0.113112
vt 0.979530 0.116606
vt 0.979530 0.112330
vt 0.983149 0.117839
vt 0.982505 0.119413
vt 0.987704 0.112962
vt 0.989418 0.112415
vt 0.987646 0.115730
vt 0.639824 0.967483
vt 0.640927 0.962312
vt 0.640929 0.967485
vt 0.639825 0.955425
vt 0.639825 0.962312
vt 0.639825 0.948535
vt 0.640928 0.955426
vt 0.640929 0.944028
vt 0.640928 0.948535
vt 0.210915 0.967485
vt 0.212018 0.963492
vt 0.212018 0.967485
vt 0.210915 0.963492
vt 0.212018 0.959498
vt 0.210915 0.955505
vt 0.210915 0.959498
vt 0.210915 0.951511
vt 0.212018 0.955505
vt 0.210915 0.947518
vt 0.212018 0.951511
vt 0.210915 0.943525
vt 0.212018 0.947518
vt 0.120745 0.273310
vt 0.121848 0.277817
vt 0.120745 0.277817
vt 0.120745 0.266420
vt 0.121848 0.273310
vt 0.120745 0.259534
vt 0.121848 0.266420
vt 0.120745 0.254436
vt 0.121848 0.259534
vt 0.382176 0.809838
vt 0.382588 0.813305
vt 0.382157 0.813300
vt 0.382528 0.816772
vt 0.381999 0.820223
vt 0.382098 0.816762
vt 0.382529 0.802904
vt 0.382157 0.806376
vt 0.382098 0.802913
vt 0.382430 0.820238
vt 0.381861 0.823683
vt 0.382430 0.799438
vt 0.381999 0.799452
vt 0.382588 0.806371
vt 0.382292 0.795973
vt 0.381861 0.795993
vt 0.686322 0.974789
vt 0.684678 0.974789
vt 0.382588 0.771876
vt 0.381999 0.758024
vt 0.382292 0.754544
vt 0.382430 0.758009
vt 0.365549 0.969922
vt 0.364446 0.965929
vt 0.382098 0.761485
vt 0.857717 0.535474
vt 0.777610 0.967989
vt 0.777610 0.959228
vt 0.364446 0.949955
vt 0.365549 0.945962
vt 0.075547 0.193142
vt 0.364446 0.957942
vt 0.784711 0.965068
vt 0.784711 0.962148
vt 0.784711 0.967989
vt 0.784711 0.970909
vt 0.784711 0.973829
vt 0.784711 0.976750
vt 0.784711 0.979670
vt 0.784711 0.959228
vt 0.784711 0.956307
vt 0.123198 0.452192
vt 0.126723 0.450732
vt 0.126723 0.453652
vt 0.124658 0.455717
vt 0.121738 0.455717
vt 0.119673 0.453652
vt 0.121738 0.448667
vt 0.119673 0.450732
vt 0.972359 0.633638
vt 0.966540 0.630717
vt 0.972359 0.636558
vt 0.966540 0.633638
vt 0.966540 0.636558
vt 0.972359 0.648239
vt 0.966540 0.645319
vt 0.140257 0.454629
vt 0.136732 0.453169
vt 0.138797 0.451104
vt 0.138797 0.458154
vt 0.141717 0.458154
vt 0.143782 0.456089
vt 0.143782 0.453169
vt 0.141717 0.451104
vt 0.974796 0.530801
vt 0.968976 0.533721
vt 0.974796 0.533721
vt 0.968976 0.536641
vt 0.974796 0.536641
vt 0.974796 0.545403
vt 0.968976 0.548323
vt 0.071367 0.405235
vt 0.073098 0.409414
vt 0.069636 0.409414
vt 0.067187 0.406966
vt 0.067187 0.403504
vt 0.075547 0.406966
vt 0.069636 0.401055
vt 0.073098 0.401055
vt 0.075547 0.403504
vt 0.354058 0.417420
vt 0.352327 0.421599
vt 0.349878 0.419151
vt 0.355789 0.421599
vt 0.349878 0.415689
vt 0.352327 0.413240
vt 0.355789 0.413240
vt 0.358238 0.415688
vt 0.358238 0.419151
vt 0.967482 0.073853
vt 0.967452 0.066913
vt 0.967452 0.087732
vt 0.639246 0.980999
vt 0.073110 0.003350
vt 0.694542 0.991855
vt 0.955284 0.855182
vt 0.974763 0.727338
vt 0.075547 0.212018
vt 0.962007 0.196178
vt 0.694542 0.974789
vt 0.947262 0.837016
vt 0.073108 0.022300
vt 0.777610 0.979670
vt 0.955600 0.196178
vt 0.950477 0.529030
vt 0.957968 0.541012
vt 0.985828 0.111036
vt 0.981310 0.115872
vt 0.639826 0.944028
vt 0.212018 0.943525
vt 0.121849 0.254434
vt 0.382608 0.809838
vt 0.382292 0.823703
vt 0.381861 0.754564
vt 0.364446 0.969922
vt 0.364446 0.945962
vt 0.124658 0.448667
vt 0.966540 0.648239
vt 0.136732 0.456089
vt 0.974796 0.548323
s 1
usemtl Excavator
f 175/1/1 86/2/2 174/3/3
f 173/4/4 90/5/5 168/6/6
f 171/7/7 88/8/8 172/9/9
f 183/10/10 3/11/11 176/12/11
f 176/12/11 6/13/12 177/14/12
f 177/14/12 8/15/13 178/16/13
f 178/16/13 2/17/14 179/18/14
f 90/5/5 175/1/1 168/6/6
f 88/8/8 169/19/15 172/9/9
f 174/3/3 91/20/16 171/7/7
f 49/21/17 30/22/17 48/23/17
f 46/24/18 55/25/19 47/26/19
f 80/27/20 35/28/20 66/29/20
f 32/30/17 53/31/17 46/32/17
f 37/33/17 52/34/17 28/35/17
f 217/36/21 186/37/22 218/38/23
f 65/39/24 26/40/25 36/41/25
f 189/42/26 22/43/27 25/44/28
f 21/45/29 38/46/30 68/47/31
f 179/18/14 7/48/25 180/49/25
f 180/50/25 5/51/24 181/52/24
f 181/52/24 9/53/32 182/54/32
f 182/54/32 4/55/10 183/10/10
f 50/56/17 27/57/17 49/21/17
f 52/34/17 41/58/17 29/59/17
f 218/38/23 191/60/33 219/61/34
f 197/62/13 94/63/14 95/64/13
f 11/65/14 178/16/13 179/18/14
f 84/66/20 15/67/20 17/68/20
f 72/69/20 74/70/20 71/71/20
f 12/72/20 20/73/20 13/74/20
f 18/75/20 22/76/20 14/77/20
f 70/78/20 23/79/20 73/80/20
f 78/81/20 36/82/20 63/83/20
f 45/84/17 37/33/17 39/85/17
f 55/25/19 48/86/35 47/26/19
f 216/87/32 54/88/24 61/89/32
f 97/90/25 92/91/24 93/92/25
f 73/80/20 72/69/20 70/78/20
f 68/93/20 23/79/20 21/94/20
f 80/95/36 95/96/37 79/97/37
f 133/98/38 20/99/39 19/100/40
f 192/101/41 25/44/28 20/99/39
f 193/102/32 184/103/10 185/104/32
f 187/105/42 22/43/27 190/106/43
f 224/107/44 190/108/43 189/109/26
f 186/110/22 84/111/45 191/112/33
f 40/113/46 84/114/45 70/115/47
f 16/116/25 179/18/14 180/49/25
f 24/117/20 12/72/20 15/67/20
f 29/118/48 71/119/49 62/120/48
f 77/121/20 65/122/20 36/82/20
f 38/123/50 188/124/51 43/125/52
f 18/126/32 181/52/24 182/54/32
f 26/127/17 46/32/17 47/128/17
f 14/129/24 180/50/25 181/52/24
f 83/130/53 184/131/54 64/132/54
f 79/133/20 63/83/20 35/28/20
f 75/134/20 67/135/20 74/70/20
f 27/136/13 66/137/12 35/138/13
f 42/139/17 43/125/52 40/140/50
f 219/61/34 188/141/55 220/142/55
f 67/143/56 28/144/57 34/145/57
f 45/84/17 38/123/50 43/125/52
f 13/74/20 25/146/20 18/75/20
f 58/147/58 51/148/59 50/149/58
f 14/77/20 21/94/20 16/150/20
f 68/93/20 75/134/20 73/80/20
f 81/151/20 66/29/20 62/152/20
f 42/139/17 44/153/17 45/84/17
f 16/150/20 23/79/20 11/154/20
f 83/130/53 92/155/60 185/156/53
f 13/157/10 182/54/32 183/10/10
f 194/158/10 98/159/11 184/103/10
f 82/160/20 67/135/20 34/161/20
f 23/79/20 17/68/20 11/154/20
f 133/98/38 24/162/61 186/110/22
f 198/163/14 93/164/25 94/63/14
f 39/165/62 67/143/56 69/166/62
f 221/167/63 189/109/26 192/168/41
f 12/169/11 183/10/10 176/12/11
f 196/170/12 95/64/13 96/171/12
f 82/160/20 71/71/20 74/70/20
f 77/172/64 92/155/60 76/173/60
f 78/174/65 93/175/64 77/172/64
f 56/176/35 49/177/66 48/86/35
f 26/40/25 63/178/14 36/41/25
f 83/179/20 82/160/20 34/161/20
f 83/179/20 65/122/20 76/180/20
f 60/181/67 53/182/68 31/183/67
f 64/184/20 62/152/20 82/160/20
f 38/46/30 69/166/62 68/47/31
f 59/185/59 31/183/67 51/148/59
f 215/186/10 61/89/32 60/187/10
f 3/188/17 86/189/17 85/190/17
f 5/191/17 87/192/17 88/193/17
f 7/194/17 89/195/17 87/192/17
f 8/196/17 89/195/17 2/197/17
f 3/188/17 90/198/17 6/199/17
f 4/200/17 91/201/17 86/189/17
f 9/202/17 88/193/17 91/201/17
f 6/199/17 158/203/17 8/196/17
f 42/204/69 70/115/47 72/205/69
f 80/95/36 98/206/70 96/207/36
f 28/35/17 31/208/17 53/31/17
f 51/209/17 33/210/17 50/56/17
f 52/34/17 51/209/17 31/208/17
f 79/97/37 94/211/65 78/174/65
f 188/124/51 40/140/50 43/125/52
f 48/23/17 26/127/17 47/128/17
f 121/212/65 128/213/64 120/214/64
f 124/215/70 131/216/36 123/217/36
f 116/218/71 115/219/20 113/220/72
f 115/219/20 117/221/20 114/222/20
f 111/223/72 118/224/20 116/218/71
f 118/224/20 110/225/20 117/221/20
f 125/226/20 110/225/20 101/227/20
f 111/223/72 170/228/73 169/229/74
f 113/220/72 170/228/73 116/218/71
f 125/226/20 114/222/20 117/221/20
f 119/230/20 99/231/20 120/232/20
f 122/233/20 103/234/20 100/235/20
f 124/236/20 106/237/20 102/238/20
f 104/239/20 101/227/20 126/240/20
f 121/241/20 99/231/20 103/234/20
f 124/236/20 125/226/20 104/239/20
f 126/240/20 105/242/20 119/230/20
f 123/243/20 100/235/20 106/237/20
f 135/244/32 206/245/10 134/246/10
f 130/247/13 201/248/14 129/249/14
f 129/249/14 200/250/25 128/251/25
f 127/252/24 207/253/32 135/244/32
f 126/254/53 134/255/54 104/256/54
f 126/254/53 127/257/60 135/258/53
f 119/259/60 128/213/64 127/257/60
f 104/256/54 132/260/70 124/215/70
f 123/217/36 130/261/37 122/262/37
f 122/262/37 129/263/65 121/212/65
f 160/264/19 152/265/35 151/266/19
f 154/267/58 164/268/59 155/269/59
f 146/270/17 147/271/17 144/272/17
f 146/270/17 148/273/17 149/274/17
f 149/274/17 142/275/17 147/271/17
f 149/274/17 141/276/17 143/277/17
f 141/276/17 156/278/17 107/279/17
f 142/275/17 89/195/17 147/271/17
f 89/195/17 144/272/17 147/271/17
f 156/278/17 145/280/17 136/281/17
f 109/282/17 150/283/17 151/284/17
f 153/285/17 137/286/17 152/287/17
f 155/288/17 140/289/17 154/290/17
f 157/291/17 156/278/17 138/292/17
f 137/286/17 151/284/17 152/287/17
f 138/292/17 136/281/17 155/288/17
f 139/293/17 157/291/17 150/283/17
f 154/290/17 108/294/17 153/285/17
f 57/295/66 50/149/58 49/177/66
f 209/296/25 56/297/14 55/298/25
f 210/299/14 57/300/13 56/297/14
f 61/301/68 46/24/18 53/182/68
f 166/302/67 157/303/68 138/304/67
f 157/303/68 159/305/18 150/306/18
f 159/305/18 151/266/19 150/306/18
f 155/269/59 166/302/67 138/304/67
f 162/307/66 154/267/58 153/308/66
f 161/309/35 153/308/66 152/265/35
f 87/310/75 111/311/76 169/312/15
f 143/313/62 111/311/76 142/314/31
f 141/315/56 112/316/62 143/313/62
f 141/315/56 101/317/57 110/318/56
f 107/319/57 105/320/24 101/321/57
f 139/322/24 99/323/25 105/320/24
f 137/324/14 99/323/25 109/325/25
f 108/326/13 103/327/14 137/324/14
f 140/328/12 100/329/13 108/326/13
f 136/330/48 106/331/12 140/328/12
f 145/332/49 102/333/48 136/334/48
f 146/335/69 114/336/49 145/332/49
f 144/337/47 115/338/69 146/335/69
f 158/339/77 113/340/78 144/337/47
f 226/341/79 171/342/7 228/343/80
f 172/344/9 229/345/81 230/346/82
f 168/347/6 225/348/83 227/349/84
f 228/343/80 172/344/9 230/346/82
f 169/350/15 231/351/85 229/345/81
f 173/352/4 227/349/84 232/353/86
f 175/354/1 226/341/79 225/348/83
f 170/355/85 232/353/86 231/356/85
f 15/357/12 176/12/11 177/14/12
f 17/358/13 177/14/12 178/16/13
f 221/167/63 133/359/38 217/36/21
f 222/360/87 188/361/55 187/362/42
f 34/363/57 32/364/24 65/39/24
f 222/360/87 190/108/43 223/365/88
f 81/366/70 184/131/54 98/206/70
f 195/367/11 96/171/12 98/159/11
f 165/368/24 185/104/32 92/91/24
f 33/369/12 62/370/48 66/137/12
f 41/371/49 72/205/69 71/119/49
f 30/372/14 35/138/13 63/178/14
f 166/373/10 193/102/32 167/374/32
f 164/375/11 194/158/10 166/373/10
f 163/376/12 195/367/11 164/375/11
f 162/377/13 196/170/12 163/376/12
f 161/378/14 197/62/13 162/377/13
f 160/379/25 198/163/14 161/378/14
f 159/380/24 97/90/25 160/381/25
f 167/374/32 165/368/24 159/380/24
f 205/382/20 204/383/20 206/384/20
f 205/382/20 207/385/20 199/386/20
f 200/387/20 205/382/20 199/386/20
f 202/388/20 205/382/20 201/389/20
f 131/390/12 202/391/13 130/247/13
f 132/392/11 203/393/12 131/390/12
f 134/246/10 204/394/11 132/392/11
f 128/395/25 199/396/24 127/252/24
f 214/397/17 213/398/17 212/399/17
f 216/400/17 214/397/17 208/401/17
f 209/402/17 214/397/17 210/403/17
f 214/397/17 211/404/17 210/403/17
f 211/405/13 58/406/12 57/300/13
f 212/407/12 59/408/11 58/406/12
f 213/409/11 60/187/10 59/408/11
f 208/410/24 55/411/25 54/88/24
f 10/412/17 217/413/17 218/414/17
f 10/412/17 219/415/17 220/416/17
f 10/412/17 218/414/17 219/415/17
f 10/412/17 221/417/17 217/413/17
f 10/412/17 220/416/17 222/418/17
f 10/412/17 222/418/17 223/419/17
f 10/412/17 224/420/17 221/417/17
f 10/412/17 223/419/17 224/420/17
f 1/421/20 225/422/20 226/423/20
f 1/421/20 227/424/20 225/422/20
f 1/421/20 226/423/20 228/425/20
f 1/421/20 230/426/20 229/427/20
f 1/421/20 229/427/20 231/428/20
f 1/421/20 228/425/20 230/426/20
f 1/421/20 231/428/20 232/429/20
f 1/421/20 232/429/20 227/424/20
f 175/1/1 85/430/89 86/2/2
f 173/4/4 158/431/77 90/5/5
f 171/7/7 91/20/16 88/8/8
f 183/10/10 4/55/10 3/11/11
f 176/12/11 3/11/11 6/13/12
f 177/14/12 6/13/12 8/15/13
f 178/16/13 8/15/13 2/17/14
f 90/5/5 85/430/89 175/1/1
f 88/8/8 87/432/75 169/19/15
f 174/3/3 86/2/2 91/20/16
f 49/21/17 27/57/17 30/22/17
f 46/24/18 54/433/18 55/25/19
f 80/27/20 79/133/20 35/28/20
f 32/30/17 28/35/17 53/31/17
f 37/33/17 44/153/17 52/34/17
f 217/36/21 133/359/38 186/37/22
f 65/39/24 32/364/24 26/40/25
f 189/42/26 190/106/43 22/43/27
f 21/45/29 187/434/42 38/46/30
f 179/18/14 2/17/14 7/48/25
f 180/50/25 7/435/25 5/51/24
f 181/52/24 5/51/24 9/53/32
f 182/54/32 9/53/32 4/55/10
f 50/56/17 33/210/17 27/57/17
f 52/34/17 44/153/17 41/58/17
f 218/38/23 186/37/22 191/60/33
f 197/62/13 198/163/14 94/63/14
f 11/65/14 17/358/13 178/16/13
f 84/66/20 24/117/20 15/67/20
f 72/69/20 75/134/20 74/70/20
f 12/72/20 19/436/20 20/73/20
f 18/75/20 25/146/20 22/76/20
f 70/78/20 84/66/20 23/79/20
f 78/81/20 77/121/20 36/82/20
f 45/84/17 44/153/17 37/33/17
f 55/25/19 56/176/35 48/86/35
f 216/87/32 208/410/24 54/88/24
f 97/90/25 165/368/24 92/91/24
f 73/80/20 75/134/20 72/69/20
f 68/93/20 73/80/20 23/79/20
f 80/95/36 96/207/36 95/96/37
f 133/98/38 192/101/41 20/99/39
f 192/101/41 189/42/26 25/44/28
f 193/102/32 194/158/10 184/103/10
f 187/105/42 21/437/29 22/43/27
f 224/107/44 223/365/88 190/108/43
f 186/110/22 24/162/61 84/111/45
f 40/113/46 191/438/33 84/114/45
f 16/116/25 11/65/14 179/18/14
f 24/117/20 19/436/20 12/72/20
f 29/118/48 41/371/49 71/119/49
f 77/121/20 76/180/20 65/122/20
f 38/123/50 187/439/90 188/124/51
f 18/126/32 14/129/24 181/52/24
f 26/127/17 32/30/17 46/32/17
f 14/129/24 16/440/25 180/50/25
f 83/130/53 185/156/53 184/131/54
f 79/133/20 78/81/20 63/83/20
f 75/134/20 69/441/20 67/135/20
f 27/136/13 33/369/12 66/137/12
f 42/139/17 45/84/17 43/125/52
f 219/61/34 191/60/33 188/141/55
f 67/143/56 37/442/56 28/144/57
f 45/84/17 39/85/17 38/123/50
f 13/74/20 20/73/20 25/146/20
f 58/147/58 59/185/59 51/148/59
f 14/77/20 22/76/20 21/94/20
f 68/93/20 69/441/20 75/134/20
f 81/151/20 80/27/20 66/29/20
f 42/139/17 41/58/17 44/153/17
f 16/150/20 21/94/20 23/79/20
f 83/130/53 76/173/60 92/155/60
f 13/157/10 18/126/32 182/54/32
f 194/158/10 195/367/11 98/159/11
f 82/160/20 74/70/20 67/135/20
f 23/79/20 84/66/20 17/68/20
f 133/98/38 19/100/40 24/162/61
f 198/163/14 97/443/25 93/164/25
f 39/165/62 37/442/56 67/143/56
f 221/167/63 224/107/44 189/109/26
f 12/169/11 13/157/10 183/10/10
f 196/170/12 197/62/13 95/64/13
f 82/160/20 62/152/20 71/71/20
f 77/172/64 93/175/64 92/155/60
f 78/174/65 94/211/65 93/175/64
f 56/176/35 57/295/66 49/177/66
f 26/40/25 30/372/14 63/178/14
f 83/179/20 64/184/20 82/160/20
f 83/179/20 34/161/20 65/122/20
f 60/181/67 61/301/68 53/182/68
f 64/184/20 81/151/20 62/152/20
f 38/46/30 39/165/62 69/166/62
f 59/185/59 60/181/67 31/183/67
f 215/186/10 216/87/32 61/89/32
f 3/188/17 4/200/17 86/189/17
f 5/191/17 7/194/17 87/192/17
f 7/194/17 2/197/17 89/195/17
f 8/196/17 158/203/17 89/195/17
f 3/188/17 85/190/17 90/198/17
f 4/200/17 9/202/17 91/201/17
f 9/202/17 5/191/17 88/193/17
f 6/199/17 90/198/17 158/203/17
f 42/204/69 40/113/46 70/115/47
f 80/95/36 81/366/70 98/206/70
f 28/35/17 52/34/17 31/208/17
f 51/209/17 29/59/17 33/210/17
f 52/34/17 29/59/17 51/209/17
f 79/97/37 95/96/37 94/211/65
f 188/124/51 191/444/51 40/140/50
f 48/23/17 30/22/17 26/127/17
f 121/212/65 129/263/65 128/213/64
f 124/215/70 132/260/70 131/216/36
f 116/218/71 118/224/20 115/219/20
f 115/219/20 118/224/20 117/221/20
f 111/223/72 112/445/20 118/224/20
f 118/224/20 112/445/20 110/225/20
f 125/226/20 117/221/20 110/225/20
f 111/223/72 116/218/71 170/228/73
f 113/220/72 173/446/73 170/228/73
f 125/226/20 102/238/20 114/222/20
f 119/230/20 105/242/20 99/231/20
f 122/233/20 121/241/20 103/234/20
f 124/236/20 123/243/20 106/237/20
f 104/239/20 125/226/20 101/227/20
f 121/241/20 120/232/20 99/231/20
f 124/236/20 102/238/20 125/226/20
f 126/240/20 101/227/20 105/242/20
f 123/243/20 122/233/20 100/235/20
f 135/244/32 207/253/32 206/245/10
f 130/247/13 202/391/13 201/248/14
f 129/249/14 201/248/14 200/250/25
f 127/252/24 199/396/24 207/253/32
f 126/254/53 135/258/53 134/255/54
f 126/254/53 119/259/60 127/257/60
f 119/259/60 120/214/64 128/213/64
f 104/256/54 134/255/54 132/260/70
f 123/217/36 131/216/36 130/261/37
f 122/262/37 130/261/37 129/263/65
f 160/264/19 161/309/35 152/265/35
f 154/267/58 163/447/58 164/268/59
f 146/270/17 149/274/17 147/271/17
f 146/270/17 145/280/17 148/273/17
f 149/274/17 143/277/17 142/275/17
f 149/274/17 148/273/17 141/276/17
f 141/276/17 148/273/17 156/278/17
f 142/275/17 87/192/17 89/195/17
f 89/195/17 158/203/17 144/272/17
f 156/278/17 148/273/17 145/280/17
f 109/282/17 139/293/17 150/283/17
f 153/285/17 108/294/17 137/286/17
f 155/288/17 136/281/17 140/289/17
f 157/291/17 107/279/17 156/278/17
f 137/286/17 109/282/17 151/284/17
f 138/292/17 156/278/17 136/281/17
f 139/293/17 107/279/17 157/291/17
f 154/290/17 140/289/17 108/294/17
f 57/295/66 58/147/58 50/149/58
f 209/296/25 210/299/14 56/297/14
f 210/299/14 211/405/13 57/300/13
f 61/301/68 54/433/18 46/24/18
f 166/302/67 167/448/68 157/303/68
f 157/303/68 167/448/68 159/305/18
f 159/305/18 160/264/19 151/266/19
f 155/269/59 164/268/59 166/302/67
f 162/307/66 163/447/58 154/267/58
f 161/309/35 162/307/66 153/308/66
f 87/310/75 142/314/31 111/311/76
f 143/313/62 112/316/62 111/311/76
f 141/315/56 110/318/56 112/316/62
f 141/315/56 107/449/57 101/317/57
f 107/319/57 139/322/24 105/320/24
f 139/322/24 109/325/25 99/323/25
f 137/324/14 103/327/14 99/323/25
f 108/326/13 100/329/13 103/327/14
f 140/328/12 106/331/12 100/329/13
f 136/330/48 102/450/48 106/331/12
f 145/332/49 114/336/49 102/333/48
f 146/335/69 115/338/69 114/336/49
f 144/337/47 113/340/78 115/338/69
f 158/339/77 173/451/4 113/340/78
f 226/341/79 174/452/3 171/342/7
f 172/344/9 169/350/15 229/345/81
f 168/347/6 175/354/1 225/348/83
f 228/343/80 171/342/7 172/344/9
f 169/350/15 170/453/85 231/351/85
f 173/352/4 168/347/6 227/349/84
f 175/354/1 174/452/3 226/341/79
f 170/355/85 173/352/4 232/353/86
f 15/357/12 12/169/11 176/12/11
f 17/358/13 15/357/12 177/14/12
f 221/167/63 192/168/41 133/359/38
f 222/360/87 220/454/55 188/361/55
f 34/363/57 28/455/57 32/364/24
f 222/360/87 187/362/42 190/108/43
f 81/366/70 64/132/54 184/131/54
f 195/367/11 196/170/12 96/171/12
f 165/368/24 193/102/32 185/104/32
f 33/369/12 29/456/48 62/370/48
f 41/371/49 42/204/69 72/205/69
f 30/372/14 27/136/13 35/138/13
f 166/373/10 194/158/10 193/102/32
f 164/375/11 195/367/11 194/158/10
f 163/376/12 196/170/12 195/367/11
f 162/377/13 197/62/13 196/170/12
f 161/378/14 198/163/14 197/62/13
f 160/379/25 97/443/25 198/163/14
f 159/380/24 165/368/24 97/90/25
f 167/374/32 193/102/32 165/368/24
f 205/382/20 203/457/20 204/383/20
f 205/382/20 206/384/20 207/385/20
f 200/387/20 201/389/20 205/382/20
f 202/388/20 203/457/20 205/382/20
f 131/390/12 203/393/12 202/391/13
f 132/392/11 204/394/11 203/393/12
f 134/246/10 206/245/10 204/394/11
f 128/395/25 200/458/25 199/396/24
f 214/397/17 215/459/17 213/398/17
f 216/400/17 215/459/17 214/397/17
f 209/402/17 208/401/17 214/397/17
f 214/397/17 212/399/17 211/404/17
f 211/405/13 212/407/12 58/406/12
f 212/407/12 213/409/11 59/408/11
f 213/409/11 215/186/10 60/187/10
f 208/410/24 209/460/25 55/411/25
