# Blender 5.0.1
# www.blender.org
mtllib bucket_cyl_barrel.mtl
o Piston.010
v -0.012657 0.000209 -0.061771
v -0.012664 0.020122 -0.061755
v 0.000762 0.034699 -0.056076
v 0.019106 0.040035 -0.048330
v 0.037454 0.034699 -0.040593
v 0.050890 0.020122 -0.034938
v 0.255092 0.000743 -0.607590
v 0.050896 0.000209 -0.034954
v 0.050903 -0.019703 -0.034970
v 0.037478 -0.034280 -0.040649
v 0.019133 -0.039616 -0.048394
v 0.000785 -0.034280 -0.056132
v -0.012650 -0.019703 -0.061787
v 0.019127 -0.019703 -0.048378
v 0.019113 0.020122 -0.048346
v -0.015164 0.021689 -0.062808
v -0.020460 0.000209 -0.065063
v -0.000683 0.037413 -0.056683
v 0.019105 0.043168 -0.048327
v 0.038897 0.037413 -0.039981
v 0.053389 0.021689 -0.033881
v 0.058699 0.000209 -0.031661
v 0.053404 -0.021270 -0.033916
v 0.038922 -0.036994 -0.040042
v 0.019134 -0.042750 -0.048397
v -0.000657 -0.036994 -0.056743
v -0.015150 -0.021270 -0.062843
v -0.004731 0.020068 0.008161
v -0.011435 0.020053 0.024049
v 0.033750 0.020083 0.005681
v 0.006250 0.020057 0.026496
v 0.022789 0.020068 0.019773
v 0.033764 -0.019742 0.005649
v -0.011422 -0.019772 0.024017
v 0.022802 -0.019757 0.019741
v 0.006263 -0.019768 0.026464
v -0.011428 0.000140 0.024033
v 0.033757 0.000171 0.005665
v 0.006256 0.000144 0.026480
v 0.022795 0.000155 0.019757
v -0.004717 -0.019757 0.008129
v -0.029790 -0.019742 -0.021168
v -0.025513 -0.019768 0.013056
v -0.032237 -0.019757 -0.003483
v -0.029796 0.000171 -0.021152
v 0.001987 -0.019742 -0.007760
v -0.032243 0.000156 -0.003467
v -0.025520 0.000144 0.013072
v -0.029803 0.020083 -0.021136
v 0.001973 0.020083 -0.007727
v -0.032250 0.020068 -0.003451
v -0.025527 0.020057 0.013088
v 0.215513 0.000743 -0.624291
v 0.220808 0.022223 -0.622036
v 0.235290 0.037947 -0.615910
v 0.255078 0.043702 -0.607555
v 0.274870 0.037946 -0.599209
v 0.289362 0.022222 -0.593109
v 0.294672 0.000743 -0.590889
v 0.289377 -0.020737 -0.593144
v 0.274895 -0.036461 -0.599269
v 0.255107 -0.042216 -0.607625
v 0.235315 -0.036460 -0.615970
v 0.220823 -0.020736 -0.622071
vn -0.9213 -0.0000 -0.3888
vn -0.7981 0.5000 -0.3363
vn -0.4610 0.8660 -0.1937
vn -0.0003 1.0000 0.0008
vn 0.4604 0.8660 0.1951
vn 0.7977 0.5000 0.3371
vn 0.9213 -0.0000 0.3888
vn 0.7981 -0.5000 0.3363
vn 0.4610 -0.8660 0.1937
vn 0.0003 -1.0000 -0.0008
vn -0.4604 -0.8660 -0.1951
vn -0.3888 -0.0009 0.9213
vn -0.7977 -0.5000 -0.3371
vn -0.9642 -0.0001 -0.2652
vn -0.9923 -0.0004 0.1240
vn -0.7974 -0.0008 0.6035
vn 0.8627 -0.0001 0.5057
vn 0.6035 -0.0004 0.7973
vn 0.6035 -0.0004 0.7974
vn 0.1240 -0.0008 0.9923
vn 0.3888 0.0009 -0.9213
vt 0.916308 0.859039
vt 0.912685 0.760148
vt 0.916308 0.760148
vt 0.912685 0.859039
vt 0.909062 0.760148
vt 0.909062 0.859039
vt 0.905439 0.760148
vt 0.901816 0.859039
vt 0.901816 0.760148
vt 0.898193 0.760148
vt 0.898193 0.859039
vt 0.894570 0.760148
vt 0.894570 0.859039
vt 0.890947 0.760148
vt 0.890947 0.859039
vt 0.887324 0.760148
vt 0.883701 0.859039
vt 0.883701 0.760148
vt 0.880078 0.859039
vt 0.880078 0.760148
vt 0.227048 0.690076
vt 0.231021 0.689461
vt 0.229342 0.692370
vt 0.876455 0.760148
vt 0.876455 0.859039
vt 0.872832 0.760148
vt 0.222459 0.685488
vt 0.218486 0.686102
vt 0.220165 0.683194
vt 0.226433 0.694049
vt 0.223074 0.694049
vt 0.223074 0.681514
vt 0.226433 0.681514
vt 0.229703 0.682833
vt 0.228727 0.683808
vt 0.226565 0.681021
vt 0.222942 0.681021
vt 0.219804 0.682833
vt 0.218486 0.689461
vt 0.217993 0.685970
vt 0.219805 0.692731
vt 0.217993 0.689593
vt 0.220780 0.691755
vt 0.222942 0.694542
vt 0.226565 0.694542
vt 0.229703 0.692731
vt 0.231021 0.686102
vt 0.231514 0.689593
vt 0.231514 0.685970
vt 0.698671 0.701108
vt 0.703537 0.703918
vt 0.698671 0.703918
vt 0.693805 0.703918
vt 0.693052 0.701108
vt 0.350181 0.693797
vt 0.355048 0.696607
vt 0.350181 0.696607
vt 0.345315 0.696607
vt 0.344562 0.693797
vt 0.537356 0.948117
vt 0.534112 0.945209
vt 0.537356 0.945209
vt 0.534112 0.942300
vt 0.537356 0.942300
vt 0.537356 0.939391
vt 0.537356 0.930665
vt 0.534112 0.933574
vt 0.534112 0.930665
vt 0.537356 0.933574
vt 0.534112 0.936482
vt 0.537356 0.936482
vt 0.534112 0.939391
vt 0.530868 0.930665
vt 0.530868 0.933574
vt 0.530868 0.936482
vt 0.530868 0.939391
vt 0.530868 0.948117
vt 0.534112 0.948117
vt 0.530868 0.945209
vt 0.695861 0.705974
vt 0.355801 0.686614
vt 0.350181 0.686614
vt 0.537356 0.923482
vt 0.534112 0.923482
vt 0.530868 0.923482
vt 0.352991 0.698663
vt 0.350181 0.699416
vt 0.344562 0.686614
vt 0.698671 0.693925
vt 0.693052 0.693925
vt 0.530868 0.955300
vt 0.534112 0.955300
vt 0.347372 0.698663
vt 0.704290 0.693925
vt 0.537356 0.955300
vt 0.701481 0.705974
vt 0.698671 0.706727
vt 0.283241 0.690219
vt 0.278292 0.685270
vt 0.281430 0.683458
vt 0.285053 0.683458
vt 0.288190 0.685270
vt 0.290002 0.688407
vt 0.290002 0.692030
vt 0.288190 0.695168
vt 0.285053 0.696979
vt 0.281430 0.696979
vt 0.278292 0.695168
vt 0.276480 0.692030
vt 0.276480 0.688407
vt 0.905439 0.859039
vt 0.887324 0.859039
vt 0.872832 0.859039
vt 0.704290 0.701108
vt 0.355801 0.693797
vt 0.530868 0.942300
s 1
usemtl Excavator
f 17/1/1 54/2/2 53/3/1
f 16/4/2 55/5/3 54/2/2
f 18/6/3 56/7/4 55/5/3
f 56/7/4 20/8/5 57/9/5
f 20/8/5 58/10/6 57/9/5
f 21/11/6 59/12/7 58/10/6
f 22/13/7 60/14/8 59/12/7
f 23/15/8 61/16/9 60/14/8
f 61/16/9 25/17/10 62/18/10
f 62/18/10 26/19/11 63/20/11
f 14/21/12 12/22/12 11/23/12
f 26/19/11 64/24/13 63/20/11
f 27/25/13 53/26/1 64/24/13
f 15/27/12 5/28/12 4/29/12
f 14/21/12 10/30/12 9/31/12
f 3/32/12 15/27/12 4/29/12
f 2/33/12 17/34/12 1/35/12
f 3/32/12 16/36/12 2/33/12
f 4/29/12 18/37/12 3/32/12
f 5/28/12 19/38/12 4/29/12
f 6/39/12 20/40/12 5/28/12
f 6/39/12 22/41/12 21/42/12
f 9/31/12 22/41/12 8/43/12
f 10/30/12 23/44/12 9/31/12
f 11/23/12 24/45/12 10/30/12
f 12/22/12 25/46/12 11/23/12
f 13/47/12 26/48/12 12/22/12
f 13/47/12 17/34/12 27/49/12
f 50/50/4 51/51/4 28/52/4
f 50/50/4 32/53/4 30/54/4
f 46/55/10 35/56/10 41/57/10
f 46/55/10 44/58/10 42/59/10
f 49/60/14 47/61/15 51/62/15
f 51/62/15 48/63/16 52/64/16
f 48/63/16 29/65/12 52/64/16
f 30/66/17 40/67/18 38/68/17
f 32/69/19 39/70/20 40/67/18
f 31/71/20 37/72/12 39/70/20
f 33/73/17 40/67/18 35/74/19
f 35/74/19 39/70/20 36/75/20
f 36/75/20 37/72/12 34/76/12
f 42/77/14 47/61/15 45/78/14
f 44/79/15 48/63/16 47/61/15
f 48/63/16 34/76/12 37/72/12
f 28/52/4 31/80/4 32/53/4
f 9/81/10 46/55/10 14/82/10
f 6/83/7 38/68/17 8/84/7
f 8/84/7 33/73/17 9/85/7
f 41/57/10 36/86/10 34/87/10
f 14/82/10 42/59/10 13/88/10
f 15/89/4 30/54/4 6/90/4
f 13/91/1 45/78/14 1/92/1
f 41/57/10 43/93/10 44/58/10
f 2/94/4 50/50/4 15/89/4
f 1/92/1 49/60/14 2/95/1
f 28/52/4 52/96/4 29/97/4
f 7/98/21 53/99/21 54/100/21
f 7/98/21 54/100/21 55/101/21
f 7/98/21 55/101/21 56/102/21
f 7/98/21 56/102/21 57/103/21
f 7/98/21 57/103/21 58/104/21
f 7/98/21 58/104/21 59/105/21
f 7/98/21 59/105/21 60/106/21
f 7/98/21 60/106/21 61/107/21
f 7/98/21 61/107/21 62/108/21
f 7/98/21 62/108/21 63/109/21
f 7/98/21 63/109/21 64/110/21
f 7/98/21 64/110/21 53/99/21
f 17/1/1 16/4/2 54/2/2
f 16/4/2 18/6/3 55/5/3
f 18/6/3 19/111/4 56/7/4
f 56/7/4 19/111/4 20/8/5
f 20/8/5 21/11/6 58/10/6
f 21/11/6 22/13/7 59/12/7
f 22/13/7 23/15/8 60/14/8
f 23/15/8 24/112/9 61/16/9
f 61/16/9 24/112/9 25/17/10
f 62/18/10 25/17/10 26/19/11
f 14/21/12 13/47/12 12/22/12
f 26/19/11 27/25/13 64/24/13
f 27/25/13 17/113/1 53/26/1
f 15/27/12 6/39/12 5/28/12
f 14/21/12 11/23/12 10/30/12
f 3/32/12 2/33/12 15/27/12
f 2/33/12 16/36/12 17/34/12
f 3/32/12 18/37/12 16/36/12
f 4/29/12 19/38/12 18/37/12
f 5/28/12 20/40/12 19/38/12
f 6/39/12 21/42/12 20/40/12
f 6/39/12 8/43/12 22/41/12
f 9/31/12 23/44/12 22/41/12
f 10/30/12 24/45/12 23/44/12
f 11/23/12 25/46/12 24/45/12
f 12/22/12 26/48/12 25/46/12
f 13/47/12 27/49/12 26/48/12
f 13/47/12 1/35/12 17/34/12
f 50/50/4 49/114/4 51/51/4
f 50/50/4 28/52/4 32/53/4
f 46/55/10 33/115/10 35/56/10
f 46/55/10 41/57/10 44/58/10
f 49/60/14 45/78/14 47/61/15
f 51/62/15 47/61/15 48/63/16
f 48/63/16 37/72/12 29/65/12
f 30/66/17 32/69/19 40/67/18
f 32/69/19 31/71/20 39/70/20
f 31/71/20 29/65/12 37/72/12
f 33/73/17 38/68/17 40/67/18
f 35/74/19 40/67/18 39/70/20
f 36/75/20 39/70/20 37/72/12
f 42/77/14 44/79/15 47/61/15
f 44/79/15 43/116/16 48/63/16
f 48/63/16 43/116/16 34/76/12
f 28/52/4 29/97/4 31/80/4
f 9/81/10 33/115/10 46/55/10
f 6/83/7 30/66/17 38/68/17
f 8/84/7 38/68/17 33/73/17
f 41/57/10 35/56/10 36/86/10
f 14/82/10 46/55/10 42/59/10
f 15/89/4 50/50/4 30/54/4
f 13/91/1 42/77/14 45/78/14
f 41/57/10 34/87/10 43/93/10
f 2/94/4 49/114/4 50/50/4
f 1/92/1 45/78/14 49/60/14
f 28/52/4 51/51/4 52/96/4
