# Blender 5.0.1
# www.blender.org
mtllib bucket_cyl_rod.mtl
o Piston.011
v -0.289289 0.001798 0.628809
v -0.025212 0.012311 0.010780
v -0.286459 0.013238 0.629986
v -0.017492 0.020685 0.014025
v -0.278738 0.021612 0.633230
v -0.006951 0.023750 0.018468
v -0.268197 0.024677 0.637673
v -0.257659 0.021612 0.642124
v -0.249948 0.013238 0.645390
v -0.247130 0.001799 0.646596
v 0.011286 -0.010568 0.026213
v -0.249960 -0.009641 0.645419
v 0.003566 -0.018942 0.022969
v -0.257680 -0.018015 0.642174
v -0.268222 -0.021080 0.637731
v -0.278760 -0.018015 0.633281
v -0.286471 -0.009641 0.630015
v 0.009954 0.000871 0.025634
v 0.009960 0.011472 0.025621
v 0.002814 0.019232 0.022594
v -0.006952 0.022073 0.018470
v -0.016720 0.019232 0.014353
v -0.023874 0.011472 0.011346
v -0.023880 0.000871 0.011360
v -0.023886 -0.009730 0.011373
v -0.016740 -0.017490 0.014400
v -0.006974 -0.020330 0.018524
v 0.002794 -0.017490 0.022641
v 0.009949 -0.009729 0.025648
v -0.006969 -0.009730 0.018510
v -0.006957 0.011472 0.018483
v 0.011291 0.012306 0.026181
v 0.014108 0.000871 0.027387
v 0.003583 0.020677 0.022917
v -0.028034 0.000871 0.009607
v -0.025217 -0.010564 0.010812
v -0.017509 -0.018935 0.014077
v -0.006975 -0.021999 0.018526
v 0.005735 0.011427 -0.011599
v 0.009304 0.011414 -0.020058
v -0.014751 0.011440 -0.010278
v -0.000111 0.011418 -0.021360
v -0.008916 0.011427 -0.017781
v -0.014762 -0.009762 -0.010251
v 0.009292 -0.009787 -0.020031
v -0.008927 -0.009775 -0.017754
v -0.000123 -0.009784 -0.021333
v 0.009298 0.000814 -0.020045
v -0.014757 0.000839 -0.010265
v -0.000117 0.000817 -0.021347
v -0.008922 0.000826 -0.017767
v 0.005724 -0.009775 -0.011573
v 0.019072 -0.009762 0.004023
v 0.016795 -0.009784 -0.014196
v 0.020374 -0.009775 -0.005391
v 0.019078 0.000839 0.004010
v 0.002155 -0.009762 -0.003114
v 0.020380 0.000826 -0.005405
v 0.016800 0.000817 -0.014209
v 0.019083 0.011440 0.003997
v 0.002166 0.011440 -0.003141
v 0.020386 0.011427 -0.005418
v 0.016806 0.011418 -0.014223
vn -0.9214 -0.0004 -0.3887
vn -0.7976 0.5000 -0.3373
vn -0.7978 0.4997 -0.3374
vn -0.4602 0.8660 -0.1955
vn 0.0009 1.0000 -0.0011
vn 0.0005 1.0000 -0.0013
vn 0.4614 0.8658 0.1934
vn 0.4611 0.8660 0.1932
vn 0.7982 0.5000 0.3360
vn 0.9214 0.0004 0.3887
vn 0.9214 -0.0000 0.3887
vn 0.7978 -0.4997 0.3373
vn 0.7976 -0.5000 0.3373
vn 0.4599 -0.8662 0.1953
vn 0.4602 -0.8660 0.1955
vn -0.0009 -1.0000 0.0011
vn -0.0005 -1.0000 0.0013
vn -0.4611 -0.8660 -0.1933
vn -0.7982 -0.5000 -0.3360
vn -0.9213 -0.0000 -0.3887
vn 0.3887 -0.0014 -0.9214
vn 0.9642 -0.0002 0.2651
vn 0.9923 -0.0007 -0.1240
vn 0.7973 -0.0012 -0.6035
vn 0.7973 -0.0012 -0.6036
vn -0.8627 -0.0002 -0.5057
vn -0.6036 -0.0007 -0.7973
vn -0.6035 -0.0007 -0.7973
vn -0.1240 -0.0012 -0.9923
vn -0.9214 -0.0000 -0.3887
vt 0.865130 0.762625
vt 0.863196 0.872442
vt 0.863195 0.762625
vt 0.861260 0.762625
vt 0.861261 0.872442
vt 0.859324 0.762625
vt 0.859326 0.872442
vt 0.857390 0.762625
vt 0.857391 0.872442
vt 0.855455 0.762625
vt 0.855456 0.872443
vt 0.853521 0.762625
vt 0.853521 0.872443
vt 0.851586 0.762625
vt 0.851585 0.872443
vt 0.849651 0.762625
vt 0.849650 0.872442
vt 0.847716 0.762625
vt 0.847715 0.872442
vt 0.845782 0.762625
vt 0.845780 0.872442
vt 0.843847 0.762625
vt 0.841909 0.872442
vt 0.841913 0.762625
vt 0.068275 0.450894
vt 0.068603 0.453016
vt 0.067050 0.452119
vt 0.070725 0.448444
vt 0.070397 0.446323
vt 0.071950 0.447219
vt 0.066154 0.450566
vt 0.066154 0.448773
vt 0.072846 0.448773
vt 0.072846 0.450566
vt 0.072143 0.452312
vt 0.071622 0.451791
vt 0.073110 0.450636
vt 0.073110 0.448702
vt 0.072144 0.447026
vt 0.068603 0.446323
vt 0.070468 0.446058
vt 0.066858 0.447027
vt 0.068532 0.446058
vt 0.067379 0.447548
vt 0.065890 0.448702
vt 0.066858 0.452312
vt 0.065890 0.450636
vt 0.070468 0.453280
vt 0.068532 0.453280
vt 0.070397 0.453016
vt 0.467339 0.332470
vt 0.464741 0.330969
vt 0.467339 0.330969
vt 0.469937 0.330969
vt 0.470339 0.332470
vt 0.157841 0.454319
vt 0.155243 0.452819
vt 0.157841 0.452819
vt 0.160439 0.452819
vt 0.160841 0.454319
vt 0.824408 0.971391
vt 0.822675 0.972944
vt 0.822675 0.971391
vt 0.824408 0.972944
vt 0.822675 0.974497
vt 0.824408 0.974497
vt 0.822675 0.976050
vt 0.822675 0.980709
vt 0.824408 0.979156
vt 0.824408 0.980709
vt 0.822675 0.979156
vt 0.824408 0.977603
vt 0.822675 0.977603
vt 0.824408 0.976050
vt 0.826140 0.980709
vt 0.826140 0.979156
vt 0.826140 0.977603
vt 0.826140 0.976050
vt 0.826140 0.971391
vt 0.826140 0.972944
vt 0.468839 0.329871
vt 0.154841 0.458154
vt 0.157841 0.458154
vt 0.822675 0.984544
vt 0.824408 0.984544
vt 0.826140 0.984544
vt 0.156341 0.451721
vt 0.157841 0.451319
vt 0.160841 0.458154
vt 0.470339 0.336305
vt 0.826140 0.967556
vt 0.824408 0.967556
vt 0.159341 0.451721
vt 0.464339 0.336305
vt 0.467339 0.336305
vt 0.822675 0.967556
vt 0.465839 0.329871
vt 0.467339 0.329469
vt 0.865132 0.872442
vt 0.843845 0.872442
vt 0.464339 0.332470
vt 0.154841 0.454319
vt 0.826140 0.974497
s 1
usemtl Excavator
f 35/1/1 3/2/2 2/3/3
f 3/2/2 4/4/4 2/3/3
f 5/5/4 6/6/5 4/4/4
f 7/7/6 34/8/7 6/6/5
f 8/9/8 32/10/9 34/8/7
f 9/11/9 33/12/10 32/10/9
f 10/13/11 11/14/12 33/12/10
f 12/15/13 13/16/14 11/14/12
f 14/17/15 38/18/16 13/16/14
f 15/19/17 37/20/18 38/18/16
f 16/21/18 36/22/19 37/20/18
f 36/22/19 1/23/20 35/24/1
f 30/25/21 28/26/21 27/27/21
f 31/28/21 22/29/21 21/30/21
f 30/25/21 26/31/21 25/32/21
f 20/33/21 31/28/21 21/30/21
f 19/34/21 33/35/21 18/36/21
f 20/33/21 32/37/21 19/34/21
f 21/30/21 34/38/21 20/33/21
f 22/29/21 6/39/21 21/30/21
f 23/40/21 4/41/21 22/29/21
f 23/40/21 35/42/21 2/43/21
f 25/32/21 35/42/21 24/44/21
f 26/31/21 36/45/21 25/32/21
f 26/31/21 38/46/21 37/47/21
f 28/26/21 38/46/21 27/27/21
f 28/26/21 11/48/21 13/49/21
f 29/50/21 33/35/21 11/48/21
f 61/51/6 62/52/6 39/53/6
f 61/51/6 43/54/6 41/55/6
f 57/56/17 46/57/17 52/58/17
f 57/56/17 55/59/17 53/60/17
f 56/61/22 62/62/23 60/63/22
f 58/64/23 63/65/24 62/62/23
f 59/66/25 40/67/21 63/65/24
f 41/68/26 51/69/27 49/70/26
f 43/71/28 50/72/29 51/69/27
f 42/73/29 48/74/21 50/72/29
f 44/75/26 51/69/27 46/76/28
f 46/76/28 50/72/29 47/77/29
f 47/77/29 48/74/21 45/78/21
f 53/79/22 58/64/23 56/61/22
f 55/80/23 59/66/25 58/64/23
f 59/66/25 45/78/21 48/74/21
f 39/53/6 42/81/6 43/54/6
f 25/82/17 57/56/17 30/83/17
f 23/84/30 49/70/26 24/85/30
f 24/85/30 44/75/26 25/86/30
f 52/58/17 47/87/17 45/88/17
f 29/89/17 57/56/17 53/60/17
f 23/90/6 61/51/6 41/55/6
f 29/91/11 56/61/22 18/92/11
f 52/58/17 54/93/17 55/59/17
f 19/94/6 61/51/6 31/95/6
f 18/92/11 60/63/22 19/96/11
f 39/53/6 63/97/6 40/98/6
f 35/1/1 1/99/20 3/2/2
f 3/2/2 5/5/4 4/4/4
f 5/5/4 7/7/6 6/6/5
f 7/7/6 8/9/8 34/8/7
f 8/9/8 9/11/9 32/10/9
f 9/11/9 10/13/11 33/12/10
f 10/13/11 12/15/13 11/14/12
f 12/15/13 14/17/15 13/16/14
f 14/17/15 15/19/17 38/18/16
f 15/19/17 16/21/18 37/20/18
f 16/21/18 17/100/19 36/22/19
f 36/22/19 17/100/19 1/23/20
f 30/25/21 29/50/21 28/26/21
f 31/28/21 23/40/21 22/29/21
f 30/25/21 27/27/21 26/31/21
f 20/33/21 19/34/21 31/28/21
f 19/34/21 32/37/21 33/35/21
f 20/33/21 34/38/21 32/37/21
f 21/30/21 6/39/21 34/38/21
f 22/29/21 4/41/21 6/39/21
f 23/40/21 2/43/21 4/41/21
f 23/40/21 24/44/21 35/42/21
f 25/32/21 36/45/21 35/42/21
f 26/31/21 37/47/21 36/45/21
f 26/31/21 27/27/21 38/46/21
f 28/26/21 13/49/21 38/46/21
f 28/26/21 29/50/21 11/48/21
f 29/50/21 18/36/21 33/35/21
f 61/51/6 60/101/6 62/52/6
f 61/51/6 39/53/6 43/54/6
f 57/56/17 44/102/17 46/57/17
f 57/56/17 52/58/17 55/59/17
f 56/61/22 58/64/23 62/62/23
f 58/64/23 59/66/25 63/65/24
f 59/66/25 48/74/21 40/67/21
f 41/68/26 43/71/28 51/69/27
f 43/71/28 42/73/29 50/72/29
f 42/73/29 40/67/21 48/74/21
f 44/75/26 49/70/26 51/69/27
f 46/76/28 51/69/27 50/72/29
f 47/77/29 50/72/29 48/74/21
f 53/79/22 55/80/23 58/64/23
f 55/80/23 54/103/25 59/66/25
f 59/66/25 54/103/25 45/78/21
f 39/53/6 40/98/6 42/81/6
f 25/82/17 44/102/17 57/56/17
f 23/84/30 41/68/26 49/70/26
f 24/85/30 49/70/26 44/75/26
f 52/58/17 46/57/17 47/87/17
f 29/89/17 30/83/17 57/56/17
f 23/90/6 31/95/6 61/51/6
f 29/91/11 53/79/22 56/61/22
f 52/58/17 45/88/17 54/93/17
f 19/94/6 60/101/6 61/51/6
f 18/92/11 56/61/22 60/63/22
f 39/53/6 62/52/6 63/97/6
