# Blender 5.0.1
# www.blender.org
mtllib stick_cyl_barrel.mtl
o Piston.008
v 0.099836 0.029925 -0.045458
v 0.098423 0.051820 -0.023609
v 0.094573 0.051820 0.036086
v 0.093167 0.029925 0.057936
v 0.679828 0.000107 0.043865
v 0.093176 -0.029894 0.057937
v 0.094589 -0.051789 0.036087
v 0.099593 -0.000004 -0.041624
v 0.099589 0.027717 -0.041625
v 0.098280 0.048011 -0.021373
v 0.096494 0.055439 0.006291
v 0.094711 0.048011 0.033955
v 0.093408 0.027717 0.054206
v 0.093412 -0.000004 0.054207
v 0.093416 -0.027726 0.054207
v 0.094726 -0.048019 0.033956
v 0.096511 -0.055447 0.006292
v 0.098295 -0.048019 -0.021372
v 0.099598 -0.027726 -0.041624
v 0.096507 -0.027726 0.006291
v 0.096498 0.027717 0.006291
v 0.100352 -0.000004 -0.053390
v 0.096493 0.059801 0.006291
v 0.092653 -0.000004 0.065973
v 0.096512 -0.059810 0.006292
v 0.098436 -0.051797 -0.023549
v 0.099841 -0.029907 -0.045394
v -0.018181 0.027699 -0.001106
v -0.042139 0.027695 -0.002652
v 0.002686 0.027703 0.048354
v -0.037265 0.027696 0.021720
v -0.020858 0.027699 0.040390
v 0.002695 -0.027740 0.048355
v -0.042130 -0.027748 -0.002651
v -0.020849 -0.027744 0.040390
v -0.037256 -0.027747 0.021721
v -0.042134 -0.000026 -0.002651
v 0.002690 -0.000018 0.048355
v -0.037260 -0.000025 0.021720
v -0.020853 -0.000022 0.040390
v -0.018172 -0.027744 -0.001106
v 0.008876 -0.027740 -0.047476
v -0.034165 -0.027747 -0.026195
v -0.015496 -0.027744 -0.042602
v 0.008872 -0.000019 -0.047476
v 0.005785 -0.027740 0.000440
v -0.015500 -0.000022 -0.042602
v -0.034170 -0.000025 -0.026195
v 0.008867 0.027703 -0.047477
v 0.005777 0.027703 0.000439
v -0.015504 0.027699 -0.042602
v -0.034174 0.027696 -0.026195
v 0.683679 0.000107 -0.015829
v 0.683158 0.030017 -0.007832
v 0.681745 0.051912 0.014018
v 0.679819 0.059926 0.043865
v 0.677895 0.051912 0.073712
v 0.676489 0.030017 0.095562
v 0.675978 0.000107 0.103560
v 0.676498 -0.029802 0.095563
v 0.677911 -0.051697 0.073713
v 0.679837 -0.059711 0.043866
v 0.681761 -0.051697 0.014019
v 0.683167 -0.029802 -0.007831
vn 0.0643 -0.0000 -0.9979
vn 0.0556 0.4991 -0.8648
vn 0.0557 0.5000 -0.8642
vn 0.0320 0.8660 -0.4990
vn 0.0320 0.8664 -0.4984
vn -0.0002 1.0000 -0.0000
vn -0.0002 1.0000 0.0004
vn -0.0323 0.8660 0.4989
vn -0.0323 0.8662 0.4987
vn -0.0558 0.5000 0.8642
vn -0.0558 0.5004 0.8640
vn -0.0643 -0.0000 0.9979
vn -0.0643 -0.0001 0.9979
vn -0.0556 -0.5000 0.8642
vn -0.0556 -0.5006 0.8639
vn -0.0320 -0.8660 0.4990
vn 0.0001 -1.0000 0.0003
vn 0.0002 -1.0000 -0.0000
vn 0.0323 -0.8660 -0.4989
vn 0.0323 -0.8660 -0.4990
vn 0.0557 -0.5000 -0.8642
vn 0.0643 -0.0011 -0.9979
vn -0.9979 -0.0002 -0.0644
vn -0.9979 -0.0001 -0.0644
vn -0.0664 -0.0000 -0.9978
vn -0.4432 -0.0001 -0.8964
vn -0.8320 -0.0001 -0.5547
vn -0.1941 -0.0000 0.9810
vn -0.5547 -0.0001 0.8320
vn -0.8964 -0.0001 0.4432
vn -0.0644 -0.0000 0.9979
vn 0.0644 -0.0000 -0.9979
vn 0.9979 0.0002 0.0644
vn -0.0321 -0.8659 0.4992
vt 0.215674 0.836525
vt 0.210672 0.930930
vt 0.210673 0.836525
vt 0.205672 0.836525
vt 0.205671 0.930930
vt 0.200671 0.836525
vt 0.200663 0.930930
vt 0.195670 0.836525
vt 0.195672 0.930930
vt 0.190669 0.836525
vt 0.190671 0.930930
vt 0.185668 0.836526
vt 0.185666 0.930930
vt 0.180667 0.836525
vt 0.180666 0.930930
vt 0.175667 0.836525
vt 0.170672 0.930930
vt 0.170666 0.836525
vt 0.165672 0.930930
vt 0.165665 0.836525
vt 0.160673 0.930930
vt 0.160664 0.836525
vt 0.155673 0.930930
vt 0.155663 0.836525
vt 0.690815 0.018212
vt 0.696299 0.017364
vt 0.693981 0.021378
vt 0.684484 0.011880
vt 0.679000 0.012729
vt 0.681318 0.008715
vt 0.689967 0.023695
vt 0.685332 0.023695
vt 0.685332 0.006397
vt 0.689967 0.006397
vt 0.694479 0.008216
vt 0.693133 0.009563
vt 0.685153 0.005706
vt 0.690154 0.005706
vt 0.680820 0.008216
vt 0.678322 0.012538
vt 0.678322 0.017539
vt 0.679000 0.017364
vt 0.680820 0.021876
vt 0.682166 0.020530
vt 0.685153 0.024370
vt 0.690154 0.024370
vt 0.694479 0.021876
vt 0.696299 0.012729
vt 0.696979 0.017546
vt 0.696979 0.012546
vt 0.601493 0.019052
vt 0.608209 0.022930
vt 0.601493 0.022930
vt 0.594777 0.022930
vt 0.593738 0.019052
vt 0.628300 0.019052
vt 0.635016 0.022930
vt 0.628300 0.022930
vt 0.621584 0.022930
vt 0.620545 0.019052
vt 0.083651 0.419387
vt 0.088129 0.423401
vt 0.083651 0.423401
vt 0.088129 0.427415
vt 0.083651 0.427415
vt 0.083651 0.431429
vt 0.083651 0.443472
vt 0.088129 0.439458
vt 0.088129 0.443472
vt 0.083651 0.439458
vt 0.088129 0.435444
vt 0.083651 0.435444
vt 0.088129 0.431430
vt 0.092606 0.443472
vt 0.092606 0.439458
vt 0.092606 0.435444
vt 0.092606 0.431429
vt 0.092606 0.419387
vt 0.088129 0.419387
vt 0.092606 0.423401
vt 0.597616 0.025768
vt 0.636054 0.004370
vt 0.628300 0.004370
vt 0.083651 0.458154
vt 0.088129 0.458154
vt 0.092606 0.458154
vt 0.632177 0.025768
vt 0.628300 0.026807
vt 0.620545 0.004370
vt 0.593738 0.004370
vt 0.092606 0.404705
vt 0.088129 0.404705
vt 0.624423 0.025768
vt 0.609248 0.004370
vt 0.601493 0.004370
vt 0.083651 0.404705
vt 0.605370 0.025768
vt 0.601493 0.026807
vt 0.670589 0.599916
vt 0.663757 0.593084
vt 0.668088 0.590584
vt 0.673089 0.590584
vt 0.677420 0.593084
vt 0.679920 0.597415
vt 0.679920 0.602416
vt 0.677420 0.606747
vt 0.673089 0.609248
vt 0.668088 0.609248
vt 0.663757 0.606747
vt 0.661257 0.602416
vt 0.661257 0.597415
vt 0.215673 0.930930
vt 0.175665 0.930930
vt 0.609248 0.019052
vt 0.636054 0.019052
vt 0.092606 0.427415
s 1
usemtl Excavator
f 53/1/1 1/2/2 54/3/3
f 1/2/2 55/4/4 54/3/3
f 2/5/5 56/6/6 55/4/4
f 23/7/7 57/8/8 56/6/6
f 3/9/9 58/10/10 57/8/8
f 4/11/11 59/12/12 58/10/10
f 24/13/13 60/14/14 59/12/12
f 6/15/15 61/16/16 60/14/14
f 61/16/16 25/17/17 62/18/18
f 62/18/18 26/19/19 63/20/20
f 63/20/20 27/21/21 64/22/21
f 64/22/21 22/23/22 53/24/1
f 20/25/23 18/26/23 17/27/23
f 21/28/23 12/29/24 11/30/23
f 20/25/23 16/31/23 15/32/23
f 10/33/23 21/28/23 11/30/23
f 9/34/23 22/35/23 8/36/23
f 9/34/23 2/37/23 1/38/23
f 10/33/23 23/39/23 2/37/23
f 11/30/23 3/40/24 23/39/23
f 12/29/24 4/41/24 3/40/24
f 13/42/24 24/43/23 4/41/24
f 15/32/23 24/43/23 14/44/23
f 16/31/23 6/45/23 15/32/23
f 17/27/23 7/46/23 16/31/23
f 18/26/23 25/47/23 17/27/23
f 19/48/23 26/49/23 18/26/23
f 19/48/23 22/35/23 27/50/23
f 50/51/6 51/52/6 28/53/6
f 50/51/6 32/54/6 30/55/6
f 46/56/18 35/57/18 41/58/18
f 46/56/18 44/59/18 42/60/18
f 49/61/25 47/62/26 51/63/26
f 51/63/26 48/64/27 52/65/27
f 48/64/27 29/66/23 52/65/27
f 30/67/28 40/68/29 38/69/28
f 32/70/29 39/71/30 40/68/29
f 31/72/30 37/73/23 39/71/30
f 33/74/28 40/68/29 35/75/29
f 35/75/29 39/71/30 36/76/30
f 36/76/30 37/73/23 34/77/23
f 42/78/25 47/62/26 45/79/25
f 44/80/26 48/64/27 47/62/26
f 48/64/27 34/77/23 37/73/23
f 28/53/6 31/81/6 32/54/6
f 15/82/18 46/56/18 20/83/18
f 13/84/31 38/69/28 14/85/31
f 14/85/31 33/74/28 15/86/31
f 41/58/18 36/87/18 34/88/18
f 19/89/18 46/56/18 42/60/18
f 13/90/6 50/51/6 30/55/6
f 19/91/32 45/79/25 8/92/32
f 41/58/18 43/93/18 44/59/18
f 9/94/6 50/51/6 21/95/6
f 8/92/32 49/61/25 9/96/32
f 28/53/6 52/97/6 29/98/6
f 5/99/33 53/100/33 54/101/33
f 5/99/33 54/101/33 55/102/33
f 5/99/33 55/102/33 56/103/33
f 5/99/33 56/103/33 57/104/33
f 5/99/33 57/104/33 58/105/33
f 5/99/33 58/105/33 59/106/33
f 5/99/33 59/106/33 60/107/33
f 5/99/33 60/107/33 61/108/33
f 5/99/33 61/108/33 62/109/33
f 5/99/33 62/109/33 63/110/33
f 5/99/33 63/110/33 64/111/33
f 5/99/33 64/111/33 53/100/33
f 53/1/1 22/112/22 1/2/2
f 1/2/2 2/5/5 55/4/4
f 2/5/5 23/7/7 56/6/6
f 23/7/7 3/9/9 57/8/8
f 3/9/9 4/11/11 58/10/10
f 4/11/11 24/13/13 59/12/12
f 24/13/13 6/15/15 60/14/14
f 6/15/15 7/113/34 61/16/16
f 61/16/16 7/113/34 25/17/17
f 62/18/18 25/17/17 26/19/19
f 63/20/20 26/19/19 27/21/21
f 64/22/21 27/21/21 22/23/22
f 20/25/23 19/48/23 18/26/23
f 21/28/23 13/42/24 12/29/24
f 20/25/23 17/27/23 16/31/23
f 10/33/23 9/34/23 21/28/23
f 9/34/23 1/38/23 22/35/23
f 9/34/23 10/33/23 2/37/23
f 10/33/23 11/30/23 23/39/23
f 11/30/23 12/29/24 3/40/24
f 12/29/24 13/42/24 4/41/24
f 13/42/24 14/44/23 24/43/23
f 15/32/23 6/45/23 24/43/23
f 16/31/23 7/46/23 6/45/23
f 17/27/23 25/47/23 7/46/23
f 18/26/23 26/49/23 25/47/23
f 19/48/23 27/50/23 26/49/23
f 19/48/23 8/36/23 22/35/23
f 50/51/6 49/114/6 51/52/6
f 50/51/6 28/53/6 32/54/6
f 46/56/18 33/115/18 35/57/18
f 46/56/18 41/58/18 44/59/18
f 49/61/25 45/79/25 47/62/26
f 51/63/26 47/62/26 48/64/27
f 48/64/27 37/73/23 29/66/23
f 30/67/28 32/70/29 40/68/29
f 32/70/29 31/72/30 39/71/30
f 31/72/30 29/66/23 37/73/23
f 33/74/28 38/69/28 40/68/29
f 35/75/29 40/68/29 39/71/30
f 36/76/30 39/71/30 37/73/23
f 42/78/25 44/80/26 47/62/26
f 44/80/26 43/116/27 48/64/27
f 48/64/27 43/116/27 34/77/23
f 28/53/6 29/98/6 31/81/6
f 15/82/18 33/115/18 46/56/18
f 13/84/31 30/67/28 38/69/28
f 14/85/31 38/69/28 33/74/28
f 41/58/18 35/57/18 36/87/18
f 19/89/18 20/83/18 46/56/18
f 13/90/6 21/95/6 50/51/6
f 19/91/32 42/78/25 45/79/25
f 41/58/18 34/88/18 43/93/18
f 9/94/6 49/114/6 50/51/6
f 8/92/32 45/79/25 49/61/25
f 28/53/6 51/52/6 52/97/6
