# Blender 5.0.1
# www.blender.org
mtllib stick_cyl_rod.mtl
o Piston.009
v -0.031844 0.000164 -0.035002
v -0.744674 0.000388 -0.082986
v -0.032125 0.016080 -0.030747
v -0.744956 0.016317 -0.078727
v -0.032903 0.027731 -0.019122
v -0.745735 0.027978 -0.067093
v -0.746802 0.032246 -0.051199
v -0.035038 0.027764 0.012624
v -0.747872 0.027978 -0.035307
v -0.035823 0.016103 0.024259
v -0.748658 0.016317 -0.023672
v -0.748949 0.000388 -0.019414
v -0.035833 -0.015755 0.024258
v -0.748667 -0.015540 -0.023673
v -0.035054 -0.027416 0.012623
v -0.747889 -0.027201 -0.035308
v -0.033987 -0.031684 -0.003270
v -0.746821 -0.031469 -0.051201
v -0.032917 -0.027416 -0.019163
v -0.745751 -0.027201 -0.067094
v -0.032131 -0.015755 -0.030797
v -0.744965 -0.015541 -0.078728
v -0.035694 0.000155 0.022260
v -0.035689 0.014896 0.022260
v -0.034962 0.025688 0.011492
v -0.033972 0.029638 -0.003216
v -0.032984 0.025688 -0.017925
v -0.032263 0.014896 -0.028693
v -0.032268 0.000155 -0.028693
v -0.032272 -0.014587 -0.028693
v -0.032999 -0.025379 -0.017926
v -0.033990 -0.029329 -0.003217
v -0.034977 -0.025379 0.011491
v -0.035698 -0.014587 0.022259
v -0.033985 -0.014587 -0.003217
v -0.033976 0.014896 -0.003216
v -0.036114 0.000155 0.028515
v -0.033971 0.031958 -0.003216
v 0.011327 0.014883 -0.000170
v 0.024065 0.014879 0.000686
v 0.000302 0.014887 -0.026503
v 0.021509 0.014880 -0.012281
v 0.012811 0.014883 -0.022233
v 0.000293 -0.014597 -0.026504
v 0.024056 -0.014605 0.000686
v 0.012802 -0.014601 -0.022234
v 0.021500 -0.014604 -0.012282
v 0.024061 0.000137 0.000686
v 0.000298 0.000145 -0.026503
v 0.021504 0.000138 -0.012282
v 0.012806 0.000141 -0.022234
v 0.011318 -0.014601 -0.000171
v -0.003133 -0.014597 0.024449
v 0.019787 -0.014604 0.013194
v 0.009835 -0.014601 0.021892
v -0.003129 0.000145 0.024449
v -0.001420 -0.014597 -0.001027
v 0.009839 0.000141 0.021893
v 0.019791 0.000138 0.013195
v -0.003124 0.014887 0.024450
v -0.001411 0.014887 -0.001027
v 0.009844 0.014883 0.021893
v 0.019795 0.014880 0.013195
vn 0.0672 -0.0000 -0.9977
vn 0.0583 0.5000 -0.8641
vn 0.0671 0.0015 -0.9977
vn 0.0339 0.8660 -0.4989
vn 0.0338 0.8667 -0.4978
vn 0.0004 1.0000 -0.0000
vn 0.0004 1.0000 -0.0004
vn -0.0332 0.8660 0.4989
vn -0.0332 0.8669 0.4974
vn -0.0580 0.4998 0.8642
vn -0.0671 -0.0000 0.9977
vn -0.0671 -0.0003 0.9977
vn -0.0583 -0.5000 0.8641
vn -0.0582 -0.5001 0.8640
vn -0.0338 -0.8660 0.4989
vn -0.0003 -1.0000 -0.0000
vn 0.0333 -0.8660 -0.4989
vn 0.0580 -0.4987 -0.8648
vn 0.0580 -0.5000 -0.8641
vn 0.9977 -0.0003 0.0671
vn 0.0003 1.0000 -0.0000
vn 0.0637 -0.0000 0.9980
vn 0.4408 -0.0001 0.8976
vn 0.8305 -0.0003 0.5570
vn 0.1968 -0.0000 -0.9805
vn 0.5570 -0.0002 -0.8305
vn 0.1967 -0.0000 -0.9805
vn 0.5570 -0.0001 -0.8305
vn 0.8976 -0.0003 -0.4408
vn 0.4408 -0.0002 0.8976
vn 0.0671 -0.0000 -0.9977
vn -0.0580 0.5000 0.8641
vt 0.425255 0.879753
vt 0.422549 0.762997
vt 0.425242 0.762997
vt 0.419865 0.879754
vt 0.419856 0.762997
vt 0.417170 0.879754
vt 0.417161 0.762997
vt 0.414475 0.879754
vt 0.414478 0.762997
vt 0.411783 0.762997
vt 0.409085 0.879753
vt 0.409085 0.762997
vt 0.406390 0.879753
vt 0.406393 0.762997
vt 0.403698 0.762997
vt 0.403695 0.879753
vt 0.401003 0.762997
vt 0.401000 0.879753
vt 0.398308 0.762997
vt 0.398305 0.879753
vt 0.395613 0.762997
vt 0.395610 0.879753
vt 0.392922 0.762997
vt 0.157524 0.959282
vt 0.160475 0.958826
vt 0.159228 0.960986
vt 0.154117 0.955875
vt 0.151167 0.956331
vt 0.152414 0.954171
vt 0.157068 0.962233
vt 0.154574 0.962233
vt 0.154574 0.952924
vt 0.157068 0.952924
vt 0.159496 0.953903
vt 0.158771 0.954628
vt 0.157160 0.952554
vt 0.154465 0.952554
vt 0.152146 0.953903
vt 0.151167 0.958826
vt 0.150792 0.956234
vt 0.152138 0.961259
vt 0.150792 0.958927
vt 0.152870 0.960529
vt 0.157160 0.962611
vt 0.154465 0.962611
vt 0.159494 0.961264
vt 0.160841 0.958930
vt 0.160841 0.956235
vt 0.160475 0.956331
vt 0.256585 0.348030
vt 0.252971 0.345943
vt 0.256585 0.345943
vt 0.260199 0.345943
vt 0.260758 0.348030
vt 0.351628 0.302888
vt 0.355242 0.304974
vt 0.351628 0.304974
vt 0.348014 0.304974
vt 0.347455 0.302888
vt 0.972359 0.608788
vt 0.969950 0.606628
vt 0.972359 0.606628
vt 0.969950 0.604468
vt 0.972359 0.604468
vt 0.972359 0.602308
vt 0.972359 0.595828
vt 0.969950 0.597988
vt 0.969950 0.595828
vt 0.972359 0.597988
vt 0.969950 0.600148
vt 0.972359 0.600148
vt 0.969950 0.602308
vt 0.967541 0.595828
vt 0.967541 0.597988
vt 0.967541 0.600148
vt 0.967541 0.602308
vt 0.969950 0.608788
vt 0.967541 0.606628
vt 0.258672 0.344416
vt 0.351628 0.297554
vt 0.355801 0.302888
vt 0.972359 0.590494
vt 0.969950 0.590494
vt 0.967541 0.590494
vt 0.353714 0.306502
vt 0.351628 0.307061
vt 0.347455 0.297554
vt 0.256585 0.353364
vt 0.260758 0.353364
vt 0.967541 0.614122
vt 0.969950 0.614122
vt 0.349541 0.306502
vt 0.252412 0.348030
vt 0.972359 0.614122
vt 0.254499 0.344416
vt 0.256585 0.343857
vt 0.422560 0.879753
vt 0.411780 0.879753
vt 0.392915 0.879753
vt 0.967541 0.608788
vt 0.967541 0.604468
vt 0.355801 0.297554
vt 0.252412 0.353364
s 1
usemtl Excavator
f 2/1/1 3/2/2 1/3/3
f 3/2/2 6/4/4 5/5/5
f 5/5/5 7/6/6 38/7/7
f 38/7/7 9/8/8 8/9/9
f 9/8/8 10/10/10 8/9/9
f 10/10/10 12/11/11 37/12/12
f 37/12/12 14/13/13 13/14/14
f 14/13/13 15/15/15 13/14/14
f 16/16/15 17/17/16 15/15/15
f 18/18/16 19/19/17 17/17/16
f 20/20/17 21/21/18 19/19/17
f 22/22/19 1/23/3 21/21/18
f 35/24/20 33/25/20 32/26/20
f 36/27/20 27/28/20 26/29/20
f 35/24/20 31/30/20 30/31/20
f 25/32/20 36/27/20 26/29/20
f 24/33/20 37/34/20 23/35/20
f 25/32/20 10/36/20 24/33/20
f 26/29/20 8/37/20 25/32/20
f 27/28/20 38/38/20 26/29/20
f 28/39/20 5/40/20 27/28/20
f 28/39/20 1/41/20 3/42/20
f 30/31/20 1/41/20 29/43/20
f 30/31/20 19/44/20 21/45/20
f 31/30/20 17/46/20 19/44/20
f 32/26/20 15/47/20 17/46/20
f 33/25/20 13/48/20 15/47/20
f 34/49/20 37/34/20 13/48/20
f 61/50/21 62/51/21 39/52/21
f 61/50/21 43/53/21 41/54/21
f 57/55/16 46/56/16 52/57/16
f 57/55/16 55/58/16 53/59/16
f 60/60/22 58/61/23 62/62/23
f 62/62/23 59/63/24 63/64/24
f 59/63/24 40/65/20 63/64/24
f 41/66/25 51/67/26 49/68/27
f 43/69/28 50/70/29 51/67/26
f 42/71/29 48/72/20 50/70/29
f 44/73/25 51/67/26 46/74/26
f 46/74/26 50/70/29 47/75/29
f 47/75/29 48/72/20 45/76/20
f 56/77/22 55/78/30 58/61/23
f 55/78/30 59/63/24 58/61/23
f 59/63/24 45/76/20 48/72/20
f 39/52/21 42/79/21 43/53/21
f 35/80/16 44/81/16 57/55/16
f 28/82/31 49/68/27 29/83/31
f 29/83/31 44/73/25 30/84/31
f 52/57/16 47/85/16 45/86/16
f 35/80/16 53/59/16 34/87/16
f 36/88/21 41/54/21 28/89/21
f 34/90/11 56/77/22 23/91/11
f 52/57/16 54/92/16 55/58/16
f 36/88/21 60/93/21 61/50/21
f 23/91/11 60/60/22 24/94/11
f 39/52/21 63/95/21 40/96/21
f 2/1/1 4/97/2 3/2/2
f 3/2/2 4/97/2 6/4/4
f 5/5/5 6/4/4 7/6/6
f 38/7/7 7/6/6 9/8/8
f 9/8/8 11/98/32 10/10/10
f 10/10/10 11/98/32 12/11/11
f 37/12/12 12/11/11 14/13/13
f 14/13/13 16/16/15 15/15/15
f 16/16/15 18/18/16 17/17/16
f 18/18/16 20/20/17 19/19/17
f 20/20/17 22/22/19 21/21/18
f 22/22/19 2/99/1 1/23/3
f 35/24/20 34/49/20 33/25/20
f 36/27/20 28/39/20 27/28/20
f 35/24/20 32/26/20 31/30/20
f 25/32/20 24/33/20 36/27/20
f 24/33/20 10/36/20 37/34/20
f 25/32/20 8/37/20 10/36/20
f 26/29/20 38/38/20 8/37/20
f 27/28/20 5/40/20 38/38/20
f 28/39/20 3/42/20 5/40/20
f 28/39/20 29/43/20 1/41/20
f 30/31/20 21/45/20 1/41/20
f 30/31/20 31/30/20 19/44/20
f 31/30/20 32/26/20 17/46/20
f 32/26/20 33/25/20 15/47/20
f 33/25/20 34/49/20 13/48/20
f 34/49/20 23/35/20 37/34/20
f 61/50/21 60/93/21 62/51/21
f 61/50/21 39/52/21 43/53/21
f 57/55/16 44/81/16 46/56/16
f 57/55/16 52/57/16 55/58/16
f 60/60/22 56/77/22 58/61/23
f 62/62/23 58/61/23 59/63/24
f 59/63/24 48/72/20 40/65/20
f 41/66/25 43/69/28 51/67/26
f 43/69/28 42/71/29 50/70/29
f 42/71/29 40/65/20 48/72/20
f 44/73/25 49/68/27 51/67/26
f 46/74/26 51/67/26 50/70/29
f 47/75/29 50/70/29 48/72/20
f 56/77/22 53/100/22 55/78/30
f 55/78/30 54/101/24 59/63/24
f 59/63/24 54/101/24 45/76/20
f 39/52/21 40/96/21 42/79/21
f 35/80/16 30/102/16 44/81/16
f 28/82/31 41/66/25 49/68/27
f 29/83/31 49/68/27 44/73/25
f 52/57/16 46/56/16 47/85/16
f 35/80/16 57/55/16 53/59/16
f 36/88/21 61/50/21 41/54/21
f 34/90/11 53/100/22 56/77/22
f 52/57/16 45/86/16 54/92/16
f 36/88/21 24/103/21 60/93/21
f 23/91/11 56/77/22 60/60/22
f 39/52/21 62/51/21 63/95/21
