# Blender 5.0.1
# www.blender.org
mtllib stick.mtl
o Arm_top.001
v 0.371462 0.058267 -0.043534
v 0.270762 0.058267 -0.207133
v 0.632186 0.058267 -1.111954
v 0.636862 0.058267 -1.148375
v 0.572532 0.058267 -1.178432
v 0.549824 0.058267 -1.157952
v -0.021620 0.058267 -0.073179
v 0.280612 0.058267 0.131188
v 0.186687 0.058267 0.231149
v 0.046658 0.058267 0.323130
v 0.015693 0.058267 0.315233
v -0.004320 0.058267 0.289429
v 0.003825 0.058267 0.237458
v 0.005565 0.058267 0.195137
v -0.011843 0.058267 0.113683
v -0.038275 0.058267 0.055822
v -0.068733 0.058267 0.000876
v -0.056900 0.058267 -0.046522
v 0.285456 0.058267 -0.132118
v 0.005565 -0.058267 0.195137
v -0.011843 -0.058267 0.113683
v 0.003825 -0.058267 0.237458
v -0.004320 -0.058267 0.289429
v 0.015693 -0.058267 0.315233
v 0.046658 -0.058267 0.323130
v 0.186687 -0.058267 0.231149
v 0.280612 -0.058267 0.131188
v 0.371462 -0.058267 -0.043534
v 0.285456 -0.058267 -0.132118
v 0.632186 -0.058267 -1.111954
v 0.270762 -0.058267 -0.207133
v 0.636862 -0.058267 -1.148375
v 0.572532 -0.058267 -1.178432
v 0.549824 -0.058267 -1.157952
v -0.021620 -0.058267 -0.073179
v -0.038275 -0.058267 0.055822
v -0.068733 -0.058267 0.000876
v -0.056900 -0.058267 -0.046522
v -0.056900 0.043739 -0.046522
v -0.056900 -0.043739 -0.046522
v 0.636862 -0.043739 -1.148375
v 0.636862 0.043739 -1.148375
v 0.046658 0.043739 0.323130
v 0.046658 -0.043739 0.323130
v 0.015693 -0.043739 0.315233
v 0.015693 0.043739 0.315233
v -0.021620 -0.043739 -0.073179
v -0.021620 0.043739 -0.073179
v 0.572532 0.043739 -1.178432
v 0.572532 -0.043739 -1.178432
v 0.186687 0.043739 0.231149
v 0.186687 -0.043739 0.231149
v 0.270762 0.043739 -0.207133
v 0.270762 -0.043739 -0.207133
v 0.285456 -0.043739 -0.132118
v 0.285456 0.043739 -0.132118
v 0.549824 0.043739 -1.157952
v 0.549824 -0.043739 -1.157952
v 0.280612 0.043739 0.131188
v 0.280612 -0.043739 0.131188
v 0.371462 0.043739 -0.043534
v 0.371462 -0.043739 -0.043534
v 0.005565 0.043739 0.195137
v 0.005565 -0.043739 0.195137
v -0.011843 -0.043739 0.113683
v -0.011843 0.043739 0.113683
v -0.038275 -0.043739 0.055822
v -0.038275 0.043739 0.055822
v 0.003825 0.043739 0.237458
v 0.003825 -0.043739 0.237458
v -0.068733 -0.043739 0.000876
v -0.068733 0.043739 0.000876
v 0.632186 0.043739 -1.111954
v 0.632186 -0.043739 -1.111954
v -0.004320 0.043739 0.289429
v -0.004320 -0.043739 0.289429
v 0.082409 0.043739 0.304863
v 0.082409 -0.043739 0.304863
v 0.082409 0.058267 0.304863
v 0.082409 -0.058267 0.304863
v 0.096595 0.043739 -0.297588
v 0.096595 0.058267 -0.297588
v 0.096595 -0.058267 -0.297588
v 0.096595 -0.043739 -0.297588
v 0.067156 0.043739 -0.241702
v 0.067156 -0.058267 -0.241702
v 0.067156 -0.043739 -0.241702
v 0.067156 0.058267 -0.241702
v 0.116754 -0.043739 0.005212
v 0.116754 0.043739 0.005212
v 0.590252 -0.058267 -1.135374
v 0.590252 0.058267 -1.135374
v 0.155683 -0.058267 -0.200250
v 0.180634 0.058267 -0.253941
v 0.180634 -0.058267 -0.253941
v 0.127251 -0.043739 0.274867
v 0.127252 0.058267 0.274867
v 0.155683 0.058267 -0.200250
v 0.127251 0.043739 0.274867
v 0.127251 -0.058267 0.274867
v 0.101925 0.058267 -0.002297
v 0.097564 0.043739 0.178417
v 0.064830 0.043739 0.233119
v 0.027644 -0.043739 -0.166697
v 0.064830 -0.043739 0.233119
v 0.225085 0.043739 -0.086165
v 0.134712 0.058267 -0.123027
v 0.044140 0.043739 0.267695
v 0.044140 -0.043739 0.267695
v 0.097564 -0.043739 0.178417
v 0.031387 0.058267 0.257446
v 0.053328 -0.043739 0.226062
v 0.241565 -0.058267 0.174576
v 0.027644 0.043739 -0.166697
v 0.241565 0.043739 0.174577
v 0.241565 -0.043739 0.174577
v 0.241565 0.058267 0.174576
v 0.064359 0.043739 0.049406
v 0.031387 0.043739 0.257446
v 0.027644 0.058267 -0.166697
v 0.041826 0.058267 0.219005
v 0.031387 -0.043739 0.257446
v 0.059039 -0.043739 0.155622
v 0.064359 -0.043739 0.049406
v 0.059039 0.043739 0.155622
v 0.041826 0.043739 0.219005
v 0.134712 -0.058267 -0.123027
v 0.027644 -0.058267 -0.166697
v 0.041826 -0.058267 0.219005
v 0.031387 -0.058267 0.257446
v 0.041826 -0.043739 0.219005
v 0.059039 0.058267 0.155623
v 0.059039 -0.058267 0.155623
v 0.225085 -0.043739 -0.086165
v 0.101925 -0.058267 -0.002297
v 0.042399 -0.043739 0.251697
v 0.078301 -0.043739 0.167020
v 0.078301 0.043739 0.167020
v 0.053328 0.043739 0.226062
v 0.042399 0.043739 0.251697
v 0.237910 0.058267 -0.043558
v 0.210522 0.058267 -0.048326
v 0.257925 0.058267 0.017198
v 0.258583 0.058267 -0.017214
v 0.242448 0.058267 0.042190
v 0.149362 -0.043739 0.104907
v 0.147966 -0.043739 0.104897
v 0.203410 -0.043739 0.069728
v 0.109801 -0.043739 0.099415
v 0.120558 -0.043739 0.104701
v 0.141585 -0.043739 0.104851
v 0.075147 0.058267 0.060908
v 0.079705 0.058267 0.079525
v 0.073272 0.058267 0.072818
v 0.076104 -0.058267 0.054826
v 0.120558 0.043739 0.104701
v 0.141585 0.043739 0.104851
v 0.109801 0.043739 0.099415
v 0.075147 -0.058267 0.060908
v 0.149362 -0.058267 0.104907
v 0.120558 -0.058267 0.104701
v 0.079705 -0.058267 0.079525
v 0.088963 -0.058267 0.089177
v 0.126399 -0.058267 0.011459
v 0.203410 -0.058267 0.069728
v 0.111938 -0.058267 0.021737
v 0.089862 -0.058267 0.042122
v 0.076104 -0.043739 0.054826
v 0.073272 -0.043739 0.072818
v 0.075147 -0.043739 0.060908
v 0.088963 -0.043739 0.089177
v 0.079705 -0.043739 0.079525
v 0.076104 0.043739 0.054826
v 0.075147 0.043739 0.060908
v 0.073272 0.043739 0.072818
v 0.088963 0.043739 0.089177
v 0.079705 0.043739 0.079525
v 0.258583 0.043739 -0.017214
v 0.237910 0.043739 -0.043558
v 0.210553 0.043739 -0.048321
v 0.242448 0.043739 0.042190
v 0.257925 0.043739 0.017198
v 0.210553 -0.043739 -0.048321
v 0.126399 -0.043739 0.011459
v 0.088963 0.058267 0.089177
v 0.149362 0.058267 0.104907
v 0.120558 0.058267 0.104701
v 0.073272 -0.058267 0.072818
v 0.147966 0.043739 0.104897
v 0.149362 0.043739 0.104907
v 0.203410 0.043739 0.069728
v 0.258582 -0.043739 -0.017214
v 0.237910 -0.043739 -0.043558
v 0.257924 -0.043739 0.017198
v 0.242448 -0.043739 0.042190
v 0.089862 0.058267 0.042122
v 0.076104 0.058267 0.054826
v 0.111938 -0.043739 0.021737
v 0.089862 -0.043739 0.042122
v 0.237910 -0.058267 -0.043558
v 0.210522 -0.058267 -0.048326
v 0.258582 -0.058267 -0.017214
v 0.257924 -0.058267 0.017198
v 0.242448 -0.058267 0.042190
v 0.111938 0.043739 0.021737
v 0.089862 0.043739 0.042122
v 0.126399 0.043739 0.011458
v 0.126399 0.058267 0.011458
v 0.203410 0.058267 0.069728
v 0.111938 0.058267 0.021737
v 0.541312 0.058267 -1.032454
v 0.530981 0.058267 -1.033275
v 0.527385 0.058267 -0.988016
v 0.512635 0.058267 -1.001826
v 0.518434 0.058267 -0.993237
v 0.521318 0.058267 -1.029532
v 0.511137 0.058267 -1.012079
v 0.514236 0.058267 -1.021968
v 0.541312 -0.058267 -1.032454
v 0.550263 -0.058267 -1.027232
v 0.527385 -0.058267 -0.988016
v 0.537715 -0.058267 -0.987195
v 0.556061 -0.058267 -1.018644
v 0.557560 -0.058267 -1.008390
v 0.554461 -0.058267 -0.998502
v 0.547378 -0.058267 -0.990937
v 0.550263 0.058267 -1.027232
v 0.537715 0.058267 -0.987195
v 0.556061 0.058267 -1.018644
v 0.557560 0.058267 -1.008390
v 0.554461 0.058267 -0.998502
v 0.547378 0.058267 -0.990937
v 0.530981 -0.058267 -1.033275
v 0.512635 -0.058267 -1.001826
v 0.518434 -0.058267 -0.993237
v 0.521318 -0.058267 -1.029532
v 0.511137 -0.058267 -1.012079
v 0.514236 -0.058267 -1.021968
v 0.331527 -0.058267 0.051928
v 0.331527 0.058267 0.051928
v 0.331527 -0.043739 0.051928
v 0.331527 0.043739 0.051928
v 0.311059 0.043739 0.088309
v 0.311059 -0.043739 0.088309
v 0.311059 0.058267 0.088309
v 0.311059 -0.058267 0.088309
v 0.625315 0.058267 -1.171696
v 0.595568 0.058267 -1.184662
v 0.599897 0.058267 -1.152447
v 0.595568 -0.058267 -1.184662
v 0.625315 -0.058267 -1.171696
v 0.599897 -0.058267 -1.152447
v 0.625315 0.043739 -1.171696
v 0.595568 0.043739 -1.184662
v 0.595568 -0.043739 -1.184662
v 0.625315 -0.043739 -1.171696
v 0.370763 0.058267 -0.093542
v 0.047400 -0.058267 -0.204200
v 0.047400 0.058267 -0.204200
v 0.370763 -0.058267 -0.093542
v 0.370763 0.043739 -0.093542
v 0.370763 -0.043739 -0.093542
v 0.047400 -0.043739 -0.204200
v 0.047400 0.043739 -0.204200
v 0.146299 0.058267 -0.166149
v 0.146299 -0.058267 -0.166149
v 0.358860 -0.043739 -0.000259
v 0.358860 0.043739 -0.000259
v 0.358860 -0.058267 -0.000259
v 0.358860 0.058267 -0.000259
v 0.082477 0.043739 0.034124
v 0.082477 -0.043739 0.034124
v 0.105933 0.043739 0.014339
v 0.105933 -0.043739 0.014339
v 0.234186 0.000000 0.169084
v 0.234186 -0.021869 0.169084
v 0.273441 0.043739 0.125479
v 0.263440 0.043739 0.117518
v 0.222357 -0.043739 0.160277
v 0.234186 -0.043739 0.169084
v 0.298412 -0.021869 0.060179
v 0.294440 0.000000 0.067540
v 0.298412 0.021870 0.060179
v 0.290654 0.021870 0.074593
v 0.273441 -0.043739 0.125479
v 0.263440 -0.043739 0.117518
v 0.290654 0.000000 0.074593
v 0.290654 -0.021869 0.074593
v 0.263440 0.021870 0.117518
v 0.263440 0.000000 0.117518
v 0.290654 0.043739 0.074593
v 0.303590 0.043739 0.083289
v 0.290654 -0.043739 0.074593
v 0.303590 -0.043739 0.083289
v 0.263440 -0.021869 0.117518
v 0.222357 0.021870 0.160277
v 0.222357 0.000000 0.160277
v 0.222357 -0.021869 0.160277
v 0.222357 0.043739 0.160277
v 0.234186 0.043739 0.169084
v 0.308690 0.043739 0.041152
v 0.323216 0.043739 0.048007
v 0.181812 0.021870 0.199265
v 0.185995 0.000000 0.195236
v 0.308690 -0.043739 0.041152
v 0.323216 -0.043739 0.048007
v 0.181812 -0.021869 0.199265
v 0.192661 0.021870 0.207793
v 0.163142 -0.043739 0.217218
v 0.175012 -0.043739 0.224241
v 0.197245 0.000000 0.203497
v 0.163142 0.043739 0.217218
v 0.175012 0.043739 0.224241
v 0.192661 -0.021869 0.207793
v 0.234186 0.021870 0.169084
v 0.273441 -0.021869 0.125479
v 0.273441 0.000000 0.125479
v 0.273441 0.021870 0.125479
v 0.303590 -0.021869 0.083289
v 0.303590 0.000000 0.083289
v 0.303590 0.021870 0.083289
v 0.312174 -0.021869 0.067849
v 0.307785 0.000000 0.075765
v 0.312174 0.021870 0.067849
v 0.038734 -0.063400 0.285807
v 0.038734 0.063400 0.285807
v 0.330689 -0.061647 -0.076153
v 0.330689 0.061647 -0.076153
v 0.593054 0.113069 -1.143821
v 0.593054 -0.116227 -1.143821
v 0.584644 0.113069 -1.164591
v 0.574042 0.113069 -1.155681
v 0.598458 0.113069 -1.165567
v 0.610209 0.113069 -1.158237
v 0.615406 0.113069 -1.145401
v 0.612066 0.113069 -1.131961
v 0.570701 0.113069 -1.142241
v 0.587649 0.113069 -1.122074
v 0.575899 0.113069 -1.129404
v 0.601463 0.113069 -1.123051
v 0.574042 -0.116227 -1.155681
v 0.584644 -0.116227 -1.164591
v 0.598458 -0.116227 -1.165567
v 0.610209 -0.116227 -1.158237
v 0.615406 -0.116227 -1.145401
v 0.612066 -0.116227 -1.131961
v 0.570701 -0.116227 -1.142241
v 0.575899 -0.116227 -1.129404
v 0.587649 -0.116227 -1.122074
v 0.601463 -0.116227 -1.123051
v 0.027666 0.063400 0.274739
v 0.023081 0.063400 0.285807
v 0.038734 0.063400 0.270155
v 0.049802 0.063400 0.274739
v 0.054386 0.063400 0.285807
v 0.049802 0.063400 0.296875
v 0.038734 0.063400 0.301460
v 0.027666 0.063400 0.296875
v 0.023081 -0.063400 0.285807
v 0.027666 -0.063400 0.274739
v 0.038734 -0.063400 0.270155
v 0.049802 -0.063400 0.274739
v 0.054386 -0.063400 0.285807
v 0.049802 -0.063400 0.296875
v 0.038734 -0.063400 0.301460
v 0.027666 -0.063400 0.296875
v 0.319621 0.061647 -0.087221
v 0.315036 0.061647 -0.076153
v 0.330689 0.061647 -0.091806
v 0.341757 0.061647 -0.087221
v 0.346341 0.061647 -0.076153
v 0.341757 0.061647 -0.065085
v 0.330689 0.061647 -0.060501
v 0.319621 0.061647 -0.065085
v 0.315036 -0.061647 -0.076153
v 0.319621 -0.061647 -0.087221
v 0.330689 -0.061647 -0.091806
v 0.341757 -0.061647 -0.087221
v 0.346341 -0.061647 -0.076153
v 0.341757 -0.061647 -0.065085
v 0.330689 -0.061647 -0.060501
v 0.319621 -0.061647 -0.065085
v -0.000001 -0.087456 0.000000
v -0.000001 0.087456 0.000000
v -0.011069 0.087456 -0.011067
v -0.015653 0.087456 0.000000
v -0.000001 0.087456 -0.015652
v 0.011067 0.087456 -0.011068
v 0.015652 0.087456 0.000000
v 0.011067 0.087456 0.011068
v -0.000001 0.087456 0.015653
v -0.011069 0.087456 0.011068
v -0.015653 -0.087456 0.000001
v -0.011069 -0.087456 -0.011067
v -0.000001 -0.087456 -0.015652
v 0.011067 -0.087456 -0.011068
v 0.015652 -0.087456 0.000000
v 0.011067 -0.087456 0.011068
v -0.000001 -0.087456 0.015653
v -0.011069 -0.087456 0.011068
vn 0.9814 -0.0000 -0.1922
vn 0.9957 -0.0000 0.0932
vn 0.1111 -0.0000 0.9938
vn 0.5064 -0.0000 0.8623
vn -0.7621 -0.0000 -0.6475
vn -0.8342 -0.0000 -0.5515
vn -0.5484 -0.0000 0.8362
vn -0.0000 -1.0000 -0.0000
vn -0.0000 1.0000 -0.0000
vn -0.4785 -0.0000 -0.8781
vn -0.7894 -0.0000 -0.6138
vn 0.6574 -0.0000 0.7535
vn 0.7307 -0.0000 0.6827
vn -0.8847 -0.0000 -0.4661
vn 0.7806 -0.0000 0.6250
vn 0.8446 -0.0000 0.5354
vn -0.9494 -0.0000 0.3141
vn -0.9964 -0.0000 0.0846
vn -0.9373 -0.0000 0.3485
vn -0.8928 -0.0000 0.4505
vn -0.9952 -0.0000 -0.0981
vn -0.9915 -0.0000 0.1304
vn 0.9680 -0.0000 0.2511
vn -0.9684 -0.0000 0.2495
vn 0.9862 -0.0000 -0.1653
vn 0.5744 -0.0000 0.8186
vn 0.4120 -0.0000 -0.9112
vn 0.9999 -0.0000 -0.0140
vn 0.9909 -0.0000 0.1343
vn -0.0754 0.9890 0.1274
vn -0.1076 0.9796 0.1695
vn -0.1076 -0.9796 0.1695
vn 0.6254 -0.0000 0.7803
vn 0.6057 -0.0000 0.7957
vn 0.6448 -0.0000 0.7644
vn -0.8634 -0.0000 -0.5045
vn -0.7868 -0.0000 -0.6172
vn -0.8631 0.0001 -0.5050
vn 0.8451 0.0001 0.5346
vn 0.7796 -0.0000 0.6262
vn 0.4073 0.5491 -0.7298
vn 0.5106 -0.0000 -0.8598
vn 0.5247 -0.0000 -0.8513
vn 0.7132 -0.0000 0.7009
vn 0.7132 -0.0000 0.7010
vn -0.8630 -0.0002 -0.5052
vn -0.8631 -0.0001 -0.5050
vn 0.2213 0.0007 0.9752
vn 0.5793 0.0001 0.8151
vn 0.2203 0.0008 0.9754
vn 0.2213 -0.0007 0.9752
vn 0.5793 -0.0001 0.8151
vn 0.5793 -0.0000 0.8151
vn 0.5903 -0.0000 -0.8072
vn 0.4410 -0.0000 -0.8975
vn 0.2299 -0.0000 -0.9732
vn 0.7217 -0.0000 -0.6922
vn 0.9878 -0.0000 0.1555
vn 0.8820 -0.0000 0.4712
vn -0.5132 -0.0000 0.8583
vn 0.2203 -0.0008 0.9754
vn -0.9483 -0.0000 0.3175
vn -0.9482 -0.0000 0.3175
vn -0.2811 -0.0000 -0.9597
vn -0.5611 -0.0000 -0.8278
vn -0.9592 -0.0000 -0.2829
vn 0.6784 -0.0000 0.7347
vn 0.6302 -0.0000 0.7765
vn -0.7280 -0.0000 -0.6856
vn 0.0071 -0.0000 -1.0000
vn 0.2991 -0.0000 -0.9542
vn 0.6835 -0.0000 -0.7300
vn 0.0072 -0.0000 -1.0000
vn 0.0766 0.9864 -0.1455
vn 0.8736 -0.0000 0.4866
vn 0.8448 -0.0000 0.5350
vn 0.9325 -0.0000 -0.3611
vn 0.9969 -0.0000 0.0792
vn 0.8638 -0.0000 0.5039
vn 0.5596 -0.0000 0.8288
vn 0.1446 -0.0000 0.9895
vn -0.2991 -0.0000 0.9542
vn -0.2990 -0.0000 0.9542
vn -0.6835 -0.0000 0.7300
vn -0.9325 -0.0000 0.3611
vn -0.9969 -0.0000 -0.0792
vn -0.8638 -0.0000 -0.5039
vn -0.5596 -0.0000 -0.8288
vn -0.1446 -0.0000 -0.9895
vn 0.2990 -0.0000 -0.9542
vn 0.8788 -0.0000 0.4772
vn 0.9276 -0.0000 0.3736
vn 0.0846 0.9818 -0.1703
vn 0.0756 0.9842 -0.1602
vn -0.7072 -0.0000 -0.7070
vn -0.8809 -0.0000 -0.4733
vn -0.8804 -0.0004 -0.4742
vn 0.6897 -0.0000 -0.7241
vn 0.0734 -0.0000 -0.9973
vn 0.0756 -0.9842 -0.1602
vn 0.0846 -0.9818 -0.1703
vn 0.6819 -0.0002 0.7315
vn 0.6818 0.0001 0.7315
vn -0.6931 -0.0000 -0.7208
vn -0.5147 -0.5305 0.6735
vn -0.0754 -0.9890 0.1274
vn -0.6931 0.0001 -0.7208
vn -0.7073 -0.0000 -0.7070
vn -0.8630 0.0002 -0.5052
vn -0.8804 0.0004 -0.4742
vn -0.8802 -0.0007 -0.4747
vn 0.4073 -0.5491 -0.7298
vn -0.8802 0.0007 -0.4747
vn 0.8451 -0.0000 0.5346
vn 0.8740 -0.0001 0.4860
vn 0.8451 -0.0001 0.5346
vn 0.8740 0.0001 0.4860
vn -0.6931 -0.0001 -0.7208
vn -0.5147 0.5305 0.6735
vn -0.5280 0.5066 0.6816
vn -0.6010 -0.0000 0.7993
vn -0.5280 -0.5066 0.6816
vn 0.6819 0.0002 0.7315
vn 0.6818 -0.0001 0.7315
vn 0.6818 -0.0000 0.7315
vn 0.7131 -0.0000 0.7011
vn -1.0000 -0.0000 -0.0000
vn -0.7071 -0.0000 -0.7071
vn -0.0000 -0.0000 -1.0000
vn 0.7071 -0.0000 -0.7071
vn 1.0000 -0.0000 -0.0000
vn 0.7071 -0.0000 0.7071
vn -0.0000 -0.0000 1.0000
vn -0.7071 -0.0000 0.7071
vn -0.8484 -0.0000 -0.5293
vn -0.3753 -0.0000 -0.9269
vn 0.2412 -0.0000 -0.9705
vn 0.7656 -0.0000 -0.6434
vn 0.9975 -0.0000 -0.0705
vn 0.8484 -0.0000 0.5293
vn -0.9975 -0.0000 0.0705
vn -0.7656 -0.0000 0.6434
vn -0.2412 -0.0000 0.9705
vn 0.3753 -0.0000 0.9269
vn 0.4090 0.5425 -0.7338
vn 0.2298 -0.0000 -0.9732
vn 0.4090 -0.5425 -0.7338
vn 0.8739 0.0002 0.4861
vn 0.8739 -0.0002 0.4861
vn -0.5919 -0.0000 0.8060
vt 0.409360 0.278388
vt 0.421774 0.280747
vt 0.409360 0.280747
vt 0.213314 0.296864
vt 0.215673 0.290344
vt 0.215673 0.296864
vt 0.491625 0.875117
vt 0.493984 0.867937
vt 0.493984 0.875117
vt 0.213314 0.302053
vt 0.215673 0.302053
vt 0.407580 0.019558
vt 0.411561 0.013971
vt 0.414606 0.020139
vt 0.371350 0.391941
vt 0.367369 0.386353
vt 0.374395 0.385773
vt 0.960745 0.336466
vt 0.963105 0.331500
vt 0.963105 0.336466
vt 0.213314 0.269600
vt 0.215674 0.256801
vt 0.215673 0.269600
vt 0.366767 0.772526
vt 0.208844 0.770167
vt 0.366767 0.770167
vt 0.213314 0.247321
vt 0.215674 0.238781
vt 0.215674 0.247321
vt 0.213314 0.336305
vt 0.215673 0.322778
vt 0.215673 0.336305
vt 0.491625 0.849801
vt 0.493984 0.839470
vt 0.493984 0.849801
vt 0.213314 0.322778
vt 0.215673 0.315899
vt 0.491625 0.860003
vt 0.493984 0.860003
vt 0.421774 0.278388
vt 0.580004 0.280747
vt 0.213314 0.315899
vt 0.215673 0.307356
vt 0.491625 0.867937
vt 0.960745 0.355801
vt 0.963105 0.349837
vt 0.963105 0.355801
vt 0.213314 0.307356
vt 0.085372 0.133005
vt 0.087732 0.138308
vt 0.085372 0.138308
vt 0.085372 0.150018
vt 0.087732 0.158779
vt 0.085372 0.158779
vt 0.979670 0.355801
vt 0.977311 0.349837
vt 0.979670 0.349837
vt 0.977311 0.355801
vt 0.508190 0.867937
vt 0.510549 0.860003
vt 0.510549 0.867937
vt 0.508190 0.860003
vt 0.087732 0.124462
vt 0.085372 0.124462
vt 0.421774 0.294954
vt 0.580004 0.297313
vt 0.421774 0.297313
vt 0.580004 0.294954
vt 0.510549 0.849801
vt 0.508190 0.849801
vt 0.087732 0.117583
vt 0.085372 0.117583
vt 0.213314 0.290344
vt 0.215673 0.281582
vt 0.676680 0.915623
vt 0.676914 0.923404
vt 0.671313 0.916953
vt 0.510549 0.839470
vt 0.508190 0.839470
vt 0.087732 0.104057
vt 0.085372 0.104057
vt 0.213314 0.191789
vt 0.215674 0.206993
vt 0.213314 0.206993
vt 0.087732 0.193040
vt 0.085372 0.201581
vt 0.085372 0.193040
vt 0.366767 0.755960
vt 0.208844 0.753601
vt 0.366767 0.753601
vt 0.208844 0.755961
vt 0.085372 0.170761
vt 0.087732 0.183561
vt 0.085372 0.183561
vt 0.977311 0.336466
vt 0.979670 0.331500
vt 0.979670 0.336466
vt 0.977311 0.331500
vt 0.085372 0.143498
vt 0.508190 0.875117
vt 0.510549 0.875117
vt 0.087732 0.143498
vt 0.409360 0.294954
vt 0.409360 0.297313
vt 0.406077 0.013267
vt 0.408678 0.005929
vt 0.510549 0.916308
vt 0.508190 0.906050
vt 0.510549 0.906050
vt 0.493984 0.916308
vt 0.508190 0.916308
vt 0.491625 0.916308
vt 0.493984 0.906050
vt 0.383763 0.317732
vt 0.399760 0.308455
vt 0.399608 0.318712
vt 0.508190 0.899167
vt 0.510549 0.892283
vt 0.510549 0.899167
vt 0.493984 0.899167
vt 0.508190 0.892283
vt 0.491625 0.892283
vt 0.493984 0.892283
vt 0.423974 0.088180
vt 0.408106 0.098115
vt 0.400174 0.088566
vt 0.365866 0.392645
vt 0.358578 0.400820
vt 0.354904 0.395434
vt 0.385012 0.089705
vt 0.420954 0.075540
vt 0.422658 0.082588
vt 0.899633 0.121401
vt 0.896999 0.131372
vt 0.893567 0.130174
vt 0.087732 0.233369
vt 0.085372 0.225247
vt 0.087732 0.225247
vt 0.679287 0.915112
vt 0.686433 0.920602
vt 0.682212 0.923619
vt 0.905919 0.116590
vt 0.913065 0.111098
vt 0.914540 0.117448
vt 0.903312 0.116080
vt 0.903543 0.108298
vt 0.908842 0.108081
vt 0.903794 0.122779
vt 0.915512 0.126156
vt 0.677161 0.908924
vt 0.687907 0.914251
vt 0.666931 0.901529
vt 0.666240 0.912307
vt 0.654300 0.905942
vt 0.912114 0.136647
vt 0.914228 0.137386
vt 0.395114 0.010478
vt 0.439970 0.097456
vt 0.424595 0.097774
vt 0.213314 0.281582
vt 0.892873 0.119399
vt 0.880939 0.125766
vt 0.369848 0.375979
vt 0.350846 0.387669
vt 0.345776 0.376812
vt 0.398789 0.005092
vt 0.403817 0.003808
vt 0.687590 0.894320
vt 0.689668 0.893594
vt 0.688875 0.905545
vt 0.087732 0.170761
vt 0.673000 0.910303
vt 0.903751 0.118049
vt 0.007727 0.863535
vt 0.021933 0.851214
vt 0.021933 0.863535
vt 0.367895 0.307797
vt 0.384385 0.308138
vt 0.007727 0.886550
vt 0.021933 0.886550
vt 0.391056 0.018243
vt 0.410058 0.029932
vt 0.385986 0.029099
vt 0.380744 0.330372
vt 0.399149 0.349642
vt 0.376023 0.350132
vt 0.213314 0.256801
vt 0.654294 0.889746
vt 0.901558 0.189810
vt 0.881556 0.188409
vt 0.880939 0.176103
vt 0.021933 0.897682
vt 0.007727 0.913871
vt 0.007727 0.897682
vt 0.439614 0.073434
vt 0.439716 0.080317
vt 0.897945 0.114751
vt 0.368467 0.399983
vt 0.363607 0.402103
vt 0.423425 0.030395
vt 0.675080 0.909613
vt 0.673798 0.899131
vt 0.344802 0.316207
vt 0.382448 0.323324
vt 0.674940 0.841901
vt 0.654936 0.843289
vt 0.668662 0.836747
vt 0.880939 0.141956
vt 0.901713 0.122090
vt 0.900431 0.132570
vt 0.399506 0.325595
vt 0.439359 0.056270
vt 0.677119 0.913654
vt 0.007727 0.893833
vt 0.021933 0.893833
vt 0.670364 0.900330
vt 0.960382 0.428148
vt 0.956831 0.436402
vt 0.956831 0.428148
vt 0.849395 0.929088
vt 0.852947 0.937509
vt 0.849395 0.937509
vt 0.895908 0.145737
vt 0.893688 0.143143
vt 0.911246 0.149960
vt 0.896582 0.146524
vt 0.665259 0.889339
vt 0.667041 0.888557
vt 0.760273 0.979425
vt 0.757795 0.975582
vt 0.760341 0.975582
vt 0.379372 0.059138
vt 0.392480 0.065140
vt 0.379286 0.065916
vt 0.416233 0.055780
vt 0.412936 0.053133
vt 0.414496 0.048509
vt 0.884779 0.140611
vt 0.883497 0.142091
vt 0.656852 0.889610
vt 0.658135 0.891090
vt 0.660942 0.858468
vt 0.666377 0.858664
vt 0.884115 0.170337
vt 0.880939 0.153088
vt 0.882725 0.153631
vt 0.431695 0.036586
vt 0.415132 0.044687
vt 0.414473 0.042843
vt 0.686939 0.881207
vt 0.688393 0.880866
vt 0.852947 0.947037
vt 0.849395 0.947037
vt 0.910240 0.159537
vt 0.898691 0.164819
vt 0.898022 0.157089
vt 0.880939 0.145805
vt 0.882842 0.142847
vt 0.882705 0.145885
vt 0.400060 0.072243
vt 0.404335 0.070791
vt 0.655843 0.880942
vt 0.654298 0.878612
vt 0.656083 0.878070
vt 0.657485 0.861364
vt 0.967485 0.428148
vt 0.963934 0.436402
vt 0.963934 0.428148
vt 0.030540 0.907775
vt 0.032899 0.891015
vt 0.032899 0.907779
vt 0.248573 0.879750
vt 0.246214 0.862990
vt 0.248573 0.862990
vt 0.248573 0.845549
vt 0.246214 0.841778
vt 0.248573 0.839832
vt 0.032899 0.869804
vt 0.030540 0.873574
vt 0.030540 0.867857
vt 0.246214 0.847721
vt 0.246214 0.845549
vt 0.248573 0.851188
vt 0.246214 0.852188
vt 0.246214 0.851188
vt 0.248573 0.849230
vt 0.951645 0.004105
vt 0.949286 0.008615
vt 0.949286 0.004100
vt 0.950426 0.554501
vt 0.948067 0.549991
vt 0.950426 0.549986
vt 0.951645 0.008615
vt 0.949286 0.014053
vt 0.948067 0.559939
vt 0.950426 0.559939
vt 0.948067 0.588533
vt 0.950426 0.578060
vt 0.950426 0.588533
vt 0.951645 0.014053
vt 0.949286 0.019642
vt 0.948067 0.565528
vt 0.950426 0.565528
vt 0.248573 0.855229
vt 0.246214 0.860109
vt 0.246214 0.855229
vt 0.951645 0.019642
vt 0.949286 0.024416
vt 0.948067 0.570302
vt 0.950426 0.570302
vt 0.248573 0.860109
vt 0.030540 0.888134
vt 0.032899 0.888134
vt 0.948067 0.578060
vt 0.375259 0.360284
vt 0.030540 0.863180
vt 0.032899 0.863406
vt 0.372823 0.363524
vt 0.374262 0.363069
vt 0.260758 0.968470
vt 0.241833 0.966787
vt 0.260758 0.966787
vt 0.442314 0.255362
vt 0.436805 0.233209
vt 0.436478 0.231558
vt 0.246214 0.836417
vt 0.246214 0.835381
vt 0.248573 0.835154
vt 0.386784 0.150698
vt 0.389035 0.172918
vt 0.426994 0.255214
vt 0.429246 0.232994
vt 0.429573 0.234645
vt 0.396595 0.172703
vt 0.396174 0.171073
vt 0.402103 0.150550
vt 0.030540 0.883254
vt 0.032899 0.883254
vt 0.951645 0.032175
vt 0.949286 0.042647
vt 0.949286 0.032175
vt 0.248573 0.852188
vt 0.030540 0.880213
vt 0.030540 0.877255
vt 0.032899 0.879213
vt 0.030540 0.879213
vt 0.032899 0.880213
vt 0.032899 0.875746
vt 0.032899 0.873574
vt 0.246214 0.849230
vt 0.248573 0.847721
vt 0.032899 0.877255
vt 0.030540 0.875746
vt 0.372725 0.352779
vt 0.371464 0.350189
vt 0.402103 0.356187
vt 0.400102 0.363864
vt 0.391485 0.369326
vt 0.415469 0.045628
vt 0.669943 0.885187
vt 0.669275 0.885983
vt 0.845844 0.927689
vt 0.845844 0.929088
vt 0.440312 0.042048
vt 0.442314 0.049725
vt 0.241833 0.965104
vt 0.260758 0.965104
vt 0.241833 0.963421
vt 0.260758 0.963421
vt 0.260758 0.986981
vt 0.241833 0.985298
vt 0.260758 0.985298
vt 0.260758 0.983615
vt 0.241833 0.981933
vt 0.260758 0.981933
vt 0.260758 0.980250
vt 0.241833 0.980250
vt 0.260758 0.978567
vt 0.241833 0.978567
vt 0.260758 0.976884
vt 0.260758 0.975201
vt 0.241833 0.976884
vt 0.241833 0.975201
vt 0.260758 0.973518
vt 0.260758 0.971835
vt 0.241833 0.973518
vt 0.241833 0.971835
vt 0.241833 0.983615
vt 0.260758 0.970152
vt 0.241833 0.970152
vt 0.241833 0.968470
vt 0.087732 0.208360
vt 0.085372 0.217927
vt 0.085372 0.208360
vt 0.339076 0.339996
vt 0.354853 0.335816
vt 0.352269 0.340772
vt 0.670578 0.862351
vt 0.681129 0.864304
vt 0.672058 0.866890
vt 0.905498 0.173150
vt 0.907870 0.174236
vt 0.905610 0.183714
vt 0.757588 0.984377
vt 0.760191 0.984544
vt 0.215674 0.232002
vt 0.213314 0.222435
vt 0.215674 0.222435
vt 0.087732 0.201581
vt 0.960382 0.446032
vt 0.960382 0.436402
vt 0.683604 0.872177
vt 0.671386 0.874620
vt 0.907761 0.167410
vt 0.897209 0.169357
vt 0.960382 0.426848
vt 0.963934 0.425490
vt 0.213314 0.238781
vt 0.392412 0.142717
vt 0.397661 0.143183
vt 0.394537 0.147439
vt 0.437872 0.262728
vt 0.432623 0.263195
vt 0.434748 0.258473
vt 0.960745 0.345611
vt 0.963105 0.340341
vt 0.963105 0.345611
vt 0.977311 0.345611
vt 0.979670 0.340341
vt 0.979670 0.345611
vt 0.977311 0.340341
vt 0.388951 0.145143
vt 0.400460 0.145864
vt 0.429162 0.260769
vt 0.960745 0.340341
vt 0.960745 0.349837
vt 0.434794 0.255289
vt 0.440671 0.260048
vt 0.399404 0.332478
vt 0.359964 0.317346
vt 0.439818 0.087200
vt 0.085372 0.248573
vt 0.087732 0.248573
vt 0.491625 0.899167
vt 0.215674 0.215115
vt 0.213314 0.215115
vt 0.364125 0.335121
vt 0.359850 0.333669
vt 0.395064 0.070096
vt 0.887571 0.173234
vt 0.678988 0.847999
vt 0.681242 0.857478
vt 0.678870 0.858562
vt 0.087732 0.217927
vt 0.007727 0.888849
vt 0.021933 0.888849
vt 0.656197 0.888855
vt 0.654294 0.885895
vt 0.656061 0.885816
vt 0.882486 0.150759
vt 0.684608 0.881753
vt 0.670090 0.885014
vt 0.849395 0.956256
vt 0.852947 0.960174
vt 0.685639 0.871770
vt 0.684968 0.863209
vt 0.687099 0.871478
vt 0.339162 0.346774
vt 0.352531 0.345539
vt 0.963934 0.446032
vt 0.960382 0.454223
vt 0.340165 0.355255
vt 0.355952 0.352502
vt 0.956831 0.446032
vt 0.979679 0.079827
vt 0.981272 0.085094
vt 0.979041 0.085295
vt 0.956831 0.455167
vt 0.953279 0.446032
vt 0.910194 0.168105
vt 0.909227 0.174857
vt 0.342355 0.364478
vt 0.360919 0.361722
vt 0.967485 0.436402
vt 0.392741 0.060373
vt 0.380376 0.050657
vt 0.396163 0.053410
vt 0.953279 0.436402
vt 0.913578 0.150506
vt 0.916308 0.138111
vt 0.915032 0.150847
vt 0.953279 0.428148
vt 0.683563 0.863609
vt 0.682599 0.856858
vt 0.365041 0.363934
vt 0.370753 0.364180
vt 0.956831 0.425490
vt 0.410963 0.041732
vt 0.405251 0.041978
vt 0.967485 0.421978
vt 0.896729 0.146697
vt 0.760273 0.971739
vt 0.953279 0.421978
vt 0.912275 0.159945
vt 0.911600 0.168507
vt 0.382566 0.041434
vt 0.838740 0.929088
vt 0.842292 0.926219
vt 0.842292 0.929088
vt 0.913735 0.160237
vt 0.849395 0.926219
vt 0.852947 0.929088
vt 0.757588 0.966787
vt 0.760191 0.966619
vt 0.967485 0.446032
vt 0.963934 0.455167
vt 0.981272 0.067217
vt 0.979679 0.072484
vt 0.979041 0.067016
vt 0.981920 0.072465
vt 0.979840 0.076156
vt 0.981920 0.079846
vt 0.838740 0.947037
vt 0.842292 0.956256
vt 0.838740 0.960174
vt 0.842292 0.947037
vt 0.845844 0.955236
vt 0.838740 0.937509
vt 0.842292 0.937509
vt 0.845844 0.947037
vt 0.845844 0.937509
vt 0.537141 0.968826
vt 0.535196 0.989418
vt 0.535196 0.968826
vt 0.550760 0.989418
vt 0.548814 0.968826
vt 0.550760 0.968826
vt 0.548814 0.989418
vt 0.546869 0.968826
vt 0.546869 0.989418
vt 0.544923 0.968826
vt 0.544923 0.989418
vt 0.542978 0.968826
vt 0.542978 0.989418
vt 0.541032 0.968826
vt 0.541032 0.989418
vt 0.539087 0.968826
vt 0.539087 0.989418
vt 0.027810 0.991855
vt 0.025865 0.971832
vt 0.027810 0.971832
vt 0.041429 0.991855
vt 0.039483 0.971832
vt 0.041429 0.971832
vt 0.039483 0.991855
vt 0.037538 0.971832
vt 0.037538 0.991855
vt 0.035592 0.971832
vt 0.035592 0.991855
vt 0.033647 0.971832
vt 0.033647 0.991855
vt 0.031701 0.971832
vt 0.031701 0.991855
vt 0.029756 0.971832
vt 0.029756 0.991855
vt 0.490496 0.926593
vt 0.492745 0.963830
vt 0.490496 0.963830
vt 0.492745 0.926593
vt 0.494994 0.963830
vt 0.494994 0.926593
vt 0.497243 0.963830
vt 0.497243 0.926593
vt 0.499492 0.963830
vt 0.499492 0.926593
vt 0.501741 0.963830
vt 0.510738 0.926593
vt 0.512987 0.963830
vt 0.510738 0.963830
vt 0.508488 0.963830
vt 0.506239 0.926593
vt 0.508488 0.926593
vt 0.506239 0.963830
vt 0.503990 0.926593
vt 0.501741 0.926593
vt 0.503990 0.963830
vt 0.172002 0.391153
vt 0.169863 0.388209
vt 0.172002 0.387514
vt 0.168542 0.390029
vt 0.168542 0.392278
vt 0.169863 0.394097
vt 0.172002 0.394792
vt 0.174141 0.388209
vt 0.175463 0.390029
vt 0.175463 0.392278
vt 0.174141 0.394097
vt 0.357214 0.442330
vt 0.360675 0.441206
vt 0.360675 0.443455
vt 0.359353 0.445274
vt 0.357214 0.445969
vt 0.355075 0.445274
vt 0.353753 0.443455
vt 0.359353 0.439386
vt 0.355075 0.439386
vt 0.357214 0.438691
vt 0.353753 0.441206
vt 0.351015 0.538663
vt 0.348667 0.537691
vt 0.350042 0.536315
vt 0.348667 0.539636
vt 0.350042 0.541012
vt 0.351988 0.541012
vt 0.353364 0.539636
vt 0.353364 0.537691
vt 0.351988 0.536315
vt 0.365637 0.541100
vt 0.367986 0.540128
vt 0.367986 0.542073
vt 0.366610 0.543449
vt 0.364664 0.543449
vt 0.363289 0.542073
vt 0.363289 0.540128
vt 0.364664 0.538752
vt 0.366610 0.538752
vt 0.117064 0.563033
vt 0.114716 0.564006
vt 0.114716 0.562061
vt 0.116091 0.565382
vt 0.118037 0.565382
vt 0.119413 0.564006
vt 0.119413 0.562061
vt 0.118037 0.560685
vt 0.116091 0.560685
vt 0.536226 0.331519
vt 0.537199 0.333868
vt 0.535254 0.333868
vt 0.533878 0.332492
vt 0.533878 0.330546
vt 0.535254 0.329171
vt 0.537199 0.329171
vt 0.538575 0.330546
vt 0.538575 0.332492
vt 0.956304 0.935424
vt 0.954358 0.963830
vt 0.954358 0.935424
vt 0.969922 0.963830
vt 0.967977 0.935424
vt 0.969922 0.935424
vt 0.967977 0.963830
vt 0.966031 0.935424
vt 0.966031 0.963830
vt 0.964086 0.935424
vt 0.964086 0.963830
vt 0.962140 0.935424
vt 0.962140 0.963830
vt 0.960195 0.935424
vt 0.960195 0.963830
vt 0.958249 0.935424
vt 0.958249 0.963830
vt 0.158493 0.563033
vt 0.157520 0.565382
vt 0.156145 0.564006
vt 0.159466 0.565382
vt 0.160841 0.564006
vt 0.160841 0.562061
vt 0.159466 0.560685
vt 0.157520 0.560685
vt 0.156145 0.562061
vt 0.560596 0.329082
vt 0.561569 0.326734
vt 0.562945 0.328110
vt 0.562945 0.330055
vt 0.561569 0.331431
vt 0.559624 0.331431
vt 0.558248 0.330055
vt 0.558248 0.328110
vt 0.559624 0.326734
vt 0.960745 0.331500
vt 0.208844 0.772526
vt 0.491625 0.839470
vt 0.580004 0.278388
vt 0.087732 0.133005
vt 0.087732 0.150018
vt 0.215674 0.191789
vt 0.491625 0.906050
vt 0.381022 0.082631
vt 0.085372 0.233369
vt 0.685476 0.895058
vt 0.007727 0.851214
vt 0.895277 0.194959
vt 0.021933 0.913871
vt 0.340811 0.323281
vt 0.654312 0.855595
vt 0.383215 0.375517
vt 0.891905 0.142361
vt 0.757715 0.979383
vt 0.411674 0.055723
vt 0.886285 0.140707
vt 0.888452 0.140846
vt 0.661809 0.890854
vt 0.659641 0.890993
vt 0.413034 0.042388
vt 0.379451 0.075482
vt 0.654296 0.880912
vt 0.030540 0.891015
vt 0.246214 0.879754
vt 0.246214 0.839832
vt 0.032899 0.867857
vt 0.948067 0.554501
vt 0.951645 0.024416
vt 0.374286 0.357402
vt 0.032899 0.863180
vt 0.374922 0.361225
vt 0.432289 0.229393
vt 0.433762 0.236811
vt 0.435298 0.236124
vt 0.433971 0.229440
vt 0.435466 0.230213
vt 0.436384 0.234838
vt 0.246214 0.835154
vt 0.392079 0.176519
vt 0.394584 0.150623
vt 0.391869 0.169149
vt 0.393551 0.169101
vt 0.390542 0.175832
vt 0.389456 0.174547
vt 0.390374 0.169922
vt 0.389363 0.171267
vt 0.432080 0.236763
vt 0.429666 0.231365
vt 0.430753 0.230079
vt 0.430585 0.235990
vt 0.396267 0.174353
vt 0.393761 0.176471
vt 0.395256 0.175698
vt 0.395088 0.169788
vt 0.951645 0.042647
vt 0.241833 0.986981
vt 0.339240 0.330430
vt 0.893006 0.173042
vt 0.213314 0.232002
vt 0.880939 0.150789
vt 0.953279 0.459373
vt 0.401130 0.044190
vt 0.757715 0.971780
vt 0.838740 0.922531
vt 0.852947 0.922531
vt 0.967485 0.459373
vt 0.982107 0.076156
vt 0.537141 0.989418
vt 0.025865 0.991855
vt 0.512987 0.926593
vt 0.956304 0.963830
s 1
usemtl Excavator
f 29/1/1 54/2/2 55/3/1
f 25/4/3 78/5/4 44/6/3
f 35/7/5 40/8/6 47/9/5
f 24/10/7 44/6/3 45/11/7
f 129/12/8 22/13/8 20/14/8
f 13/15/9 121/16/9 14/17/9
f 33/18/10 58/19/11 50/20/10
f 26/21/12 116/22/13 52/23/12
f 34/24/11 84/25/14 58/26/11
f 27/27/15 244/28/16 60/29/15
f 21/30/17 64/31/18 65/32/19
f 36/33/20 65/34/19 67/35/20
f 20/36/18 70/37/21 64/31/18
f 37/38/22 67/35/20 71/39/22
f 31/40/2 74/41/23 54/2/2
f 22/42/21 76/43/24 70/37/21
f 38/44/6 71/39/22 40/8/6
f 30/45/23 41/46/25 74/47/23
f 23/48/24 45/11/7 76/43/24
f 12/49/24 46/50/7 11/51/7
f 79/52/4 99/53/26 97/54/26
f 3/55/23 42/56/25 4/57/25
f 74/47/23 42/56/25 73/58/23
f 39/59/6 17/60/22 18/61/6
f 40/8/6 72/62/22 39/59/6
f 69/63/21 12/49/24 13/64/21
f 53/65/2 3/66/23 2/67/2
f 54/2/2 73/68/23 53/65/2
f 72/62/22 16/69/20 17/60/22
f 71/39/22 68/70/20 72/62/22
f 63/71/18 13/64/21 14/72/18
f 80/73/4 96/74/26 78/5/4
f 119/75/8 75/76/8 69/77/8
f 68/70/20 15/78/17 16/69/20
f 67/35/20 66/79/19 68/70/20
f 66/80/19 14/72/18 15/81/17
f 29/82/27 262/83/27 260/84/27
f 59/85/15 245/86/16 8/87/15
f 57/88/11 82/89/14 6/90/11
f 58/26/11 81/91/14 57/88/11
f 9/92/12 115/93/13 117/94/13
f 49/95/10 6/96/11 5/97/10
f 50/20/10 57/98/11 49/95/10
f 46/50/7 10/99/3 11/51/7
f 48/100/5 18/61/6 7/101/5
f 47/9/5 39/59/6 48/100/5
f 43/102/3 79/52/4 10/99/3
f 56/103/1 2/67/2 19/104/1
f 55/3/1 53/65/2 56/103/1
f 130/105/8 23/106/8 22/13/8
f 82/107/14 85/108/14 88/109/14
f 84/110/14 85/108/14 81/111/14
f 83/112/14 87/113/14 84/110/14
f 98/114/9 82/115/9 88/116/9
f 264/117/14 120/118/14 259/119/14
f 263/120/14 114/121/14 264/117/14
f 263/120/14 128/122/14 104/123/14
f 93/124/8 31/125/8 29/126/8
f 111/127/9 10/128/9 79/129/9
f 260/130/8 127/131/8 266/132/8
f 131/133/9 137/134/9 123/135/9
f 261/136/28 1/137/29 61/138/29
f 104/123/14 48/100/5 114/121/14
f 108/139/8 43/140/8 46/141/8
f 109/142/9 44/143/9 78/144/9
f 122/145/9 76/146/9 45/147/9
f 105/148/9 78/144/9 96/149/9
f 103/150/8 77/151/8 108/139/8
f 125/152/8 63/153/8 66/154/8
f 309/155/30 96/149/9 310/156/31
f 129/12/8 80/157/8 130/105/8
f 104/123/14 35/7/5 47/9/5
f 93/124/8 83/158/8 95/159/8
f 100/160/26 52/23/12 96/74/26
f 64/161/9 123/135/9 65/162/9
f 132/163/9 97/164/9 9/165/9
f 130/105/8 25/166/8 24/167/8
f 313/168/32 51/169/8 99/170/8
f 97/54/26 51/171/12 9/92/12
f 126/172/8 69/77/8 63/153/8
f 109/142/9 122/145/9 45/147/9
f 136/173/9 131/133/9 122/145/9
f 134/174/33 56/175/34 106/176/33
f 98/114/9 2/177/9 94/178/9
f 89/179/35 106/176/33 90/180/35
f 100/181/8 133/182/8 26/183/8
f 107/184/9 7/185/9 101/186/9
f 117/94/13 59/85/15 8/87/15
f 113/187/13 60/29/15 116/22/13
f 118/188/8 125/152/8 66/154/8
f 62/189/9 55/190/9 134/191/9
f 118/192/35 65/193/35 124/194/35
f 121/16/9 79/129/9 97/164/9
f 266/132/8 128/195/8 258/196/8
f 131/133/9 70/197/9 122/145/9
f 111/127/9 12/198/9 11/199/9
f 133/182/8 20/14/8 21/200/8
f 139/201/8 102/202/8 103/150/8
f 107/184/9 257/203/9 265/204/9
f 61/205/8 56/206/8 261/207/8
f 123/135/9 124/208/9 65/162/9
f 132/163/9 14/17/9 121/16/9
f 114/121/14 7/101/5 120/118/14
f 112/209/9 110/210/9 137/134/9
f 119/75/8 108/139/8 46/141/8
f 259/211/9 98/114/9 88/116/9
f 127/131/8 35/212/8 128/195/8
f 140/213/8 103/150/8 108/139/8
f 118/192/35 272/214/35 271/215/35
f 105/148/9 136/173/9 109/142/9
f 126/172/8 140/213/8 119/75/8
f 126/172/8 138/216/8 139/201/8
f 287/217/36 289/218/37 284/219/38
f 321/220/39 277/221/40 318/222/40
f 110/210/9 151/223/9 150/224/9
f 309/155/30 279/225/9 147/226/9
f 138/216/8 158/227/8 156/228/8
f 322/229/41 282/230/42 323/231/43
f 246/232/8 203/233/8 239/234/8
f 135/235/8 166/236/8 167/237/8
f 169/238/9 170/239/9 124/208/9
f 118/188/8 174/240/8 175/241/8
f 179/242/8 61/205/8 178/243/8
f 183/244/9 89/245/9 184/246/9
f 36/247/8 159/248/8 188/249/8
f 51/169/8 300/250/8 115/251/8
f 318/222/40 300/252/44 315/253/45
f 286/254/9 195/255/9 148/256/9
f 272/257/9 168/258/9 199/259/9
f 127/131/8 200/260/8 201/261/8
f 205/262/8 90/263/8 207/264/8
f 90/263/8 180/265/8 207/264/8
f 293/266/46 295/267/37 288/268/47
f 142/269/48 207/270/49 180/271/50
f 201/272/51 184/273/52 164/274/53
f 163/275/54 149/276/55 161/277/56
f 158/278/55 185/279/54 187/280/56
f 163/275/54 172/281/57 171/282/54
f 159/283/58 168/284/59 170/285/58
f 170/285/58 188/286/58 159/283/58
f 180/287/50 141/288/60 142/289/48
f 200/290/60 183/291/61 201/292/51
f 179/293/60 144/294/62 141/288/60
f 192/295/62 200/290/60 202/296/63
f 146/297/64 165/298/65 160/299/64
f 178/300/63 143/301/66 144/294/62
f 194/302/66 202/296/63 203/303/66
f 167/304/67 198/305/68 199/306/67
f 182/307/66 145/308/69 143/301/66
f 195/309/69 203/303/66 204/310/69
f 166/311/68 184/273/52 198/305/68
f 207/270/49 210/312/68 205/313/68
f 148/314/65 204/310/69 165/298/65
f 7/185/9 197/315/9 101/186/9
f 186/316/64 189/317/70 187/280/56
f 132/163/9 153/318/9 154/319/9
f 213/320/71 235/321/72 215/322/72
f 34/323/8 238/324/8 237/325/8
f 151/326/73 147/327/73 160/328/64
f 2/177/9 3/329/9 231/330/9
f 30/331/8 225/332/8 224/333/8
f 218/334/9 216/335/9 6/336/9
f 205/313/68 196/337/67 206/338/67
f 191/339/65 186/340/64 209/341/65
f 155/342/59 199/306/67 168/284/59
f 197/343/59 206/338/67 196/337/67
f 154/344/58 174/345/58 152/346/58
f 152/346/58 173/347/59 197/343/59
f 177/348/57 185/279/54 176/349/54
f 169/350/57 162/351/57 188/286/57
f 175/352/57 153/353/57 177/348/57
f 101/186/9 210/354/9 208/355/9
f 18/356/9 17/357/9 16/358/9
f 135/235/8 155/359/8 35/212/8
f 145/308/69 191/339/65 209/341/65
f 189/360/74 157/361/74 156/228/74
f 323/362/75 321/220/39 320/363/76
f 36/247/8 37/364/8 38/365/8
f 215/322/72 234/366/77 214/367/77
f 214/367/77 237/368/78 217/369/78
f 217/370/78 238/371/79 218/372/79
f 216/373/80 233/374/81 212/375/81
f 211/376/82 233/374/81 219/377/83
f 219/377/83 227/378/84 211/376/82
f 220/379/84 229/380/85 227/378/84
f 230/381/86 223/382/85 224/383/86
f 224/383/86 231/384/87 230/381/86
f 232/385/88 225/386/87 226/387/88
f 216/373/80 238/371/79 236/388/80
f 228/389/89 226/387/88 222/390/89
f 221/391/90 228/389/89 222/390/89
f 242/392/91 270/393/92 240/394/91
f 240/395/9 144/396/9 143/397/9
f 182/398/8 291/399/8 181/400/8
f 305/401/93 306/402/94 267/403/9
f 305/404/93 322/229/41 306/405/94
f 241/406/91 269/407/92 267/408/92
f 243/409/16 240/394/91 245/86/16
f 295/267/37 297/410/95 290/411/37
f 181/400/8 278/412/8 191/413/8
f 293/414/9 194/415/9 195/255/9
f 288/268/47 282/416/96 281/417/97
f 246/418/16 241/406/91 244/28/16
f 247/419/9 248/420/9 249/421/9
f 250/422/8 251/423/8 252/424/8
f 251/425/98 255/426/99 256/427/98
f 253/428/98 248/429/99 247/430/98
f 256/427/98 254/431/99 253/428/98
f 249/421/9 3/329/9 4/432/9
f 42/56/25 247/430/98 4/57/25
f 249/421/9 248/420/9 5/433/9
f 254/431/99 5/97/10 248/429/99
f 252/424/8 251/423/8 32/434/8
f 250/435/99 50/20/10 255/426/99
f 32/436/25 256/427/98 41/46/25
f 91/437/8 34/323/8 33/438/8
f 255/426/99 49/95/10 254/431/99
f 41/46/25 253/428/98 42/56/25
f 120/439/9 265/204/9 259/211/9
f 265/204/9 19/440/9 98/114/9
f 93/124/8 258/196/8 86/441/8
f 19/442/27 261/136/27 56/443/27
f 29/126/8 266/132/8 93/124/8
f 87/113/14 258/444/14 263/120/14
f 87/113/14 264/117/14 85/108/14
f 88/109/14 264/117/14 259/119/14
f 260/84/28 62/445/29 28/446/29
f 267/408/92 28/446/29 62/445/29
f 107/184/9 142/447/9 141/448/9
f 202/449/8 239/234/8 203/233/8
f 134/191/9 183/244/9 193/450/9
f 268/451/8 302/452/100 301/453/101
f 268/454/92 1/137/29 270/393/92
f 271/215/35 274/455/35 273/456/35
f 173/457/8 271/458/8 206/459/8
f 198/460/9 272/257/9 199/259/9
f 273/456/35 89/179/35 90/180/35
f 271/458/8 205/262/8 206/459/8
f 89/245/9 198/460/9 184/246/9
f 299/461/8 189/360/8 190/462/8
f 308/463/102 300/252/44 313/464/103
f 277/465/8 243/466/8 59/467/8
f 245/468/9 143/397/9 145/469/9
f 298/470/95 304/471/104 297/410/95
f 8/472/9 145/469/9 209/473/9
f 290/411/37 296/474/95 289/218/37
f 277/465/8 115/251/8 300/250/8
f 303/475/105 313/476/32 312/477/106
f 102/202/8 157/361/8 189/360/8
f 303/478/107 299/479/108 296/474/95
f 294/480/9 241/481/9 306/402/94
f 117/482/9 209/473/9 186/483/9
f 286/484/37 298/470/95 295/267/37
f 204/485/8 27/486/8 165/487/8
f 288/268/47 290/411/37 287/217/36
f 289/218/37 299/479/108 278/488/37
f 280/489/9 52/490/9 116/491/9
f 284/219/38 278/488/37 291/492/109
f 292/493/8 242/494/8 243/466/8
f 187/495/9 185/496/9 132/163/9
f 282/416/96 284/219/38 283/497/110
f 163/498/8 161/499/8 133/182/8
f 293/266/46 281/417/97 305/500/111
f 279/225/9 148/256/9 146/501/9
f 282/230/42 324/502/112 323/231/43
f 283/497/110 291/492/109 301/503/113
f 285/504/9 244/505/9 294/480/9
f 113/506/8 165/487/8 27/486/8
f 294/507/114 322/508/115 319/509/116
f 285/504/9 116/491/9 60/510/9
f 319/509/116 323/362/75 320/363/76
f 324/511/117 292/512/116 321/220/39
f 324/502/112 301/513/101 302/514/100
f 279/515/108 307/516/118 298/470/95
f 304/471/104 296/474/95 297/410/95
f 310/517/31 307/518/119 309/519/30
f 314/520/120 304/521/121 307/518/119
f 304/521/121 308/522/122 303/475/105
f 280/523/44 314/524/123 310/525/124
f 276/526/45 311/527/125 314/524/123
f 311/527/125 315/253/45 308/463/102
f 285/528/40 276/526/45 280/523/44
f 316/529/40 275/530/126 276/526/45
f 275/530/126 318/222/40 315/253/45
f 294/507/114 316/529/40 285/528/40
f 319/509/116 317/531/40 316/529/40
f 320/363/76 318/222/40 317/531/40
f 359/532/127 351/533/128 360/534/128
f 351/535/128 361/536/129 360/537/128
f 353/538/129 362/539/130 361/536/129
f 354/540/130 363/541/131 362/539/130
f 355/542/131 364/543/132 363/541/131
f 356/544/132 365/545/133 364/543/132
f 357/546/133 366/547/134 365/545/133
f 358/548/134 359/532/127 366/547/134
f 368/549/127 376/550/128 375/551/127
f 367/552/128 377/553/129 376/554/128
f 369/555/129 378/556/130 377/553/129
f 370/557/130 379/558/131 378/556/130
f 371/559/131 380/560/132 379/558/131
f 372/561/132 381/562/133 380/560/132
f 373/563/133 382/564/134 381/562/133
f 374/565/134 375/551/127 382/564/134
f 332/566/135 342/567/136 341/568/135
f 331/569/136 343/570/137 342/567/136
f 333/571/137 344/572/138 343/570/137
f 334/573/138 345/574/139 344/572/138
f 335/575/139 346/576/140 345/574/139
f 337/577/141 341/578/135 347/579/141
f 348/580/142 338/581/143 339/582/142
f 349/583/143 340/584/144 338/581/143
f 336/585/140 350/586/144 346/576/140
f 339/582/142 347/579/141 348/580/142
f 329/587/9 331/588/9 332/589/9
f 329/587/9 333/590/9 331/588/9
f 329/587/9 334/591/9 333/590/9
f 329/587/9 335/592/9 334/591/9
f 329/587/9 336/593/9 335/592/9
f 329/587/9 332/589/9 337/594/9
f 329/587/9 339/595/9 338/596/9
f 329/587/9 338/596/9 340/597/9
f 329/587/9 340/597/9 336/593/9
f 329/587/9 337/594/9 339/595/9
f 330/598/8 341/599/8 342/600/8
f 330/598/8 342/600/8 343/601/8
f 330/598/8 343/601/8 344/602/8
f 330/598/8 344/602/8 345/603/8
f 330/598/8 345/603/8 346/604/8
f 330/598/8 347/605/8 341/599/8
f 330/598/8 349/606/8 348/607/8
f 330/598/8 350/608/8 349/606/8
f 330/598/8 346/604/8 350/608/8
f 330/598/8 348/607/8 347/605/8
f 326/609/9 351/610/9 352/611/9
f 326/609/9 353/612/9 351/610/9
f 326/609/9 354/613/9 353/612/9
f 326/609/9 355/614/9 354/613/9
f 326/609/9 356/615/9 355/614/9
f 326/609/9 357/616/9 356/615/9
f 326/609/9 358/617/9 357/616/9
f 326/609/9 352/611/9 358/617/9
f 325/618/8 359/619/8 360/620/8
f 325/618/8 360/620/8 361/621/8
f 325/618/8 361/621/8 362/622/8
f 325/618/8 362/622/8 363/623/8
f 325/618/8 363/623/8 364/624/8
f 325/618/8 364/624/8 365/625/8
f 325/618/8 365/625/8 366/626/8
f 325/618/8 366/626/8 359/619/8
f 328/627/9 367/628/9 368/629/9
f 328/627/9 369/630/9 367/628/9
f 328/627/9 370/631/9 369/630/9
f 328/627/9 371/632/9 370/631/9
f 328/627/9 372/633/9 371/632/9
f 328/627/9 373/634/9 372/633/9
f 328/627/9 374/635/9 373/634/9
f 328/627/9 368/629/9 374/635/9
f 327/636/8 375/637/8 376/638/8
f 327/636/8 376/638/8 377/639/8
f 327/636/8 377/639/8 378/640/8
f 327/636/8 378/640/8 379/641/8
f 327/636/8 379/641/8 380/642/8
f 327/636/8 380/642/8 381/643/8
f 327/636/8 381/643/8 382/644/8
f 327/636/8 382/644/8 375/637/8
f 393/645/127 385/646/128 394/647/128
f 385/648/128 395/649/129 394/650/128
f 387/651/129 396/652/130 395/649/129
f 388/653/130 397/654/131 396/652/130
f 389/655/131 398/656/132 397/654/131
f 390/657/132 399/658/133 398/656/132
f 391/659/133 400/660/134 399/658/133
f 392/661/134 393/645/127 400/660/134
f 384/662/9 385/663/9 386/664/9
f 384/662/9 387/665/9 385/663/9
f 384/662/9 388/666/9 387/665/9
f 384/662/9 389/667/9 388/666/9
f 384/662/9 390/668/9 389/667/9
f 384/662/9 391/669/9 390/668/9
f 384/662/9 392/670/9 391/669/9
f 384/662/9 386/664/9 392/670/9
f 383/671/8 393/672/8 394/673/8
f 383/671/8 394/673/8 395/674/8
f 383/671/8 395/674/8 396/675/8
f 383/671/8 396/675/8 397/676/8
f 383/671/8 397/676/8 398/677/8
f 383/671/8 398/677/8 399/678/8
f 383/671/8 399/678/8 400/679/8
f 383/671/8 400/679/8 393/672/8
f 29/1/1 31/40/2 54/2/2
f 25/4/3 80/73/4 78/5/4
f 35/7/5 38/44/6 40/8/6
f 24/10/7 25/4/3 44/6/3
f 129/12/8 130/105/8 22/13/8
f 13/15/9 111/127/9 121/16/9
f 33/18/10 34/680/11 58/19/11
f 26/21/12 113/187/13 116/22/13
f 34/24/11 83/681/14 84/25/14
f 27/27/15 246/418/16 244/28/16
f 21/30/17 20/36/18 64/31/18
f 36/33/20 21/682/17 65/34/19
f 20/36/18 22/42/21 70/37/21
f 37/38/22 36/33/20 67/35/20
f 31/40/2 30/683/23 74/41/23
f 22/42/21 23/48/24 76/43/24
f 38/44/6 37/38/22 71/39/22
f 30/45/23 32/436/25 41/46/25
f 23/48/24 24/10/7 45/11/7
f 12/49/24 75/684/24 46/50/7
f 79/52/4 77/685/4 99/53/26
f 3/55/23 73/58/23 42/56/25
f 74/47/23 41/46/25 42/56/25
f 39/59/6 72/62/22 17/60/22
f 40/8/6 71/39/22 72/62/22
f 69/63/21 75/684/24 12/49/24
f 53/65/2 73/68/23 3/66/23
f 54/2/2 74/41/23 73/68/23
f 72/62/22 68/70/20 16/69/20
f 71/39/22 67/35/20 68/70/20
f 63/71/18 69/63/21 13/64/21
f 80/73/4 100/160/26 96/74/26
f 119/75/8 46/141/8 75/76/8
f 68/70/20 66/79/19 15/78/17
f 67/35/20 65/34/19 66/79/19
f 66/80/19 63/71/18 14/72/18
f 29/82/27 55/686/27 262/83/27
f 59/85/15 243/409/16 245/86/16
f 57/88/11 81/91/14 82/89/14
f 58/26/11 84/25/14 81/91/14
f 9/92/12 51/171/12 115/93/13
f 49/95/10 57/98/11 6/96/11
f 50/20/10 58/19/11 57/98/11
f 46/50/7 43/102/3 10/99/3
f 48/100/5 39/59/6 18/61/6
f 47/9/5 40/8/6 39/59/6
f 43/102/3 77/685/4 79/52/4
f 56/103/1 53/65/2 2/67/2
f 55/3/1 54/2/2 53/65/2
f 130/105/8 24/167/8 23/106/8
f 82/107/14 81/111/14 85/108/14
f 84/110/14 87/113/14 85/108/14
f 83/112/14 86/687/14 87/113/14
f 98/114/9 94/178/9 82/115/9
f 264/117/14 114/121/14 120/118/14
f 263/120/14 104/123/14 114/121/14
f 263/120/14 258/444/14 128/122/14
f 93/124/8 95/159/8 31/125/8
f 111/127/9 11/199/9 10/128/9
f 260/130/8 28/688/8 127/131/8
f 131/133/9 112/209/9 137/134/9
f 261/136/28 257/689/28 1/137/29
f 104/123/14 47/9/5 48/100/5
f 108/139/8 77/151/8 43/140/8
f 109/142/9 45/147/9 44/143/9
f 122/145/9 70/197/9 76/146/9
f 105/148/9 109/142/9 78/144/9
f 103/150/8 99/170/8 77/151/8
f 125/152/8 126/172/8 63/153/8
f 309/155/30 110/210/9 105/148/9
f 105/148/9 96/149/9 309/155/30
f 96/149/9 52/490/9 310/156/31
f 129/12/8 100/181/8 80/157/8
f 104/123/14 128/122/14 35/7/5
f 93/124/8 86/441/8 83/158/8
f 100/160/26 26/21/12 52/23/12
f 64/161/9 131/133/9 123/135/9
f 132/163/9 121/16/9 97/164/9
f 130/105/8 80/157/8 25/166/8
f 99/170/8 103/150/8 312/690/106
f 103/150/8 102/202/8 312/690/106
f 312/690/106 313/168/32 99/170/8
f 97/54/26 99/53/26 51/171/12
f 126/172/8 119/75/8 69/77/8
f 109/142/9 136/173/9 122/145/9
f 136/173/9 112/209/9 131/133/9
f 134/174/33 55/691/34 56/175/34
f 98/114/9 19/440/9 2/177/9
f 89/179/35 134/174/33 106/176/33
f 100/181/8 129/12/8 133/182/8
f 107/184/9 120/439/9 7/185/9
f 117/94/13 115/93/13 59/85/15
f 113/187/13 27/27/15 60/29/15
f 62/189/9 262/692/9 55/190/9
f 118/192/35 66/693/35 65/193/35
f 121/16/9 111/127/9 79/129/9
f 266/132/8 127/131/8 128/195/8
f 131/133/9 64/161/9 70/197/9
f 111/127/9 13/15/9 12/198/9
f 133/182/8 129/12/8 20/14/8
f 139/201/8 138/216/8 102/202/8
f 107/184/9 1/694/9 257/203/9
f 61/205/8 106/695/8 56/206/8
f 132/163/9 15/696/9 14/17/9
f 114/121/14 48/100/5 7/101/5
f 112/209/9 105/148/9 110/210/9
f 119/75/8 140/213/8 108/139/8
f 259/211/9 265/204/9 98/114/9
f 127/131/8 135/235/8 35/212/8
f 140/213/8 139/201/8 103/150/8
f 118/192/35 124/194/35 272/214/35
f 105/148/9 112/209/9 136/173/9
f 126/172/8 139/201/8 140/213/8
f 126/172/8 125/152/8 138/216/8
f 287/217/36 290/411/37 289/218/37
f 321/220/39 292/512/116 277/221/40
f 150/224/9 149/697/9 137/134/9
f 137/134/9 110/210/9 150/224/9
f 147/226/9 151/223/9 110/210/9
f 110/210/9 309/155/30 147/226/9
f 156/228/8 157/361/8 102/202/8
f 102/202/8 138/216/8 156/228/8
f 322/229/41 281/698/145 282/230/42
f 246/232/8 204/485/8 203/233/8
f 135/235/8 164/699/8 166/236/8
f 170/239/9 168/258/9 124/208/9
f 124/208/9 123/135/9 169/238/9
f 123/135/9 137/134/9 149/697/9
f 169/238/9 123/135/9 172/700/9
f 149/697/9 171/701/9 123/135/9
f 171/701/9 172/700/9 123/135/9
f 176/702/8 158/227/8 125/152/8
f 158/227/8 138/216/8 125/152/8
f 125/152/8 118/188/8 175/241/8
f 118/188/8 173/457/8 174/240/8
f 175/241/8 177/703/8 125/152/8
f 177/703/8 176/702/8 125/152/8
f 179/242/8 180/265/8 106/695/8
f 106/695/8 61/205/8 179/242/8
f 61/205/8 268/451/8 178/243/8
f 183/244/9 134/191/9 89/245/9
f 188/249/8 162/704/8 133/182/8
f 133/182/8 21/200/8 188/249/8
f 21/200/8 36/247/8 188/249/8
f 51/169/8 313/168/32 300/250/8
f 318/222/40 277/221/40 300/252/44
f 286/254/9 293/414/9 195/255/9
f 272/257/9 124/208/9 168/258/9
f 164/699/8 135/235/8 201/261/8
f 135/235/8 127/131/8 201/261/8
f 127/131/8 28/688/8 200/260/8
f 28/688/8 269/705/8 202/449/8
f 200/260/8 28/688/8 202/449/8
f 205/262/8 273/706/8 90/263/8
f 90/263/8 106/695/8 180/265/8
f 293/266/46 286/484/37 295/267/37
f 142/269/48 208/707/53 207/270/49
f 201/272/51 183/708/61 184/273/52
f 171/282/54 149/276/55 163/275/54
f 149/276/55 150/709/146 161/277/56
f 187/280/56 156/710/146 158/278/55
f 158/278/55 176/349/54 185/279/54
f 163/275/54 162/351/57 172/281/57
f 159/283/58 155/342/59 168/284/59
f 170/285/58 169/350/58 188/286/58
f 180/287/50 179/293/60 141/288/60
f 200/290/60 193/711/60 183/291/61
f 179/293/60 178/300/63 144/294/62
f 192/295/62 193/711/60 200/290/60
f 146/297/64 148/314/65 165/298/65
f 178/300/63 182/307/66 143/301/66
f 194/302/66 192/295/62 202/296/63
f 167/304/67 166/311/68 198/305/68
f 182/307/66 181/712/69 145/308/69
f 195/309/69 194/302/66 203/303/66
f 166/311/68 164/274/53 184/273/52
f 207/270/49 208/707/53 210/312/68
f 148/314/65 195/309/69 204/310/69
f 18/356/9 197/315/9 7/185/9
f 197/315/9 196/713/9 101/186/9
f 190/714/64 189/317/70 186/316/64
f 189/317/70 156/710/146 187/280/56
f 154/319/9 152/715/9 16/358/9
f 16/358/9 15/696/9 154/319/9
f 15/696/9 132/163/9 154/319/9
f 213/320/71 221/391/90 235/321/72
f 95/159/8 83/158/8 221/716/8
f 83/158/8 34/323/8 237/325/8
f 34/323/8 91/437/8 219/717/8
f 34/323/8 219/717/8 233/718/8
f 235/719/8 221/716/8 83/158/8
f 234/720/8 235/719/8 83/158/8
f 34/323/8 233/718/8 236/721/8
f 34/323/8 236/721/8 238/324/8
f 237/325/8 234/720/8 83/158/8
f 147/327/73 146/722/64 160/328/64
f 160/328/64 161/277/56 151/326/73
f 161/277/56 150/709/146 151/326/73
f 213/723/9 94/178/9 2/177/9
f 3/329/9 92/724/9 227/725/9
f 92/724/9 211/726/9 227/725/9
f 228/727/9 213/723/9 2/177/9
f 232/728/9 228/727/9 2/177/9
f 3/329/9 227/725/9 229/729/9
f 3/329/9 229/729/9 230/730/9
f 231/330/9 232/728/9 2/177/9
f 3/329/9 230/730/9 231/330/9
f 219/717/8 91/437/8 220/731/8
f 91/437/8 30/331/8 220/731/8
f 30/331/8 31/125/8 225/332/8
f 31/125/8 95/159/8 221/716/8
f 225/332/8 31/125/8 226/732/8
f 221/716/8 222/733/8 31/125/8
f 222/733/8 226/732/8 31/125/8
f 223/734/8 220/731/8 30/331/8
f 224/333/8 223/734/8 30/331/8
f 211/726/9 92/724/9 6/336/9
f 6/336/9 82/115/9 217/735/9
f 82/115/9 94/178/9 213/723/9
f 6/336/9 217/735/9 218/334/9
f 213/723/9 215/736/9 82/115/9
f 215/736/9 214/737/9 82/115/9
f 212/738/9 211/726/9 6/336/9
f 216/335/9 212/738/9 6/336/9
f 214/737/9 217/735/9 82/115/9
f 205/313/68 210/312/68 196/337/67
f 191/339/65 190/739/64 186/340/64
f 155/342/59 167/304/67 199/306/67
f 197/343/59 173/347/59 206/338/67
f 154/344/58 175/352/58 174/345/58
f 152/346/58 174/345/58 173/347/59
f 177/348/57 153/353/57 185/279/54
f 169/350/57 172/281/57 162/351/57
f 175/352/57 154/344/57 153/353/57
f 101/186/9 196/713/9 210/354/9
f 152/715/9 197/315/9 16/358/9
f 197/315/9 18/356/9 16/358/9
f 167/237/8 155/359/8 135/235/8
f 155/359/8 38/365/8 35/212/8
f 145/308/69 181/712/69 191/339/65
f 323/362/75 324/511/117 321/220/39
f 38/365/8 155/359/8 36/247/8
f 155/359/8 159/248/8 36/247/8
f 215/322/72 235/321/72 234/366/77
f 214/367/77 234/366/77 237/368/78
f 217/370/78 237/740/78 238/371/79
f 216/373/80 236/388/80 233/374/81
f 211/376/82 212/375/81 233/374/81
f 219/377/83 220/379/84 227/378/84
f 220/379/84 223/382/85 229/380/85
f 230/381/86 229/380/85 223/382/85
f 224/383/86 225/386/87 231/384/87
f 232/385/88 231/384/87 225/386/87
f 216/373/80 218/372/79 238/371/79
f 228/389/89 232/385/88 226/387/88
f 221/391/90 213/320/71 228/389/89
f 242/392/91 268/454/92 270/393/92
f 240/395/9 270/741/9 144/396/9
f 182/398/8 301/453/101 291/399/8
f 192/742/9 194/415/9 305/401/93
f 306/402/94 241/481/9 267/403/9
f 192/742/9 305/401/93 267/403/9
f 305/404/93 281/698/145 322/229/41
f 241/406/91 239/743/91 269/407/92
f 243/409/16 242/392/91 240/394/91
f 295/267/37 298/470/95 297/410/95
f 181/400/8 291/399/8 278/412/8
f 293/414/9 305/401/93 194/415/9
f 288/268/47 287/217/36 282/416/96
f 246/418/16 239/743/91 241/406/91
f 251/425/98 250/435/99 255/426/99
f 253/428/98 254/431/99 248/429/99
f 256/427/98 255/426/99 254/431/99
f 4/432/9 247/419/9 249/421/9
f 249/421/9 92/724/9 3/329/9
f 42/56/25 253/428/98 247/430/98
f 5/433/9 6/336/9 92/724/9
f 92/724/9 249/421/9 5/433/9
f 254/431/99 49/95/10 5/97/10
f 32/434/8 30/331/8 252/424/8
f 30/331/8 91/437/8 252/424/8
f 250/435/99 33/18/10 50/20/10
f 32/436/25 251/425/98 256/427/98
f 33/438/8 250/422/8 252/424/8
f 252/424/8 91/437/8 33/438/8
f 255/426/99 50/20/10 49/95/10
f 41/46/25 256/427/98 253/428/98
f 120/439/9 107/184/9 265/204/9
f 265/204/9 257/203/9 19/440/9
f 93/124/8 266/132/8 258/196/8
f 19/442/27 257/689/27 261/136/27
f 29/126/8 260/130/8 266/132/8
f 87/113/14 86/687/14 258/444/14
f 87/113/14 263/120/14 264/117/14
f 88/109/14 85/108/14 264/117/14
f 260/84/28 262/83/28 62/445/29
f 267/408/92 269/407/92 28/446/29
f 141/448/9 144/396/9 1/694/9
f 144/396/9 270/741/9 1/694/9
f 1/694/9 107/184/9 141/448/9
f 107/184/9 101/186/9 142/447/9
f 101/186/9 208/355/9 142/447/9
f 202/449/8 269/705/8 239/234/8
f 193/450/9 192/742/9 62/189/9
f 192/742/9 267/403/9 62/189/9
f 62/189/9 134/191/9 193/450/9
f 182/398/8 178/243/8 301/453/101
f 178/243/8 268/451/8 301/453/101
f 268/451/8 242/494/8 302/452/100
f 268/454/92 61/138/29 1/137/29
f 271/215/35 272/214/35 274/455/35
f 173/457/8 118/188/8 271/458/8
f 198/460/9 274/744/9 272/257/9
f 273/456/35 274/455/35 89/179/35
f 271/458/8 273/706/8 205/262/8
f 89/245/9 274/744/9 198/460/9
f 190/462/8 191/413/8 299/461/8
f 191/413/8 278/412/8 299/461/8
f 308/463/102 315/253/45 300/252/44
f 277/465/8 292/493/8 243/466/8
f 245/468/9 240/395/9 143/397/9
f 298/470/95 307/516/118 304/471/104
f 8/472/9 245/468/9 145/469/9
f 290/411/37 297/410/95 296/474/95
f 277/465/8 59/467/8 115/251/8
f 303/475/105 308/522/122 313/476/32
f 189/360/8 299/461/8 312/690/106
f 312/690/106 102/202/8 189/360/8
f 303/478/107 312/745/104 299/479/108
f 294/480/9 244/505/9 241/481/9
f 117/482/9 8/472/9 209/473/9
f 286/484/37 279/515/108 298/470/95
f 204/485/8 246/232/8 27/486/8
f 288/268/47 295/267/37 290/411/37
f 289/218/37 296/474/95 299/479/108
f 280/489/9 310/156/31 52/490/9
f 284/219/38 289/218/37 278/488/37
f 292/493/8 302/452/100 242/494/8
f 132/163/9 9/165/9 187/495/9
f 9/165/9 117/482/9 186/483/9
f 187/495/9 9/165/9 186/483/9
f 185/496/9 153/318/9 132/163/9
f 282/416/96 287/217/36 284/219/38
f 161/499/8 160/746/8 26/183/8
f 160/746/8 113/506/8 26/183/8
f 26/183/8 133/182/8 161/499/8
f 133/182/8 162/704/8 163/498/8
f 293/266/46 288/268/47 281/417/97
f 146/501/9 147/226/9 279/225/9
f 279/225/9 286/254/9 148/256/9
f 282/230/42 283/747/147 324/502/112
f 283/497/110 284/219/38 291/492/109
f 285/504/9 60/510/9 244/505/9
f 113/506/8 160/746/8 165/487/8
f 294/507/114 306/748/148 322/508/115
f 285/504/9 280/489/9 116/491/9
f 319/509/116 322/508/115 323/362/75
f 324/511/117 302/749/149 292/512/116
f 324/502/112 283/747/147 301/513/101
f 279/515/108 309/750/104 307/516/118
f 304/471/104 303/478/107 296/474/95
f 310/517/31 314/520/120 307/518/119
f 314/520/120 311/751/150 304/521/121
f 304/521/121 311/751/150 308/522/122
f 280/523/44 276/526/45 314/524/123
f 276/526/45 275/530/126 311/527/125
f 311/527/125 275/530/126 315/253/45
f 285/528/40 316/529/40 276/526/45
f 316/529/40 317/531/40 275/530/126
f 275/530/126 317/531/40 318/222/40
f 294/507/114 319/509/116 316/529/40
f 319/509/116 320/363/76 317/531/40
f 320/363/76 321/220/39 318/222/40
f 359/532/127 352/752/127 351/533/128
f 351/535/128 353/538/129 361/536/129
f 353/538/129 354/540/130 362/539/130
f 354/540/130 355/542/131 363/541/131
f 355/542/131 356/544/132 364/543/132
f 356/544/132 357/546/133 365/545/133
f 357/546/133 358/548/134 366/547/134
f 358/548/134 352/752/127 359/532/127
f 368/549/127 367/753/128 376/550/128
f 367/552/128 369/555/129 377/553/129
f 369/555/129 370/557/130 378/556/130
f 370/557/130 371/559/131 379/558/131
f 371/559/131 372/561/132 380/560/132
f 372/561/132 373/563/133 381/562/133
f 373/563/133 374/565/134 382/564/134
f 374/565/134 368/549/127 375/551/127
f 332/566/135 331/569/136 342/567/136
f 331/569/136 333/571/137 343/570/137
f 333/571/137 334/573/138 344/572/138
f 334/573/138 335/575/139 345/574/139
f 335/575/139 336/585/140 346/576/140
f 337/577/141 332/754/135 341/578/135
f 348/580/142 349/583/143 338/581/143
f 349/583/143 350/586/144 340/584/144
f 336/585/140 340/584/144 350/586/144
f 339/582/142 337/577/141 347/579/141
f 393/645/127 386/755/127 385/646/128
f 385/648/128 387/651/129 395/649/129
f 387/651/129 388/653/130 396/652/130
f 388/653/130 389/655/131 397/654/131
f 389/655/131 390/657/132 398/656/132
f 390/657/132 391/659/133 399/658/133
f 391/659/133 392/661/134 400/660/134
f 392/661/134 386/755/127 393/645/127
